<svg width="642" height="376" viewBox="0 0 642 376" fill="none" xmlns="http://www.w3.org/2000/svg">
<g opacity="0.95">
<g filter="url(#filter0_bi_3452_1404)">
<path d="M614.919 0.563477H27.0774C12.4336 0.563477 0.5625 12.426 0.5625 27.0592V348.391C0.5625 363.024 12.4336 374.887 27.0774 374.887H614.919C629.563 374.887 641.434 363.024 641.434 348.391V27.0592C641.434 12.426 629.563 0.563477 614.919 0.563477Z" fill="white" fill-opacity="0.32"/>
</g>
<path d="M38.0469 309.544H42.4126L48.2592 323.804H48.49L54.3366 309.544H58.7024V329.224H55.279V315.704H55.0963L49.6535 329.167H47.0957L41.6529 315.675H41.4702V329.224H38.0469V309.544ZM62.4334 329.224V314.464H65.8087V316.924H65.9626C66.2318 316.072 66.6934 315.416 67.3472 314.955C68.0076 314.487 68.7609 314.253 69.6071 314.253C69.7994 314.253 70.0142 314.262 70.2514 314.282C70.495 314.295 70.6969 314.317 70.8571 314.349V317.549C70.7098 317.497 70.4758 317.453 70.1552 317.415C69.8411 317.37 69.5366 317.347 69.2416 317.347C68.607 317.347 68.0364 317.485 67.53 317.76C67.03 318.029 66.6357 318.404 66.3472 318.885C66.0587 319.365 65.9145 319.919 65.9145 320.547V329.224H62.4334ZM73.6218 329.436C73.0385 329.436 72.5384 329.231 72.1217 328.82C71.7051 328.41 71.4998 327.911 71.5062 327.321C71.4998 326.745 71.7051 326.252 72.1217 325.842C72.5384 325.431 73.0385 325.227 73.6218 325.227C74.1859 325.227 74.6764 325.431 75.0931 325.842C75.5162 326.252 75.7309 326.745 75.7374 327.321C75.7309 327.712 75.6284 328.067 75.4297 328.389C75.2373 328.709 74.9809 328.965 74.6604 329.156C74.3463 329.342 74 329.436 73.6218 329.436ZM93.3638 309.544H96.9025V323.381C96.8962 324.65 96.6268 325.742 96.0947 326.658C95.5626 327.568 94.8191 328.269 93.8639 328.763C92.9151 329.25 91.8091 329.494 90.5462 329.494C89.3923 329.494 88.3537 329.288 87.4307 328.878C86.5139 328.462 85.7863 327.846 85.2477 327.033C84.7092 326.219 84.44 325.207 84.44 323.997H87.9884C87.9948 324.528 88.1101 324.986 88.3345 325.37C88.5653 325.755 88.8827 326.05 89.2865 326.254C89.6904 326.46 90.1552 326.562 90.6808 326.562C91.2514 326.562 91.7354 326.444 92.1329 326.207C92.5303 325.963 92.8317 325.605 93.0368 325.13C93.2484 324.657 93.3574 324.074 93.3638 323.381V309.544ZM104.869 329.522C103.934 329.522 103.09 329.355 102.34 329.022C101.597 328.683 101.007 328.183 100.571 327.523C100.142 326.863 99.9268 326.05 99.9268 325.083C99.9268 324.25 100.081 323.561 100.388 323.016C100.696 322.472 101.116 322.036 101.648 321.709C102.18 321.382 102.78 321.137 103.446 320.97C104.12 320.797 104.815 320.672 105.533 320.595C106.398 320.505 107.1 320.425 107.639 320.355C108.177 320.278 108.568 320.163 108.812 320.009C109.062 319.849 109.187 319.602 109.187 319.268V319.211C109.187 318.487 108.972 317.927 108.543 317.53C108.113 317.133 107.495 316.933 106.687 316.933C105.834 316.933 105.158 317.119 104.658 317.492C104.164 317.862 103.831 318.301 103.658 318.807L100.408 318.346C100.664 317.45 101.087 316.7 101.677 316.098C102.267 315.489 102.988 315.035 103.841 314.734C104.693 314.426 105.636 314.273 106.668 314.273C107.379 314.273 108.088 314.355 108.793 314.522C109.498 314.689 110.142 314.964 110.726 315.348C111.309 315.726 111.777 316.242 112.13 316.895C112.489 317.549 112.668 318.365 112.668 319.346V329.224H109.322V327.197H109.206C108.995 327.606 108.697 327.991 108.312 328.349C107.934 328.702 107.456 328.987 106.879 329.205C106.309 329.416 105.639 329.522 104.869 329.522ZM105.773 326.966C106.472 326.966 107.078 326.828 107.591 326.553C108.104 326.271 108.498 325.899 108.774 325.438C109.056 324.977 109.197 324.474 109.197 323.929V322.19C109.088 322.28 108.902 322.363 108.639 322.44C108.383 322.517 108.094 322.584 107.774 322.642C107.453 322.699 107.136 322.751 106.822 322.795C106.507 322.84 106.235 322.879 106.004 322.911C105.485 322.981 105.02 323.096 104.61 323.256C104.2 323.416 103.876 323.641 103.639 323.929C103.401 324.211 103.283 324.577 103.283 325.025C103.283 325.666 103.517 326.149 103.985 326.475C104.453 326.802 105.049 326.966 105.773 326.966ZM119.342 324.592L119.332 320.394H119.89L125.198 314.464H129.265L122.736 321.729H122.015L119.342 324.592ZM116.168 329.224V309.544H119.649V329.224H116.168ZM125.438 329.224L120.631 322.508L122.976 320.057L129.602 329.224H125.438ZM137.42 329.513C135.978 329.513 134.728 329.195 133.67 328.561C132.612 327.926 131.792 327.039 131.208 325.899C130.631 324.759 130.343 323.427 130.343 321.902C130.343 320.377 130.631 319.042 131.208 317.895C131.792 316.749 132.612 315.858 133.67 315.223C134.728 314.589 135.978 314.273 137.42 314.273C138.863 314.273 140.113 314.589 141.17 315.223C142.228 315.858 143.045 316.749 143.623 317.895C144.206 319.042 144.497 320.377 144.497 321.902C144.497 323.427 144.206 324.759 143.623 325.899C143.045 327.039 142.228 327.926 141.17 328.561C140.113 329.195 138.863 329.513 137.42 329.513ZM137.439 326.726C138.222 326.726 138.875 326.511 139.401 326.082C139.927 325.647 140.318 325.064 140.574 324.333C140.837 323.602 140.968 322.79 140.968 321.892C140.968 320.989 140.837 320.173 140.574 319.442C140.318 318.705 139.927 318.12 139.401 317.683C138.875 317.248 138.222 317.03 137.439 317.03C136.638 317.03 135.971 317.248 135.44 317.683C134.914 318.12 134.519 318.705 134.256 319.442C134 320.173 133.872 320.989 133.872 321.892C133.872 322.79 134 323.602 134.256 324.333C134.519 325.064 134.914 325.647 135.44 326.082C135.971 326.511 136.638 326.726 137.439 326.726ZM147.606 329.224V309.544H151.087V316.905H151.231C151.411 316.547 151.664 316.166 151.992 315.762C152.318 315.352 152.76 315.002 153.318 314.715C153.876 314.419 154.588 314.273 155.453 314.273C156.594 314.273 157.623 314.563 158.539 315.146C159.463 315.724 160.193 316.578 160.733 317.713C161.277 318.84 161.549 320.223 161.549 321.864C161.549 323.484 161.283 324.862 160.752 325.995C160.219 327.129 159.495 327.994 158.579 328.59C157.661 329.186 156.623 329.483 155.462 329.483C154.616 329.483 153.914 329.342 153.357 329.061C152.798 328.779 152.35 328.439 152.011 328.042C151.677 327.639 151.417 327.258 151.231 326.899H151.029V329.224H147.606ZM151.02 321.845C151.02 322.799 151.154 323.635 151.424 324.352C151.699 325.069 152.093 325.63 152.607 326.033C153.126 326.431 153.754 326.63 154.491 326.63C155.26 326.63 155.905 326.425 156.424 326.014C156.944 325.598 157.334 325.031 157.597 324.314C157.867 323.59 158.001 322.767 158.001 321.845C158.001 320.928 157.87 320.114 157.607 319.404C157.344 318.692 156.953 318.135 156.434 317.732C155.915 317.328 155.267 317.126 154.491 317.126C153.747 317.126 153.117 317.321 152.596 317.713C152.077 318.103 151.684 318.651 151.414 319.355C151.151 320.06 151.02 320.89 151.02 321.845ZM171.379 309.544H175.746L181.592 323.804H181.823L187.669 309.544H192.035V329.224H188.612V315.704H188.429L182.986 329.167H180.428L174.985 315.675H174.803V329.224H171.379V309.544ZM200.016 329.522C199.081 329.522 198.237 329.355 197.488 329.022C196.744 328.683 196.154 328.183 195.718 327.523C195.289 326.863 195.073 326.05 195.073 325.083C195.073 324.25 195.228 323.561 195.536 323.016C195.843 322.472 196.263 322.036 196.795 321.709C197.328 321.382 197.927 321.137 198.594 320.97C199.266 320.797 199.962 320.672 200.68 320.595C201.545 320.505 202.247 320.425 202.786 320.355C203.325 320.278 203.716 320.163 203.959 320.009C204.209 319.849 204.334 319.602 204.334 319.268V319.211C204.334 318.487 204.12 317.927 203.69 317.53C203.26 317.133 202.642 316.933 201.834 316.933C200.981 316.933 200.305 317.119 199.805 317.492C199.311 317.862 198.978 318.301 198.805 318.807L195.555 318.346C195.811 317.45 196.234 316.7 196.824 316.098C197.413 315.489 198.135 315.035 198.987 314.734C199.84 314.426 200.782 314.273 201.815 314.273C202.527 314.273 203.234 314.355 203.939 314.522C204.645 314.689 205.289 314.964 205.872 315.348C206.457 315.726 206.924 316.242 207.277 316.895C207.636 317.549 207.815 318.365 207.815 319.346V329.224H204.469V327.197H204.354C204.141 327.606 203.844 327.991 203.459 328.349C203.081 328.702 202.604 328.987 202.026 329.205C201.456 329.416 200.786 329.522 200.016 329.522ZM200.92 326.966C201.62 326.966 202.226 326.828 202.738 326.553C203.251 326.271 203.645 325.899 203.92 325.438C204.202 324.977 204.343 324.474 204.343 323.929V322.19C204.235 322.28 204.049 322.363 203.786 322.44C203.53 322.517 203.241 322.584 202.921 322.642C202.6 322.699 202.283 322.751 201.968 322.795C201.655 322.84 201.382 322.879 201.151 322.911C200.632 322.981 200.168 323.096 199.757 323.256C199.346 323.416 199.022 323.641 198.785 323.929C198.548 324.211 198.43 324.577 198.43 325.025C198.43 325.666 198.664 326.149 199.132 326.475C199.6 326.802 200.196 326.966 200.92 326.966ZM214.797 320.576V329.224H211.315V314.464H214.642V316.973H214.816C215.156 316.146 215.697 315.489 216.441 315.002C217.191 314.516 218.118 314.273 219.22 314.273C220.239 314.273 221.127 314.49 221.884 314.925C222.647 315.362 223.237 315.992 223.653 316.818C224.076 317.645 224.285 318.647 224.278 319.827V329.224H220.797V320.364C220.797 319.378 220.54 318.605 220.028 318.049C219.521 317.492 218.819 317.213 217.921 317.213C217.313 317.213 216.772 317.347 216.297 317.617C215.828 317.878 215.46 318.26 215.191 318.76C214.928 319.259 214.797 319.865 214.797 320.576ZM234.241 335.067C232.991 335.067 231.917 334.896 231.019 334.557C230.122 334.224 229.401 333.776 228.856 333.212C228.311 332.648 227.933 332.024 227.721 331.338L230.856 330.579C230.997 330.867 231.201 331.152 231.471 331.434C231.741 331.723 232.103 331.959 232.558 332.145C233.019 332.337 233.599 332.434 234.298 332.434C235.286 332.434 236.103 332.194 236.75 331.712C237.398 331.239 237.722 330.458 237.722 329.368V326.572H237.548C237.369 326.931 237.106 327.299 236.759 327.677C236.42 328.055 235.968 328.372 235.404 328.629C234.846 328.885 234.144 329.012 233.298 329.012C232.164 329.012 231.135 328.747 230.212 328.215C229.294 327.677 228.563 326.877 228.018 325.812C227.48 324.743 227.211 323.404 227.211 321.796C227.211 320.175 227.48 318.807 228.018 317.693C228.563 316.572 229.298 315.724 230.221 315.146C231.144 314.563 232.173 314.273 233.308 314.273C234.173 314.273 234.885 314.419 235.443 314.715C236.007 315.002 236.456 315.352 236.789 315.762C237.123 316.166 237.375 316.547 237.548 316.905H237.741V314.464H241.173V329.464C241.173 330.726 240.872 331.771 240.269 332.596C239.667 333.423 238.843 334.042 237.798 334.451C236.754 334.861 235.568 335.067 234.241 335.067ZM234.269 326.284C235.007 326.284 235.634 326.104 236.155 325.746C236.674 325.387 237.067 324.871 237.337 324.199C237.606 323.526 237.741 322.719 237.741 321.777C237.741 320.848 237.606 320.034 237.337 319.336C237.074 318.638 236.683 318.097 236.164 317.713C235.651 317.321 235.019 317.126 234.269 317.126C233.494 317.126 232.846 317.328 232.327 317.732C231.807 318.135 231.417 318.689 231.154 319.394C230.891 320.093 230.759 320.886 230.759 321.777C230.759 322.68 230.891 323.472 231.154 324.15C231.422 324.824 231.817 325.348 232.336 325.727C232.862 326.098 233.506 326.284 234.269 326.284ZM251.185 329.513C249.741 329.513 248.491 329.195 247.434 328.561C246.376 327.926 245.555 327.039 244.972 325.899C244.396 324.759 244.107 323.427 244.107 321.902C244.107 320.377 244.396 319.042 244.972 317.895C245.555 316.749 246.376 315.858 247.434 315.223C248.491 314.589 249.741 314.273 251.185 314.273C252.626 314.273 253.877 314.589 254.934 315.223C255.992 315.858 256.809 316.749 257.387 317.895C257.97 319.042 258.261 320.377 258.261 321.902C258.261 323.427 257.97 324.759 257.387 325.899C256.809 327.039 255.992 327.926 254.934 328.561C253.877 329.195 252.626 329.513 251.185 329.513ZM251.204 326.726C251.986 326.726 252.639 326.511 253.165 326.082C253.69 325.647 254.082 325.064 254.338 324.333C254.601 323.602 254.732 322.79 254.732 321.892C254.732 320.989 254.601 320.173 254.338 319.442C254.082 318.705 253.69 318.12 253.165 317.683C252.639 317.248 251.986 317.03 251.204 317.03C250.402 317.03 249.735 317.248 249.203 317.683C248.677 318.12 248.284 318.705 248.021 319.442C247.764 320.173 247.636 320.989 247.636 321.892C247.636 322.79 247.764 323.602 248.021 324.333C248.284 325.064 248.677 325.647 249.203 326.082C249.735 326.511 250.402 326.726 251.204 326.726Z" fill="white"/>
<path opacity="0.6" d="M48.054 239.384C46.7975 239.376 45.571 239.158 44.3742 238.731C43.1775 238.295 42.1006 237.59 41.1432 236.617C40.1858 235.634 39.4252 234.332 38.861 232.71C38.2969 231.078 38.0191 229.058 38.0275 226.649C38.0275 224.402 38.267 222.4 38.7456 220.64C39.2243 218.881 39.9124 217.394 40.8099 216.182C41.7074 214.96 42.7886 214.029 44.0538 213.388C45.3273 212.747 46.7505 212.427 48.3232 212.427C49.973 212.427 51.4346 212.752 52.7082 213.401C53.9904 214.05 55.0246 214.938 55.811 216.066C56.5975 217.185 57.0847 218.449 57.2727 219.859H52.5928C52.3535 218.851 51.862 218.048 51.1184 217.45C50.3833 216.844 49.4515 216.54 48.3232 216.54C46.5026 216.54 45.1008 217.331 44.1178 218.91C43.1433 220.491 42.6519 222.66 42.6434 225.419H42.8228C43.2417 224.667 43.7844 224.022 44.4511 223.484C45.1179 222.947 45.8701 222.532 46.7077 222.242C47.554 221.942 48.4472 221.793 49.3874 221.793C50.9261 221.793 52.3064 222.161 53.5288 222.895C54.7597 223.63 55.7341 224.641 56.4521 225.931C57.1702 227.213 57.5248 228.682 57.5163 230.338C57.5248 232.065 57.1317 233.615 56.3367 234.989C55.5418 236.357 54.4349 237.433 53.0159 238.218C51.5971 239.004 49.9431 239.393 48.054 239.384ZM48.0284 235.541C48.96 235.541 49.7935 235.314 50.5286 234.862C51.2637 234.409 51.845 233.799 52.2723 233.03C52.6997 232.261 52.9091 231.398 52.9006 230.441C52.9091 229.502 52.7039 228.652 52.2851 227.892C51.8749 227.132 51.3064 226.53 50.5798 226.086C49.8533 225.641 49.0242 225.419 48.0925 225.419C47.4002 225.419 46.7548 225.551 46.1564 225.816C45.5581 226.081 45.0367 226.449 44.5922 226.918C44.1477 227.379 43.7973 227.918 43.5408 228.532C43.2929 229.139 43.1648 229.788 43.1562 230.479C43.1648 231.394 43.3785 232.235 43.7973 233.004C44.2161 233.773 44.7931 234.387 45.5282 234.848C46.2633 235.311 47.0967 235.541 48.0284 235.541ZM64.2559 239.026L75.4234 216.937V216.758H62.4608V212.786H80.3468V216.848L69.1922 239.026H64.2559ZM94.7537 239.384C92.9074 239.384 91.2661 239.069 89.8302 238.436C88.4028 237.805 87.2745 236.924 86.4453 235.797C85.6162 234.669 85.1759 233.367 85.1247 231.889H89.9456C89.9884 232.598 90.2234 233.217 90.6508 233.747C91.0782 234.268 91.6466 234.674 92.3561 234.964C93.0654 235.254 93.8604 235.4 94.7408 235.4C95.6811 235.4 96.5145 235.237 97.241 234.913C97.9675 234.58 98.536 234.119 98.9463 233.529C99.3566 232.94 99.5574 232.261 99.549 231.492C99.5574 230.698 99.3523 229.997 98.9335 229.391C98.5146 228.785 97.9077 228.31 97.1129 227.968C96.3264 227.627 95.3777 227.457 94.2664 227.457H91.9457V223.792H94.2664C95.181 223.792 95.9803 223.633 96.664 223.318C97.3565 223.002 97.8992 222.558 98.2924 221.985C98.6856 221.404 98.878 220.735 98.8694 219.974C98.878 219.231 98.7112 218.586 98.3693 218.039C98.0359 217.484 97.5616 217.052 96.9461 216.746C96.3393 216.438 95.6255 216.284 94.8049 216.284C94.0015 216.284 93.2578 216.429 92.5739 216.72C91.8902 217.009 91.3388 217.424 90.92 217.962C90.5012 218.492 90.2789 219.123 90.2533 219.859H85.676C85.7102 218.389 86.1333 217.1 86.9453 215.989C87.7659 214.871 88.8601 213.999 90.2277 213.376C91.5953 212.743 93.1296 212.427 94.8305 212.427C96.5829 212.427 98.1044 212.757 99.3951 213.414C100.694 214.063 101.699 214.938 102.408 216.041C103.118 217.142 103.472 218.359 103.472 219.692C103.481 221.17 103.045 222.408 102.164 223.408C101.293 224.407 100.147 225.061 98.7283 225.367V225.573C100.575 225.829 101.989 226.513 102.972 227.622C103.964 228.725 104.455 230.096 104.447 231.735C104.447 233.204 104.028 234.52 103.19 235.682C102.361 236.835 101.216 237.74 99.7541 238.398C98.301 239.056 96.6341 239.384 94.7537 239.384ZM119.626 239.384C117.72 239.384 116.027 239.064 114.549 238.424C113.079 237.783 111.925 236.907 111.087 235.797C110.258 234.678 109.847 233.41 109.856 231.991C109.847 230.89 110.087 229.877 110.574 228.955C111.061 228.033 111.719 227.264 112.548 226.649C113.386 226.026 114.318 225.628 115.343 225.458V225.278C113.993 224.98 112.9 224.292 112.061 223.215C111.232 222.13 110.822 220.879 110.83 219.462C110.822 218.112 111.198 216.908 111.959 215.848C112.719 214.789 113.763 213.956 115.087 213.35C116.412 212.735 117.925 212.427 119.626 212.427C121.31 212.427 122.81 212.735 124.126 213.35C125.452 213.956 126.494 214.789 127.255 215.848C128.024 216.908 128.409 218.112 128.409 219.462C128.409 220.879 127.986 222.13 127.14 223.215C126.301 224.292 125.22 224.98 123.896 225.278V225.458C124.921 225.628 125.844 226.026 126.665 226.649C127.494 227.264 128.152 228.033 128.639 228.955C129.136 229.877 129.383 230.89 129.383 231.991C129.383 233.41 128.964 234.678 128.127 235.797C127.289 236.907 126.136 237.783 124.665 238.424C123.203 239.064 121.523 239.384 119.626 239.384ZM119.626 235.72C120.609 235.72 121.463 235.553 122.19 235.22C122.917 234.879 123.481 234.401 123.882 233.785C124.284 233.171 124.489 232.461 124.498 231.659C124.489 230.821 124.272 230.082 123.844 229.442C123.425 228.793 122.849 228.284 122.113 227.918C121.387 227.55 120.557 227.366 119.626 227.366C118.685 227.366 117.848 227.55 117.113 227.918C116.378 228.284 115.797 228.793 115.369 229.442C114.951 230.082 114.745 230.821 114.753 231.659C114.745 232.461 114.942 233.171 115.343 233.785C115.745 234.392 116.309 234.866 117.036 235.208C117.771 235.55 118.635 235.72 119.626 235.72ZM119.626 223.766C120.43 223.766 121.139 223.604 121.754 223.279C122.378 222.955 122.87 222.502 123.229 221.922C123.588 221.34 123.772 220.67 123.78 219.909C123.772 219.158 123.592 218.5 123.241 217.936C122.892 217.365 122.404 216.925 121.78 216.617C121.156 216.301 120.438 216.143 119.626 216.143C118.797 216.143 118.066 216.301 117.433 216.617C116.809 216.925 116.323 217.365 115.972 217.936C115.63 218.5 115.463 219.158 115.472 219.909C115.463 220.67 115.634 221.34 115.984 221.922C116.344 222.493 116.835 222.947 117.459 223.279C118.092 223.604 118.814 223.766 119.626 223.766ZM147.03 223.996V227.815H135.209V223.996H147.03ZM163.985 212.786V239.026H159.228V217.412H159.075L152.934 221.332V216.976L159.46 212.786H163.985ZM172.097 239.026V235.592L181.213 226.662C182.085 225.782 182.812 225.001 183.393 224.318C183.974 223.633 184.41 222.971 184.701 222.331C184.991 221.691 185.136 221.007 185.136 220.281C185.136 219.453 184.949 218.743 184.572 218.155C184.196 217.556 183.68 217.095 183.021 216.77C182.363 216.446 181.615 216.284 180.778 216.284C179.913 216.284 179.158 216.464 178.508 216.822C177.858 217.172 177.354 217.672 176.995 218.321C176.645 218.97 176.469 219.743 176.469 220.64H171.943C171.943 218.975 172.323 217.527 173.084 216.297C173.846 215.067 174.893 214.114 176.226 213.44C177.568 212.764 179.107 212.427 180.841 212.427C182.602 212.427 184.149 212.757 185.483 213.414C186.816 214.071 187.851 214.973 188.586 216.118C189.329 217.262 189.701 218.569 189.701 220.038C189.701 221.02 189.513 221.985 189.137 222.933C188.76 223.881 188.098 224.932 187.149 226.086C186.209 227.238 184.889 228.635 183.188 230.275L178.662 234.874V235.054H190.099V239.026H172.097ZM205.39 239.384C203.543 239.384 201.903 239.069 200.467 238.436C199.039 237.805 197.911 236.924 197.082 235.797C196.252 234.669 195.812 233.367 195.762 231.889H200.582C200.624 232.598 200.86 233.217 201.287 233.747C201.714 234.268 202.283 234.674 202.993 234.964C203.701 235.254 204.497 235.4 205.377 235.4C206.318 235.4 207.151 235.237 207.877 234.913C208.604 234.58 209.172 234.119 209.583 233.529C209.993 232.94 210.194 232.261 210.186 231.492C210.194 230.698 209.988 229.997 209.57 229.391C209.151 228.785 208.544 228.31 207.75 227.968C206.963 227.627 206.014 227.457 204.903 227.457H202.582V223.792H204.903C205.817 223.792 206.617 223.633 207.301 223.318C207.993 223.002 208.536 222.558 208.929 221.985C209.322 221.404 209.514 220.735 209.505 219.974C209.514 219.231 209.347 218.586 209.005 218.039C208.673 217.484 208.198 217.052 207.583 216.746C206.976 216.438 206.261 216.284 205.441 216.284C204.638 216.284 203.894 216.429 203.211 216.72C202.527 217.009 201.975 217.424 201.556 217.962C201.138 218.492 200.916 219.123 200.89 219.859H196.312C196.347 218.389 196.77 217.1 197.581 215.989C198.403 214.871 199.496 213.999 200.864 213.376C202.231 212.743 203.766 212.427 205.467 212.427C207.219 212.427 208.74 212.757 210.031 213.414C211.331 214.063 212.335 214.938 213.045 216.041C213.754 217.142 214.109 218.359 214.109 219.692C214.118 221.17 213.681 222.408 212.801 223.408C211.929 224.407 210.784 225.061 209.364 225.367V225.573C211.211 225.829 212.626 226.513 213.609 227.622C214.601 228.725 215.091 230.096 215.084 231.735C215.084 233.204 214.664 234.52 213.827 235.682C212.997 236.835 211.852 237.74 210.391 238.398C208.938 239.056 207.27 239.384 205.39 239.384ZM220.454 234.157V230.378L231.596 212.786H234.75V218.167H232.827L225.326 230.044V230.249H240.879V234.157H220.454ZM232.981 239.026V233.004L233.031 231.313V212.786H237.52V239.026H232.981ZM258.408 223.996V227.815H246.586V223.996H258.408ZM273.798 212.427C275.055 212.436 276.277 212.658 277.465 213.094C278.662 213.521 279.739 214.221 280.696 215.195C281.654 216.16 282.415 217.454 282.979 219.077C283.543 220.7 283.825 222.708 283.825 225.099C283.833 227.354 283.594 229.37 283.106 231.146C282.628 232.915 281.94 234.409 281.043 235.631C280.144 236.852 279.064 237.783 277.799 238.424C276.534 239.064 275.11 239.384 273.529 239.384C271.871 239.384 270.4 239.059 269.119 238.411C267.845 237.762 266.815 236.873 266.028 235.746C265.242 234.618 264.759 233.329 264.58 231.876H269.26C269.499 232.918 269.986 233.747 270.721 234.362C271.464 234.969 272.401 235.271 273.529 235.271C275.349 235.271 276.752 234.482 277.734 232.901C278.717 231.322 279.209 229.126 279.209 226.316H279.03C278.611 227.068 278.068 227.717 277.402 228.264C276.735 228.802 275.978 229.215 275.131 229.506C274.294 229.796 273.405 229.942 272.465 229.942C270.926 229.942 269.542 229.574 268.311 228.84C267.089 228.105 266.119 227.097 265.4 225.816C264.691 224.535 264.331 223.07 264.323 221.421C264.323 219.713 264.716 218.18 265.503 216.822C266.298 215.456 267.405 214.379 268.823 213.593C270.243 212.799 271.901 212.41 273.798 212.427ZM273.811 216.271C272.888 216.271 272.055 216.497 271.311 216.95C270.575 217.394 269.994 218 269.567 218.769C269.148 219.529 268.939 220.379 268.939 221.319C268.947 222.25 269.157 223.096 269.567 223.855C269.986 224.616 270.554 225.219 271.273 225.663C271.999 226.107 272.829 226.329 273.759 226.329C274.452 226.329 275.098 226.196 275.696 225.931C276.295 225.667 276.816 225.3 277.261 224.83C277.713 224.352 278.064 223.809 278.311 223.203C278.568 222.596 278.692 221.956 278.683 221.28C278.683 220.384 278.47 219.555 278.042 218.795C277.624 218.035 277.046 217.424 276.312 216.963C275.585 216.502 274.751 216.271 273.811 216.271ZM298.873 239.384C296.966 239.384 295.274 239.064 293.796 238.424C292.326 237.783 291.171 236.907 290.333 235.797C289.505 234.678 289.094 233.41 289.103 231.991C289.094 230.89 289.333 229.877 289.821 228.955C290.308 228.033 290.966 227.264 291.795 226.649C292.632 226.026 293.564 225.628 294.59 225.458V225.278C293.239 224.98 292.146 224.292 291.308 223.215C290.479 222.13 290.069 220.879 290.077 219.462C290.069 218.112 290.445 216.908 291.205 215.848C291.966 214.789 293.009 213.956 294.334 213.35C295.659 212.735 297.172 212.427 298.873 212.427C300.556 212.427 302.057 212.735 303.373 213.35C304.698 213.956 305.741 214.789 306.501 215.848C307.271 216.908 307.656 218.112 307.656 219.462C307.656 220.879 307.233 222.13 306.386 223.215C305.548 224.292 304.467 224.98 303.143 225.278V225.458C304.168 225.628 305.091 226.026 305.911 226.649C306.741 227.264 307.398 228.033 307.886 228.955C308.382 229.877 308.629 230.89 308.629 231.991C308.629 233.41 308.211 234.678 307.374 235.797C306.535 236.907 305.382 237.783 303.912 238.424C302.45 239.064 300.77 239.384 298.873 239.384ZM298.873 235.72C299.856 235.72 300.71 235.553 301.436 235.22C302.163 234.879 302.727 234.401 303.129 233.785C303.531 233.171 303.736 232.461 303.745 231.659C303.736 230.821 303.518 230.082 303.091 229.442C302.672 228.793 302.095 228.284 301.36 227.918C300.633 227.55 299.804 227.366 298.873 227.366C297.932 227.366 297.095 227.55 296.359 227.918C295.625 228.284 295.044 228.793 294.616 229.442C294.197 230.082 293.992 230.821 294 231.659C293.992 232.461 294.188 233.171 294.59 233.785C294.992 234.392 295.556 234.866 296.282 235.208C297.018 235.55 297.881 235.72 298.873 235.72ZM298.873 223.766C299.676 223.766 300.386 223.604 301.001 223.279C301.625 222.955 302.117 222.502 302.476 221.922C302.834 221.34 303.018 220.67 303.026 219.909C303.018 219.158 302.839 218.5 302.488 217.936C302.138 217.365 301.651 216.925 301.027 216.617C300.403 216.301 299.684 216.143 298.873 216.143C298.044 216.143 297.313 216.301 296.68 216.617C296.056 216.925 295.569 217.365 295.218 217.936C294.877 218.5 294.71 219.158 294.719 219.909C294.71 220.67 294.881 221.34 295.231 221.922C295.591 222.493 296.082 222.947 296.706 223.279C297.339 223.604 298.061 223.766 298.873 223.766ZM315.25 239.026L326.418 216.937V216.758H313.456V212.786H331.342V216.848L320.187 239.026H315.25ZM345.748 239.384C343.902 239.384 342.262 239.069 340.825 238.436C339.398 237.805 338.27 236.924 337.44 235.797C336.611 234.669 336.171 233.367 336.119 231.889H340.94C340.983 232.598 341.218 233.217 341.646 233.747C342.073 234.268 342.642 234.674 343.35 234.964C344.06 235.254 344.856 235.4 345.736 235.4C346.675 235.4 347.509 235.237 348.236 234.913C348.963 234.58 349.531 234.119 349.941 233.529C350.351 232.94 350.552 232.261 350.543 231.492C350.552 230.698 350.347 229.997 349.928 229.391C349.51 228.785 348.903 228.31 348.107 227.968C347.321 227.627 346.372 227.457 345.262 227.457H342.941V223.792H345.262C346.176 223.792 346.976 223.633 347.659 223.318C348.351 223.002 348.894 222.558 349.287 221.985C349.68 221.404 349.873 220.735 349.864 219.974C349.873 219.231 349.706 218.586 349.364 218.039C349.031 217.484 348.556 217.052 347.941 216.746C347.334 216.438 346.62 216.284 345.8 216.284C344.997 216.284 344.253 216.429 343.569 216.72C342.886 217.009 342.334 217.424 341.915 217.962C341.497 218.492 341.274 219.123 341.248 219.859H336.671C336.705 218.389 337.128 217.1 337.94 215.989C338.761 214.871 339.855 213.999 341.222 213.376C342.59 212.743 344.124 212.427 345.826 212.427C347.578 212.427 349.099 212.757 350.39 213.414C351.69 214.063 352.694 214.938 353.404 216.041C354.112 217.142 354.467 218.359 354.467 219.692C354.475 221.17 354.04 222.408 353.16 223.408C352.288 224.407 351.142 225.061 349.723 225.367V225.573C351.57 225.829 352.984 226.513 353.968 227.622C354.958 228.725 355.45 230.096 355.441 231.735C355.441 233.204 355.023 234.52 354.185 235.682C353.356 236.835 352.211 237.74 350.749 238.398C349.295 239.056 347.629 239.384 345.748 239.384ZM373.275 223.996V227.815H361.454V223.996H373.275ZM390.23 212.786V239.026H385.473V217.412H385.32L379.178 221.332V216.976L385.704 212.786H390.23ZM398.341 239.026V235.592L407.458 226.662C408.329 225.782 409.056 225.001 409.638 224.318C410.219 223.633 410.654 222.971 410.945 222.331C411.235 221.691 411.381 221.007 411.381 220.281C411.381 219.453 411.193 218.743 410.817 218.155C410.441 217.556 409.923 217.095 409.265 216.77C408.608 216.446 407.86 216.284 407.021 216.284C406.158 216.284 405.402 216.464 404.752 216.822C404.102 217.172 403.598 217.672 403.239 218.321C402.888 218.97 402.713 219.743 402.713 220.64H398.188C398.188 218.975 398.568 217.527 399.329 216.297C400.089 215.067 401.136 214.114 402.47 213.44C403.812 212.764 405.35 212.427 407.086 212.427C408.847 212.427 410.394 212.757 411.727 213.414C413.061 214.071 414.094 214.973 414.83 216.118C415.574 217.262 415.945 218.569 415.945 220.038C415.945 221.02 415.758 221.985 415.381 222.933C415.005 223.881 414.343 224.932 413.394 226.086C412.454 227.238 411.133 228.635 409.432 230.275L404.906 234.874V235.054H416.343V239.026H398.341ZM431.545 239.384C429.639 239.384 427.947 239.064 426.467 238.424C424.997 237.783 423.843 236.907 423.006 235.797C422.176 234.678 421.766 233.41 421.775 231.991C421.766 230.89 422.005 229.877 422.492 228.955C422.98 228.033 423.638 227.264 424.467 226.649C425.305 226.026 426.236 225.628 427.262 225.458V225.278C425.911 224.98 424.818 224.292 423.979 223.215C423.151 222.13 422.741 220.879 422.749 219.462C422.741 218.112 423.116 216.908 423.877 215.848C424.638 214.789 425.681 213.956 427.006 213.35C428.33 212.735 429.843 212.427 431.545 212.427C433.228 212.427 434.729 212.735 436.045 213.35C437.37 213.956 438.413 214.789 439.173 215.848C439.943 216.908 440.327 218.112 440.327 219.462C440.327 220.879 439.904 222.13 439.058 223.215C438.221 224.292 437.139 224.98 435.814 225.278V225.458C436.84 225.628 437.763 226.026 438.584 226.649C439.412 227.264 440.071 228.033 440.559 228.955C441.054 229.877 441.302 230.89 441.302 231.991C441.302 233.41 440.883 234.678 440.045 235.797C439.208 236.907 438.054 237.783 436.584 238.424C435.121 239.064 433.443 239.384 431.545 239.384ZM431.545 235.72C432.527 235.72 433.383 235.553 434.109 235.22C434.836 234.879 435.4 234.401 435.802 233.785C436.203 233.171 436.409 232.461 436.417 231.659C436.409 230.821 436.19 230.082 435.763 229.442C435.344 228.793 434.767 228.284 434.031 227.918C433.306 227.55 432.477 227.366 431.545 227.366C430.605 227.366 429.767 227.55 429.032 227.918C428.296 228.284 427.715 228.793 427.288 229.442C426.869 230.082 426.664 230.821 426.673 231.659C426.664 232.461 426.86 233.171 427.262 233.785C427.665 234.392 428.229 234.866 428.954 235.208C429.69 235.55 430.553 235.72 431.545 235.72ZM431.545 223.766C432.348 223.766 433.058 223.604 433.673 223.279C434.297 222.955 434.789 222.502 435.147 221.922C435.506 221.34 435.69 220.67 435.699 219.909C435.69 219.158 435.511 218.5 435.16 217.936C434.81 217.365 434.323 216.925 433.699 216.617C433.075 216.301 432.357 216.143 431.545 216.143C430.715 216.143 429.984 216.301 429.352 216.617C428.728 216.925 428.241 217.365 427.89 217.936C427.548 218.5 427.382 219.158 427.39 219.909C427.382 220.67 427.553 221.34 427.904 221.922C428.263 222.493 428.753 222.947 429.377 223.279C430.01 223.604 430.732 223.766 431.545 223.766ZM456.385 239.384C454.538 239.384 452.898 239.069 451.461 238.436C450.034 237.805 448.906 236.924 448.076 235.797C447.247 234.669 446.807 233.367 446.756 231.889H451.576C451.619 232.598 451.855 233.217 452.282 233.747C452.709 234.268 453.278 234.674 453.988 234.964C454.697 235.254 455.492 235.4 456.372 235.4C457.313 235.4 458.145 235.237 458.872 234.913C459.599 234.58 460.167 234.119 460.578 233.529C460.988 232.94 461.188 232.261 461.181 231.492C461.188 230.698 460.983 229.997 460.564 229.391C460.146 228.785 459.539 228.31 458.745 227.968C457.958 227.627 457.009 227.457 455.898 227.457H453.577V223.792H455.898C456.813 223.792 457.612 223.633 458.295 223.318C458.988 223.002 459.531 222.558 459.924 221.985C460.317 221.404 460.509 220.735 460.5 219.974C460.509 219.231 460.342 218.586 460 218.039C459.667 217.484 459.192 217.052 458.578 216.746C457.971 216.438 457.256 216.284 456.436 216.284C455.633 216.284 454.889 216.429 454.205 216.72C453.522 217.009 452.97 217.424 452.551 217.962C452.133 218.492 451.91 219.123 451.884 219.859H447.307C447.342 218.389 447.765 217.1 448.576 215.989C449.398 214.871 450.491 213.999 451.859 213.376C453.226 212.743 454.761 212.427 456.462 212.427C458.214 212.427 459.735 212.757 461.026 213.414C462.326 214.063 463.33 214.938 464.04 216.041C464.749 217.142 465.104 218.359 465.104 219.692C465.113 221.17 464.676 222.408 463.796 223.408C462.924 224.407 461.779 225.061 460.359 225.367V225.573C462.206 225.829 463.621 226.513 464.604 227.622C465.596 228.725 466.086 230.096 466.078 231.735C466.078 233.204 465.659 234.52 464.822 235.682C463.992 236.835 462.847 237.74 461.386 238.398C459.933 239.056 458.265 239.384 456.385 239.384Z" fill="white"/>
<path d="M49.3864 180.397H47.7965C47.7026 179.94 47.5381 179.539 47.3029 179.193C47.0722 178.847 46.7901 178.556 46.4567 178.321C46.1277 178.082 45.7622 177.903 45.3604 177.783C44.9588 177.664 44.5399 177.604 44.104 177.604C43.3091 177.604 42.5889 177.805 41.9435 178.206C41.3025 178.608 40.7917 179.2 40.4114 179.981C40.0352 180.762 39.8473 181.721 39.8473 182.857C39.8473 183.992 40.0352 184.952 40.4114 185.733C40.7917 186.515 41.3025 187.107 41.9435 187.508C42.5889 187.909 43.3091 188.11 44.104 188.11C44.5399 188.11 44.9588 188.05 45.3604 187.931C45.7622 187.811 46.1277 187.634 46.4567 187.399C46.7901 187.16 47.0722 186.868 47.3029 186.521C47.5381 186.171 47.7026 185.769 47.7965 185.317H49.3864C49.2668 185.987 49.0488 186.588 48.7326 187.117C48.4163 187.647 48.0231 188.098 47.5529 188.469C47.0829 188.836 46.5551 189.116 45.9695 189.307C45.3883 189.5 44.7664 189.596 44.104 189.596C42.9843 189.596 41.9884 189.323 41.1166 188.776C40.2447 188.23 39.5587 187.453 39.0587 186.445C38.5586 185.437 38.3086 184.241 38.3086 182.857C38.3086 181.474 38.5586 180.277 39.0587 179.269C39.5587 178.262 40.2447 177.485 41.1166 176.938C41.9884 176.391 42.9843 176.118 44.104 176.118C44.7664 176.118 45.3883 176.214 45.9695 176.406C46.5551 176.598 47.0829 176.88 47.5529 177.251C48.0231 177.619 48.4163 178.068 48.7326 178.596C49.0488 179.122 49.2668 179.723 49.3864 180.397ZM54.6481 189.648C54.0241 189.648 53.4579 189.53 52.9492 189.295C52.4406 189.056 52.0368 188.712 51.7376 188.263C51.4385 187.811 51.2888 187.264 51.2888 186.624C51.2888 186.06 51.4 185.603 51.6223 185.253C51.8444 184.898 52.1415 184.62 52.5133 184.42C52.8852 184.219 53.2954 184.07 53.7441 183.971C54.1972 183.87 54.6524 183.788 55.1097 183.729C55.708 183.651 56.1931 183.593 56.5649 183.555C56.941 183.512 57.2145 183.442 57.3855 183.344C57.5607 183.246 57.6484 183.075 57.6484 182.831V182.78C57.6484 182.148 57.4753 181.656 57.129 181.307C56.7871 180.956 56.2679 180.781 55.5713 180.781C54.849 180.781 54.2827 180.939 53.8724 181.255C53.4621 181.572 53.1737 181.909 53.0069 182.267L51.5709 181.756C51.8274 181.157 52.1693 180.691 52.5966 180.359C53.0283 180.022 53.4984 179.786 54.007 179.654C54.5198 179.518 55.0242 179.449 55.52 179.449C55.8362 179.449 56.1995 179.487 56.6098 179.564C57.0243 179.637 57.4239 179.788 57.8086 180.019C58.1975 180.249 58.5202 180.598 58.7767 181.063C59.033 181.529 59.1613 182.152 59.1613 182.934V189.417H57.6484V188.084H57.5714C57.4689 188.298 57.2979 188.526 57.0585 188.77C56.8192 189.013 56.5008 189.221 56.1034 189.391C55.7059 189.562 55.2208 189.648 54.6481 189.648ZM54.8788 188.289C55.4772 188.289 55.9815 188.172 56.3918 187.938C56.8064 187.702 57.1184 187.399 57.3278 187.028C57.5415 186.656 57.6484 186.265 57.6484 185.855V184.472C57.5843 184.548 57.4432 184.618 57.2253 184.682C57.0116 184.742 56.7637 184.796 56.4816 184.843C56.2038 184.885 55.9323 184.924 55.6674 184.958C55.4067 184.988 55.1951 185.014 55.0328 185.035C54.6395 185.086 54.2719 185.17 53.9301 185.285C53.5925 185.396 53.3189 185.564 53.1095 185.791C52.9043 186.013 52.8018 186.316 52.8018 186.701C52.8018 187.226 52.9963 187.623 53.3852 187.892C53.7783 188.157 54.2762 188.289 54.8788 188.289ZM61.9227 189.417V179.577H63.3844V181.063H63.487C63.6665 180.576 63.9913 180.182 64.4613 179.878C64.9315 179.575 65.4615 179.423 66.0512 179.423C66.1624 179.423 66.3013 179.425 66.4679 179.43C66.6347 179.434 66.7607 179.441 66.8462 179.449V180.987C66.7949 180.973 66.6773 180.954 66.4936 180.929C66.3141 180.899 66.1239 180.884 65.9231 180.884C65.4443 180.884 65.0169 180.984 64.6409 181.185C64.2691 181.381 63.9742 181.655 63.7562 182.005C63.5425 182.351 63.4356 182.745 63.4356 183.19V189.417H61.9227ZM72.0582 189.622C71.2376 189.622 70.5132 189.415 69.8848 189.001C69.2566 188.581 68.7651 187.993 68.4104 187.232C68.0556 186.467 67.8783 185.564 67.8783 184.522C67.8783 183.488 68.0556 182.592 68.4104 181.832C68.7651 181.071 69.2587 180.485 69.8913 180.07C70.5238 179.656 71.2547 179.449 72.0838 179.449C72.7249 179.449 73.2314 179.556 73.6031 179.769C73.9792 179.979 74.2656 180.218 74.4622 180.487C74.6631 180.751 74.819 180.97 74.9301 181.14H75.0584V176.297H76.5713V189.417H75.1096V187.905H74.9301C74.819 188.084 74.6609 188.311 74.4558 188.584C74.2507 188.853 73.9579 189.094 73.5775 189.307C73.1971 189.517 72.6907 189.622 72.0582 189.622ZM72.2633 188.263C72.8702 188.263 73.383 188.106 73.8018 187.79C74.2207 187.47 74.5391 187.028 74.757 186.464C74.975 185.896 75.084 185.239 75.084 184.496C75.084 183.762 74.9772 183.12 74.7635 182.568C74.5498 182.014 74.2335 181.582 73.8147 181.274C73.3959 180.963 72.8788 180.807 72.2633 180.807C71.6222 180.807 71.0879 180.971 70.6605 181.3C70.2374 181.625 69.919 182.067 69.7053 182.626C69.4959 183.182 69.3912 183.805 69.3912 184.496C69.3912 185.198 69.4981 185.834 69.7118 186.406C69.9297 186.974 70.2503 187.427 70.6734 187.764C71.1008 188.098 71.6308 188.263 72.2633 188.263ZM95.2459 176.297V189.417H93.7073L86.5529 179.116H86.4246V189.417H84.8348V176.297H86.3734L93.5534 186.624H93.6816V176.297H95.2459ZM104.428 185.394V179.577H105.941V189.417H104.428V187.751H104.325C104.094 188.251 103.735 188.676 103.248 189.026C102.761 189.372 102.146 189.545 101.402 189.545C100.786 189.545 100.239 189.41 99.7606 189.142C99.282 188.868 98.9059 188.458 98.6323 187.912C98.3588 187.36 98.2221 186.667 98.2221 185.829V179.577H99.735V185.727C99.735 186.445 99.9358 187.016 100.338 187.444C100.744 187.871 101.261 188.084 101.889 188.084C102.265 188.084 102.648 187.988 103.037 187.795C103.43 187.604 103.759 187.31 104.024 186.912C104.293 186.515 104.428 186.008 104.428 185.394ZM108.712 189.417V179.577H110.173V181.114H110.302C110.507 180.589 110.838 180.182 111.295 179.891C111.752 179.596 112.302 179.449 112.942 179.449C113.592 179.449 114.133 179.596 114.565 179.891C115.001 180.182 115.34 180.589 115.584 181.114H115.687C115.939 180.607 116.317 180.203 116.822 179.903C117.326 179.601 117.931 179.449 118.636 179.449C119.516 179.449 120.236 179.724 120.795 180.275C121.356 180.822 121.636 181.674 121.636 182.831V189.417H120.123V182.831C120.123 182.105 119.924 181.586 119.527 181.274C119.129 180.963 118.661 180.807 118.123 180.807C117.431 180.807 116.894 181.016 116.514 181.434C116.133 181.849 115.943 182.375 115.943 183.01V189.417H114.405V182.678C114.405 182.119 114.223 181.668 113.86 181.326C113.496 180.98 113.028 180.807 112.456 180.807C112.062 180.807 111.695 180.911 111.353 181.121C111.015 181.33 110.742 181.62 110.532 181.992C110.327 182.36 110.225 182.784 110.225 183.266V189.417H108.712ZM124.607 189.417V176.297H126.12V181.14H126.248C126.359 180.97 126.514 180.751 126.71 180.487C126.911 180.218 127.197 179.979 127.569 179.769C127.945 179.556 128.453 179.449 129.095 179.449C129.923 179.449 130.654 179.656 131.287 180.07C131.919 180.485 132.413 181.071 132.768 181.832C133.123 182.592 133.3 183.488 133.3 184.522C133.3 185.564 133.123 186.467 132.768 187.232C132.413 187.993 131.922 188.581 131.293 189.001C130.666 189.415 129.941 189.622 129.12 189.622C128.488 189.622 127.982 189.517 127.601 189.307C127.221 189.094 126.928 188.853 126.722 188.584C126.518 188.311 126.359 188.084 126.248 187.905H126.069V189.417H124.607ZM126.095 184.496C126.095 185.239 126.203 185.896 126.421 186.464C126.639 187.028 126.958 187.47 127.377 187.79C127.795 188.106 128.309 188.263 128.916 188.263C129.548 188.263 130.076 188.098 130.499 187.764C130.926 187.427 131.247 186.974 131.46 186.406C131.678 185.834 131.787 185.198 131.787 184.496C131.787 183.805 131.68 183.182 131.467 182.626C131.257 182.067 130.939 181.625 130.511 181.3C130.088 180.971 129.557 180.807 128.916 180.807C128.3 180.807 127.783 180.963 127.364 181.274C126.945 181.582 126.629 182.014 126.415 182.568C126.201 183.12 126.095 183.762 126.095 184.496ZM139.743 189.622C138.794 189.622 137.976 189.412 137.288 188.994C136.604 188.571 136.076 187.982 135.705 187.226C135.337 186.466 135.153 185.581 135.153 184.574C135.153 183.566 135.337 182.678 135.705 181.909C136.076 181.135 136.593 180.533 137.256 180.103C137.922 179.666 138.7 179.449 139.589 179.449C140.102 179.449 140.608 179.534 141.108 179.705C141.609 179.876 142.064 180.153 142.475 180.538C142.884 180.918 143.211 181.422 143.455 182.05C143.699 182.678 143.821 183.45 143.821 184.369V185.009H136.229V183.703H142.282C142.282 183.147 142.171 182.652 141.949 182.217C141.73 181.78 141.418 181.436 141.012 181.185C140.611 180.933 140.137 180.807 139.589 180.807C138.987 180.807 138.466 180.956 138.025 181.255C137.589 181.55 137.254 181.935 137.018 182.408C136.783 182.883 136.666 183.39 136.666 183.933V184.804C136.666 185.547 136.794 186.178 137.051 186.694C137.311 187.207 137.672 187.597 138.134 187.867C138.595 188.131 139.131 188.263 139.743 188.263C140.14 188.263 140.5 188.208 140.82 188.098C141.145 187.982 141.425 187.811 141.66 187.585C141.895 187.353 142.076 187.068 142.205 186.727L143.666 187.136C143.513 187.632 143.254 188.067 142.891 188.443C142.528 188.815 142.078 189.104 141.545 189.314C141.01 189.519 140.41 189.622 139.743 189.622ZM146.122 189.417V179.577H147.583V181.063H147.686C147.865 180.576 148.19 180.182 148.661 179.878C149.13 179.575 149.661 179.423 150.251 179.423C150.361 179.423 150.5 179.425 150.667 179.43C150.834 179.434 150.959 179.441 151.045 179.449V180.987C150.994 180.973 150.877 180.954 150.693 180.929C150.514 180.899 150.323 180.884 150.122 180.884C149.644 180.884 149.216 180.984 148.84 181.185C148.468 181.381 148.174 181.655 147.956 182.005C147.741 182.351 147.634 182.745 147.634 183.19V189.417H146.122Z" fill="white"/>
<path d="M528.045 329.599C526.461 329.599 525.102 329.199 523.967 328.398C522.839 327.591 521.97 326.428 521.362 324.91C520.758 323.385 520.457 321.55 520.457 319.404C520.464 317.257 520.768 315.432 521.371 313.927C521.98 312.415 522.849 311.262 523.977 310.468C525.111 309.673 526.467 309.276 528.045 309.276C529.622 309.276 530.977 309.673 532.112 310.468C533.247 311.262 534.116 312.415 534.719 313.927C535.327 315.439 535.631 317.264 535.631 319.404C535.631 321.557 535.327 323.395 534.719 324.92C534.116 326.437 533.247 327.598 532.112 328.398C530.984 329.199 529.628 329.599 528.045 329.599ZM528.045 326.592C529.276 326.592 530.247 325.986 530.958 324.775C531.677 323.558 532.036 321.767 532.036 319.404C532.036 317.84 531.872 316.528 531.545 315.464C531.218 314.4 530.756 313.6 530.16 313.062C529.563 312.518 528.858 312.245 528.045 312.245C526.821 312.245 525.853 312.854 525.141 314.071C524.429 315.282 524.07 317.059 524.063 319.404C524.057 320.974 524.214 322.293 524.535 323.363C524.862 324.433 525.323 325.24 525.919 325.785C526.516 326.322 527.225 326.592 528.045 326.592ZM545.827 329.494C544.397 329.494 543.128 329.254 542.019 328.772C540.916 328.292 540.051 327.636 539.423 326.803C538.801 325.964 538.493 325.012 538.5 323.949C538.493 323.123 538.673 322.364 539.038 321.672C539.403 320.98 539.898 320.403 540.519 319.942C541.148 319.474 541.846 319.176 542.616 319.048V318.914C541.602 318.689 540.782 318.174 540.154 317.367C539.532 316.553 539.224 315.615 539.231 314.551C539.224 313.539 539.506 312.636 540.077 311.841C540.648 311.047 541.43 310.423 542.423 309.967C543.417 309.506 544.552 309.276 545.827 309.276C547.09 309.276 548.215 309.506 549.203 309.967C550.197 310.423 550.979 311.047 551.549 311.841C552.126 312.636 552.415 313.539 552.415 314.551C552.415 315.615 552.097 316.553 551.463 317.367C550.834 318.174 550.023 318.689 549.03 318.914V319.048C549.798 319.176 550.491 319.474 551.106 319.942C551.729 320.403 552.222 320.98 552.587 321.672C552.96 322.364 553.145 323.123 553.145 323.949C553.145 325.012 552.831 325.964 552.203 326.803C551.574 327.636 550.709 328.292 549.607 328.772C548.51 329.254 547.251 329.494 545.827 329.494ZM545.827 326.745C546.565 326.745 547.205 326.62 547.75 326.371C548.295 326.114 548.719 325.755 549.02 325.294C549.321 324.833 549.475 324.302 549.481 323.699C549.475 323.072 549.312 322.517 548.99 322.037C548.677 321.55 548.245 321.169 547.693 320.894C547.148 320.617 546.526 320.48 545.827 320.48C545.122 320.48 544.494 320.617 543.942 320.894C543.391 321.169 542.955 321.55 542.635 322.037C542.321 322.517 542.167 323.072 542.173 323.699C542.167 324.302 542.314 324.833 542.616 325.294C542.917 325.75 543.34 326.105 543.885 326.361C544.437 326.617 545.083 326.745 545.827 326.745ZM545.827 317.779C546.43 317.779 546.962 317.658 547.423 317.415C547.892 317.172 548.26 316.832 548.529 316.396C548.799 315.961 548.936 315.458 548.943 314.887C548.936 314.324 548.802 313.831 548.539 313.408C548.276 312.979 547.911 312.648 547.442 312.418C546.975 312.182 546.436 312.062 545.827 312.062C545.205 312.062 544.658 312.182 544.183 312.418C543.715 312.648 543.349 312.979 543.087 313.408C542.83 313.831 542.705 314.324 542.712 314.887C542.705 315.458 542.833 315.961 543.096 316.396C543.366 316.826 543.734 317.165 544.202 317.415C544.677 317.658 545.219 317.779 545.827 317.779ZM564.384 308.622L558.037 332.184H554.99L561.336 308.622H564.384ZM566.567 329.225V326.649L573.405 319.952C574.058 319.291 574.603 318.705 575.038 318.193C575.475 317.68 575.802 317.184 576.02 316.704C576.238 316.224 576.346 315.711 576.346 315.166C576.346 314.545 576.206 314.014 575.924 313.571C575.642 313.123 575.254 312.777 574.76 312.533C574.267 312.29 573.706 312.168 573.077 312.168C572.43 312.168 571.862 312.302 571.375 312.572C570.887 312.834 570.509 313.209 570.241 313.696C569.978 314.183 569.846 314.762 569.846 315.435H566.452C566.452 314.186 566.736 313.1 567.307 312.178C567.878 311.255 568.663 310.541 569.663 310.035C570.67 309.529 571.824 309.276 573.125 309.276C574.446 309.276 575.606 309.523 576.607 310.016C577.606 310.509 578.381 311.185 578.933 312.043C579.491 312.902 579.77 313.882 579.77 314.983C579.77 315.721 579.629 316.445 579.347 317.155C579.065 317.866 578.568 318.654 577.857 319.519C577.152 320.384 576.161 321.431 574.885 322.661L571.491 326.112V326.246H580.068V329.225H566.567ZM583.385 329.225V326.649L590.223 319.952C590.876 319.291 591.421 318.705 591.858 318.193C592.293 317.68 592.621 317.184 592.838 316.704C593.056 316.224 593.165 315.711 593.165 315.166C593.165 314.545 593.024 314.014 592.742 313.571C592.46 313.123 592.072 312.777 591.578 312.533C591.085 312.29 590.524 312.168 589.896 312.168C589.248 312.168 588.681 312.302 588.193 312.572C587.707 312.834 587.328 313.209 587.059 313.696C586.796 314.183 586.664 314.762 586.664 315.435H583.27C583.27 314.186 583.556 313.1 584.126 312.178C584.696 311.255 585.482 310.541 586.481 310.035C587.489 309.529 588.642 309.276 589.944 309.276C591.264 309.276 592.425 309.523 593.425 310.016C594.425 310.509 595.201 311.185 595.752 312.043C596.31 312.902 596.589 313.882 596.589 314.983C596.589 315.721 596.448 316.445 596.166 317.155C595.884 317.866 595.387 318.654 594.675 319.519C593.97 320.384 592.979 321.431 591.703 322.661L588.309 326.112V326.246H596.887V329.225H583.385Z" fill="white"/>
<path d="M521.143 278.898L525.041 289.941H525.195L529.093 278.898H530.76L525.938 292.017H524.298L519.477 278.898H521.143ZM534.58 292.248C533.956 292.248 533.391 292.13 532.882 291.895C532.373 291.656 531.969 291.312 531.67 290.864C531.371 290.412 531.221 289.865 531.221 289.224C531.221 288.661 531.333 288.203 531.555 287.853C531.777 287.498 532.074 287.221 532.445 287.02C532.818 286.819 533.228 286.671 533.676 286.571C534.13 286.47 534.584 286.389 535.043 286.329C535.641 286.251 536.126 286.194 536.497 286.155C536.874 286.112 537.147 286.043 537.318 285.944C537.493 285.846 537.581 285.675 537.581 285.431V285.381C537.581 284.748 537.407 284.257 537.061 283.907C536.719 283.556 536.2 283.382 535.504 283.382C534.781 283.382 534.215 283.54 533.805 283.855C533.394 284.172 533.106 284.509 532.939 284.868L531.503 284.356C531.759 283.757 532.101 283.291 532.529 282.959C532.961 282.622 533.431 282.386 533.939 282.254C534.452 282.118 534.957 282.049 535.452 282.049C535.768 282.049 536.131 282.087 536.542 282.164C536.957 282.237 537.357 282.388 537.741 282.62C538.13 282.85 538.452 283.198 538.709 283.664C538.966 284.129 539.093 284.753 539.093 285.534V292.017H537.581V290.684H537.503C537.401 290.899 537.23 291.126 536.991 291.37C536.752 291.613 536.434 291.821 536.035 291.991C535.638 292.162 535.153 292.248 534.58 292.248ZM534.811 290.89C535.409 290.89 535.914 290.772 536.324 290.538C536.738 290.302 537.051 289.999 537.26 289.628C537.474 289.256 537.581 288.866 537.581 288.455V287.072C537.517 287.149 537.376 287.219 537.158 287.283C536.944 287.343 536.695 287.397 536.413 287.443C536.136 287.486 535.865 287.524 535.6 287.558C535.339 287.588 535.127 287.614 534.965 287.636C534.572 287.686 534.204 287.77 533.862 287.885C533.525 287.996 533.251 288.164 533.042 288.391C532.837 288.613 532.734 288.916 532.734 289.301C532.734 289.826 532.928 290.223 533.317 290.493C533.711 290.758 534.209 290.89 534.811 290.89ZM543.368 278.898V292.017H541.855V278.898H543.368ZM546.139 292.017V282.178H547.652V292.017H546.139ZM546.909 280.537C546.613 280.537 546.359 280.437 546.145 280.236C545.936 280.035 545.831 279.794 545.831 279.512C545.831 279.23 545.936 278.989 546.145 278.788C546.359 278.588 546.613 278.487 546.909 278.487C547.203 278.487 547.455 278.588 547.665 278.788C547.878 278.989 547.985 279.23 547.985 279.512C547.985 279.794 547.878 280.035 547.665 280.236C547.455 280.437 547.203 280.537 546.909 280.537ZM554.141 292.222C553.321 292.222 552.597 292.015 551.968 291.601C551.34 291.182 550.849 290.593 550.493 289.832C550.139 289.068 549.962 288.164 549.962 287.123C549.962 286.089 550.139 285.192 550.493 284.432C550.849 283.671 551.342 283.085 551.975 282.67C552.607 282.256 553.338 282.049 554.167 282.049C554.808 282.049 555.315 282.156 555.686 282.369C556.063 282.579 556.349 282.818 556.546 283.087C556.746 283.351 556.902 283.57 557.014 283.74H557.141V278.898H558.654V292.017H557.193V290.505H557.014C556.902 290.684 556.744 290.911 556.539 291.184C556.333 291.453 556.041 291.695 555.661 291.908C555.281 292.117 554.774 292.222 554.141 292.222ZM554.347 290.864C554.954 290.864 555.466 290.706 555.886 290.39C556.304 290.07 556.622 289.628 556.84 289.064C557.058 288.496 557.167 287.84 557.167 287.097C557.167 286.363 557.06 285.72 556.847 285.169C556.632 284.614 556.317 284.182 555.898 283.874C555.479 283.563 554.961 283.408 554.347 283.408C553.706 283.408 553.171 283.571 552.743 283.9C552.32 284.225 552.002 284.667 551.789 285.226C551.579 285.782 551.474 286.406 551.474 287.097C551.474 287.798 551.581 288.434 551.795 289.007C552.013 289.574 552.334 290.027 552.757 290.364C553.184 290.698 553.714 290.864 554.347 290.864ZM566.2 280.307V278.898H576.047V280.307H571.919V292.017H570.329V280.307H566.2ZM579.809 286.098V292.017H578.296V278.898H579.809V283.714H579.936C580.168 283.207 580.514 282.803 580.975 282.503C581.441 282.201 582.061 282.049 582.834 282.049C583.505 282.049 584.093 282.183 584.597 282.453C585.102 282.718 585.493 283.126 585.771 283.676C586.053 284.223 586.194 284.92 586.194 285.765V292.017H584.681V285.867C584.681 285.085 584.478 284.481 584.071 284.055C583.67 283.623 583.112 283.408 582.398 283.408C581.903 283.408 581.458 283.511 581.065 283.721C580.676 283.931 580.368 284.235 580.142 284.638C579.919 285.039 579.809 285.525 579.809 286.098ZM588.961 292.017V282.178H590.423V283.664H590.525C590.705 283.176 591.03 282.782 591.5 282.479C591.971 282.175 592.5 282.023 593.09 282.023C593.2 282.023 593.34 282.025 593.506 282.03C593.673 282.034 593.8 282.041 593.885 282.049V283.587C593.833 283.573 593.716 283.554 593.532 283.529C593.353 283.499 593.162 283.484 592.961 283.484C592.483 283.484 592.055 283.585 591.68 283.785C591.307 283.982 591.013 284.255 590.795 284.605C590.582 284.951 590.475 285.346 590.475 285.79V292.017H588.961ZM601.884 287.994V282.178H603.397V292.017H601.884V290.352H601.781C601.551 290.851 601.191 291.276 600.705 291.626C600.217 291.972 599.601 292.146 598.858 292.146C598.243 292.146 597.696 292.01 597.217 291.742C596.738 291.468 596.362 291.059 596.089 290.512C595.815 289.961 595.678 289.267 595.678 288.429V282.178H597.191V288.327C597.191 289.045 597.392 289.617 597.794 290.044C598.2 290.471 598.717 290.684 599.345 290.684C599.721 290.684 600.103 290.589 600.493 290.396C600.886 290.204 601.215 289.91 601.48 289.512C601.75 289.115 601.884 288.609 601.884 287.994Z" fill="white"/>
<path d="M139.441 58.5264H141.576L146.596 70.7781H146.77L151.788 58.5264H153.923V73.2861H152.251V62.0722H152.107L147.491 73.2861H145.875L141.259 62.0722H141.115V73.2861H139.441V58.5264ZM160.539 73.5455C159.836 73.5455 159.2 73.4134 158.628 73.1492C158.056 72.8801 157.601 72.4934 157.265 71.9888C156.928 71.4795 156.76 70.8646 156.76 70.1439C156.76 69.5097 156.885 68.9956 157.135 68.6016C157.385 68.2028 157.719 67.8905 158.137 67.6647C158.556 67.4389 159.017 67.2708 159.522 67.1603C160.032 67.0449 160.544 66.9536 161.058 66.8864C161.731 66.7999 162.277 66.735 162.696 66.6918C163.119 66.6438 163.427 66.5645 163.619 66.4539C163.816 66.3434 163.914 66.1513 163.914 65.8774V65.8197C163.914 65.1087 163.719 64.5561 163.33 64.1622C162.945 63.7681 162.362 63.5712 161.577 63.5712C160.765 63.5712 160.128 63.749 159.666 64.1045C159.205 64.4601 158.88 64.8396 158.692 65.2432L157.077 64.6666C157.366 63.994 157.75 63.4703 158.231 63.0955C158.717 62.716 159.245 62.4517 159.817 62.3027C160.395 62.1491 160.963 62.0722 161.52 62.0722C161.875 62.0722 162.284 62.1154 162.746 62.2018C163.212 62.2836 163.661 62.4542 164.095 62.7136C164.532 62.973 164.895 63.3646 165.183 63.8883C165.472 64.412 165.617 65.1134 165.617 65.9927V73.2861H163.914V71.7871H163.827C163.712 72.0273 163.52 72.2843 163.251 72.5582C162.981 72.8321 162.623 73.0651 162.177 73.2572C161.729 73.4495 161.184 73.5455 160.539 73.5455ZM160.799 72.0177C161.471 72.0177 162.039 71.8855 162.5 71.6213C162.967 71.3571 163.318 71.0159 163.553 70.598C163.795 70.1799 163.914 69.7403 163.914 69.279V67.7223C163.842 67.8088 163.683 67.8882 163.438 67.9602C163.198 68.0274 162.919 68.0875 162.602 68.1404C162.289 68.1884 161.984 68.2316 161.686 68.27C161.392 68.3038 161.154 68.3325 160.972 68.3565C160.529 68.4143 160.116 68.5079 159.732 68.6376C159.351 68.7625 159.043 68.9523 158.807 69.207C158.577 69.4568 158.462 69.7979 158.462 70.2304C158.462 70.8213 158.681 71.2681 159.118 71.5709C159.56 71.8687 160.121 72.0177 160.799 72.0177ZM176.569 64.6955L175.04 65.1279C174.944 64.8733 174.802 64.6258 174.615 64.3855C174.432 64.1405 174.183 63.9387 173.865 63.7802C173.548 63.6217 173.141 63.5424 172.646 63.5424C171.968 63.5424 171.404 63.6985 170.951 64.0108C170.504 64.3183 170.281 64.7099 170.281 65.1855C170.281 65.6083 170.435 65.9423 170.743 66.1873C171.049 66.4324 171.531 66.6366 172.185 66.7999L173.828 67.2034C174.819 67.4437 175.557 67.8113 176.043 68.3061C176.528 68.7962 176.771 69.428 176.771 70.2015C176.771 70.8357 176.589 71.4026 176.224 71.9023C175.863 72.402 175.358 72.796 174.709 73.0843C174.06 73.3726 173.305 73.5167 172.444 73.5167C171.315 73.5167 170.379 73.2717 169.639 72.7817C168.898 72.2915 168.43 71.5757 168.232 70.6339L169.848 70.2304C170.001 70.8262 170.292 71.273 170.721 71.5709C171.153 71.8687 171.719 72.0177 172.416 72.0177C173.209 72.0177 173.839 71.8496 174.305 71.5132C174.776 71.1721 175.012 70.7637 175.012 70.288C175.012 69.9037 174.877 69.5818 174.608 69.3223C174.338 69.058 173.925 68.8611 173.367 68.7313L171.521 68.2989C170.507 68.0586 169.761 67.6864 169.286 67.1818C168.814 66.6725 168.578 66.0359 168.578 65.272C168.578 64.6475 168.755 64.0949 169.105 63.6145C169.461 63.1339 169.944 62.7568 170.555 62.4829C171.17 62.2091 171.867 62.0722 172.646 62.0722C173.743 62.0722 174.604 62.3123 175.229 62.7929C175.858 63.2733 176.305 63.9075 176.569 64.6955ZM184.151 62.2163V63.6576H178.41V62.2163H184.151ZM180.084 59.5641H181.786V70.1151C181.786 70.5955 181.855 70.9558 181.995 71.1961C182.139 71.4315 182.322 71.59 182.543 71.6718C182.769 71.7487 183.007 71.7871 183.258 71.7871C183.445 71.7871 183.598 71.7774 183.719 71.7582C183.839 71.7342 183.935 71.7149 184.007 71.7006L184.353 73.2285C184.238 73.2717 184.077 73.315 183.87 73.3581C183.664 73.4062 183.401 73.4302 183.084 73.4302C182.603 73.4302 182.132 73.3269 181.67 73.1203C181.213 72.9137 180.834 72.599 180.531 72.1762C180.233 71.7534 180.084 71.2201 180.084 70.5763V59.5641ZM191.237 73.5167C190.17 73.5167 189.249 73.2812 188.475 72.8104C187.705 72.3347 187.112 71.6718 186.693 70.8213C186.28 69.9661 186.074 68.9716 186.074 67.8377C186.074 66.7038 186.28 65.7045 186.693 64.8396C187.112 63.97 187.694 63.2926 188.439 62.8073C189.189 62.3172 190.065 62.0722 191.064 62.0722C191.641 62.0722 192.211 62.1682 192.774 62.3605C193.336 62.5526 193.848 62.8649 194.309 63.2973C194.771 63.7249 195.139 64.2918 195.413 64.9981C195.687 65.7045 195.825 66.5741 195.825 67.6071V68.3278H187.285V66.8575H194.094C194.094 66.2329 193.969 65.6756 193.718 65.1855C193.473 64.6955 193.122 64.3086 192.665 64.0252C192.213 63.7418 191.679 63.6 191.064 63.6C190.386 63.6 189.799 63.7681 189.304 64.1045C188.814 64.4361 188.436 64.8684 188.172 65.4017C187.907 65.935 187.775 66.5068 187.775 67.117V68.0971C187.775 68.9331 187.92 69.6419 188.209 70.2232C188.502 70.7997 188.908 71.2394 189.427 71.542C189.946 71.8399 190.55 71.9888 191.237 71.9888C191.685 71.9888 192.089 71.9264 192.449 71.8014C192.814 71.6718 193.129 71.4795 193.394 71.2249C193.658 70.9655 193.862 70.6435 194.007 70.2591L195.651 70.7204C195.478 71.2778 195.187 71.7678 194.779 72.1906C194.37 72.6086 193.865 72.9353 193.263 73.1707C192.663 73.4014 191.987 73.5167 191.237 73.5167ZM198.413 73.2861V62.2163H200.058V63.8883H200.173C200.375 63.3406 200.741 62.8961 201.27 62.555C201.798 62.2139 202.395 62.0433 203.058 62.0433C203.183 62.0433 203.339 62.0457 203.526 62.0505C203.715 62.0554 203.856 62.0626 203.952 62.0722V63.8018C203.894 63.7874 203.762 63.7658 203.556 63.7369C203.354 63.7033 203.139 63.6865 202.914 63.6865C202.375 63.6865 201.895 63.7994 201.472 64.0252C201.053 64.2462 200.721 64.5538 200.477 64.9477C200.235 65.3369 200.115 65.7812 200.115 66.2809V73.2861H198.413ZM210.132 73.5167C209.094 73.5167 208.2 73.2717 207.451 72.7817C206.7 72.2915 206.123 71.6165 205.72 70.7565C205.316 69.8964 205.114 68.9139 205.114 67.8088C205.114 66.6846 205.32 65.6924 205.733 64.8324C206.152 63.9676 206.734 63.2926 207.479 62.8073C208.229 62.3172 209.105 62.0722 210.104 62.0722C210.883 62.0722 211.585 62.2163 212.21 62.5046C212.835 62.7929 213.347 63.1964 213.746 63.7154C214.146 64.2342 214.393 64.8396 214.489 65.5315H212.787C212.658 65.027 212.369 64.5801 211.922 64.1909C211.48 63.797 210.883 63.6 210.132 63.6C209.469 63.6 208.888 63.773 208.388 64.1189C207.893 64.4601 207.506 64.9429 207.226 65.5675C206.953 66.1873 206.815 66.9152 206.815 67.7512C206.815 68.6064 206.95 69.3511 207.219 69.9853C207.493 70.6195 207.878 71.112 208.373 71.4627C208.873 71.8135 209.46 71.9888 210.132 71.9888C210.576 71.9888 210.976 71.9119 211.338 71.7582C211.699 71.6045 212.003 71.3835 212.254 71.0952C212.503 70.8069 212.681 70.461 212.787 70.0574H214.489C214.393 70.7108 214.155 71.2994 213.775 71.8231C213.4 72.3419 212.902 72.7552 212.282 73.0626C211.667 73.3654 210.951 73.5167 210.132 73.5167ZM220.237 73.5455C219.536 73.5455 218.898 73.4134 218.326 73.1492C217.754 72.8801 217.299 72.4934 216.963 71.9888C216.626 71.4795 216.458 70.8646 216.458 70.1439C216.458 69.5097 216.583 68.9956 216.833 68.6016C217.083 68.2028 217.417 67.8905 217.835 67.6647C218.254 67.4389 218.715 67.2708 219.22 67.1603C219.73 67.0449 220.242 66.9536 220.757 66.8864C221.43 66.7999 221.975 66.735 222.394 66.6918C222.817 66.6438 223.125 66.5645 223.317 66.4539C223.514 66.3434 223.612 66.1513 223.612 65.8774V65.8197C223.612 65.1087 223.418 64.5561 223.028 64.1622C222.644 63.7681 222.06 63.5712 221.276 63.5712C220.463 63.5712 219.826 63.749 219.364 64.1045C218.903 64.4601 218.579 64.8396 218.39 65.2432L216.776 64.6666C217.064 63.994 217.448 63.4703 217.929 63.0955C218.415 62.716 218.943 62.4517 219.517 62.3027C220.093 62.1491 220.661 62.0722 221.218 62.0722C221.573 62.0722 221.983 62.1154 222.444 62.2018C222.91 62.2836 223.359 62.4542 223.793 62.7136C224.231 62.973 224.594 63.3646 224.882 63.8883C225.17 64.412 225.315 65.1134 225.315 65.9927V73.2861H223.612V71.7871H223.525C223.41 72.0273 223.218 72.2843 222.949 72.5582C222.679 72.8321 222.321 73.0651 221.875 73.2572C221.427 73.4495 220.882 73.5455 220.237 73.5455ZM220.497 72.0177C221.169 72.0177 221.737 71.8855 222.198 71.6213C222.666 71.3571 223.016 71.0159 223.252 70.598C223.493 70.1799 223.612 69.7403 223.612 69.279V67.7223C223.54 67.8088 223.382 67.8882 223.136 67.9602C222.896 68.0274 222.617 68.0875 222.3 68.1404C221.987 68.1884 221.682 68.2316 221.384 68.27C221.09 68.3038 220.852 68.3325 220.67 68.3565C220.227 68.4143 219.814 68.5079 219.43 68.6376C219.049 68.7625 218.741 68.9523 218.507 69.207C218.275 69.4568 218.16 69.7979 218.16 70.2304C218.16 70.8213 218.379 71.2681 218.816 71.5709C219.259 71.8687 219.819 72.0177 220.497 72.0177ZM228.421 73.2861V62.2163H230.065V63.8883H230.181C230.383 63.3406 230.749 62.8961 231.277 62.555C231.806 62.2139 232.402 62.0433 233.066 62.0433C233.19 62.0433 233.347 62.0457 233.534 62.0505C233.722 62.0554 233.864 62.0626 233.96 62.0722V63.8018C233.902 63.7874 233.77 63.7658 233.564 63.7369C233.362 63.7033 233.147 63.6865 232.922 63.6865C232.382 63.6865 231.902 63.7994 231.479 64.0252C231.061 64.2462 230.73 64.5538 230.484 64.9477C230.243 65.3369 230.124 65.7812 230.124 66.2809V73.2861H228.421ZM239.824 73.5167C238.901 73.5167 238.085 73.2837 237.379 72.8176C236.672 72.3468 236.119 71.6837 235.72 70.8285C235.321 69.9685 235.121 68.9523 235.121 67.78C235.121 66.6173 235.321 65.6083 235.72 64.7531C236.119 63.8979 236.674 63.2373 237.385 62.7712C238.097 62.3052 238.92 62.0722 239.852 62.0722C240.574 62.0722 241.144 62.1923 241.561 62.4325C241.984 62.6679 242.307 62.937 242.528 63.2397C242.754 63.5376 242.93 63.7826 243.055 63.9748H243.198V58.5264H244.901V73.2861H243.257V71.5853H243.055C242.93 71.7871 242.751 72.0417 242.521 72.3492C242.29 72.6519 241.961 72.9234 241.533 73.1635C241.105 73.3989 240.536 73.5167 239.824 73.5167ZM240.054 71.9888C240.737 71.9888 241.314 71.8111 241.786 71.4555C242.256 71.0952 242.615 70.598 242.86 69.9637C243.105 69.3247 243.228 68.5872 243.228 67.7512C243.228 66.9249 243.107 66.2017 242.867 65.5819C242.626 64.9573 242.271 64.472 241.799 64.1261C241.329 63.7754 240.747 63.6 240.054 63.6C239.333 63.6 238.733 63.785 238.251 64.155C237.776 64.52 237.417 65.0174 237.177 65.6467C236.941 66.2714 236.823 66.9729 236.823 67.7512C236.823 68.5392 236.943 69.255 237.183 69.8988C237.429 70.5379 237.789 71.0471 238.265 71.4268C238.746 71.8014 239.343 71.9888 240.054 71.9888Z" fill="white"/>
<path d="M68.2109 46.4014H92.0068V89.1275H68.2109V46.4014Z" fill="#FF5F00"/>
<path d="M69.7221 67.7646C69.7221 59.0836 73.8012 51.3836 80.0711 46.4013C75.4633 42.778 69.6467 40.5889 63.3012 40.5889C48.2677 40.5889 36.1055 52.7423 36.1055 67.7646C36.1055 82.7865 48.2677 94.9403 63.3009 94.9403C69.6464 94.9403 75.463 92.7511 80.0711 89.1275C73.8012 84.2209 69.7221 76.4455 69.7221 67.7646Z" fill="#EB001B"/>
<path d="M124.114 67.7646C124.114 82.7865 111.952 94.9403 96.9187 94.9403C90.5732 94.9403 84.7565 92.7511 80.1484 89.1275C86.494 84.1455 90.4978 76.4455 90.4978 67.7646C90.4978 59.0836 86.4183 51.3836 80.1484 46.4013C84.7562 42.778 90.5732 40.5889 96.9187 40.5889C111.952 40.5889 124.114 52.818 124.114 67.7646Z" fill="#F79E1B"/>
<path d="M586.713 40.5889H550.608C541.261 40.5889 533.684 48.1607 533.684 57.5011V76.6682C533.684 86.0086 541.261 93.5804 550.608 93.5804H586.713C596.061 93.5804 603.638 86.0086 603.638 76.6682V57.5011C603.638 48.1607 596.061 40.5889 586.713 40.5889Z" fill="url(#paint0_linear_3452_1404)" stroke="#666666" stroke-width="2.07431"/>
<path fill-rule="evenodd" clip-rule="evenodd" d="M578.809 51.5902C576.342 46.6411 572.465 42.7549 569.915 41.2364C569.746 41.1384 569.623 40.9772 569.573 40.7883C569.522 40.5993 569.549 40.3979 569.646 40.2287C569.744 40.0593 569.905 39.9358 570.093 39.8854C570.281 39.8349 570.481 39.8615 570.65 39.9594C573.991 41.9267 577.875 46.4409 580.102 50.8999C580.155 50.9853 580.19 51.0815 580.203 51.1816C580.215 51.2818 580.206 51.3835 580.174 51.4796C580.144 51.5756 580.092 51.6638 580.024 51.7378C579.956 51.8117 579.872 51.8698 579.778 51.9077C579.679 51.9616 579.568 51.99 579.456 51.9906C579.321 51.9907 579.191 51.9532 579.075 51.8825C578.961 51.8119 578.87 51.7106 578.809 51.5902ZM556.469 75.2728C556.517 82.1338 562.944 90.3134 567.372 92.9571C567.456 93.0018 567.532 93.0642 567.592 93.14C567.651 93.2158 567.695 93.3034 567.719 93.3971C567.743 93.4908 567.747 93.5886 567.73 93.6841C567.715 93.7795 567.679 93.8705 567.625 93.951C567.561 94.0596 567.469 94.1497 567.359 94.2126C567.25 94.2754 567.127 94.309 567 94.3099C566.872 94.3104 566.745 94.2744 566.636 94.2064C561.913 91.4109 555.452 83.2383 555.039 75.9217H533.277C533.096 75.904 532.929 75.8196 532.807 75.685C532.686 75.5504 532.619 75.3752 532.619 75.1934C532.619 75.0117 532.686 74.8363 532.807 74.7017C532.929 74.5671 533.096 74.4828 533.277 74.4652H555.177C556.549 69.6376 556.549 64.5213 555.177 59.6937H533.277C533.085 59.6937 532.901 59.6174 532.766 59.4815C532.63 59.3456 532.555 59.1612 532.555 58.969C532.555 58.7767 532.63 58.5924 532.766 58.4565C532.901 58.3206 533.085 58.2442 533.277 58.2442H555.039C555.452 50.8999 561.941 42.7549 566.636 39.9594C566.804 39.8615 567.005 39.8349 567.193 39.8854C567.382 39.9358 567.542 40.0593 567.639 40.2287C567.737 40.3979 567.763 40.5993 567.714 40.7883C567.663 40.9772 567.54 41.1384 567.372 41.2364C562.944 43.8455 556.517 52.0319 556.469 58.9C558.044 64.2431 558.044 69.9297 556.469 75.2728ZM604.043 74.4652H582.103C580.731 69.6376 580.731 64.5213 582.103 59.6937H604.043C604.235 59.6937 604.419 59.6174 604.555 59.4815C604.69 59.3456 604.766 59.1612 604.766 58.969C604.766 58.7767 604.69 58.5924 604.555 58.4565C604.419 58.3206 604.235 58.2442 604.043 58.2442H581.545C581.388 58.246 581.237 58.2988 581.113 58.3948C580.989 58.4906 580.9 58.6243 580.858 58.7757C579.259 64.1576 579.259 69.8909 580.858 75.2728C580.81 82.1338 574.383 90.3134 569.955 92.9571C569.869 92.9992 569.791 93.0598 569.728 93.1344C569.665 93.2092 569.619 93.2963 569.592 93.3904C569.565 93.4843 569.559 93.5828 569.573 93.6795C569.588 93.7762 569.621 93.8686 569.674 93.951C569.739 94.0596 569.83 94.1497 569.94 94.2126C570.049 94.2756 570.173 94.309 570.3 94.3099C570.428 94.3104 570.555 94.2744 570.664 94.2064C575.359 91.4454 581.848 83.2383 582.261 75.9217H604.043C604.224 75.904 604.391 75.8196 604.513 75.685C604.635 75.5504 604.701 75.3752 604.701 75.1934C604.701 75.0117 604.635 74.8363 604.513 74.7017C604.391 74.5671 604.224 74.4828 604.043 74.4652ZM567.924 43.9124C568.138 43.7699 568.387 43.6938 568.643 43.6938C568.986 43.6938 569.315 43.8304 569.557 44.0738C569.799 44.3172 569.935 44.6473 569.935 44.9914C569.935 45.248 569.86 45.499 569.717 45.7123C569.575 45.9257 569.373 46.092 569.137 46.1904C568.902 46.2886 568.641 46.3143 568.39 46.2641C568.14 46.214 567.91 46.0905 567.729 45.909C567.549 45.7275 567.426 45.4963 567.375 45.2446C567.325 44.9929 567.351 44.732 567.449 44.4948C567.547 44.2577 567.712 44.055 567.924 43.9124Z" fill="#666666"/>
</g>
<defs>
<filter id="filter0_bi_3452_1404" x="-206.869" y="-206.868" width="1055.73" height="789.186" filterUnits="userSpaceOnUse" color-interpolation-filters="sRGB">
<feFlood flood-opacity="0" result="BackgroundImageFix"/>
<feGaussianBlur in="BackgroundImageFix" stdDeviation="103.716"/>
<feComposite in2="SourceAlpha" operator="in" result="effect1_backgroundBlur_3452_1404"/>
<feBlend mode="normal" in="SourceGraphic" in2="effect1_backgroundBlur_3452_1404" result="shape"/>
<feColorMatrix in="SourceAlpha" type="matrix" values="0 0 0 0 0 0 0 0 0 0 0 0 0 0 0 0 0 0 127 0" result="hardAlpha"/>
<feOffset dy="4.14863"/>
<feGaussianBlur stdDeviation="7.77868"/>
<feComposite in2="hardAlpha" operator="arithmetic" k2="-1" k3="1"/>
<feColorMatrix type="matrix" values="0 0 0 0 0.7125 0 0 0 0 0.7125 0 0 0 0 0.7125 0 0 0 0.15 0"/>
<feBlend mode="normal" in2="shape" result="effect2_innerShadow_3452_1404"/>
</filter>
<linearGradient id="paint0_linear_3452_1404" x1="525.678" y1="39.4614" x2="610.819" y2="94.3856" gradientUnits="userSpaceOnUse">
<stop stop-color="#DDD9D6"/>
<stop offset="0.212761" stop-color="#8A868C"/>
<stop offset="0.548384" stop-color="#F2F3F3" stop-opacity="0.8"/>
<stop offset="0.914316" stop-color="#807C80"/>
<stop offset="1" stop-color="#A6A8AB"/>
</linearGradient>
</defs>
</svg>
