<svg width="641" height="375" viewBox="0 0 641 375" fill="none" xmlns="http://www.w3.org/2000/svg">
<g clip-path="url(#clip0_3452_1424)">
<path d="M613.962 0.563477H27.0361C12.4151 0.563477 0.5625 12.4076 0.5625 27.018V347.849C0.5625 362.46 12.4151 374.304 27.0361 374.304H613.962C628.583 374.304 640.436 362.46 640.436 347.849V27.018C640.436 12.4076 628.583 0.563477 613.962 0.563477Z" fill="white"/>
<g filter="url(#filter0_bi_3452_1424)">
<path d="M613.962 0.563477H27.0361C12.4151 0.563477 0.5625 12.4076 0.5625 27.018V347.849C0.5625 362.46 12.4151 374.304 27.0361 374.304H613.962C628.583 374.304 640.436 362.46 640.436 347.849V27.018C640.436 12.4076 628.583 0.563477 613.962 0.563477Z" fill="url(#paint0_linear_3452_1424)"/>
</g>
<path d="M37.9883 309.062H42.3472L48.1847 323.3H48.4152L54.2527 309.062H58.6116V328.711H55.1936V315.212H55.0112L49.5769 328.654H47.023L41.5887 315.183H41.4063V328.711H37.9883V309.062ZM62.3368 328.711V313.974H65.7069V316.43H65.8605C66.1293 315.579 66.5902 314.924 67.243 314.464C67.9024 313.997 68.6544 313.764 69.4993 313.764C69.6913 313.764 69.9058 313.773 70.1426 313.792C70.3858 313.805 70.5875 313.827 70.7474 313.859V317.054C70.6003 317.002 70.3667 316.958 70.0466 316.92C69.733 316.875 69.4289 316.853 69.1345 316.853C68.5008 316.853 67.9311 316.99 67.4255 317.265C66.9262 317.534 66.5326 317.907 66.2446 318.388C65.9565 318.868 65.8125 319.42 65.8125 320.047V328.711H62.3368ZM73.5078 328.923C72.9254 328.923 72.4261 328.718 72.0101 328.308C71.594 327.898 71.3891 327.4 71.3955 326.811C71.3891 326.236 71.594 325.744 72.0101 325.334C72.4261 324.924 72.9254 324.72 73.5078 324.72C74.0711 324.72 74.5608 324.924 74.9768 325.334C75.3992 325.744 75.6136 326.236 75.6201 326.811C75.6136 327.201 75.5112 327.556 75.3128 327.877C75.1208 328.197 74.8648 328.452 74.5448 328.643C74.2311 328.829 73.8854 328.923 73.5078 328.923ZM93.219 309.062H96.7522V322.878C96.7459 324.144 96.477 325.235 95.9457 326.149C95.4144 327.057 94.6721 327.758 93.7183 328.251C92.771 328.737 91.6668 328.98 90.4059 328.98C89.2538 328.98 88.2168 328.775 87.2951 328.365C86.3798 327.95 85.6533 327.335 85.1156 326.524C84.5779 325.711 84.3092 324.7 84.3092 323.492H87.852C87.8584 324.022 87.9736 324.479 88.1976 324.863C88.428 325.247 88.7449 325.542 89.1481 325.746C89.5514 325.951 90.0154 326.053 90.5403 326.053C91.1099 326.053 91.5932 325.935 91.9901 325.699C92.3869 325.455 92.6878 325.097 92.8926 324.623C93.1038 324.151 93.2126 323.569 93.219 322.878V309.062ZM104.707 329.008C103.772 329.008 102.931 328.842 102.182 328.51C101.439 328.171 100.85 327.672 100.415 327.012C99.9863 326.354 99.7718 325.542 99.7718 324.576C99.7718 323.744 99.9254 323.056 100.233 322.513C100.54 321.969 100.959 321.535 101.49 321.208C102.022 320.882 102.62 320.636 103.286 320.47C103.958 320.297 104.652 320.172 105.369 320.096C106.233 320.006 106.934 319.926 107.472 319.856C108.01 319.778 108.4 319.664 108.643 319.51C108.893 319.351 109.018 319.104 109.018 318.771V318.713C109.018 317.991 108.803 317.431 108.374 317.035C107.946 316.639 107.328 316.439 106.521 316.439C105.67 316.439 104.995 316.625 104.496 316.997C104.003 317.367 103.67 317.805 103.497 318.31L100.252 317.85C100.508 316.955 100.93 316.206 101.519 315.605C102.108 314.997 102.828 314.544 103.68 314.243C104.531 313.936 105.472 313.783 106.502 313.783C107.213 313.783 107.92 313.865 108.624 314.032C109.328 314.198 109.971 314.473 110.554 314.857C111.136 315.234 111.604 315.749 111.956 316.401C112.314 317.054 112.493 317.869 112.493 318.849V328.711H109.152V326.687H109.037C108.826 327.096 108.528 327.479 108.144 327.837C107.766 328.19 107.29 328.475 106.714 328.692C106.144 328.902 105.475 329.008 104.707 329.008ZM105.609 326.456C106.307 326.456 106.912 326.319 107.424 326.044C107.936 325.763 108.33 325.391 108.605 324.931C108.886 324.47 109.027 323.968 109.027 323.425V321.688C108.919 321.778 108.733 321.861 108.47 321.938C108.215 322.014 107.926 322.082 107.606 322.139C107.286 322.196 106.969 322.248 106.656 322.292C106.342 322.337 106.07 322.375 105.84 322.408C105.321 322.478 104.857 322.593 104.448 322.753C104.038 322.912 103.715 323.136 103.478 323.425C103.241 323.706 103.123 324.071 103.123 324.519C103.123 325.158 103.356 325.641 103.823 325.967C104.291 326.293 104.886 326.456 105.609 326.456ZM119.157 324.087L119.147 319.894H119.704L125.004 313.974H129.065L122.546 321.227H121.826L119.157 324.087ZM115.988 328.711V309.062H119.463V328.711H115.988ZM125.244 328.711L120.443 322.005L122.785 319.558L129.401 328.711H125.244ZM137.206 328.999C135.767 328.999 134.518 328.682 133.463 328.049C132.406 327.415 131.587 326.529 131.005 325.391C130.428 324.253 130.141 322.923 130.141 321.401C130.141 319.877 130.428 318.545 131.005 317.4C131.587 316.255 132.406 315.366 133.463 314.732C134.518 314.099 135.767 313.783 137.206 313.783C138.647 313.783 139.895 314.099 140.951 314.732C142.008 315.366 142.823 316.255 143.4 317.4C143.982 318.545 144.273 319.877 144.273 321.401C144.273 322.923 143.982 324.253 143.4 325.391C142.823 326.529 142.008 327.415 140.951 328.049C139.895 328.682 138.647 328.999 137.206 328.999ZM137.225 326.216C138.007 326.216 138.66 326.003 139.185 325.574C139.709 325.139 140.1 324.557 140.356 323.828C140.619 323.098 140.749 322.287 140.749 321.39C140.749 320.489 140.619 319.674 140.356 318.944C140.1 318.208 139.709 317.624 139.185 317.188C138.66 316.754 138.007 316.536 137.225 316.536C136.426 316.536 135.76 316.754 135.229 317.188C134.704 317.624 134.31 318.208 134.047 318.944C133.792 319.674 133.664 320.489 133.664 321.39C133.664 322.287 133.792 323.098 134.047 323.828C134.31 324.557 134.704 325.139 135.229 325.574C135.76 326.003 136.426 326.216 137.225 326.216ZM147.377 328.711V309.062H150.852V316.411H150.996C151.175 316.053 151.429 315.673 151.756 315.27C152.081 314.86 152.523 314.511 153.08 314.224C153.637 313.929 154.348 313.783 155.212 313.783C156.351 313.783 157.378 314.073 158.293 314.655C159.215 315.232 159.944 316.085 160.483 317.217C161.027 318.343 161.298 319.724 161.298 321.362C161.298 322.98 161.033 324.356 160.502 325.487C159.97 326.619 159.247 327.483 158.332 328.078C157.416 328.673 156.38 328.97 155.221 328.97C154.376 328.97 153.675 328.829 153.119 328.548C152.561 328.266 152.114 327.928 151.775 327.531C151.441 327.128 151.182 326.748 150.996 326.39H150.795V328.711H147.377ZM150.786 321.343C150.786 322.295 150.92 323.131 151.189 323.847C151.464 324.563 151.857 325.122 152.369 325.525C152.888 325.923 153.515 326.121 154.251 326.121C155.019 326.121 155.662 325.916 156.181 325.506C156.7 325.091 157.09 324.524 157.352 323.808C157.621 323.086 157.755 322.264 157.755 321.343C157.755 320.428 157.625 319.615 157.362 318.906C157.1 318.196 156.709 317.64 156.191 317.237C155.673 316.834 155.026 316.632 154.251 316.632C153.508 316.632 152.879 316.827 152.359 317.217C151.841 317.607 151.448 318.154 151.179 318.858C150.916 319.561 150.786 320.39 150.786 321.343ZM171.113 309.062H175.473L181.31 323.3H181.54L187.378 309.062H191.736V328.711H188.318V315.212H188.136L182.702 328.654H180.148L174.713 315.183H174.532V328.711H171.113V309.062ZM199.705 329.008C198.772 329.008 197.929 328.842 197.181 328.51C196.439 328.171 195.849 327.672 195.413 327.012C194.985 326.354 194.77 325.542 194.77 324.576C194.77 323.744 194.924 323.056 195.232 322.513C195.538 321.969 195.957 321.535 196.489 321.208C197.021 320.882 197.619 320.636 198.285 320.47C198.956 320.297 199.651 320.172 200.368 320.096C201.232 320.006 201.933 319.926 202.471 319.856C203.008 319.778 203.399 319.664 203.642 319.51C203.892 319.351 204.017 319.104 204.017 318.771V318.713C204.017 317.991 203.803 317.431 203.373 317.035C202.944 316.639 202.327 316.439 201.52 316.439C200.669 316.439 199.994 316.625 199.495 316.997C199.001 317.367 198.669 317.805 198.496 318.31L195.251 317.85C195.507 316.955 195.929 316.206 196.519 315.605C197.107 314.997 197.828 314.544 198.678 314.243C199.53 313.936 200.47 313.783 201.501 313.783C202.212 313.783 202.918 313.865 203.622 314.032C204.327 314.198 204.97 314.473 205.552 314.857C206.136 315.234 206.602 315.749 206.955 316.401C207.313 317.054 207.492 317.869 207.492 318.849V328.711H204.151V326.687H204.036C203.824 327.096 203.527 327.479 203.143 327.837C202.765 328.19 202.289 328.475 201.712 328.692C201.143 328.902 200.474 329.008 199.705 329.008ZM200.608 326.456C201.306 326.456 201.911 326.319 202.423 326.044C202.935 325.763 203.328 325.391 203.603 324.931C203.885 324.47 204.026 323.968 204.026 323.425V321.688C203.918 321.778 203.732 321.861 203.469 321.938C203.214 322.014 202.925 322.082 202.605 322.139C202.285 322.196 201.969 322.248 201.654 322.292C201.341 322.337 201.069 322.375 200.839 322.408C200.321 322.478 199.856 322.593 199.446 322.753C199.036 322.912 198.713 323.136 198.476 323.425C198.24 323.706 198.122 324.071 198.122 324.519C198.122 325.158 198.355 325.641 198.822 325.967C199.29 326.293 199.885 326.456 200.608 326.456ZM214.463 320.077V328.711H210.987V313.974H214.309V316.479H214.482C214.821 315.654 215.362 314.997 216.104 314.511C216.854 314.026 217.779 313.783 218.879 313.783C219.896 313.783 220.783 314 221.539 314.435C222.3 314.87 222.89 315.5 223.305 316.325C223.728 317.15 223.936 318.151 223.929 319.328V328.711H220.454V319.865C220.454 318.88 220.197 318.109 219.686 317.553C219.18 316.997 218.479 316.719 217.583 316.719C216.975 316.719 216.435 316.853 215.96 317.122C215.493 317.383 215.126 317.764 214.856 318.263C214.594 318.762 214.463 319.366 214.463 320.077ZM233.877 334.545C232.629 334.545 231.556 334.375 230.659 334.036C229.764 333.704 229.044 333.256 228.5 332.693C227.956 332.13 227.578 331.506 227.366 330.822L230.497 330.064C230.638 330.351 230.842 330.636 231.111 330.917C231.38 331.206 231.742 331.442 232.196 331.628C232.657 331.819 233.236 331.916 233.934 331.916C234.92 331.916 235.736 331.676 236.382 331.195C237.029 330.723 237.352 329.943 237.352 328.855V326.063H237.179C237 326.421 236.737 326.789 236.391 327.167C236.052 327.544 235.601 327.86 235.038 328.117C234.481 328.372 233.78 328.499 232.935 328.499C231.803 328.499 230.775 328.235 229.854 327.704C228.938 327.167 228.208 326.367 227.664 325.305C227.127 324.237 226.857 322.9 226.857 321.295C226.857 319.676 227.127 318.31 227.664 317.198C228.208 316.078 228.941 315.232 229.863 314.655C230.784 314.073 231.812 313.783 232.945 313.783C233.809 313.783 234.52 313.929 235.077 314.224C235.64 314.511 236.088 314.86 236.42 315.27C236.754 315.673 237.006 316.053 237.179 316.411H237.371V313.974H240.798V328.951C240.798 330.21 240.497 331.254 239.896 332.078C239.294 332.903 238.472 333.521 237.429 333.93C236.386 334.34 235.202 334.545 233.877 334.545ZM233.905 325.775C234.642 325.775 235.268 325.596 235.787 325.238C236.306 324.88 236.699 324.365 236.968 323.694C237.236 323.022 237.371 322.216 237.371 321.276C237.371 320.348 237.236 319.535 236.968 318.838C236.705 318.142 236.315 317.601 235.796 317.217C235.285 316.827 234.654 316.632 233.905 316.632C233.131 316.632 232.484 316.834 231.966 317.237C231.447 317.64 231.057 318.192 230.795 318.896C230.532 319.594 230.4 320.386 230.4 321.276C230.4 322.177 230.532 322.968 230.795 323.645C231.063 324.317 231.457 324.841 231.975 325.219C232.5 325.589 233.143 325.775 233.905 325.775ZM250.794 328.999C249.353 328.999 248.105 328.682 247.049 328.049C245.993 327.415 245.174 326.529 244.591 325.391C244.016 324.253 243.727 322.923 243.727 321.401C243.727 319.877 244.016 318.545 244.591 317.4C245.174 316.255 245.993 315.366 247.049 314.732C248.105 314.099 249.353 313.783 250.794 313.783C252.234 313.783 253.482 314.099 254.537 314.732C255.594 315.366 256.41 316.255 256.987 317.4C257.569 318.545 257.86 319.877 257.86 321.401C257.86 322.923 257.569 324.253 256.987 325.391C256.41 326.529 255.594 327.415 254.537 328.049C253.482 328.682 252.234 328.999 250.794 328.999ZM250.813 326.216C251.594 326.216 252.246 326.003 252.771 325.574C253.296 325.139 253.687 324.557 253.943 323.828C254.205 323.098 254.336 322.287 254.336 321.39C254.336 320.489 254.205 319.674 253.943 318.944C253.687 318.208 253.296 317.624 252.771 317.188C252.246 316.754 251.594 316.536 250.813 316.536C250.012 316.536 249.346 316.754 248.816 317.188C248.291 317.624 247.898 318.208 247.635 318.944C247.378 319.674 247.251 320.489 247.251 321.39C247.251 322.287 247.378 323.098 247.635 323.828C247.898 324.557 248.291 325.139 248.816 325.574C249.346 326.003 250.012 326.216 250.813 326.216Z" fill="white"/>
<path d="M47.9798 239.011C46.7253 239.003 45.5006 238.785 44.3057 238.359C43.1109 237.924 42.0356 237.22 41.0798 236.249C40.1239 235.267 39.3644 233.967 38.8011 232.347C38.2378 230.718 37.9605 228.701 37.9689 226.296C37.9689 224.053 38.208 222.053 38.6859 220.296C39.1639 218.54 39.8508 217.055 40.747 215.845C41.643 214.625 42.7226 213.696 43.9858 213.055C45.2573 212.416 46.6783 212.096 48.2486 212.096C49.8958 212.096 51.3551 212.42 52.6268 213.069C53.907 213.716 54.9396 214.603 55.7248 215.729C56.5099 216.847 56.9964 218.109 57.1842 219.516H52.5115C52.2726 218.509 51.7819 217.708 51.0394 217.111C50.3054 216.506 49.3751 216.203 48.2486 216.203C46.4308 216.203 45.0312 216.992 44.0498 218.569C43.0768 220.147 42.5861 222.313 42.5776 225.068H42.7567C43.175 224.317 43.7169 223.673 44.3825 223.136C45.0482 222.599 45.7993 222.185 46.6356 221.896C47.4805 221.596 48.3724 221.448 49.3111 221.448C50.8474 221.448 52.2256 221.815 53.4461 222.547C54.675 223.281 55.6479 224.291 56.3649 225.579C57.0818 226.859 57.4358 228.326 57.4274 229.979C57.4358 231.703 57.0434 233.251 56.2496 234.623C55.456 235.989 54.3507 237.063 52.934 237.847C51.5174 238.632 49.866 239.02 47.9798 239.011ZM47.9542 235.174C48.8844 235.174 49.7166 234.947 50.4505 234.496C51.1845 234.043 51.7649 233.434 52.1915 232.667C52.6182 231.899 52.8273 231.038 52.8188 230.082C52.8273 229.144 52.6225 228.295 52.2043 227.537C51.7947 226.778 51.2272 226.177 50.5017 225.733C49.7763 225.29 48.9485 225.068 48.0182 225.068C47.327 225.068 46.6826 225.2 46.0852 225.464C45.4878 225.729 44.9672 226.096 44.5234 226.564C44.0796 227.024 43.7297 227.563 43.4737 228.176C43.2262 228.782 43.0982 229.43 43.0896 230.12C43.0982 231.033 43.3115 231.873 43.7297 232.641C44.1479 233.408 44.724 234.022 45.4579 234.482C46.1919 234.944 47.0239 235.174 47.9542 235.174ZM64.1564 238.653L75.3066 216.599V216.42H62.3641V212.454H80.2223V216.51L69.085 238.653H64.1564ZM94.6068 239.011C92.7633 239.011 91.1246 238.696 89.6909 238.064C88.2657 237.434 87.1392 236.555 86.3113 235.429C85.4835 234.303 85.0439 233.003 84.9928 231.527H89.8061C89.8488 232.235 90.0835 232.853 90.5102 233.383C90.9369 233.903 91.5045 234.308 92.2129 234.598C92.9211 234.888 93.7149 235.033 94.5939 235.033C95.5327 235.033 96.3648 234.871 97.0902 234.547C97.8156 234.214 98.3831 233.754 98.7929 233.165C99.2025 232.577 99.403 231.899 99.3945 231.131C99.403 230.339 99.1982 229.638 98.78 229.034C98.3618 228.428 97.7559 227.954 96.9622 227.613C96.177 227.272 95.2297 227.102 94.1202 227.102H91.8031V223.444H94.1202C95.0334 223.444 95.8314 223.285 96.5141 222.97C97.2055 222.654 97.7473 222.211 98.1399 221.639C98.5325 221.059 98.7246 220.391 98.716 219.631C98.7246 218.889 98.5581 218.245 98.2167 217.699C97.8839 217.145 97.4103 216.714 96.7957 216.408C96.1899 216.1 95.4772 215.947 94.6579 215.947C93.8557 215.947 93.1132 216.091 92.4304 216.382C91.7477 216.671 91.1972 217.085 90.779 217.622C90.3608 218.151 90.1389 218.782 90.1133 219.516H85.5432C85.5773 218.049 85.9998 216.761 86.8105 215.652C87.6299 214.536 88.7223 213.665 90.0878 213.043C91.4532 212.411 92.9852 212.096 94.6835 212.096C96.4331 212.096 97.9522 212.425 99.2409 213.081C100.538 213.73 101.541 214.603 102.249 215.704C102.958 216.804 103.312 218.019 103.312 219.349C103.32 220.825 102.885 222.061 102.006 223.06C101.135 224.057 99.9919 224.71 98.5752 225.016V225.221C100.419 225.477 101.831 226.16 102.812 227.268C103.802 228.369 104.293 229.737 104.285 231.374C104.285 232.841 103.867 234.155 103.03 235.314C102.202 236.466 101.059 237.37 99.5993 238.026C98.1485 238.684 96.4842 239.011 94.6068 239.011ZM119.441 239.011C117.537 239.011 115.847 238.691 114.371 238.052C112.903 237.413 111.751 236.538 110.915 235.429C110.087 234.312 109.677 233.046 109.686 231.63C109.677 230.53 109.916 229.519 110.402 228.598C110.889 227.677 111.546 226.91 112.374 226.296C113.21 225.674 114.14 225.276 115.164 225.106V224.927C113.816 224.629 112.724 223.942 111.887 222.867C111.06 221.784 110.65 220.535 110.658 219.12C110.65 217.772 111.025 216.57 111.785 215.512C112.545 214.455 113.586 213.623 114.909 213.017C116.231 212.404 117.742 212.096 119.441 212.096C121.122 212.096 122.62 212.404 123.933 213.017C125.257 213.623 126.298 214.455 127.057 215.512C127.826 216.57 128.21 217.772 128.21 219.12C128.21 220.535 127.787 221.784 126.942 222.867C126.105 223.942 125.026 224.629 123.704 224.927V225.106C124.728 225.276 125.649 225.674 126.468 226.296C127.296 226.91 127.953 227.677 128.44 228.598C128.935 229.519 129.182 230.53 129.182 231.63C129.182 233.046 128.764 234.312 127.928 235.429C127.091 236.538 125.94 237.413 124.472 238.052C123.012 238.691 121.334 239.011 119.441 239.011ZM119.441 235.353C120.422 235.353 121.275 235.186 122 234.854C122.726 234.513 123.289 234.035 123.69 233.421C124.091 232.807 124.296 232.099 124.305 231.298C124.296 230.461 124.079 229.724 123.652 229.085C123.234 228.436 122.658 227.928 121.924 227.563C121.198 227.196 120.37 227.012 119.441 227.012C118.501 227.012 117.665 227.196 116.931 227.563C116.197 227.928 115.617 228.436 115.19 229.085C114.772 229.724 114.567 230.461 114.575 231.298C114.567 232.099 114.763 232.807 115.164 233.421C115.565 234.026 116.129 234.5 116.854 234.841C117.589 235.183 118.45 235.353 119.441 235.353ZM119.441 223.418C120.243 223.418 120.951 223.256 121.565 222.931C122.188 222.607 122.68 222.156 123.038 221.576C123.396 220.995 123.58 220.326 123.588 219.567C123.58 218.817 123.4 218.159 123.05 217.597C122.701 217.026 122.214 216.587 121.591 216.279C120.968 215.964 120.251 215.807 119.441 215.807C118.613 215.807 117.883 215.964 117.251 216.279C116.628 216.587 116.142 217.026 115.792 217.597C115.451 218.159 115.284 218.817 115.293 219.567C115.284 220.326 115.455 220.995 115.804 221.576C116.164 222.147 116.654 222.599 117.277 222.931C117.909 223.256 118.63 223.418 119.441 223.418ZM146.802 223.647V227.46H134.999V223.647H146.802ZM163.731 212.454V238.653H158.981V217.073H158.828L152.696 220.987V216.637L159.212 212.454H163.731ZM171.829 238.653V235.225L180.932 226.308C181.802 225.43 182.528 224.65 183.108 223.968C183.688 223.285 184.123 222.624 184.414 221.985C184.703 221.345 184.849 220.663 184.849 219.938C184.849 219.111 184.662 218.403 184.285 217.815C183.91 217.217 183.394 216.757 182.736 216.433C182.08 216.108 181.333 215.947 180.497 215.947C179.634 215.947 178.879 216.126 178.23 216.484C177.581 216.833 177.079 217.333 176.72 217.98C176.37 218.629 176.195 219.401 176.195 220.296H171.676C171.676 218.633 172.056 217.188 172.815 215.96C173.575 214.732 174.621 213.78 175.952 213.107C177.292 212.433 178.828 212.096 180.56 212.096C182.318 212.096 183.863 212.425 185.194 213.081C186.526 213.738 187.559 214.638 188.292 215.781C189.035 216.923 189.407 218.228 189.407 219.695C189.407 220.675 189.218 221.639 188.843 222.586C188.467 223.532 187.806 224.582 186.858 225.733C185.92 226.884 184.602 228.279 182.903 229.916L178.385 234.508V234.687H189.803V238.653H171.829ZM205.071 239.011C203.227 239.011 201.589 238.696 200.155 238.064C198.73 237.434 197.603 236.555 196.775 235.429C195.947 234.303 195.508 233.003 195.457 231.527H200.27C200.313 232.235 200.548 232.853 200.974 233.383C201.401 233.903 201.969 234.308 202.677 234.598C203.385 234.888 204.179 235.033 205.058 235.033C205.997 235.033 206.829 234.871 207.554 234.547C208.279 234.214 208.847 233.754 209.257 233.165C209.666 232.577 209.867 231.899 209.859 231.131C209.867 230.339 209.662 229.638 209.244 229.034C208.826 228.428 208.22 227.954 207.427 227.613C206.642 227.272 205.694 227.102 204.584 227.102H202.267V223.444H204.584C205.497 223.444 206.296 223.285 206.978 222.97C207.67 222.654 208.212 222.211 208.604 221.639C208.997 221.059 209.189 220.391 209.18 219.631C209.189 218.889 209.022 218.245 208.681 217.699C208.348 217.145 207.874 216.714 207.26 216.408C206.654 216.1 205.941 215.947 205.122 215.947C204.32 215.947 203.577 216.091 202.895 216.382C202.212 216.671 201.661 217.085 201.243 217.622C200.825 218.151 200.603 218.782 200.577 219.516H196.007C196.042 218.049 196.464 216.761 197.274 215.652C198.094 214.536 199.186 213.665 200.551 213.043C201.917 212.411 203.449 212.096 205.148 212.096C206.897 212.096 208.416 212.425 209.705 213.081C211.002 213.73 212.005 214.603 212.714 215.704C213.422 216.804 213.776 218.019 213.776 219.349C213.785 220.825 213.349 222.061 212.47 223.06C211.599 224.057 210.456 224.71 209.039 225.016V225.221C210.883 225.477 212.296 226.16 213.277 227.268C214.267 228.369 214.757 229.737 214.749 231.374C214.749 232.841 214.33 234.155 213.494 235.314C212.666 236.466 211.523 237.37 210.064 238.026C208.613 238.684 206.948 239.011 205.071 239.011ZM220.112 233.792V230.019L231.236 212.454H234.385V217.827H232.465L224.976 229.686V229.891H240.504V233.792H220.112ZM232.618 238.653V232.641L232.669 230.952V212.454H237.15V238.653H232.618ZM258.006 223.647V227.46H246.202V223.647H258.006ZM273.372 212.096C274.627 212.105 275.847 212.327 277.033 212.762C278.228 213.188 279.304 213.887 280.26 214.86C281.216 215.824 281.975 217.115 282.539 218.736C283.102 220.356 283.384 222.361 283.384 224.748C283.391 227 283.153 229.012 282.666 230.785C282.188 232.552 281.501 234.043 280.605 235.264C279.709 236.483 278.63 237.413 277.367 238.052C276.104 238.691 274.682 239.011 273.104 239.011C271.448 239.011 269.98 238.687 268.7 238.04C267.428 237.391 266.4 236.504 265.615 235.378C264.829 234.253 264.347 232.965 264.168 231.515H268.841C269.08 232.555 269.567 233.383 270.3 233.997C271.042 234.603 271.977 234.905 273.104 234.905C274.921 234.905 276.321 234.117 277.302 232.538C278.284 230.961 278.775 228.769 278.775 225.963H278.596C278.178 226.714 277.636 227.362 276.97 227.908C276.304 228.445 275.548 228.858 274.704 229.149C273.868 229.438 272.98 229.583 272.042 229.583C270.505 229.583 269.123 229.216 267.894 228.483C266.674 227.749 265.705 226.743 264.987 225.464C264.28 224.185 263.92 222.722 263.912 221.076C263.912 219.371 264.304 217.84 265.09 216.484C265.884 215.12 266.989 214.045 268.405 213.26C269.822 212.468 271.478 212.079 273.372 212.096ZM273.385 215.934C272.464 215.934 271.631 216.16 270.889 216.612C270.155 217.055 269.574 217.661 269.147 218.428C268.73 219.187 268.521 220.036 268.521 220.974C268.529 221.904 268.739 222.748 269.147 223.507C269.567 224.266 270.133 224.868 270.851 225.311C271.576 225.755 272.404 225.976 273.334 225.976C274.025 225.976 274.67 225.844 275.267 225.579C275.865 225.316 276.385 224.949 276.829 224.479C277.281 224.002 277.631 223.46 277.878 222.855C278.135 222.249 278.259 221.61 278.25 220.935C278.25 220.04 278.037 219.213 277.61 218.454C277.192 217.696 276.615 217.085 275.882 216.625C275.156 216.165 274.324 215.934 273.385 215.934ZM298.408 239.011C296.504 239.011 294.815 238.691 293.339 238.052C291.871 237.413 290.718 236.538 289.881 235.429C289.055 234.312 288.644 233.046 288.653 231.63C288.644 230.53 288.883 229.519 289.37 228.598C289.857 227.677 290.513 226.91 291.341 226.296C292.177 225.674 293.108 225.276 294.132 225.106V224.927C292.783 224.629 291.692 223.942 290.855 222.867C290.027 221.784 289.618 220.535 289.626 219.12C289.618 217.772 289.993 216.57 290.752 215.512C291.511 214.455 292.554 213.623 293.876 213.017C295.199 212.404 296.709 212.096 298.408 212.096C300.089 212.096 301.587 212.404 302.901 213.017C304.224 213.623 305.265 214.455 306.025 215.512C306.793 216.57 307.177 217.772 307.177 219.12C307.177 220.535 306.755 221.784 305.91 222.867C305.073 223.942 303.994 224.629 302.671 224.927V225.106C303.695 225.276 304.616 225.674 305.435 226.296C306.263 226.91 306.92 227.677 307.407 228.598C307.903 229.519 308.149 230.53 308.149 231.63C308.149 233.046 307.731 234.312 306.895 235.429C306.058 236.538 304.907 237.413 303.439 238.052C301.979 238.691 300.302 239.011 298.408 239.011ZM298.408 235.353C299.389 235.353 300.242 235.186 300.968 234.854C301.693 234.513 302.256 234.035 302.657 233.421C303.058 232.807 303.264 232.099 303.273 231.298C303.264 230.461 303.046 229.724 302.619 229.085C302.201 228.436 301.626 227.928 300.891 227.563C300.166 227.196 299.338 227.012 298.408 227.012C297.469 227.012 296.633 227.196 295.898 227.563C295.165 227.928 294.585 228.436 294.158 229.085C293.74 229.724 293.535 230.461 293.543 231.298C293.535 232.099 293.731 232.807 294.132 233.421C294.533 234.026 295.096 234.5 295.822 234.841C296.556 235.183 297.418 235.353 298.408 235.353ZM298.408 223.418C299.21 223.418 299.919 223.256 300.533 222.931C301.156 222.607 301.647 222.156 302.005 221.576C302.363 220.995 302.547 220.326 302.555 219.567C302.547 218.817 302.368 218.159 302.018 217.597C301.668 217.026 301.182 216.587 300.559 216.279C299.936 215.964 299.218 215.807 298.408 215.807C297.58 215.807 296.85 215.964 296.218 216.279C295.595 216.587 295.11 217.026 294.759 217.597C294.418 218.159 294.251 218.817 294.26 219.567C294.251 220.326 294.422 220.995 294.772 221.576C295.131 222.147 295.621 222.599 296.244 222.931C296.876 223.256 297.597 223.418 298.408 223.418ZM314.76 238.653L325.91 216.599V216.42H312.969V212.454H330.826V216.51L319.688 238.653H314.76ZM345.21 239.011C343.367 239.011 341.729 238.696 340.295 238.064C338.87 237.434 337.743 236.555 336.915 235.429C336.087 234.303 335.648 233.003 335.596 231.527H340.41C340.453 232.235 340.687 232.853 341.114 233.383C341.541 233.903 342.109 234.308 342.816 234.598C343.525 234.888 344.319 235.033 345.198 235.033C346.136 235.033 346.969 234.871 347.694 234.547C348.42 234.214 348.987 233.754 349.396 233.165C349.806 232.577 350.007 231.899 349.998 231.131C350.007 230.339 349.802 229.638 349.384 229.034C348.966 228.428 348.36 227.954 347.566 227.613C346.781 227.272 345.833 227.102 344.725 227.102H342.407V223.444H344.725C345.637 223.444 346.436 223.285 347.118 222.97C347.809 222.654 348.351 222.211 348.744 221.639C349.136 221.059 349.329 220.391 349.32 219.631C349.329 218.889 349.162 218.245 348.821 217.699C348.488 217.145 348.014 216.714 347.4 216.408C346.794 216.1 346.081 215.947 345.262 215.947C344.46 215.947 343.717 216.091 343.035 216.382C342.352 216.671 341.801 217.085 341.383 217.622C340.965 218.151 340.743 218.782 340.717 219.516H336.147C336.181 218.049 336.603 216.761 337.415 215.652C338.234 214.536 339.326 213.665 340.692 213.043C342.057 212.411 343.589 212.096 345.288 212.096C347.037 212.096 348.556 212.425 349.845 213.081C351.143 213.73 352.145 214.603 352.854 215.704C353.561 216.804 353.916 218.019 353.916 219.349C353.924 220.825 353.489 222.061 352.61 223.06C351.74 224.057 350.596 224.71 349.179 225.016V225.221C351.023 225.477 352.435 226.16 353.417 227.268C354.406 228.369 354.897 229.737 354.888 231.374C354.888 232.841 354.47 234.155 353.634 235.314C352.806 236.466 351.663 237.37 350.203 238.026C348.752 238.684 347.088 239.011 345.21 239.011ZM372.694 223.647V227.46H360.892V223.647H372.694ZM389.623 212.454V238.653H384.873V217.073H384.72L378.588 220.987V216.637L385.104 212.454H389.623ZM397.721 238.653V235.225L406.824 226.308C407.694 225.43 408.419 224.65 409 223.968C409.581 223.285 410.015 222.624 410.306 221.985C410.596 221.345 410.741 220.663 410.741 219.938C410.741 219.111 410.553 218.403 410.178 217.815C409.802 217.217 409.285 216.757 408.629 216.433C407.972 216.108 407.225 215.947 406.388 215.947C405.526 215.947 404.771 216.126 404.122 216.484C403.474 216.833 402.97 217.333 402.612 217.98C402.261 218.629 402.087 219.401 402.087 220.296H397.568C397.568 218.633 397.948 217.188 398.707 215.96C399.466 214.732 400.512 213.78 401.843 213.107C403.184 212.433 404.72 212.096 406.452 212.096C408.211 212.096 409.755 212.425 411.087 213.081C412.418 213.738 413.45 214.638 414.185 215.781C414.927 216.923 415.298 218.228 415.298 219.695C415.298 220.675 415.111 221.639 414.734 222.586C414.359 223.532 413.698 224.582 412.751 225.733C411.812 226.884 410.493 228.279 408.795 229.916L404.276 234.508V234.687H415.695V238.653H397.721ZM430.873 239.011C428.97 239.011 427.281 238.691 425.804 238.052C424.336 237.413 423.183 236.538 422.348 235.429C421.52 234.312 421.109 233.046 421.118 231.63C421.109 230.53 421.348 229.519 421.835 228.598C422.322 227.677 422.978 226.91 423.806 226.296C424.643 225.674 425.573 225.276 426.597 225.106V224.927C425.248 224.629 424.157 223.942 423.32 222.867C422.493 221.784 422.083 220.535 422.091 219.12C422.083 217.772 422.458 216.57 423.217 215.512C423.978 214.455 425.019 213.623 426.341 213.017C427.664 212.404 429.174 212.096 430.873 212.096C432.554 212.096 434.052 212.404 435.367 213.017C436.69 213.623 437.73 214.455 438.49 215.512C439.258 216.57 439.642 217.772 439.642 219.12C439.642 220.535 439.22 221.784 438.375 222.867C437.539 223.942 436.459 224.629 435.136 224.927V225.106C436.16 225.276 437.082 225.674 437.902 226.296C438.729 226.91 439.386 227.677 439.873 228.598C440.368 229.519 440.615 230.53 440.615 231.63C440.615 233.046 440.196 234.312 439.361 235.429C438.525 236.538 437.372 237.413 435.904 238.052C434.444 238.691 432.768 239.011 430.873 239.011ZM430.873 235.353C431.854 235.353 432.708 235.186 433.434 234.854C434.159 234.513 434.723 234.035 435.124 233.421C435.525 232.807 435.73 232.099 435.738 231.298C435.73 230.461 435.511 229.724 435.085 229.085C434.666 228.436 434.091 227.928 433.356 227.563C432.632 227.196 431.804 227.012 430.873 227.012C429.935 227.012 429.098 227.196 428.364 227.563C427.63 227.928 427.05 228.436 426.623 229.085C426.205 229.724 426 230.461 426.009 231.298C426 232.099 426.196 232.807 426.597 233.421C426.999 234.026 427.562 234.5 428.287 234.841C429.021 235.183 429.883 235.353 430.873 235.353ZM430.873 223.418C431.675 223.418 432.384 223.256 432.998 222.931C433.621 222.607 434.112 222.156 434.47 221.576C434.828 220.995 435.012 220.326 435.021 219.567C435.012 218.817 434.833 218.159 434.483 217.597C434.133 217.026 433.647 216.587 433.024 216.279C432.401 215.964 431.684 215.807 430.873 215.807C430.045 215.807 429.315 215.964 428.684 216.279C428.061 216.587 427.575 217.026 427.224 217.597C426.883 218.159 426.717 218.817 426.725 219.567C426.717 220.326 426.888 220.995 427.238 221.576C427.596 222.147 428.086 222.599 428.709 222.931C429.341 223.256 430.062 223.418 430.873 223.418ZM455.675 239.011C453.831 239.011 452.193 238.696 450.759 238.064C449.334 237.434 448.207 236.555 447.379 235.429C446.551 234.303 446.112 233.003 446.061 231.527H450.874C450.917 232.235 451.152 232.853 451.578 233.383C452.005 233.903 452.573 234.308 453.281 234.598C453.99 234.888 454.783 235.033 455.662 235.033C456.601 235.033 457.432 234.871 458.158 234.547C458.883 234.214 459.451 233.754 459.861 233.165C460.27 232.577 460.471 231.899 460.463 231.131C460.471 230.339 460.266 229.638 459.848 229.034C459.43 228.428 458.824 227.954 458.031 227.613C457.245 227.272 456.298 227.102 455.188 227.102H452.871V223.444H455.188C456.102 223.444 456.9 223.285 457.582 222.97C458.274 222.654 458.816 222.211 459.208 221.639C459.601 221.059 459.793 220.391 459.784 219.631C459.793 218.889 459.626 218.245 459.285 217.699C458.952 217.145 458.478 216.714 457.864 216.408C457.258 216.1 456.545 215.947 455.726 215.947C454.924 215.947 454.181 216.091 453.499 216.382C452.816 216.671 452.265 217.085 451.847 217.622C451.429 218.151 451.207 218.782 451.181 219.516H446.611C446.646 218.049 447.068 216.761 447.878 215.652C448.698 214.536 449.79 213.665 451.155 213.043C452.521 212.411 454.053 212.096 455.752 212.096C457.501 212.096 459.02 212.425 460.309 213.081C461.606 213.73 462.609 214.603 463.317 215.704C464.026 216.804 464.38 218.019 464.38 219.349C464.389 220.825 463.953 222.061 463.074 223.06C462.203 224.057 461.06 224.71 459.643 225.016V225.221C461.487 225.477 462.9 226.16 463.881 227.268C464.871 228.369 465.361 229.737 465.353 231.374C465.353 232.841 464.934 234.155 464.098 235.314C463.27 236.466 462.127 237.37 460.668 238.026C459.217 238.684 457.552 239.011 455.675 239.011Z" fill="white"/>
<path d="M49.3106 180.116H47.7232C47.6293 179.66 47.4651 179.259 47.2303 178.914C46.9999 178.568 46.7183 178.278 46.3854 178.043C46.0569 177.805 45.692 177.626 45.2909 177.506C44.8898 177.387 44.4716 177.327 44.0364 177.327C43.2427 177.327 42.5236 177.528 41.8793 177.929C41.2393 178.329 40.7293 178.92 40.3495 179.7C39.9739 180.481 39.7863 181.437 39.7863 182.572C39.7863 183.706 39.9739 184.664 40.3495 185.444C40.7293 186.224 41.2393 186.815 41.8793 187.216C42.5236 187.617 43.2427 187.817 44.0364 187.817C44.4716 187.817 44.8898 187.757 45.2909 187.638C45.692 187.519 46.0569 187.342 46.3854 187.107C46.7183 186.868 46.9999 186.576 47.2303 186.231C47.4651 185.881 47.6293 185.48 47.7232 185.029H49.3106C49.1912 185.697 48.9735 186.297 48.6577 186.825C48.342 187.354 47.9494 187.805 47.48 188.175C47.0106 188.542 46.4836 188.821 45.899 189.012C45.3187 189.205 44.6977 189.301 44.0364 189.301C42.9184 189.301 41.9241 189.028 41.0536 188.482C40.1831 187.936 39.4982 187.161 38.9989 186.154C38.4996 185.148 38.25 183.953 38.25 182.572C38.25 181.191 38.4996 179.997 38.9989 178.99C39.4982 177.984 40.1831 177.208 41.0536 176.662C41.9241 176.116 42.9184 175.844 44.0364 175.844C44.6977 175.844 45.3187 175.939 45.899 176.131C46.4836 176.323 47.0106 176.605 47.48 176.975C47.9494 177.342 48.342 177.79 48.6577 178.318C48.9735 178.843 49.1912 179.443 49.3106 180.116ZM54.5641 189.352C53.941 189.352 53.3757 189.234 52.8678 189C52.36 188.761 51.9568 188.418 51.6581 187.97C51.3594 187.519 51.21 186.973 51.21 186.333C51.21 185.77 51.321 185.313 51.5429 184.964C51.7647 184.61 52.0614 184.333 52.4325 184.132C52.8039 183.932 53.2135 183.783 53.6615 183.684C54.1139 183.583 54.5684 183.502 55.0249 183.442C55.6223 183.365 56.1066 183.307 56.4778 183.269C56.8534 183.226 57.1265 183.156 57.2972 183.059C57.4721 182.961 57.5596 182.789 57.5596 182.546V182.496C57.5596 181.864 57.3868 181.373 57.0411 181.024C56.6998 180.674 56.1813 180.5 55.4858 180.5C54.7646 180.5 54.1992 180.657 53.7896 180.973C53.3799 181.289 53.0919 181.625 52.9254 181.983L51.4917 181.472C51.7477 180.875 52.0891 180.41 52.5158 180.078C52.9468 179.741 53.4161 179.506 53.924 179.374C54.436 179.238 54.9395 179.169 55.4345 179.169C55.7503 179.169 56.1131 179.207 56.5227 179.284C56.9366 179.357 57.3356 179.508 57.7196 179.739C58.1079 179.968 58.4301 180.316 58.6862 180.781C58.9421 181.246 59.0702 181.869 59.0702 182.649V189.122H57.5596V187.791H57.4828C57.3804 188.005 57.2097 188.232 56.9707 188.475C56.7318 188.719 56.4138 188.926 56.0171 189.096C55.6202 189.267 55.1359 189.352 54.5641 189.352ZM54.7944 187.996C55.3918 187.996 55.8954 187.879 56.305 187.645C56.719 187.409 57.0305 187.107 57.2396 186.736C57.453 186.365 57.5596 185.975 57.5596 185.565V184.184C57.4957 184.261 57.3548 184.331 57.1372 184.395C56.9238 184.454 56.6763 184.508 56.3947 184.555C56.1173 184.597 55.8463 184.636 55.5818 184.669C55.3214 184.7 55.1102 184.726 54.9481 184.747C54.5555 184.798 54.1885 184.881 53.8471 184.996C53.5101 185.107 53.2369 185.275 53.0278 185.501C52.823 185.723 52.7206 186.026 52.7206 186.41C52.7206 186.934 52.9148 187.331 53.3031 187.6C53.6956 187.864 54.1928 187.996 54.7944 187.996ZM61.8273 189.122V179.297H63.2867V180.781H63.3891C63.5684 180.295 63.8927 179.901 64.362 179.598C64.8314 179.295 65.3606 179.143 65.9494 179.143C66.0604 179.143 66.1991 179.145 66.3655 179.15C66.532 179.154 66.6578 179.161 66.7432 179.169V180.705C66.6919 180.691 66.5745 180.672 66.3911 180.647C66.2119 180.617 66.022 180.602 65.8214 180.602C65.3435 180.602 64.9167 180.702 64.5412 180.903C64.1701 181.099 63.8756 181.372 63.6579 181.721C63.4446 182.067 63.3379 182.461 63.3379 182.904V189.122H61.8273ZM71.947 189.327C71.1277 189.327 70.4044 189.119 69.7771 188.706C69.1498 188.287 68.6591 187.7 68.3049 186.94C67.9507 186.177 67.7736 185.275 67.7736 184.235C67.7736 183.203 67.9507 182.308 68.3049 181.549C68.6591 180.789 69.1519 180.204 69.7835 179.789C70.415 179.376 71.1448 179.169 71.9726 179.169C72.6127 179.169 73.1184 179.276 73.4896 179.489C73.865 179.698 74.151 179.937 74.3473 180.206C74.5478 180.469 74.7035 180.688 74.8145 180.858H74.9426V176.023H76.4531V189.122H74.9937V187.612H74.8145C74.7035 187.791 74.5457 188.017 74.3409 188.29C74.1361 188.559 73.8437 188.8 73.464 189.012C73.0841 189.222 72.5785 189.327 71.947 189.327ZM72.1518 187.97C72.7578 187.97 73.2698 187.812 73.688 187.497C74.1061 187.178 74.424 186.736 74.6417 186.173C74.8593 185.606 74.9681 184.951 74.9681 184.209C74.9681 183.476 74.8615 182.834 74.6481 182.284C74.4347 181.73 74.119 181.299 73.7008 180.992C73.2826 180.681 72.7663 180.526 72.1518 180.526C71.5117 180.526 70.9783 180.689 70.5516 181.018C70.1291 181.342 69.8112 181.783 69.5978 182.341C69.3887 182.896 69.2842 183.519 69.2842 184.209C69.2842 184.909 69.3909 185.544 69.6042 186.116C69.8219 186.682 70.1419 187.135 70.5644 187.471C70.9911 187.805 71.5203 187.97 72.1518 187.97ZM95.0986 176.023V189.122H93.5624L86.4192 178.837H86.2911V189.122H84.7037V176.023H86.2399L93.4088 186.333H93.5367V176.023H95.0986ZM104.266 185.105V179.297H105.777V189.122H104.266V187.459H104.164C103.933 187.958 103.575 188.382 103.088 188.731C102.602 189.077 101.987 189.25 101.245 189.25C100.63 189.25 100.084 189.115 99.6063 188.847C99.1284 188.573 98.753 188.165 98.4798 187.619C98.2067 187.068 98.0702 186.376 98.0702 185.54V179.297H99.5807V185.437C99.5807 186.154 99.7813 186.725 100.182 187.152C100.588 187.578 101.104 187.791 101.731 187.791C102.107 187.791 102.489 187.695 102.877 187.503C103.27 187.311 103.598 187.018 103.863 186.62C104.132 186.224 104.266 185.719 104.266 185.105ZM108.543 189.122V179.297H110.003V180.832H110.131C110.336 180.307 110.666 179.901 111.123 179.61C111.579 179.317 112.128 179.169 112.768 179.169C113.417 179.169 113.956 179.317 114.388 179.61C114.822 179.901 115.162 180.307 115.405 180.832H115.507C115.76 180.325 116.137 179.922 116.641 179.623C117.144 179.321 117.748 179.169 118.452 179.169C119.331 179.169 120.05 179.444 120.608 179.994C121.168 180.54 121.448 181.391 121.448 182.546V189.122H119.937V182.546C119.937 181.821 119.739 181.304 119.342 180.992C118.944 180.681 118.477 180.526 117.94 180.526C117.249 180.526 116.713 180.734 116.333 181.152C115.953 181.566 115.763 182.09 115.763 182.725V189.122H114.228V182.393C114.228 181.835 114.046 181.385 113.684 181.043C113.321 180.698 112.853 180.526 112.282 180.526C111.889 180.526 111.522 180.629 111.181 180.839C110.843 181.048 110.57 181.337 110.361 181.709C110.156 182.076 110.054 182.499 110.054 182.981V189.122H108.543ZM124.414 189.122V176.023H125.924V180.858H126.053C126.163 180.688 126.318 180.469 126.514 180.206C126.714 179.937 127 179.698 127.371 179.489C127.747 179.276 128.254 179.169 128.895 179.169C129.722 179.169 130.452 179.376 131.084 179.789C131.715 180.204 132.208 180.789 132.562 181.549C132.917 182.308 133.094 183.203 133.094 184.235C133.094 185.275 132.917 186.177 132.562 186.94C132.208 187.7 131.717 188.287 131.09 188.706C130.463 189.119 129.74 189.327 128.92 189.327C128.289 189.327 127.783 189.222 127.404 189.012C127.024 188.8 126.731 188.559 126.526 188.29C126.322 188.017 126.163 187.791 126.053 187.612H125.874V189.122H124.414ZM125.9 184.209C125.9 184.951 126.008 185.606 126.225 186.173C126.443 186.736 126.762 187.178 127.179 187.497C127.597 187.812 128.11 187.97 128.716 187.97C129.347 187.97 129.874 187.805 130.297 187.471C130.724 187.135 131.043 186.682 131.256 186.116C131.474 185.544 131.583 184.909 131.583 184.209C131.583 183.519 131.476 182.896 131.263 182.341C131.054 181.783 130.736 181.342 130.309 181.018C129.887 180.689 129.356 180.526 128.716 180.526C128.101 180.526 127.585 180.681 127.167 180.992C126.748 181.299 126.433 181.73 126.22 182.284C126.006 182.834 125.9 183.476 125.9 184.209ZM139.526 189.327C138.579 189.327 137.762 189.117 137.075 188.7C136.392 188.277 135.865 187.689 135.494 186.934C135.127 186.176 134.944 185.292 134.944 184.287C134.944 183.28 135.127 182.393 135.494 181.625C135.865 180.853 136.381 180.252 137.043 179.822C137.708 179.386 138.485 179.169 139.373 179.169C139.885 179.169 140.39 179.255 140.889 179.425C141.39 179.596 141.844 179.873 142.254 180.257C142.663 180.636 142.989 181.139 143.233 181.766C143.476 182.393 143.598 183.164 143.598 184.082V184.721H136.018V183.416H142.061C142.061 182.862 141.951 182.367 141.729 181.933C141.51 181.497 141.199 181.154 140.794 180.903C140.393 180.651 139.919 180.526 139.373 180.526C138.772 180.526 138.251 180.674 137.811 180.973C137.376 181.267 137.041 181.651 136.806 182.124C136.571 182.598 136.454 183.105 136.454 183.646V184.516C136.454 185.258 136.582 185.887 136.838 186.403C137.099 186.915 137.459 187.305 137.92 187.574C138.381 187.838 138.916 187.97 139.526 187.97C139.923 187.97 140.282 187.915 140.602 187.805C140.927 187.689 141.206 187.519 141.44 187.292C141.675 187.062 141.856 186.777 141.984 186.436L143.443 186.844C143.29 187.34 143.032 187.774 142.669 188.149C142.307 188.521 141.858 188.81 141.325 189.019C140.791 189.224 140.192 189.327 139.526 189.327ZM145.896 189.122V179.297H147.355V180.781H147.457C147.636 180.295 147.961 179.901 148.43 179.598C148.899 179.295 149.429 179.143 150.018 179.143C150.128 179.143 150.267 179.145 150.433 179.15C150.6 179.154 150.725 179.161 150.811 179.169V180.705C150.76 180.691 150.643 180.672 150.459 180.647C150.28 180.617 150.09 180.602 149.889 180.602C149.412 180.602 148.985 180.702 148.61 180.903C148.238 181.099 147.944 181.372 147.726 181.721C147.512 182.067 147.405 182.461 147.405 182.904V189.122H145.896Z" fill="white"/>
<path d="M527.224 329.085C525.643 329.085 524.286 328.685 523.153 327.886C522.027 327.08 521.159 325.919 520.552 324.403C519.949 322.881 519.648 321.048 519.648 318.906C519.655 316.763 519.959 314.94 520.561 313.437C521.169 311.928 522.037 310.776 523.163 309.983C524.295 309.19 525.649 308.794 527.224 308.794C528.799 308.794 530.152 309.19 531.286 309.983C532.419 310.776 533.286 311.928 533.888 313.437C534.495 314.947 534.799 316.769 534.799 318.906C534.799 321.055 534.495 322.891 533.888 324.413C533.286 325.928 532.419 327.087 531.286 327.886C530.159 328.685 528.805 329.085 527.224 329.085ZM527.224 326.082C528.453 326.082 529.423 325.478 530.133 324.269C530.851 323.053 531.209 321.265 531.209 318.906C531.209 317.345 531.046 316.034 530.719 314.972C530.392 313.91 529.931 313.111 529.337 312.574C528.741 312.03 528.037 311.758 527.224 311.758C526.002 311.758 525.036 312.365 524.325 313.581C523.614 314.79 523.256 316.564 523.249 318.906C523.243 320.473 523.4 321.79 523.72 322.858C524.046 323.927 524.507 324.733 525.102 325.276C525.698 325.813 526.405 326.082 527.224 326.082ZM544.979 328.98C543.551 328.98 542.284 328.74 541.177 328.26C540.076 327.78 539.212 327.125 538.584 326.293C537.964 325.455 537.656 324.505 537.663 323.444C537.656 322.619 537.836 321.861 538.2 321.17C538.565 320.48 539.059 319.903 539.679 319.443C540.307 318.976 541.004 318.679 541.772 318.55V318.416C540.761 318.192 539.942 317.678 539.314 316.872C538.694 316.059 538.386 315.122 538.393 314.061C538.386 313.05 538.668 312.148 539.238 311.355C539.808 310.562 540.589 309.938 541.58 309.484C542.572 309.023 543.706 308.794 544.979 308.794C546.24 308.794 547.364 309.023 548.349 309.484C549.342 309.938 550.122 310.562 550.692 311.355C551.268 312.148 551.556 313.05 551.556 314.061C551.556 315.122 551.239 316.059 550.606 316.872C549.978 317.678 549.168 318.192 548.177 318.416V318.55C548.944 318.679 549.636 318.976 550.25 319.443C550.872 319.903 551.364 320.48 551.729 321.17C552.101 321.861 552.285 322.619 552.285 323.444C552.285 324.505 551.972 325.455 551.345 326.293C550.717 327.125 549.853 327.78 548.753 328.26C547.658 328.74 546.4 328.98 544.979 328.98ZM544.979 326.236C545.715 326.236 546.355 326.111 546.899 325.862C547.443 325.605 547.866 325.247 548.167 324.787C548.467 324.326 548.621 323.796 548.627 323.194C548.621 322.568 548.458 322.014 548.137 321.534C547.824 321.048 547.393 320.668 546.842 320.393C546.298 320.117 545.677 319.98 544.979 319.98C544.275 319.98 543.648 320.117 543.097 320.393C542.546 320.668 542.112 321.048 541.792 321.534C541.478 322.014 541.324 322.568 541.331 323.194C541.324 323.796 541.472 324.326 541.772 324.787C542.073 325.242 542.496 325.596 543.04 325.852C543.591 326.107 544.236 326.236 544.979 326.236ZM544.979 317.284C545.581 317.284 546.112 317.162 546.573 316.92C547.04 316.677 547.409 316.338 547.677 315.903C547.946 315.468 548.083 314.966 548.09 314.396C548.083 313.833 547.949 313.341 547.687 312.919C547.424 312.49 547.059 312.161 546.592 311.931C546.125 311.695 545.587 311.575 544.979 311.575C544.358 311.575 543.812 311.695 543.337 311.931C542.87 312.161 542.505 312.49 542.243 312.919C541.987 313.341 541.862 313.833 541.868 314.396C541.862 314.966 541.99 315.468 542.252 315.903C542.522 316.331 542.889 316.67 543.356 316.92C543.831 317.162 544.371 317.284 544.979 317.284ZM563.507 308.141L557.17 331.666H554.127L560.464 308.141H563.507ZM565.687 328.711V326.14L572.513 319.453C573.166 318.793 573.71 318.208 574.145 317.697C574.581 317.185 574.907 316.689 575.125 316.21C575.342 315.73 575.45 315.218 575.45 314.674C575.45 314.054 575.311 313.524 575.029 313.081C574.747 312.635 574.36 312.289 573.866 312.046C573.374 311.803 572.814 311.681 572.187 311.681C571.54 311.681 570.973 311.815 570.487 312.084C570 312.346 569.623 312.72 569.355 313.206C569.092 313.693 568.96 314.271 568.96 314.943H565.572C565.572 313.696 565.856 312.612 566.426 311.691C566.996 310.769 567.78 310.057 568.778 309.551C569.783 309.046 570.935 308.794 572.234 308.794C573.553 308.794 574.711 309.04 575.711 309.532C576.709 310.025 577.483 310.699 578.033 311.556C578.59 312.414 578.869 313.392 578.869 314.492C578.869 315.228 578.729 315.951 578.447 316.66C578.165 317.37 577.668 318.157 576.959 319.021C576.255 319.884 575.266 320.93 573.991 322.158L570.603 325.603V325.737H579.167V328.711H565.687ZM582.479 328.711V326.14L589.306 319.453C589.958 318.793 590.502 318.208 590.938 317.697C591.373 317.185 591.7 316.689 591.917 316.21C592.134 315.73 592.244 315.218 592.244 314.674C592.244 314.054 592.103 313.524 591.821 313.081C591.54 312.635 591.152 312.289 590.659 312.046C590.166 311.803 589.606 311.681 588.979 311.681C588.332 311.681 587.766 311.815 587.279 312.084C586.793 312.346 586.415 312.72 586.147 313.206C585.884 313.693 585.752 314.271 585.752 314.943H582.364C582.364 313.696 582.649 312.612 583.218 311.691C583.788 310.769 584.572 310.057 585.57 309.551C586.576 309.046 587.727 308.794 589.027 308.794C590.345 308.794 591.505 309.04 592.503 309.532C593.501 310.025 594.276 310.699 594.826 311.556C595.383 312.414 595.662 313.392 595.662 314.492C595.662 315.228 595.521 315.951 595.239 316.66C594.957 317.37 594.462 318.157 593.751 319.021C593.047 319.884 592.058 320.93 590.784 322.158L587.395 325.603V325.737H595.959V328.711H582.479Z" fill="white"/>
<path d="M520.332 278.463L524.224 289.49H524.377L528.269 278.463H529.933L525.12 291.562H523.482L518.668 278.463H520.332ZM533.748 291.793C533.125 291.793 532.56 291.675 532.052 291.441C531.544 291.202 531.141 290.859 530.842 290.411C530.544 289.959 530.394 289.413 530.394 288.774C530.394 288.211 530.506 287.754 530.728 287.405C530.95 287.051 531.246 286.774 531.616 286.573C531.988 286.373 532.398 286.224 532.845 286.125C533.298 286.024 533.752 285.943 534.21 285.883C534.807 285.805 535.291 285.748 535.662 285.71C536.038 285.667 536.311 285.597 536.482 285.499C536.657 285.401 536.744 285.23 536.744 284.987V284.936C536.744 284.305 536.571 283.814 536.225 283.465C535.884 283.115 535.366 282.94 534.67 282.94C533.948 282.94 533.384 283.098 532.974 283.413C532.564 283.73 532.277 284.066 532.11 284.424L530.676 283.913C530.931 283.315 531.273 282.85 531.7 282.518C532.131 282.182 532.601 281.946 533.108 281.815C533.62 281.679 534.124 281.61 534.619 281.61C534.934 281.61 535.297 281.648 535.707 281.725C536.121 281.798 536.52 281.949 536.904 282.179C537.292 282.409 537.614 282.757 537.871 283.222C538.127 283.687 538.254 284.309 538.254 285.089V291.562H536.744V290.232H536.667C536.564 290.446 536.394 290.673 536.155 290.916C535.916 291.159 535.599 291.367 535.201 291.536C534.804 291.708 534.32 291.793 533.748 291.793ZM533.979 290.437C534.576 290.437 535.079 290.32 535.489 290.085C535.903 289.85 536.215 289.547 536.423 289.177C536.637 288.806 536.744 288.416 536.744 288.006V286.625C536.68 286.702 536.539 286.771 536.322 286.835C536.108 286.895 535.86 286.949 535.578 286.995C535.301 287.038 535.031 287.076 534.766 287.11C534.506 287.141 534.294 287.166 534.132 287.188C533.74 287.238 533.373 287.322 533.031 287.437C532.694 287.548 532.421 287.716 532.212 287.942C532.007 288.164 531.905 288.467 531.905 288.851C531.905 289.375 532.099 289.771 532.487 290.04C532.88 290.305 533.377 290.437 533.979 290.437ZM542.522 278.463V291.562H541.012V278.463H542.522ZM545.289 291.562V281.738H546.8V291.562H545.289ZM546.057 280.1C545.762 280.1 545.509 280 545.295 279.8C545.086 279.599 544.982 279.358 544.982 279.077C544.982 278.796 545.086 278.555 545.295 278.354C545.509 278.154 545.762 278.054 546.057 278.054C546.351 278.054 546.603 278.154 546.812 278.354C547.025 278.555 547.132 278.796 547.132 279.077C547.132 279.358 547.025 279.599 546.812 279.8C546.603 280 546.351 280.1 546.057 280.1ZM553.279 291.767C552.46 291.767 551.736 291.56 551.109 291.147C550.481 290.728 549.991 290.141 549.636 289.381C549.283 288.618 549.106 287.716 549.106 286.676C549.106 285.643 549.283 284.748 549.636 283.99C549.991 283.23 550.484 282.644 551.116 282.23C551.747 281.817 552.476 281.61 553.304 281.61C553.944 281.61 554.45 281.717 554.821 281.93C555.197 282.139 555.483 282.378 555.679 282.647C555.88 282.91 556.035 283.128 556.147 283.298H556.274V278.463H557.785V291.562H556.326V290.053H556.147C556.035 290.232 555.877 290.458 555.672 290.73C555.467 291 555.176 291.24 554.796 291.453C554.416 291.663 553.911 291.767 553.279 291.767ZM553.484 290.411C554.09 290.411 554.601 290.253 555.02 289.938C555.438 289.618 555.756 289.177 555.973 288.614C556.191 288.047 556.3 287.392 556.3 286.65C556.3 285.917 556.193 285.275 555.98 284.725C555.766 284.171 555.451 283.74 555.033 283.432C554.615 283.122 554.098 282.966 553.484 282.966C552.844 282.966 552.31 283.13 551.883 283.458C551.46 283.783 551.143 284.224 550.93 284.782C550.72 285.337 550.615 285.96 550.615 286.65C550.615 287.35 550.722 287.985 550.937 288.557C551.154 289.123 551.474 289.575 551.896 289.912C552.323 290.245 552.852 290.411 553.484 290.411ZM565.319 279.871V278.463H575.15V279.871H571.028V291.562H569.441V279.871H565.319ZM578.906 285.652V291.562H577.395V278.463H578.906V283.273H579.034C579.264 282.766 579.61 282.363 580.071 282.064C580.536 281.762 581.155 281.61 581.926 281.61C582.597 281.61 583.184 281.744 583.687 282.013C584.191 282.277 584.582 282.685 584.859 283.234C585.14 283.78 585.281 284.476 585.281 285.32V291.562H583.771V285.422C583.771 284.641 583.568 284.038 583.162 283.613C582.761 283.181 582.205 282.966 581.492 282.966C580.997 282.966 580.553 283.07 580.16 283.279C579.773 283.489 579.465 283.793 579.239 284.195C579.017 284.595 578.906 285.08 578.906 285.652ZM588.045 291.562V281.738H589.504V283.222H589.606C589.785 282.736 590.11 282.342 590.579 282.039C591.049 281.736 591.577 281.584 592.167 281.584C592.277 281.584 592.417 281.586 592.582 281.591C592.749 281.595 592.875 281.602 592.961 281.61V283.145C592.909 283.132 592.792 283.113 592.608 283.088C592.429 283.058 592.239 283.043 592.038 283.043C591.561 283.043 591.134 283.143 590.758 283.343C590.387 283.539 590.093 283.813 589.875 284.162C589.662 284.507 589.555 284.901 589.555 285.345V291.562H588.045ZM600.947 287.546V281.738H602.458V291.562H600.947V289.9H600.844C600.615 290.398 600.255 290.823 599.77 291.172C599.283 291.517 598.668 291.691 597.926 291.691C597.312 291.691 596.765 291.556 596.288 291.288C595.809 291.014 595.434 290.606 595.161 290.06C594.887 289.509 594.751 288.817 594.751 287.98V281.738H596.262V287.878C596.262 288.595 596.462 289.166 596.863 289.592C597.269 290.019 597.785 290.232 598.412 290.232C598.787 290.232 599.169 290.136 599.558 289.944C599.951 289.752 600.279 289.458 600.544 289.061C600.813 288.665 600.947 288.159 600.947 287.546Z" fill="white"/>
<path d="M139.223 58.4355H141.354L146.366 70.6682H146.54L151.55 58.4355H153.682V73.1723H152.012V61.9758H151.868L147.259 73.1723H145.646L141.038 61.9758H140.893V73.1723H139.223V58.4355ZM160.288 73.4313C159.586 73.4313 158.951 73.2994 158.379 73.0356C157.808 72.7669 157.354 72.3808 157.019 71.877C156.682 71.3685 156.514 70.7546 156.514 70.035C156.514 69.4018 156.639 68.8885 156.889 68.4951C157.138 68.097 157.471 67.7851 157.889 67.5596C158.307 67.3342 158.768 67.1663 159.272 67.056C159.781 66.9408 160.292 66.8497 160.806 66.7826C161.477 66.6962 162.023 66.6314 162.441 66.5883C162.863 66.5403 163.171 66.4612 163.362 66.3507C163.559 66.2404 163.657 66.0486 163.657 65.7752V65.7175C163.657 65.0076 163.462 64.4559 163.074 64.0626C162.69 63.6691 162.107 63.4725 161.324 63.4725C160.513 63.4725 159.877 63.65 159.416 64.005C158.955 64.36 158.631 64.7389 158.444 65.1419L156.83 64.5662C157.119 63.8946 157.503 63.3717 157.983 62.9975C158.468 62.6186 158.996 62.3548 159.567 62.206C160.144 62.0526 160.71 61.9758 161.267 61.9758C161.622 61.9758 162.029 62.0189 162.491 62.1053C162.957 62.1869 163.405 62.3572 163.838 62.6163C164.275 62.8753 164.636 63.2663 164.925 63.7891C165.213 64.312 165.357 65.0124 165.357 65.8902V73.1723H163.657V71.6756H163.571C163.456 71.9154 163.264 72.1721 162.995 72.4455C162.726 72.719 162.369 72.9516 161.922 73.1435C161.475 73.3354 160.931 73.4313 160.288 73.4313ZM160.547 71.9058C161.218 71.9058 161.785 71.7739 162.246 71.51C162.712 71.2463 163.062 70.9056 163.297 70.4883C163.538 70.0709 163.657 69.632 163.657 69.1715V67.6172C163.585 67.7035 163.426 67.7828 163.182 67.8547C162.942 67.9218 162.664 67.9818 162.347 68.0346C162.035 68.0825 161.73 68.1257 161.432 68.1641C161.139 68.1977 160.902 68.2264 160.719 68.2504C160.278 68.308 159.865 68.4016 159.481 68.531C159.102 68.6558 158.794 68.8452 158.559 69.0995C158.329 69.349 158.214 69.6895 158.214 70.1213C158.214 70.7113 158.432 71.1575 158.868 71.4597C159.31 71.7571 159.87 71.9058 160.547 71.9058ZM176.293 64.5951L174.766 65.0268C174.67 64.7726 174.528 64.5255 174.341 64.2856C174.159 64.041 173.91 63.8395 173.592 63.6812C173.276 63.5229 172.87 63.4438 172.376 63.4438C171.698 63.4438 171.135 63.5996 170.683 63.9114C170.237 64.2185 170.014 64.6095 170.014 65.0843C170.014 65.5064 170.168 65.8399 170.475 66.0845C170.781 66.3292 171.263 66.5331 171.915 66.6962L173.556 67.0991C174.545 67.339 175.282 67.706 175.768 68.2001C176.252 68.6894 176.494 69.3202 176.494 70.0925C176.494 70.7257 176.313 71.2918 175.948 71.7907C175.587 72.2896 175.084 72.6829 174.435 72.9708C173.787 73.2586 173.033 73.4025 172.174 73.4025C171.046 73.4025 170.112 73.1579 169.373 72.6686C168.633 72.1793 168.166 71.4646 167.969 70.5242L169.582 70.1213C169.735 70.7162 170.026 71.1623 170.454 71.4597C170.885 71.7571 171.45 71.9058 172.146 71.9058C172.938 71.9058 173.566 71.738 174.032 71.4022C174.502 71.0616 174.738 70.6538 174.738 70.1789C174.738 69.7951 174.603 69.4737 174.335 69.2147C174.065 68.9508 173.653 68.7542 173.095 68.6246L171.252 68.1929C170.24 67.953 169.495 67.5813 169.021 67.0775C168.55 66.569 168.314 65.9334 168.314 65.1706C168.314 64.5471 168.49 63.9954 168.84 63.5157C169.195 63.0359 169.677 62.6594 170.288 62.3859C170.902 62.1125 171.598 61.9758 172.376 61.9758C173.471 61.9758 174.33 62.2156 174.954 62.6954C175.583 63.1751 176.029 63.8083 176.293 64.5951ZM183.863 62.1197V63.5588H178.131V62.1197H183.863ZM179.802 59.4717H181.502V70.0062C181.502 70.4859 181.57 70.8456 181.71 71.0855C181.854 71.3206 182.037 71.4789 182.258 71.5605C182.483 71.6372 182.721 71.6756 182.971 71.6756C183.158 71.6756 183.311 71.666 183.431 71.6468C183.551 71.6228 183.647 71.6036 183.719 71.5893L184.064 73.1148C183.95 73.1579 183.788 73.2011 183.582 73.2442C183.376 73.2922 183.114 73.3161 182.797 73.3161C182.317 73.3161 181.846 73.213 181.386 73.0068C180.929 72.8005 180.551 72.4863 180.248 72.0641C179.95 71.642 179.802 71.1095 179.802 70.4667V59.4717ZM190.937 73.4025C189.872 73.4025 188.953 73.1674 188.18 72.6973C187.411 72.2224 186.819 71.5605 186.401 70.7113C185.989 69.8575 185.782 68.8645 185.782 67.7323C185.782 66.6002 185.989 65.6025 186.401 64.7389C186.819 63.8707 187.4 63.1943 188.144 62.7098C188.893 62.2205 189.767 61.9758 190.765 61.9758C191.341 61.9758 191.91 62.0717 192.472 62.2637C193.033 62.4555 193.544 62.7673 194.005 63.199C194.466 63.626 194.833 64.192 195.107 64.8972C195.381 65.6025 195.518 66.4707 195.518 67.5021V68.2217H186.991V66.7537H193.79C193.79 66.1301 193.665 65.5736 193.415 65.0843C193.17 64.5951 192.82 64.2088 192.364 63.9258C191.912 63.6428 191.379 63.5013 190.765 63.5013C190.088 63.5013 189.502 63.6691 189.008 64.005C188.519 64.336 188.141 64.7677 187.878 65.3002C187.613 65.8327 187.481 66.4035 187.481 67.0128V67.9914C187.481 68.8261 187.625 69.5337 187.914 70.1141C188.207 70.6897 188.612 71.1288 189.131 71.4309C189.649 71.7283 190.251 71.877 190.937 71.877C191.385 71.877 191.788 71.8147 192.147 71.6899C192.512 71.5605 192.827 71.3685 193.091 71.1143C193.355 70.8553 193.559 70.5338 193.703 70.1501L195.345 70.6106C195.172 71.1671 194.882 71.6564 194.474 72.0785C194.066 72.4958 193.561 72.8221 192.961 73.0571C192.361 73.2874 191.687 73.4025 190.937 73.4025ZM198.102 73.1723V62.1197H199.745V63.7891H199.86C200.061 63.2423 200.426 62.7985 200.955 62.4579C201.482 62.1173 202.078 61.947 202.74 61.947C202.865 61.947 203.021 61.9494 203.208 61.9542C203.396 61.9591 203.537 61.9663 203.632 61.9758V63.7028C203.575 63.6884 203.443 63.6668 203.237 63.638C203.035 63.6044 202.821 63.5876 202.596 63.5876C202.059 63.5876 201.579 63.7003 201.156 63.9258C200.738 64.1465 200.407 64.4536 200.163 64.8469C199.922 65.2355 199.802 65.6791 199.802 66.178V73.1723H198.102ZM209.804 73.4025C208.767 73.4025 207.874 73.1579 207.126 72.6686C206.377 72.1793 205.8 71.5053 205.398 70.6466C204.994 69.7879 204.793 68.8069 204.793 67.7035C204.793 66.5811 204.999 65.5904 205.411 64.7317C205.829 63.8683 206.41 63.1943 207.154 62.7098C207.903 62.2205 208.777 61.9758 209.775 61.9758C210.553 61.9758 211.253 62.1197 211.878 62.4076C212.502 62.6954 213.013 63.0983 213.412 63.6165C213.811 64.1345 214.057 64.7389 214.153 65.4298H212.454C212.325 64.926 212.036 64.4799 211.59 64.0913C211.149 63.698 210.553 63.5013 209.804 63.5013C209.141 63.5013 208.561 63.674 208.062 64.0194C207.567 64.36 207.181 64.842 206.902 65.4657C206.629 66.0845 206.492 66.8113 206.492 67.646C206.492 68.4999 206.626 69.2434 206.895 69.8766C207.169 70.5098 207.553 71.0015 208.047 71.3518C208.546 71.702 209.132 71.877 209.804 71.877C210.246 71.877 210.646 71.8003 211.007 71.6468C211.367 71.4933 211.671 71.2726 211.922 70.9848C212.17 70.6969 212.348 70.3516 212.454 69.9487H214.153C214.057 70.601 213.82 71.1886 213.44 71.7115C213.066 72.2296 212.569 72.6422 211.95 72.9492C211.336 73.2514 210.62 73.4025 209.804 73.4025ZM219.893 73.4313C219.192 73.4313 218.556 73.2994 217.985 73.0356C217.413 72.7669 216.959 72.3808 216.624 71.877C216.287 71.3685 216.119 70.7546 216.119 70.035C216.119 69.4018 216.244 68.8885 216.494 68.4951C216.743 68.097 217.077 67.7851 217.494 67.5596C217.912 67.3342 218.373 67.1663 218.877 67.056C219.386 66.9408 219.897 66.8497 220.411 66.7826C221.084 66.6962 221.628 66.6314 222.046 66.5883C222.468 66.5403 222.776 66.4612 222.967 66.3507C223.164 66.2404 223.262 66.0486 223.262 65.7752V65.7175C223.262 65.0076 223.069 64.4559 222.679 64.0626C222.296 63.6691 221.712 63.4725 220.929 63.4725C220.118 63.4725 219.482 63.65 219.021 64.005C218.56 64.36 218.237 64.7389 218.049 65.1419L216.437 64.5662C216.724 63.8946 217.108 63.3717 217.588 62.9975C218.074 62.6186 218.601 62.3548 219.173 62.206C219.749 62.0526 220.315 61.9758 220.872 61.9758C221.227 61.9758 221.636 62.0189 222.096 62.1053C222.562 62.1869 223.01 62.3572 223.443 62.6163C223.88 62.8753 224.242 63.2663 224.53 63.7891C224.818 64.312 224.962 65.0124 224.962 65.8902V73.1723H223.262V71.6756H223.176C223.061 71.9154 222.869 72.1721 222.6 72.4455C222.331 72.719 221.974 72.9516 221.528 73.1435C221.08 73.3354 220.536 73.4313 219.893 73.4313ZM220.152 71.9058C220.823 71.9058 221.39 71.7739 221.851 71.51C222.317 71.2463 222.668 70.9056 222.903 70.4883C223.143 70.0709 223.262 69.632 223.262 69.1715V67.6172C223.19 67.7035 223.033 67.7828 222.787 67.8547C222.547 67.9218 222.269 67.9818 221.952 68.0346C221.64 68.0825 221.335 68.1257 221.037 68.1641C220.745 68.1977 220.507 68.2264 220.324 68.2504C219.883 68.308 219.47 68.4016 219.086 68.531C218.707 68.6558 218.399 68.8452 218.165 69.0995C217.934 69.349 217.819 69.6895 217.819 70.1213C217.819 70.7113 218.037 71.1575 218.473 71.4597C218.916 71.7571 219.475 71.9058 220.152 71.9058ZM228.064 73.1723V62.1197H229.705V63.7891H229.821C230.023 63.2423 230.388 62.7985 230.915 62.4579C231.443 62.1173 232.038 61.947 232.702 61.947C232.826 61.947 232.982 61.9494 233.169 61.9542C233.356 61.9591 233.498 61.9663 233.594 61.9758V63.7028C233.536 63.6884 233.405 63.6668 233.198 63.638C232.997 63.6044 232.783 63.5876 232.557 63.5876C232.019 63.5876 231.539 63.7003 231.117 63.9258C230.7 64.1465 230.369 64.4536 230.123 64.8469C229.883 65.2355 229.764 65.6791 229.764 66.178V73.1723H228.064ZM239.448 73.4025C238.527 73.4025 237.712 73.1699 237.007 72.7045C236.302 72.2344 235.75 71.5724 235.351 70.7185C234.952 69.8598 234.753 68.8452 234.753 67.6748C234.753 66.5139 234.952 65.5064 235.351 64.6526C235.75 63.7987 236.304 63.1392 237.014 62.6738C237.725 62.2085 238.546 61.9758 239.477 61.9758C240.198 61.9758 240.767 62.0957 241.183 62.3356C241.606 62.5707 241.928 62.8393 242.149 63.1415C242.374 63.4389 242.55 63.6836 242.675 63.8755H242.818V58.4355H244.518V73.1723H242.877V71.4741H242.675C242.55 71.6756 242.372 71.9298 242.142 72.2368C241.911 72.5391 241.582 72.8101 241.155 73.0499C240.728 73.285 240.159 73.4025 239.448 73.4025ZM239.678 71.877C240.361 71.877 240.937 71.6996 241.408 71.3446C241.877 70.9848 242.236 70.4883 242.48 69.8551C242.724 69.2171 242.847 68.4807 242.847 67.646C242.847 66.8209 242.727 66.0989 242.487 65.4801C242.247 64.8564 241.892 64.3719 241.421 64.0266C240.951 63.6764 240.37 63.5013 239.678 63.5013C238.958 63.5013 238.359 63.686 237.878 64.0554C237.404 64.4199 237.046 64.9164 236.806 65.5448C236.57 66.1685 236.453 66.8689 236.453 67.646C236.453 68.4328 236.572 69.1475 236.812 69.7903C237.058 70.4283 237.417 70.9368 237.893 71.3158C238.373 71.6899 238.969 71.877 239.678 71.877Z" fill="white"/>
<path d="M68.1055 46.3301H91.8643V88.9897H68.1055V46.3301Z" fill="#FF5F00"/>
<path d="M69.6112 67.6598C69.6112 58.9923 73.6839 51.3043 79.944 46.3297C75.3434 42.7121 69.5359 40.5264 63.2003 40.5264C48.1902 40.5264 36.0469 52.6609 36.0469 67.6598C36.0469 82.6583 48.1902 94.7931 63.1999 94.7931C69.5356 94.7931 75.3431 92.6074 79.944 88.9894C73.6839 84.0904 69.6112 76.3272 69.6112 67.6598Z" fill="#EB001B"/>
<path d="M123.921 67.6598C123.921 82.6583 111.777 94.7931 96.7676 94.7931C90.432 94.7931 84.6243 92.6074 80.0234 88.9894C86.3591 84.0152 90.3567 76.3272 90.3567 67.6598C90.3567 58.9923 86.2835 51.3043 80.0234 46.3297C84.624 42.7121 90.432 40.5264 96.7676 40.5264C111.777 40.5264 123.921 52.7364 123.921 67.6598Z" fill="#F79E1B"/>
<path d="M585.799 40.5264H549.75C540.417 40.5264 532.852 48.0864 532.852 57.4122V76.5495C532.852 85.8753 540.417 93.4354 549.75 93.4354H585.799C595.131 93.4354 602.697 85.8753 602.697 76.5495V57.4122C602.697 48.0864 595.131 40.5264 585.799 40.5264Z" fill="url(#paint1_linear_3452_1424)" stroke="#666666" stroke-width="2.07108"/>
<path fill-rule="evenodd" clip-rule="evenodd" d="M577.909 51.5104C575.445 46.569 571.574 42.6889 569.028 41.1728C568.86 41.0749 568.737 40.914 568.687 40.7253C568.636 40.5366 568.663 40.3356 568.76 40.1666C568.858 39.9975 569.018 39.8741 569.206 39.8238C569.395 39.7734 569.594 39.7999 569.763 39.8978C573.099 41.8619 576.976 46.3691 579.2 50.8212C579.253 50.9064 579.288 51.0025 579.3 51.1024C579.313 51.2025 579.304 51.3041 579.272 51.4C579.242 51.4959 579.19 51.5839 579.122 51.6578C579.054 51.7316 578.97 51.7896 578.877 51.8274C578.778 51.8812 578.667 51.9096 578.554 51.9101C578.42 51.9102 578.29 51.8729 578.175 51.8023C578.061 51.7317 577.97 51.6306 577.909 51.5104ZM555.604 75.1561C555.652 82.0065 562.069 90.1733 566.489 92.8129C566.574 92.8575 566.649 92.9198 566.709 92.9954C566.769 93.0712 566.813 93.1587 566.836 93.2522C566.86 93.3458 566.864 93.4434 566.847 93.5387C566.832 93.634 566.796 93.7248 566.743 93.8052C566.679 93.9137 566.586 94.0036 566.477 94.0665C566.368 94.1292 566.245 94.1627 566.119 94.1636C565.99 94.1641 565.864 94.1281 565.755 94.0603C561.039 91.269 554.589 83.1092 554.176 75.804H532.448C532.267 75.7863 532.101 75.7021 531.979 75.5677C531.857 75.4333 531.791 75.2583 531.791 75.0769C531.791 74.8954 531.857 74.7203 531.979 74.5859C532.101 74.4515 532.267 74.3673 532.448 74.3497H554.314C555.684 69.5297 555.684 64.4213 554.314 59.6013H532.448C532.256 59.6013 532.072 59.5251 531.937 59.3894C531.802 59.2537 531.727 59.0696 531.727 58.8777C531.727 58.6858 531.802 58.5017 531.937 58.3661C532.072 58.2303 532.256 58.1541 532.448 58.1541H554.176C554.589 50.8212 561.067 42.6889 565.755 39.8978C565.923 39.7999 566.123 39.7734 566.311 39.8238C566.499 39.8741 566.659 39.9975 566.756 40.1666C566.854 40.3356 566.88 40.5366 566.831 40.7253C566.78 40.914 566.657 41.0749 566.489 41.1728C562.069 43.7778 555.652 51.9515 555.604 58.8088C557.176 64.1436 557.176 69.8213 555.604 75.1561ZM603.104 74.3497H581.197C579.827 69.5297 579.827 64.4213 581.197 59.6013H603.104C603.295 59.6013 603.479 59.5251 603.614 59.3894C603.749 59.2537 603.825 59.0696 603.825 58.8777C603.825 58.6858 603.749 58.5017 603.614 58.3661C603.479 58.2303 603.295 58.1541 603.104 58.1541H580.641C580.484 58.1559 580.333 58.2086 580.209 58.3044C580.085 58.4 579.996 58.5336 579.955 58.6847C578.358 64.0583 578.358 69.7826 579.955 75.1561C579.906 82.0065 573.49 90.1733 569.069 92.8129C568.982 92.855 568.905 92.9154 568.841 92.9899C568.78 93.0646 568.733 93.1516 568.706 93.2455C568.679 93.3392 568.674 93.4376 568.687 93.5341C568.702 93.6307 568.736 93.723 568.789 93.8052C568.853 93.9137 568.944 94.0036 569.053 94.0665C569.163 94.1293 569.286 94.1627 569.413 94.1636C569.541 94.1641 569.667 94.1281 569.777 94.0603C574.464 91.3035 580.943 83.1092 581.355 75.804H603.104C603.284 75.7863 603.451 75.7021 603.573 75.5677C603.694 75.4333 603.761 75.2583 603.761 75.0769C603.761 74.8954 603.694 74.7203 603.573 74.5859C603.451 74.4515 603.284 74.3673 603.104 74.3497ZM567.041 43.8446C567.254 43.7023 567.503 43.6263 567.759 43.6263C568.101 43.6263 568.429 43.7627 568.671 44.0058C568.912 44.2487 569.049 44.5783 569.049 44.9219C569.049 45.1781 568.973 45.4287 568.831 45.6417C568.689 45.8548 568.488 46.0208 568.252 46.119C568.017 46.217 567.757 46.2427 567.507 46.1926C567.256 46.1426 567.027 46.0192 566.846 45.8381C566.666 45.6569 566.543 45.426 566.493 45.1747C566.443 44.9233 566.469 44.6628 566.567 44.4261C566.664 44.1894 566.829 43.987 567.041 43.8446Z" fill="#666666"/>
</g>
<defs>
<filter id="filter0_bi_3452_1424" x="-20.1483" y="-20.1473" width="681.297" height="415.162" filterUnits="userSpaceOnUse" color-interpolation-filters="sRGB">
<feFlood flood-opacity="0" result="BackgroundImageFix"/>
<feGaussianBlur in="BackgroundImageFix" stdDeviation="10.3554"/>
<feComposite in2="SourceAlpha" operator="in" result="effect1_backgroundBlur_3452_1424"/>
<feBlend mode="normal" in="SourceGraphic" in2="effect1_backgroundBlur_3452_1424" result="shape"/>
<feColorMatrix in="SourceAlpha" type="matrix" values="0 0 0 0 0 0 0 0 0 0 0 0 0 0 0 0 0 0 127 0" result="hardAlpha"/>
<feOffset dy="4"/>
<feGaussianBlur stdDeviation="7.5"/>
<feComposite in2="hardAlpha" operator="arithmetic" k2="-1" k3="1"/>
<feColorMatrix type="matrix" values="0 0 0 0 1 0 0 0 0 0.447747 0 0 0 0 0.3625 0 0 0 0.7 0"/>
<feBlend mode="normal" in2="shape" result="effect2_innerShadow_3452_1424"/>
</filter>
<linearGradient id="paint0_linear_3452_1424" x1="57.4728" y1="-80.7717" x2="912.635" y2="617.654" gradientUnits="userSpaceOnUse">
<stop stop-color="#A13D2E"/>
<stop offset="0.518853" stop-color="#F15C45"/>
<stop offset="1" stop-color="#FCDEDA"/>
</linearGradient>
<linearGradient id="paint1_linear_3452_1424" x1="524.859" y1="39.4006" x2="609.867" y2="94.2393" gradientUnits="userSpaceOnUse">
<stop stop-color="#DDD9D6"/>
<stop offset="0.212761" stop-color="#8A868C"/>
<stop offset="0.548384" stop-color="#F2F3F3" stop-opacity="0.8"/>
<stop offset="0.914316" stop-color="#807C80"/>
<stop offset="1" stop-color="#A6A8AB"/>
</linearGradient>
<clipPath id="clip0_3452_1424">
<rect width="641" height="374.866" fill="white"/>
</clipPath>
</defs>
</svg>
