<svg width="552" height="552" viewBox="0 0 552 552" fill="none" xmlns="http://www.w3.org/2000/svg">
<g clip-path="url(#clip0_3443_1391)">
<g filter="url(#filter0_b_3443_1391)">
<path d="M333.502 14.9783L14.9766 333.504C7.04182 341.439 7.0366 354.298 14.965 362.227L189.065 536.327C196.993 544.255 209.853 544.25 217.788 536.315L536.313 217.789C544.248 209.855 544.253 196.995 536.325 189.067L362.225 14.9667C354.297 7.03829 341.437 7.04352 333.502 14.9783Z" fill="url(#paint0_linear_3443_1391)" fill-opacity="0.2"/>
<path d="M333.502 14.9783L14.9766 333.504C7.04182 341.439 7.0366 354.298 14.965 362.227L189.065 536.327C196.993 544.255 209.853 544.25 217.788 536.315L536.313 217.789C544.248 209.855 544.253 196.995 536.325 189.067L362.225 14.9667C354.297 7.03829 341.437 7.04352 333.502 14.9783Z" fill="white" fill-opacity="0.2"/>
</g>
<path d="M188.328 494.968L190.694 492.603L201.588 497.161L201.713 497.036L197.155 486.142L199.52 483.776L210.183 494.439L208.328 496.294L201.003 488.969L200.904 489.068L205.249 499.311L203.863 500.697L193.604 496.336L193.505 496.435L200.846 503.776L198.991 505.631L188.328 494.968ZM212.205 492.417L204.208 484.42L206.037 482.591L207.37 483.924L207.453 483.841C207.137 483.233 207.032 482.627 207.136 482.023C207.241 481.412 207.522 480.877 207.981 480.419C208.085 480.315 208.206 480.203 208.345 480.085C208.485 479.96 208.606 479.862 208.71 479.793L210.444 481.527C210.336 481.579 210.185 481.682 209.991 481.835C209.796 481.98 209.619 482.133 209.459 482.293C209.115 482.637 208.881 483.021 208.755 483.444C208.63 483.861 208.619 484.277 208.724 484.695C208.828 485.111 209.05 485.489 209.39 485.83L214.091 490.531L212.205 492.417ZM218.382 486.469C218.066 486.786 217.684 486.945 217.236 486.949C216.788 486.952 216.406 486.793 216.09 486.47C215.774 486.161 215.619 485.783 215.622 485.335C215.625 484.887 215.786 484.505 216.102 484.189C216.408 483.883 216.784 483.728 217.232 483.725C217.684 483.718 218.067 483.868 218.383 484.177C218.591 484.393 218.728 484.641 218.794 484.922C218.864 485.2 218.863 485.478 218.794 485.755C218.724 486.026 218.587 486.265 218.382 486.469ZM218.302 464.994L220.219 463.077L227.717 470.574C228.4 471.265 228.846 472.003 229.054 472.787C229.259 473.568 229.236 474.351 228.986 475.136C228.736 475.915 228.268 476.646 227.584 477.33C226.959 477.955 226.285 478.407 225.562 478.685C224.84 478.956 224.112 479.017 223.38 478.868C222.647 478.719 221.953 478.316 221.297 477.661L223.22 475.738C223.511 476.022 223.822 476.208 224.152 476.294C224.485 476.378 224.817 476.366 225.146 476.258C225.476 476.15 225.784 475.954 226.069 475.669C226.378 475.36 226.576 475.033 226.663 474.69C226.746 474.342 226.716 473.985 226.569 473.616C226.428 473.245 226.171 472.87 225.799 472.492L218.302 464.994ZM235.36 469.584C234.853 470.091 234.306 470.458 233.719 470.684C233.133 470.903 232.542 470.952 231.948 470.83C231.358 470.706 230.801 470.382 230.277 469.857C229.826 469.406 229.536 468.949 229.408 468.488C229.279 468.026 229.271 467.562 229.382 467.097C229.493 466.631 229.685 466.173 229.956 465.722C230.227 465.264 230.536 464.819 230.884 464.388C231.304 463.87 231.641 463.447 231.895 463.117C232.144 462.783 232.294 462.509 232.343 462.294C232.392 462.072 232.326 461.87 232.145 461.689L232.114 461.658C231.721 461.266 231.301 461.079 230.854 461.096C230.406 461.114 229.963 461.341 229.525 461.779C229.063 462.241 228.797 462.708 228.728 463.181C228.661 463.649 228.718 464.067 228.899 464.435L226.888 465.947C226.541 465.322 226.364 464.687 226.357 464.041C226.347 463.392 226.492 462.755 226.791 462.129C227.086 461.501 227.513 460.907 228.073 460.348C228.458 459.962 228.887 459.623 229.359 459.331C229.832 459.039 230.33 458.839 230.854 458.732C231.375 458.62 231.909 458.646 232.453 458.809C233.002 458.969 233.542 459.314 234.073 459.845L239.425 465.197L237.612 467.01L236.513 465.912L236.451 465.975C236.558 466.311 236.605 466.681 236.591 467.083C236.577 467.48 236.473 467.893 236.278 468.323C236.083 468.747 235.777 469.167 235.36 469.584ZM234.465 467.709C234.844 467.331 235.098 466.928 235.227 466.501C235.352 466.071 235.364 465.655 235.263 465.256C235.166 464.853 234.97 464.505 234.675 464.209L233.733 463.267C233.723 463.375 233.667 463.521 233.566 463.705C233.469 463.885 233.349 464.078 233.206 464.283C233.064 464.488 232.92 464.688 232.774 464.882C232.628 465.077 232.501 465.245 232.394 465.388C232.15 465.707 231.961 466.021 231.825 466.33C231.69 466.639 231.636 466.936 231.664 467.221C231.688 467.502 231.821 467.765 232.065 468.008C232.412 468.355 232.8 468.49 233.231 468.413C233.661 468.337 234.073 468.102 234.465 467.709ZM240.532 459.071L238.251 456.802L238.554 456.499L238.217 450.411L240.421 448.207L240.819 455.681L240.429 456.071L240.532 459.071ZM241.321 463.301L230.659 452.638L232.545 450.752L243.208 461.415L241.321 463.301ZM246.345 458.278L240.1 457.244L240.043 454.645L248.6 456.022L246.345 458.278ZM252.993 451.942C252.212 452.723 251.362 453.228 250.446 453.458C249.529 453.687 248.603 453.651 247.67 453.35C246.739 453.045 245.861 452.479 245.035 451.653C244.209 450.826 243.641 449.947 243.333 449.013C243.028 448.076 242.99 447.149 243.219 446.231C243.449 445.315 243.955 444.466 244.736 443.685C245.518 442.903 246.367 442.397 247.283 442.167C248.2 441.938 249.126 441.978 250.06 442.286C250.997 442.591 251.878 443.157 252.705 443.983C253.531 444.809 254.095 445.689 254.397 446.623C254.701 447.553 254.739 448.477 254.51 449.394C254.28 450.31 253.775 451.16 252.993 451.942ZM251.493 450.421C251.918 449.997 252.156 449.527 252.208 449.009C252.257 448.489 252.153 447.961 251.896 447.426C251.643 446.888 251.273 446.376 250.787 445.89C250.298 445.401 249.784 445.029 249.246 444.776C248.708 444.515 248.179 444.41 247.657 444.459C247.137 444.508 246.665 444.744 246.24 445.168C245.806 445.602 245.563 446.082 245.511 446.605C245.462 447.127 245.565 447.658 245.822 448.2C246.08 448.734 246.453 449.246 246.942 449.735C247.428 450.221 247.938 450.593 248.472 450.85C249.011 451.103 249.541 451.205 250.061 451.156C250.582 451.101 251.059 450.855 251.493 450.421ZM258.356 446.266L247.693 435.603L249.579 433.717L253.568 437.705L253.646 437.627C253.549 437.336 253.48 436.992 253.439 436.596C253.393 436.197 253.443 435.768 253.59 435.309C253.732 434.847 254.039 434.382 254.507 433.913C255.126 433.295 255.841 432.895 256.653 432.714C257.466 432.526 258.325 432.594 259.232 432.916C260.138 433.232 261.035 433.834 261.924 434.723C262.802 435.601 263.404 436.491 263.73 437.393C264.056 438.296 264.132 439.157 263.958 439.977C263.784 440.797 263.383 441.52 262.754 442.149C262.295 442.608 261.839 442.912 261.384 443.061C260.928 443.211 260.502 443.27 260.103 443.239C259.703 443.201 259.356 443.135 259.061 443.042L258.951 443.151L260.211 444.411L258.356 446.266ZM256.208 440.418C256.725 440.934 257.251 441.315 257.785 441.557C258.323 441.797 258.84 441.887 259.337 441.828C259.834 441.762 260.282 441.529 260.681 441.13C261.098 440.713 261.336 440.252 261.395 439.749C261.451 439.242 261.356 438.723 261.11 438.192C260.863 437.654 260.49 437.135 259.991 436.635C259.494 436.138 258.982 435.768 258.455 435.526C257.927 435.283 257.413 435.193 256.913 435.256C256.413 435.318 255.953 435.56 255.532 435.981C255.129 436.383 254.893 436.831 254.823 437.325C254.753 437.817 254.837 438.328 255.073 438.856C255.312 439.38 255.691 439.9 256.208 440.418ZM260.575 422.721L262.941 420.355L273.835 424.914L273.96 424.789L269.402 413.894L271.767 411.529L282.43 422.192L280.575 424.047L273.25 416.722L273.151 416.821L277.496 427.064L276.11 428.45L265.851 424.089L265.752 424.188L273.093 431.529L271.238 433.384L260.575 422.721ZM286.916 418.028C286.41 418.535 285.862 418.902 285.276 419.128C284.689 419.347 284.099 419.396 283.504 419.275C282.914 419.149 282.357 418.826 281.833 418.302C281.381 417.85 281.092 417.393 280.964 416.931C280.835 416.47 280.827 416.007 280.938 415.541C281.05 415.075 281.241 414.617 281.512 414.166C281.783 413.708 282.092 413.263 282.44 412.832C282.86 412.315 283.196 411.891 283.451 411.561C283.7 411.227 283.85 410.953 283.899 410.738C283.948 410.516 283.882 410.314 283.701 410.133L283.67 410.102C283.277 409.71 282.858 409.522 282.41 409.54C281.962 409.558 281.519 409.785 281.081 410.223C280.619 410.685 280.353 411.152 280.284 411.625C280.217 412.093 280.274 412.511 280.455 412.88L278.444 414.391C278.097 413.766 277.92 413.131 277.914 412.485C277.903 411.836 278.048 411.198 278.347 410.574C278.642 409.945 279.069 409.351 279.629 408.792C280.015 408.406 280.442 408.067 280.915 407.775C281.388 407.484 281.886 407.284 282.41 407.176C282.931 407.064 283.464 407.091 284.009 407.253C284.558 407.413 285.098 407.758 285.629 408.289L290.981 413.641L289.168 415.455L288.069 414.356L288.007 414.419C288.114 414.755 288.161 415.125 288.146 415.528C288.133 415.924 288.029 416.337 287.834 416.768C287.639 417.191 287.333 417.611 286.916 418.028ZM286.021 416.154C286.4 415.775 286.654 415.372 286.783 414.945C286.908 414.514 286.92 414.099 286.819 413.7C286.722 413.298 286.526 412.949 286.231 412.654L285.288 411.711C285.279 411.819 285.223 411.965 285.122 412.149C285.025 412.329 284.905 412.522 284.762 412.727C284.62 412.932 284.476 413.132 284.33 413.326C284.184 413.521 284.057 413.689 283.95 413.832C283.706 414.151 283.517 414.465 283.381 414.774C283.245 415.084 283.191 415.381 283.219 415.665C283.244 415.946 283.377 416.209 283.621 416.452C283.968 416.799 284.356 416.934 284.786 416.857C285.217 416.78 285.629 416.546 286.021 416.154ZM290.079 405.173L294.764 409.858L292.877 411.745L284.88 403.748L286.683 401.945L288.043 403.304L288.137 403.21C287.873 402.578 287.81 401.928 287.949 401.262C288.093 400.592 288.463 399.958 289.06 399.361C289.612 398.809 290.211 398.445 290.857 398.271C291.507 398.094 292.168 398.116 292.841 398.338C293.518 398.556 294.174 398.986 294.81 399.629L299.901 404.721L298.015 406.607L293.215 401.806C292.681 401.272 292.123 400.993 291.543 400.969C290.967 400.941 290.436 401.171 289.949 401.657C289.62 401.987 289.399 402.353 289.288 402.757C289.176 403.152 289.183 403.558 289.308 403.975C289.436 404.388 289.693 404.787 290.079 405.173ZM308.465 402.488C307.788 403.165 307.114 403.655 306.443 403.958C305.777 404.264 305.143 404.411 304.542 404.401C303.942 404.391 303.398 404.257 302.912 404.001L304.2 401.891C304.432 401.97 304.697 402.014 304.996 402.02C305.299 402.031 305.623 401.963 305.97 401.817C306.324 401.671 306.691 401.409 307.07 401.03C307.605 400.495 307.918 399.923 308.008 399.311C308.102 398.703 307.854 398.104 307.264 397.514L305.749 395.999L305.655 396.094C305.752 396.385 305.809 396.727 305.826 397.119C305.847 397.508 305.774 397.924 305.608 398.369C305.444 398.811 305.132 399.26 304.674 399.718C304.059 400.333 303.358 400.747 302.57 400.959C301.781 401.164 300.952 401.127 300.08 400.845C299.209 400.558 298.337 399.978 297.466 399.107C296.587 398.229 295.993 397.342 295.681 396.447C295.368 395.543 295.307 394.686 295.494 393.873C295.678 393.057 296.078 392.342 296.693 391.727C297.162 391.258 297.628 390.952 298.09 390.81C298.551 390.66 298.984 390.606 299.386 390.648C299.786 390.686 300.13 390.755 300.417 390.856L300.522 390.751L299.199 389.429L301.059 387.569L309.186 395.696C309.87 396.38 310.273 397.109 310.394 397.883C310.515 398.657 310.404 399.439 310.06 400.227C309.716 401.015 309.184 401.769 308.465 402.488ZM303.722 397.714C304.122 397.314 304.365 396.877 304.452 396.401C304.539 395.925 304.473 395.432 304.255 394.922C304.036 394.412 303.672 393.901 303.161 393.391C302.658 392.888 302.144 392.52 301.62 392.287C301.1 392.052 300.594 391.97 300.105 392.043C299.615 392.109 299.167 392.346 298.76 392.752C298.34 393.172 298.099 393.633 298.036 394.132C297.973 394.633 298.062 395.144 298.301 395.669C298.537 396.19 298.896 396.691 299.378 397.174C299.868 397.663 300.368 398.021 300.878 398.246C301.388 398.465 301.886 398.535 302.373 398.459C302.859 398.375 303.309 398.127 303.722 397.714ZM314.637 390.298C313.855 391.08 313.006 391.585 312.089 391.814C311.172 392.044 310.247 392.007 309.313 391.706C308.383 391.401 307.505 390.835 306.679 390.009C305.852 389.183 305.285 388.303 304.977 387.369C304.671 386.432 304.633 385.505 304.863 384.588C305.092 383.671 305.598 382.822 306.38 382.04C307.161 381.259 308.01 380.753 308.927 380.524C309.844 380.294 310.769 380.334 311.703 380.642C312.641 380.948 313.522 381.513 314.348 382.34C315.174 383.166 315.739 384.045 316.04 384.979C316.345 385.91 316.383 386.833 316.153 387.75C315.924 388.667 315.419 389.516 314.637 390.298ZM313.138 388.777C313.561 388.353 313.799 387.883 313.851 387.366C313.9 386.845 313.797 386.317 313.54 385.782C313.286 385.244 312.917 384.733 312.43 384.247C311.941 383.757 311.428 383.386 310.89 383.132C310.351 382.872 309.822 382.767 309.301 382.815C308.78 382.864 308.308 383.101 307.885 383.524C307.45 383.959 307.207 384.438 307.154 384.962C307.106 385.483 307.21 386.014 307.467 386.556C307.723 387.091 308.096 387.602 308.586 388.091C309.072 388.578 309.581 388.949 310.117 389.206C310.655 389.459 311.184 389.561 311.705 389.512C312.225 389.457 312.703 389.212 313.138 388.777Z" fill="white"/>
<path d="M155.738 451.533C155.053 452.209 154.27 452.755 153.39 453.173C152.506 453.585 151.54 453.787 150.494 453.778C149.443 453.764 148.325 453.471 147.14 452.897C145.951 452.319 144.705 451.375 143.405 450.066C142.188 448.848 141.233 447.634 140.538 446.421C139.845 445.208 139.412 444.03 139.241 442.887C139.066 441.738 139.147 440.648 139.485 439.615C139.829 438.578 140.426 437.633 141.278 436.781C142.172 435.887 143.14 435.271 144.182 434.933C145.228 434.59 146.27 434.51 147.307 434.695C148.34 434.876 149.289 435.297 150.154 435.958L147.618 438.494C146.942 438.078 146.241 437.909 145.514 437.988C144.787 438.058 144.118 438.398 143.507 439.01C142.52 439.996 142.189 441.184 142.512 442.573C142.841 443.957 143.75 445.399 145.24 446.898L145.337 446.801C145.157 446.166 145.101 445.523 145.171 444.87C145.241 444.218 145.424 443.585 145.721 442.974C146.017 442.353 146.42 441.789 146.93 441.279C147.763 440.445 148.71 439.897 149.77 439.632C150.836 439.363 151.912 439.383 153 439.693C154.083 439.999 155.071 440.602 155.964 441.504C156.904 442.435 157.531 443.488 157.845 444.663C158.155 445.835 158.138 447.018 157.795 448.212C157.452 449.407 156.766 450.514 155.738 451.533ZM153.642 449.464C154.146 448.959 154.475 448.385 154.629 447.742C154.781 447.098 154.766 446.452 154.581 445.804C154.396 445.156 154.042 444.575 153.519 444.061C153.014 443.548 152.443 443.198 151.804 443.013C151.17 442.824 150.536 442.806 149.901 442.959C149.267 443.112 148.697 443.441 148.193 443.945C147.817 444.321 147.539 444.742 147.358 445.21C147.178 445.677 147.094 446.159 147.108 446.654C147.117 447.145 147.219 447.627 147.413 448.098C147.607 448.561 147.89 448.983 148.259 449.362C148.759 449.853 149.331 450.192 149.974 450.382C150.618 450.572 151.264 450.592 151.912 450.444C152.561 450.296 153.137 449.969 153.642 449.464ZM164.323 442.559L158.406 424.54L158.309 424.443L151.285 431.467L149.133 429.315L158.825 419.623L161.026 421.824L166.998 439.884L164.323 442.559ZM181.042 426.228C180.042 427.229 178.982 427.947 177.861 428.382C176.745 428.814 175.657 428.948 174.597 428.786C173.537 428.625 172.592 428.158 171.764 427.385L174.376 424.772C174.783 425.133 175.246 425.341 175.765 425.397C176.279 425.448 176.807 425.359 177.349 425.133C177.89 424.905 178.4 424.553 178.877 424.076C179.386 423.567 179.75 423.027 179.968 422.458C180.181 421.884 180.239 421.326 180.142 420.784C180.045 420.242 179.786 419.766 179.365 419.354C178.939 418.919 178.448 418.65 177.893 418.549C177.338 418.447 176.751 418.519 176.136 418.765C175.524 419.006 174.918 419.428 174.316 420.03L173.058 421.287L171.073 419.302L172.331 418.044C172.826 417.549 173.173 417.03 173.373 416.488C173.577 415.942 173.63 415.407 173.533 414.884C173.431 414.356 173.173 413.889 172.756 413.481C172.358 413.074 171.918 412.815 171.436 412.704C170.955 412.584 170.464 412.607 169.965 412.774C169.469 412.936 168.999 413.24 168.555 413.685C168.119 414.12 167.794 414.601 167.582 415.129C167.368 415.657 167.294 416.18 167.358 416.699C167.419 417.213 167.64 417.675 168.025 418.088L165.545 420.568C164.767 419.753 164.297 418.825 164.136 417.783C163.974 416.733 164.095 415.668 164.498 414.589C164.897 413.505 165.557 412.503 166.479 411.581C167.428 410.631 168.431 409.985 169.486 409.642C170.542 409.29 171.561 409.22 172.542 409.433C173.524 409.645 174.375 410.112 175.097 410.834C175.903 411.631 176.337 412.538 176.402 413.556C176.471 414.57 176.204 415.545 175.602 416.48L175.713 416.591C176.852 415.729 177.989 415.334 179.123 415.402C180.258 415.462 181.267 415.939 182.151 416.832C182.947 417.628 183.432 418.567 183.608 419.651C183.783 420.725 183.653 421.836 183.217 422.984C182.787 424.128 182.061 425.209 181.042 426.228ZM194.52 412.751C193.487 413.784 192.396 414.527 191.248 414.981C190.105 415.431 189.004 415.582 187.949 415.434C186.894 415.277 185.984 414.812 185.22 414.039C184.619 413.447 184.2 412.769 183.964 412.005C183.729 411.241 183.669 410.468 183.785 409.686C183.901 408.895 184.19 408.174 184.654 407.526L184.556 407.429C183.663 407.999 182.698 408.218 181.66 408.089C180.623 407.951 179.723 407.495 178.96 406.723C178.224 405.996 177.775 405.14 177.613 404.153C177.452 403.168 177.565 402.151 177.955 401.104C178.339 400.054 178.992 399.067 179.914 398.145C180.827 397.233 181.807 396.587 182.852 396.207C183.899 395.817 184.916 395.704 185.901 395.865C186.893 396.022 187.753 396.466 188.485 397.198C189.252 397.965 189.701 398.873 189.83 399.919C189.96 400.957 189.747 401.915 189.191 402.795L189.288 402.892C189.936 402.428 190.651 402.144 191.434 402.037C192.216 401.921 192.989 401.981 193.753 402.216C194.522 402.447 195.204 402.862 195.801 403.459C196.569 404.227 197.03 405.141 197.182 406.201C197.33 407.257 197.179 408.356 196.73 409.5C196.284 410.639 195.548 411.723 194.52 412.751ZM192.535 410.765C193.067 410.233 193.439 409.68 193.653 409.106C193.862 408.527 193.908 407.962 193.792 407.411C193.677 406.86 193.404 406.365 192.974 405.925C192.515 405.476 191.997 405.194 191.418 405.079C190.84 404.954 190.252 404.991 189.655 405.191C189.062 405.385 188.513 405.735 188.009 406.239C187.499 406.749 187.145 407.302 186.945 407.9C186.746 408.497 186.706 409.087 186.826 409.671C186.947 410.244 187.235 410.756 187.694 411.205C188.124 411.645 188.615 411.923 189.166 412.038C189.712 412.149 190.275 412.1 190.853 411.892C191.437 411.678 191.997 411.303 192.535 410.765ZM186.058 404.289C186.493 403.854 186.79 403.381 186.947 402.872C187.109 402.358 187.131 401.846 187.011 401.337C186.89 400.828 186.627 400.365 186.219 399.949C185.808 399.546 185.354 399.286 184.858 399.171C184.359 399.051 183.856 399.077 183.352 399.248C182.842 399.415 182.367 399.719 181.928 400.159C181.479 400.608 181.168 401.09 180.996 401.604C180.825 402.109 180.799 402.61 180.919 403.11C181.039 403.601 181.305 404.048 181.717 404.45C182.125 404.867 182.58 405.137 183.085 405.263C183.59 405.378 184.101 405.357 184.62 405.199C185.139 405.032 185.618 404.729 186.058 404.289ZM201.032 389.564L203.101 391.633L196.695 398.039L194.626 395.97L201.032 389.564ZM204.145 374.303L218.362 388.52L215.784 391.098L204.074 379.387L203.991 379.47L202.787 384.922L200.426 382.562L201.693 376.756L204.145 374.303ZM222.757 384.125L220.897 382.265L220.998 372.486C220.994 371.537 220.964 370.72 220.909 370.035C220.853 369.349 220.731 368.755 220.541 368.25C220.351 367.746 220.06 367.297 219.667 366.904C219.218 366.455 218.732 366.172 218.209 366.057C217.681 365.936 217.151 365.967 216.618 366.148C216.086 366.328 215.593 366.646 215.139 367.1C214.671 367.568 214.359 368.075 214.201 368.621C214.038 369.163 214.037 369.707 214.193 370.253C214.355 370.794 214.679 371.309 215.164 371.794L212.712 374.247C211.81 373.344 211.232 372.354 210.977 371.275C210.723 370.196 210.775 369.113 211.132 368.025C211.493 366.932 212.144 365.915 213.084 364.976C214.038 364.021 215.055 363.362 216.134 362.995C217.212 362.629 218.262 362.557 219.28 362.779C220.303 362.996 221.212 363.502 222.008 364.298C222.54 364.83 222.961 365.455 223.271 366.172C223.581 366.89 223.791 367.819 223.902 368.958C224.017 370.091 224.059 371.564 224.026 373.374L224.065 378.318L224.162 378.415L230.359 372.219L232.511 374.371L222.757 384.125ZM240.992 366.279C239.991 367.28 238.931 367.998 237.81 368.433C236.694 368.865 235.606 368.999 234.546 368.837C233.485 368.676 232.541 368.209 231.713 367.435L234.325 364.824C234.732 365.185 235.195 365.392 235.714 365.448C236.228 365.499 236.756 365.41 237.298 365.183C237.839 364.957 238.349 364.604 238.825 364.127C239.335 363.618 239.699 363.078 239.916 362.509C240.13 361.935 240.188 361.377 240.091 360.835C239.994 360.293 239.735 359.817 239.314 359.404C238.888 358.97 238.397 358.701 237.842 358.6C237.286 358.498 236.7 358.57 236.085 358.815C235.474 359.056 234.867 359.478 234.265 360.081L233.007 361.338L231.022 359.353L232.28 358.095C232.775 357.6 233.122 357.08 233.322 356.539C233.526 355.992 233.579 355.458 233.482 354.935C233.381 354.407 233.122 353.94 232.704 353.532C232.307 353.125 231.867 352.866 231.385 352.755C230.904 352.635 230.413 352.658 229.914 352.825C229.418 352.987 228.948 353.291 228.503 353.736C228.068 354.171 227.743 354.652 227.531 355.18C227.317 355.708 227.243 356.232 227.307 356.75C227.368 357.264 227.589 357.726 227.974 358.139L225.493 360.619C224.716 359.804 224.247 358.876 224.085 357.835C223.924 356.784 224.044 355.719 224.447 354.64C224.845 353.556 225.506 352.554 226.428 351.632C227.377 350.682 228.38 350.037 229.435 349.693C230.491 349.341 231.51 349.271 232.492 349.484C233.473 349.696 234.324 350.163 235.046 350.885C235.852 351.681 236.286 352.589 236.351 353.607C236.42 354.621 236.153 355.596 235.55 356.531L235.662 356.642C236.801 355.78 237.939 355.384 239.072 355.453C240.207 355.513 241.216 355.99 242.1 356.882C242.896 357.678 243.381 358.619 243.557 359.702C243.732 360.776 243.602 361.887 243.167 363.035C242.736 364.179 242.01 365.26 240.992 366.279ZM246.322 355.284L244.274 353.237L240.78 337.668L242.489 335.959L245.405 338.875L244.363 339.917L246.733 350.416L246.845 350.527L255.272 342.1L257.389 344.217L246.322 355.284ZM255.747 351.135L252.485 347.872L251.596 346.928L241.558 336.89L243.99 334.458L258.207 348.675L255.747 351.135ZM261.382 329.214L263.451 331.283L257.045 337.689L254.976 335.62L261.382 329.214ZM263.453 314.607C264.139 313.93 264.922 313.389 265.801 312.981C266.681 312.563 267.645 312.359 268.691 312.368C269.733 312.372 270.845 312.661 272.031 313.235C273.216 313.808 274.456 314.743 275.752 316.039C276.978 317.256 277.941 318.478 278.639 319.704C279.338 320.922 279.774 322.105 279.951 323.253C280.126 324.401 280.044 325.491 279.706 326.524C279.368 327.556 278.77 328.501 277.913 329.358C277.014 330.256 276.042 330.877 274.996 331.22C273.954 331.559 272.914 331.635 271.877 331.451C270.84 331.266 269.88 330.829 268.996 330.139L271.532 327.603C272.226 328.038 272.939 328.223 273.67 328.158C274.402 328.084 275.073 327.74 275.685 327.129C276.671 326.143 277.003 324.955 276.679 323.566C276.356 322.178 275.433 320.722 273.91 319.199L273.813 319.296C273.993 319.931 274.051 320.577 273.986 321.234C273.916 321.887 273.73 322.521 273.429 323.137C273.133 323.748 272.73 324.309 272.22 324.818C271.387 325.652 270.437 326.203 269.373 326.472C268.312 326.736 267.24 326.716 266.157 326.411C265.079 326.101 264.09 325.502 263.192 324.613C262.267 323.688 261.649 322.644 261.339 321.483C261.03 320.311 261.046 319.128 261.389 317.934C261.728 316.735 262.416 315.625 263.453 314.607ZM265.543 316.682C265.043 317.182 264.714 317.756 264.556 318.404C264.398 319.044 264.412 319.687 264.597 320.335C264.782 320.974 265.129 321.548 265.638 322.056C266.147 322.557 266.719 322.901 267.352 323.091C267.992 323.276 268.626 323.295 269.256 323.146C269.89 322.993 270.46 322.664 270.964 322.159C271.34 321.784 271.617 321.362 271.798 320.895C271.98 320.427 272.063 319.946 272.049 319.45C272.035 318.946 271.932 318.462 271.737 317.999C271.547 317.531 271.268 317.117 270.897 316.756C270.411 316.27 269.847 315.937 269.203 315.757C268.565 315.572 267.921 315.554 267.273 315.702C266.629 315.846 266.052 316.172 265.543 316.682ZM291.646 315.625C290.613 316.658 289.522 317.402 288.374 317.856C287.23 318.305 286.13 318.456 285.074 318.309C284.02 318.151 283.11 317.687 282.346 316.913C281.745 316.321 281.326 315.643 281.09 314.879C280.854 314.115 280.794 313.342 280.911 312.56C281.027 311.769 281.316 311.048 281.779 310.4L281.682 310.303C280.789 310.873 279.824 311.093 278.786 310.964C277.749 310.825 276.849 310.369 276.085 309.597C275.35 308.87 274.901 308.014 274.739 307.028C274.577 306.042 274.691 305.025 275.08 303.979C275.465 302.928 276.118 301.941 277.04 301.019C277.952 300.107 278.932 299.461 279.978 299.081C281.025 298.691 282.041 298.578 283.027 298.739C284.018 298.897 284.879 299.34 285.61 300.072C286.378 300.84 286.827 301.747 286.956 302.793C287.085 303.831 286.872 304.789 286.316 305.669L286.414 305.766C287.062 305.302 287.777 305.018 288.56 304.911C289.342 304.795 290.115 304.855 290.879 305.091C291.647 305.321 292.33 305.736 292.927 306.333C293.695 307.101 294.156 308.015 294.308 309.075C294.455 310.131 294.305 311.23 293.856 312.374C293.41 313.513 292.673 314.597 291.646 315.625ZM289.66 313.639C290.193 313.107 290.565 312.554 290.779 311.98C290.987 311.401 291.034 310.836 290.918 310.285C290.803 309.735 290.53 309.239 290.1 308.799C289.641 308.35 289.123 308.068 288.544 307.953C287.966 307.828 287.378 307.865 286.781 308.065C286.188 308.259 285.639 308.609 285.134 309.113C284.625 309.623 284.27 310.177 284.071 310.774C283.871 311.371 283.832 311.961 283.952 312.545C284.072 313.119 284.361 313.63 284.819 314.08C285.25 314.519 285.741 314.797 286.291 314.912C286.838 315.023 287.4 314.975 287.979 314.766C288.563 314.552 289.123 314.177 289.66 313.639ZM283.184 307.163C283.619 306.728 283.916 306.255 284.073 305.746C284.235 305.232 284.257 304.72 284.137 304.211C284.016 303.702 283.753 303.239 283.345 302.823C282.933 302.42 282.479 302.161 281.984 302.045C281.485 301.925 280.982 301.951 280.477 302.122C279.968 302.289 279.493 302.593 279.054 303.033C278.604 303.482 278.294 303.964 278.122 304.478C277.95 304.983 277.925 305.485 278.045 305.984C278.165 306.475 278.431 306.922 278.843 307.324C279.25 307.741 279.706 308.011 280.211 308.137C280.716 308.252 281.227 308.231 281.746 308.074C282.264 307.906 282.744 307.603 283.184 307.163ZM300.326 306.557L294.409 288.537L294.312 288.44L287.289 295.464L285.137 293.312L294.828 283.62L297.029 285.821L303 303.882L300.326 306.557ZM317.045 290.225C316.045 291.226 314.985 291.943 313.864 292.379C312.749 292.81 311.66 292.945 310.6 292.783C309.54 292.622 308.596 292.154 307.767 291.382L310.379 288.769C310.787 289.13 311.249 289.339 311.768 289.394C312.282 289.444 312.81 289.356 313.351 289.13C313.893 288.902 314.403 288.55 314.88 288.073C315.389 287.564 315.753 287.024 315.971 286.455C316.184 285.881 316.242 285.323 316.145 284.781C316.048 284.239 315.789 283.763 315.367 283.351C314.942 282.916 314.451 282.647 313.896 282.546C313.341 282.444 312.755 282.516 312.138 282.762C311.527 283.003 310.921 283.425 310.319 284.026L309.062 285.284L307.076 283.299L308.334 282.041C308.829 281.546 309.176 281.026 309.376 280.485C309.58 279.939 309.633 279.404 309.536 278.88C309.434 278.353 309.176 277.886 308.759 277.478C308.361 277.071 307.921 276.812 307.44 276.701C306.959 276.581 306.467 276.604 305.968 276.771C305.472 276.933 305.002 277.237 304.558 277.682C304.122 278.117 303.798 278.598 303.585 279.126C303.371 279.654 303.297 280.177 303.362 280.696C303.422 281.209 303.644 281.672 304.028 282.084L301.548 284.565C300.77 283.75 300.3 282.822 300.139 281.78C299.977 280.73 300.098 279.665 300.501 278.586C300.9 277.502 301.56 276.5 302.482 275.578C303.431 274.628 304.434 273.982 305.489 273.639C306.546 273.287 307.564 273.217 308.546 273.43C309.527 273.642 310.378 274.109 311.1 274.831C311.905 275.628 312.34 276.534 312.405 277.553C312.474 278.567 312.208 279.542 311.605 280.477L311.716 280.588C312.855 279.726 313.992 279.331 315.126 279.399C316.261 279.459 317.27 279.936 318.153 280.829C318.949 281.625 319.435 282.565 319.611 283.647C319.787 284.722 319.657 285.833 319.22 286.981C318.79 288.125 318.064 289.206 317.045 290.225ZM323.624 266.972L325.693 269.041L319.287 275.447L317.218 273.378L323.624 266.972ZM326.737 251.711L340.954 265.928L338.376 268.506L326.666 256.795L326.583 256.879L325.379 262.33L323.018 259.97L324.285 254.164L326.737 251.711ZM345.349 261.533L343.489 259.673L343.59 249.894C343.585 248.946 343.556 248.129 343.501 247.443C343.445 246.758 343.323 246.163 343.133 245.658C342.943 245.154 342.652 244.705 342.259 244.312C341.81 243.863 341.323 243.581 340.801 243.465C340.273 243.344 339.742 243.375 339.21 243.556C338.678 243.736 338.185 244.054 337.731 244.508C337.263 244.976 336.951 245.483 336.793 246.029C336.63 246.571 336.628 247.115 336.785 247.661C336.946 248.203 337.271 248.717 337.756 249.202L335.304 251.655C334.402 250.752 333.824 249.762 333.569 248.684C333.315 247.605 333.366 246.521 333.723 245.434C334.085 244.34 334.736 243.324 335.676 242.384C336.63 241.429 337.647 240.77 338.726 240.403C339.804 240.037 340.853 239.965 341.872 240.187C342.895 240.404 343.804 240.911 344.6 241.707C345.132 242.239 345.553 242.863 345.863 243.581C346.173 244.298 346.383 245.227 346.494 246.366C346.609 247.499 346.65 248.972 346.618 250.782L346.657 255.727L346.754 255.824L352.951 249.627L355.103 251.779L345.349 261.533ZM363.535 243.736C362.502 244.769 361.412 245.512 360.263 245.967C359.119 246.416 358.019 246.567 356.964 246.419C355.909 246.262 354.999 245.798 354.235 245.024C353.634 244.432 353.215 243.754 352.979 242.99C352.743 242.227 352.683 241.453 352.8 240.671C352.916 239.879 353.205 239.159 353.668 238.511L353.571 238.414C352.678 238.984 351.712 239.204 350.675 239.075C349.638 238.936 348.738 238.48 347.974 237.708C347.239 236.981 346.79 236.125 346.628 235.139C346.467 234.152 346.58 233.136 346.969 232.09C347.354 231.039 348.007 230.052 348.929 229.13C349.841 228.218 350.821 227.572 351.868 227.191C352.914 226.802 353.93 226.689 354.916 226.85C355.907 227.008 356.768 227.452 357.499 228.183C358.267 228.951 358.716 229.858 358.845 230.904C358.975 231.941 358.761 232.9 358.205 233.78L358.303 233.877C358.951 233.413 359.666 233.129 360.449 233.022C361.231 232.906 362.004 232.965 362.768 233.201C363.536 233.432 364.219 233.846 364.816 234.443C365.585 235.212 366.045 236.126 366.197 237.186C366.345 238.241 366.194 239.341 365.745 240.485C365.299 241.624 364.563 242.708 363.535 243.736ZM361.549 241.751C362.082 241.218 362.455 240.664 362.668 240.09C362.877 239.511 362.924 238.947 362.808 238.396C362.692 237.845 362.42 237.349 361.989 236.91C361.531 236.461 361.012 236.179 360.434 236.063C359.855 235.939 359.267 235.976 358.67 236.176C358.077 236.37 357.528 236.72 357.023 237.225C356.514 237.734 356.159 238.288 355.961 238.885C355.76 239.482 355.721 240.072 355.841 240.656C355.961 241.23 356.25 241.741 356.709 242.19C357.139 242.63 357.63 242.908 358.18 243.023C358.727 243.133 359.29 243.085 359.868 242.877C360.452 242.663 361.012 242.288 361.549 241.751ZM355.073 235.274C355.508 234.839 355.805 234.366 355.962 233.857C356.124 233.343 356.146 232.832 356.026 232.323C355.905 231.813 355.642 231.35 355.234 230.933C354.822 230.531 354.368 230.272 353.873 230.156C353.374 230.036 352.871 230.062 352.366 230.233C351.857 230.4 351.383 230.704 350.943 231.144C350.493 231.593 350.183 232.075 350.011 232.588C349.84 233.093 349.814 233.596 349.934 234.095C350.054 234.586 350.321 235.033 350.732 235.435C351.14 235.852 351.595 236.122 352.1 236.248C352.605 236.363 353.116 236.342 353.634 236.185C354.153 236.018 354.633 235.714 355.073 235.274ZM376.995 230.276C375.994 231.277 374.934 231.995 373.813 232.43C372.697 232.862 371.609 232.996 370.549 232.834C369.488 232.673 368.544 232.206 367.716 231.432L370.328 228.82C370.735 229.181 371.198 229.389 371.717 229.445C372.231 229.496 372.759 229.407 373.301 229.18C373.842 228.953 374.352 228.601 374.828 228.124C375.338 227.615 375.702 227.075 375.919 226.506C376.133 225.932 376.191 225.374 376.094 224.832C375.997 224.29 375.738 223.814 375.317 223.401C374.891 222.967 374.4 222.698 373.845 222.597C373.29 222.495 372.703 222.567 372.088 222.812C371.477 223.053 370.87 223.475 370.268 224.078L369.01 225.335L367.025 223.35L368.283 222.092C368.779 221.596 369.125 221.077 369.325 220.536C369.529 219.989 369.582 219.455 369.485 218.932C369.384 218.404 369.125 217.937 368.707 217.529C368.31 217.122 367.87 216.863 367.388 216.752C366.907 216.632 366.416 216.655 365.917 216.822C365.421 216.984 364.951 217.288 364.507 217.733C364.071 218.168 363.747 218.649 363.534 219.177C363.32 219.705 363.246 220.228 363.311 220.747C363.371 221.261 363.592 221.723 363.977 222.136L361.496 224.616C360.719 223.801 360.25 222.873 360.088 221.832C359.927 220.78 360.047 219.716 360.45 218.637C360.848 217.553 361.509 216.551 362.431 215.629C363.38 214.679 364.383 214.034 365.438 213.69C366.494 213.338 367.513 213.268 368.495 213.481C369.476 213.693 370.327 214.16 371.049 214.882C371.855 215.678 372.289 216.586 372.354 217.604C372.423 218.618 372.156 219.593 371.553 220.528L371.665 220.639C372.804 219.777 373.942 219.381 375.075 219.45C376.21 219.51 377.219 219.987 378.103 220.879C378.899 221.675 379.384 222.616 379.56 223.699C379.735 224.773 379.605 225.884 379.17 227.032C378.739 228.176 378.013 229.257 376.995 230.276Z" fill="white"/>
<path d="M124.501 418.85L123.639 419.712C123.341 419.515 123.034 419.387 122.719 419.327C122.407 419.264 122.096 419.26 121.788 419.313C121.481 419.362 121.186 419.463 120.903 419.616C120.621 419.769 120.361 419.963 120.125 420.2C119.694 420.63 119.413 421.129 119.281 421.696C119.151 422.261 119.195 422.859 119.412 423.488C119.631 424.115 120.049 424.736 120.665 425.352C121.28 425.967 121.901 426.385 122.529 426.605C123.158 426.822 123.756 426.866 124.32 426.736C124.888 426.604 125.387 426.322 125.817 425.892C126.053 425.655 126.248 425.396 126.401 425.114C126.554 424.831 126.656 424.537 126.707 424.231C126.758 423.921 126.752 423.61 126.69 423.298C126.627 422.98 126.499 422.674 126.305 422.378L127.166 421.516C127.464 421.944 127.672 422.388 127.787 422.845C127.903 423.304 127.934 423.761 127.88 424.217C127.825 424.671 127.69 425.108 127.477 425.53C127.266 425.949 126.981 426.338 126.622 426.697C126.016 427.304 125.328 427.695 124.56 427.871C123.791 428.048 122.998 427.998 122.181 427.723C121.364 427.448 120.58 426.935 119.831 426.186C119.081 425.436 118.569 424.653 118.294 423.836C118.018 423.019 117.969 422.226 118.145 421.457C118.321 420.689 118.713 420.001 119.32 419.394C119.679 419.035 120.068 418.75 120.487 418.539C120.908 418.326 121.347 418.193 121.803 418.139C122.257 418.084 122.713 418.114 123.171 418.229C123.627 418.342 124.07 418.55 124.501 418.85ZM132.364 421.012C132.026 421.35 131.655 421.592 131.252 421.741C130.847 421.887 130.442 421.919 130.037 421.838C129.63 421.756 129.252 421.54 128.905 421.193C128.6 420.888 128.412 420.58 128.343 420.27C128.271 419.957 128.282 419.646 128.374 419.336C128.467 419.025 128.609 418.722 128.798 418.426C128.989 418.125 129.191 417.834 129.407 417.554C129.689 417.188 129.921 416.894 130.101 416.672C130.282 416.445 130.392 416.259 130.432 416.113C130.474 415.965 130.428 415.824 130.296 415.692L130.269 415.665C129.926 415.322 129.566 415.15 129.189 415.148C128.814 415.143 128.438 415.33 128.06 415.707C127.669 416.099 127.447 416.491 127.396 416.884C127.345 417.278 127.372 417.617 127.476 417.902L126.42 418.403C126.235 417.939 126.168 417.502 126.219 417.09C126.271 416.674 126.398 416.291 126.602 415.944C126.806 415.592 127.042 415.282 127.31 415.013C127.482 414.842 127.699 414.666 127.963 414.485C128.227 414.3 128.526 414.165 128.86 414.082C129.195 413.996 129.558 414.01 129.95 414.123C130.341 414.237 130.748 414.505 131.172 414.928L134.684 418.441L133.864 419.261L133.142 418.539L133.101 418.58C133.161 418.752 133.192 418.968 133.194 419.23C133.196 419.491 133.136 419.776 133.013 420.084C132.891 420.392 132.674 420.701 132.364 421.012ZM131.753 420.15C132.077 419.826 132.287 419.489 132.382 419.14C132.479 418.788 132.484 418.454 132.396 418.14C132.31 417.822 132.157 417.553 131.935 417.331L131.185 416.581C131.192 416.658 131.153 416.772 131.07 416.925C130.987 417.073 130.882 417.237 130.754 417.414C130.626 417.588 130.5 417.756 130.375 417.918C130.25 418.076 130.15 418.204 130.073 418.304C129.888 418.545 129.734 418.789 129.611 419.037C129.488 419.28 129.431 419.519 129.44 419.755C129.45 419.987 129.558 420.207 129.767 420.415C130.051 420.7 130.372 420.809 130.728 420.745C131.085 420.675 131.426 420.477 131.753 420.15ZM136.18 416.945L130.849 411.613L131.641 410.821L132.446 411.627L132.502 411.571C132.335 411.21 132.298 410.82 132.388 410.401C132.478 409.982 132.683 409.612 133.003 409.293C133.063 409.232 133.139 409.158 133.232 409.071C133.325 408.983 133.397 408.918 133.447 408.876L134.281 409.709C134.246 409.73 134.171 409.783 134.059 409.869C133.945 409.95 133.834 410.045 133.725 410.154C133.466 410.413 133.288 410.699 133.193 411.012C133.098 411.319 133.087 411.628 133.158 411.935C133.23 412.238 133.386 412.51 133.626 412.751L137 416.125L136.18 416.945ZM141.784 411.564C141.339 412.008 140.834 412.288 140.269 412.405C139.702 412.518 139.116 412.465 138.512 412.245C137.906 412.023 137.32 411.63 136.756 411.066C136.195 410.505 135.806 409.924 135.586 409.32C135.366 408.715 135.316 408.13 135.434 407.563C135.553 406.996 135.836 406.487 136.285 406.038C136.633 405.691 136.965 405.474 137.282 405.388C137.6 405.298 137.884 405.272 138.137 405.312C138.389 405.346 138.592 405.38 138.744 405.412L138.814 405.342L136.19 402.719L137.01 401.899L144.118 409.007L143.326 409.799L142.507 408.98L142.409 409.077C142.446 409.235 142.483 409.443 142.52 409.702C142.555 409.959 142.527 410.248 142.436 410.57C142.344 410.89 142.126 411.221 141.784 411.564ZM141.159 410.716C141.487 410.388 141.68 410.024 141.736 409.626C141.789 409.226 141.722 408.814 141.535 408.39C141.345 407.964 141.049 407.55 140.646 407.147C140.248 406.749 139.842 406.459 139.428 406.276C139.011 406.091 138.606 406.029 138.212 406.089C137.817 406.147 137.452 406.343 137.119 406.677C136.771 407.024 136.571 407.402 136.517 407.812C136.464 408.217 136.531 408.629 136.718 409.048C136.906 409.463 137.187 409.857 137.561 410.232C137.941 410.612 138.344 410.898 138.77 411.093C139.195 411.282 139.615 411.354 140.026 411.307C140.439 411.257 140.816 411.059 141.159 410.716ZM147.129 391.78L154.237 398.888L153.403 399.722L143.945 398.018L143.876 398.087L149.457 403.668L148.595 404.529L141.487 397.421L142.321 396.588L151.807 398.292L151.876 398.223L146.281 392.628L147.129 391.78ZM157.032 391.733L153.881 388.582L154.701 387.762L160.032 393.093L159.212 393.913L158.31 393.011L158.254 393.066C158.4 393.462 158.436 393.887 158.361 394.34C158.284 394.792 158.045 395.219 157.642 395.622C157.309 395.956 156.939 396.179 156.534 396.293C156.126 396.404 155.701 396.386 155.256 396.238C154.809 396.087 154.36 395.786 153.906 395.332L150.518 391.944L151.338 391.125L154.67 394.456C155.059 394.845 155.478 395.046 155.927 395.06C156.378 395.072 156.774 394.907 157.114 394.566C157.318 394.363 157.473 394.104 157.58 393.788C157.689 393.471 157.708 393.134 157.636 392.774C157.567 392.413 157.365 392.066 157.032 391.733ZM161.533 391.592L156.202 386.26L156.994 385.469L157.827 386.301L157.896 386.232C157.723 385.836 157.682 385.436 157.772 385.03C157.86 384.623 158.078 384.246 158.425 383.898C158.777 383.546 159.15 383.333 159.544 383.259C159.937 383.18 160.342 383.217 160.759 383.369L160.814 383.314C160.676 382.902 160.662 382.478 160.773 382.043C160.883 381.606 161.128 381.195 161.51 380.813C161.987 380.337 162.526 380.096 163.128 380.091C163.728 380.083 164.342 380.394 164.968 381.02L168.536 384.589L167.717 385.408L164.148 381.84C163.755 381.447 163.366 381.273 162.982 381.319C162.598 381.367 162.26 381.536 161.968 381.828C161.593 382.202 161.415 382.606 161.436 383.039C161.455 383.47 161.636 383.858 161.98 384.202L165.451 387.673L164.618 388.507L160.967 384.856C160.664 384.553 160.321 384.407 159.939 384.418C159.555 384.428 159.208 384.588 158.897 384.898C158.684 385.111 158.541 385.367 158.47 385.666C158.4 385.962 158.409 386.267 158.497 386.582C158.585 386.893 158.759 387.178 159.021 387.439L162.353 390.772L161.533 391.592ZM170.146 382.979L163.038 375.871L163.858 375.051L166.482 377.674L166.551 377.605C166.519 377.453 166.484 377.25 166.448 377.001C166.41 376.746 166.436 376.461 166.524 376.147C166.612 375.827 166.83 375.494 167.177 375.146C167.626 374.697 168.135 374.413 168.702 374.295C169.269 374.177 169.855 374.227 170.459 374.447C171.063 374.666 171.645 375.056 172.205 375.616C172.769 376.181 173.163 376.766 173.384 377.373C173.605 377.977 173.657 378.563 173.544 379.13C173.428 379.694 173.148 380.199 172.703 380.644C172.36 380.987 172.029 381.205 171.71 381.297C171.388 381.387 171.098 381.416 170.841 381.381C170.583 381.344 170.374 381.307 170.217 381.27L170.119 381.367L170.939 382.186L170.146 382.979ZM168.287 379.506C168.689 379.909 169.103 380.206 169.529 380.396C169.953 380.583 170.365 380.65 170.766 380.596C171.163 380.541 171.527 380.348 171.856 380.019C172.198 379.677 172.395 379.301 172.443 378.891C172.492 378.476 172.42 378.057 172.229 377.634C172.036 377.206 171.751 376.802 171.371 376.422C170.997 376.048 170.601 375.768 170.184 375.582C169.767 375.393 169.355 375.326 168.948 375.382C168.54 375.433 168.164 375.632 167.816 375.979C167.483 376.313 167.287 376.677 167.229 377.073C167.168 377.467 167.231 377.872 167.416 378.288C167.598 378.703 167.889 379.109 168.287 379.506ZM178.459 374.888C177.945 375.403 177.388 375.732 176.788 375.878C176.189 376.02 175.583 375.987 174.973 375.778C174.362 375.566 173.782 375.186 173.237 374.641C172.691 374.094 172.309 373.513 172.092 372.897C171.874 372.277 171.828 371.671 171.954 371.078C172.078 370.481 172.382 369.941 172.864 369.46C173.141 369.182 173.462 368.954 173.825 368.775C174.19 368.597 174.586 368.501 175.017 368.486C175.445 368.47 175.895 368.566 176.368 368.774C176.84 368.983 177.324 369.335 177.822 369.833L178.169 370.18L174.056 374.293L173.348 373.585L176.627 370.306C176.326 370.005 175.998 369.796 175.642 369.681C175.287 369.563 174.932 369.546 174.576 369.629C174.221 369.71 173.896 369.899 173.6 370.196C173.273 370.522 173.072 370.885 172.994 371.286C172.919 371.682 172.945 372.072 173.074 372.456C173.204 372.841 173.415 373.179 173.709 373.473L174.181 373.945C174.584 374.348 174.995 374.62 175.414 374.761C175.833 374.897 176.24 374.913 176.636 374.809C177.03 374.703 177.391 374.484 177.723 374.152C177.938 373.937 178.103 373.712 178.217 373.479C178.33 373.24 178.389 372.996 178.394 372.746C178.396 372.493 178.34 372.24 178.224 371.986L179.238 371.416C179.423 371.768 179.519 372.143 179.526 372.544C179.53 372.942 179.444 373.342 179.269 373.745C179.09 374.146 178.82 374.527 178.459 374.888ZM181.804 371.32L176.473 365.989L177.265 365.198L178.07 366.003L178.126 365.947C177.959 365.586 177.921 365.196 178.012 364.777C178.102 364.358 178.307 363.988 178.627 363.669C178.687 363.609 178.763 363.535 178.856 363.447C178.949 363.359 179.02 363.294 179.071 363.252L179.904 364.086C179.87 364.106 179.796 364.159 179.682 364.245C179.569 364.326 179.457 364.421 179.349 364.53C179.089 364.789 178.912 365.075 178.817 365.388C178.722 365.696 178.711 366.004 178.782 366.311C178.853 366.615 179.009 366.887 179.25 367.127L182.624 370.501L181.804 371.32Z" fill="white"/>
<path d="M464.703 240.326C463.845 241.184 462.892 241.703 461.843 241.885C460.795 242.059 459.694 241.9 458.542 241.406C457.389 240.907 456.231 240.076 455.068 238.914C453.909 237.747 453.085 236.593 452.596 235.451C452.107 234.301 451.953 233.206 452.134 232.164C452.318 231.119 452.838 230.169 453.692 229.315C454.547 228.46 455.496 227.941 456.542 227.756C457.587 227.571 458.683 227.726 459.828 228.218C460.977 228.708 462.131 229.532 463.291 230.691C464.457 231.857 465.288 233.019 465.785 234.174C466.28 235.323 466.438 236.422 466.257 237.471C466.079 238.516 465.561 239.468 464.703 240.326ZM463.074 238.696C463.741 238.029 463.94 237.175 463.669 236.134C463.398 235.085 462.623 233.92 461.342 232.64C460.495 231.792 459.695 231.17 458.941 230.771C458.188 230.372 457.504 230.188 456.89 230.22C456.272 230.248 455.742 230.482 455.301 230.923C454.637 231.586 454.443 232.441 454.717 233.486C454.987 234.528 455.755 235.685 457.022 236.96C457.87 237.813 458.669 238.443 459.423 238.849C460.18 239.251 460.867 239.439 461.485 239.411C462.1 239.379 462.63 239.141 463.074 238.696ZM474.282 230.634C473.507 231.408 472.689 231.966 471.827 232.306C470.97 232.643 470.145 232.756 469.354 232.646C468.562 232.528 467.88 232.179 467.307 231.6C466.856 231.155 466.543 230.647 466.365 230.074C466.189 229.501 466.144 228.921 466.231 228.334C466.318 227.74 466.535 227.2 466.882 226.714L466.809 226.641C466.139 227.069 465.415 227.234 464.637 227.137C463.859 227.033 463.184 226.691 462.612 226.112C462.06 225.567 461.723 224.925 461.602 224.185C461.481 223.445 461.566 222.683 461.858 221.898C462.146 221.11 462.637 220.37 463.328 219.679C464.012 218.995 464.747 218.51 465.531 218.225C466.317 217.933 467.079 217.848 467.818 217.968C468.561 218.086 469.207 218.419 469.756 218.968C470.332 219.544 470.668 220.225 470.765 221.009C470.862 221.787 470.702 222.506 470.285 223.165L470.358 223.238C470.844 222.891 471.38 222.677 471.967 222.598C472.554 222.51 473.134 222.556 473.707 222.732C474.284 222.905 474.795 223.216 475.243 223.664C475.819 224.24 476.165 224.926 476.279 225.721C476.389 226.513 476.276 227.337 475.939 228.195C475.606 229.05 475.053 229.862 474.282 230.634ZM472.793 229.144C473.192 228.744 473.472 228.329 473.632 227.899C473.788 227.465 473.823 227.041 473.737 226.628C473.65 226.215 473.445 225.844 473.122 225.513C472.779 225.177 472.39 224.965 471.956 224.879C471.522 224.785 471.081 224.813 470.633 224.963C470.188 225.108 469.777 225.371 469.398 225.75C469.016 226.132 468.75 226.546 468.601 226.995C468.451 227.443 468.422 227.885 468.512 228.323C468.602 228.753 468.819 229.137 469.162 229.473C469.485 229.804 469.853 230.011 470.266 230.098C470.676 230.182 471.098 230.145 471.532 229.988C471.97 229.828 472.39 229.547 472.793 229.144ZM467.935 224.287C468.262 223.96 468.484 223.606 468.603 223.224C468.724 222.839 468.74 222.455 468.65 222.073C468.56 221.691 468.362 221.344 468.057 221.031C467.747 220.729 467.408 220.535 467.036 220.448C466.661 220.358 466.284 220.377 465.906 220.506C465.524 220.631 465.167 220.859 464.837 221.189C464.5 221.526 464.268 221.887 464.139 222.273C464.01 222.651 463.991 223.028 464.082 223.403C464.172 223.771 464.371 224.106 464.68 224.408C464.985 224.72 465.328 224.923 465.706 225.017C466.085 225.103 466.468 225.088 466.857 224.97C467.246 224.844 467.605 224.616 467.935 224.287ZM473.029 209.27L482.356 225.475L480.704 227.126L471.377 210.921L473.029 209.27ZM485.374 219.249L483.979 217.854L484.055 210.521C484.051 209.809 484.029 209.196 483.987 208.682C483.946 208.168 483.855 207.722 483.712 207.343C483.57 206.965 483.351 206.629 483.056 206.334C482.719 205.997 482.356 205.785 481.963 205.698C481.567 205.608 481.17 205.631 480.77 205.767C480.371 205.902 480.001 206.14 479.66 206.48C479.309 206.831 479.075 207.212 478.957 207.622C478.835 208.028 478.833 208.436 478.951 208.845C479.073 209.251 479.315 209.637 479.68 210.002L477.841 211.841C477.164 211.164 476.73 210.422 476.539 209.612C476.348 208.803 476.387 207.991 476.655 207.175C476.926 206.355 477.414 205.593 478.119 204.888C478.835 204.172 479.597 203.677 480.407 203.402C481.216 203.128 482.002 203.074 482.766 203.24C483.533 203.403 484.216 203.782 484.812 204.379C485.212 204.779 485.528 205.247 485.76 205.785C485.992 206.323 486.15 207.02 486.233 207.874C486.32 208.724 486.35 209.828 486.325 211.186L486.356 214.895L486.428 214.967L491.076 210.32L492.69 211.934L485.374 219.249ZM494.487 210.136L493.092 208.741L493.168 201.407C493.164 200.695 493.142 200.083 493.101 199.569C493.059 199.055 492.968 198.609 492.826 198.23C492.683 197.852 492.465 197.515 492.17 197.22C491.833 196.883 491.469 196.672 491.076 196.585C490.681 196.495 490.283 196.518 489.883 196.654C489.484 196.789 489.114 197.027 488.774 197.367C488.423 197.718 488.188 198.098 488.07 198.509C487.948 198.914 487.946 199.323 488.064 199.732C488.186 200.138 488.428 200.524 488.793 200.889L486.954 202.728C486.277 202.051 485.843 201.308 485.652 200.499C485.461 199.69 485.5 198.877 485.768 198.062C486.039 197.241 486.527 196.48 487.233 195.774C487.948 195.059 488.711 194.563 489.52 194.289C490.329 194.015 491.115 193.96 491.879 194.126C492.647 194.289 493.329 194.669 493.926 195.266C494.325 195.665 494.641 196.134 494.873 196.672C495.105 197.21 495.263 197.906 495.346 198.76C495.433 199.611 495.463 200.715 495.438 202.073L495.469 205.782L495.541 205.854L500.189 201.207L501.803 202.821L494.487 210.136Z" fill="white"/>
<path d="M433.493 216.596L441.588 220.467L441.672 220.384L437.8 212.288L438.703 211.385L443.199 221.106L442.31 221.994L432.59 217.499L433.493 216.596ZM448.007 216.548C447.669 216.886 447.298 217.129 446.895 217.277C446.49 217.423 446.085 217.456 445.68 217.375C445.273 217.292 444.895 217.077 444.548 216.73C444.243 216.425 444.055 216.116 443.987 215.806C443.915 215.493 443.925 215.182 444.017 214.872C444.11 214.562 444.252 214.259 444.441 213.962C444.632 213.661 444.834 213.371 445.05 213.091C445.332 212.724 445.564 212.43 445.744 212.208C445.925 211.981 446.035 211.795 446.075 211.649C446.117 211.501 446.072 211.361 445.94 211.229L445.912 211.201C445.569 210.858 445.209 210.686 444.832 210.685C444.457 210.68 444.081 210.866 443.704 211.244C443.312 211.636 443.091 212.027 443.039 212.421C442.989 212.815 443.015 213.154 443.119 213.438L442.063 213.939C441.878 213.476 441.811 213.039 441.862 212.627C441.914 212.21 442.041 211.827 442.245 211.481C442.449 211.129 442.685 210.818 442.953 210.55C443.125 210.379 443.342 210.202 443.606 210.021C443.871 209.836 444.169 209.702 444.503 209.618C444.838 209.533 445.202 209.547 445.593 209.659C445.984 209.773 446.391 210.042 446.815 210.465L450.327 213.978L449.508 214.797L448.786 214.075L448.744 214.117C448.804 214.289 448.835 214.504 448.837 214.766C448.84 215.027 448.78 215.312 448.656 215.62C448.534 215.928 448.317 216.238 448.007 216.548ZM447.396 215.687C447.72 215.363 447.93 215.026 448.025 214.676C448.122 214.324 448.127 213.991 448.039 213.677C447.954 213.359 447.8 213.089 447.578 212.867L446.828 212.117C446.835 212.194 446.797 212.308 446.713 212.461C446.63 212.61 446.525 212.773 446.397 212.951C446.27 213.125 446.144 213.292 446.018 213.454C445.893 213.612 445.793 213.741 445.716 213.841C445.531 214.081 445.377 214.325 445.254 214.573C445.132 214.816 445.074 215.056 445.084 215.292C445.093 215.523 445.201 215.743 445.41 215.952C445.694 216.236 446.015 216.346 446.372 216.281C446.728 216.211 447.07 216.013 447.396 215.687ZM445.535 204.553L452.644 211.661L451.824 212.481L444.716 205.373L445.535 204.553ZM454.145 210.16L448.814 204.828L449.634 204.009L454.965 209.34L454.145 210.16ZM448.342 203.523C448.182 203.683 447.99 203.766 447.765 203.773C447.543 203.778 447.356 203.704 447.203 203.551C447.05 203.398 446.976 203.211 446.981 202.989C446.988 202.764 447.071 202.572 447.232 202.412C447.391 202.252 447.582 202.171 447.804 202.166C448.029 202.159 448.217 202.231 448.37 202.384C448.523 202.537 448.595 202.726 448.589 202.95C448.584 203.172 448.502 203.363 448.342 203.523ZM458.592 205.935C458.148 206.379 457.643 206.659 457.078 206.776C456.51 206.889 455.925 206.836 455.32 206.616C454.714 206.394 454.129 206.001 453.565 205.436C453.004 204.876 452.615 204.295 452.395 203.691C452.175 203.086 452.125 202.501 452.243 201.933C452.361 201.367 452.645 200.858 453.094 200.409C453.441 200.062 453.774 199.845 454.091 199.759C454.408 199.669 454.693 199.643 454.946 199.683C455.197 199.717 455.4 199.751 455.553 199.783L455.622 199.714L452.998 197.09L453.818 196.27L460.926 203.378L460.135 204.17L459.316 203.351L459.218 203.448C459.255 203.606 459.292 203.814 459.329 204.073C459.363 204.33 459.336 204.619 459.245 204.941C459.153 205.261 458.935 205.592 458.592 205.935ZM457.967 205.087C458.296 204.759 458.488 204.395 458.545 203.997C458.598 203.597 458.531 203.185 458.343 202.761C458.154 202.336 457.857 201.921 457.455 201.518C457.057 201.12 456.651 200.83 456.237 200.647C455.82 200.463 455.415 200.4 455.021 200.46C454.626 200.518 454.261 200.715 453.928 201.048C453.58 201.395 453.379 201.773 453.326 202.183C453.272 202.589 453.339 203.001 453.527 203.419C453.714 203.834 453.995 204.229 454.37 204.603C454.75 204.983 455.152 205.269 455.579 205.464C456.004 205.653 456.423 205.725 456.835 205.678C457.248 205.627 457.624 205.43 457.967 205.087ZM458.671 192.945L457.907 192.181L463.243 186.846L464.006 187.609L461.769 189.846L468.114 196.191L467.252 197.052L460.908 190.708L458.671 192.945ZM469.182 188.708L472.389 191.916L471.569 192.735L464.461 185.627L465.281 184.807L467.891 187.417L467.96 187.348C467.81 186.948 467.779 186.541 467.867 186.129C467.955 185.713 468.209 185.294 468.627 184.876C468.991 184.512 469.382 184.266 469.802 184.139C470.219 184.009 470.652 184.018 471.1 184.166C471.549 184.309 472.003 184.61 472.462 185.068L475.849 188.456L475.029 189.276L471.697 185.943C471.273 185.52 470.836 185.303 470.385 185.292C469.933 185.275 469.515 185.461 469.128 185.848C468.859 186.116 468.674 186.413 468.575 186.74C468.478 187.064 468.476 187.396 468.571 187.737C468.668 188.075 468.872 188.398 469.182 188.708ZM477.349 186.956L472.017 181.625L472.809 180.833L473.614 181.638L473.67 181.583C473.503 181.222 473.465 180.832 473.556 180.412C473.647 179.993 473.851 179.624 474.171 179.304C474.231 179.244 474.308 179.17 474.4 179.082C474.493 178.994 474.565 178.929 474.616 178.887L475.449 179.721C475.414 179.741 475.34 179.794 475.227 179.881C475.113 179.961 475.002 180.057 474.893 180.166C474.634 180.425 474.456 180.711 474.361 181.023C474.266 181.331 474.255 181.639 474.326 181.947C474.398 182.25 474.554 182.522 474.795 182.762L478.168 186.136L477.349 186.956ZM482.171 177.774L479.019 174.623L479.839 173.803L485.17 179.134L484.351 179.954L483.448 179.052L483.393 179.107C483.539 179.503 483.574 179.928 483.5 180.381C483.423 180.833 483.183 181.26 482.781 181.663C482.447 181.997 482.078 182.22 481.673 182.334C481.265 182.445 480.839 182.427 480.395 182.279C479.948 182.128 479.498 181.827 479.044 181.373L475.657 177.985L476.477 177.166L479.808 180.497C480.198 180.886 480.616 181.087 481.065 181.101C481.517 181.113 481.912 180.948 482.253 180.608C482.457 180.404 482.612 180.145 482.718 179.829C482.828 179.512 482.846 179.175 482.774 178.816C482.705 178.454 482.504 178.107 482.171 177.774Z" fill="white"/>
<path d="M107.266 304.025L108.422 302.868L117.78 306.786L117.875 306.692L113.956 297.335L115.113 296.178L123.11 304.175L122.203 305.081L116.128 299.005L116.049 299.083L119.624 307.66L118.749 308.536L110.172 304.961L110.093 305.039L116.169 311.115L115.263 312.022L107.266 304.025ZM126.835 300.73C126.454 301.111 126.038 301.384 125.585 301.551C125.129 301.715 124.673 301.752 124.218 301.661C123.759 301.568 123.335 301.326 122.944 300.935C122.6 300.592 122.39 300.245 122.312 299.896C122.231 299.545 122.243 299.195 122.347 298.846C122.452 298.496 122.611 298.155 122.824 297.822C123.038 297.483 123.266 297.156 123.508 296.841C123.826 296.43 124.087 296.099 124.29 295.849C124.493 295.593 124.617 295.383 124.661 295.22C124.708 295.053 124.658 294.895 124.509 294.747L124.478 294.716C124.093 294.331 123.688 294.137 123.263 294.134C122.841 294.129 122.418 294.339 121.993 294.764C121.553 295.204 121.304 295.646 121.247 296.088C121.189 296.531 121.219 296.913 121.336 297.233L120.148 297.796C119.94 297.275 119.865 296.783 119.922 296.319C119.98 295.85 120.123 295.421 120.352 295.03C120.582 294.634 120.848 294.285 121.15 293.983C121.343 293.79 121.587 293.592 121.885 293.388C122.182 293.18 122.517 293.029 122.893 292.935C123.271 292.838 123.679 292.854 124.119 292.982C124.56 293.109 125.018 293.411 125.494 293.887L129.446 297.839L128.523 298.761L127.711 297.949L127.664 297.996C127.732 298.189 127.767 298.432 127.769 298.726C127.772 299.021 127.704 299.341 127.566 299.687C127.428 300.034 127.184 300.381 126.835 300.73ZM126.148 299.762C126.512 299.398 126.748 299.018 126.855 298.625C126.965 298.229 126.97 297.854 126.871 297.5C126.775 297.143 126.602 296.84 126.352 296.59L125.509 295.747C125.516 295.833 125.473 295.962 125.38 296.134C125.286 296.3 125.167 296.484 125.024 296.684C124.881 296.88 124.739 297.069 124.598 297.251C124.457 297.428 124.344 297.573 124.258 297.685C124.05 297.956 123.877 298.23 123.738 298.509C123.6 298.783 123.536 299.052 123.546 299.318C123.557 299.578 123.679 299.825 123.913 300.06C124.234 300.38 124.594 300.503 124.995 300.431C125.396 300.352 125.781 300.129 126.148 299.762ZM130.726 287.25L130.132 288.312C129.942 288.226 129.731 288.169 129.499 288.14C129.267 288.107 129.023 288.133 128.765 288.219C128.507 288.305 128.244 288.482 127.975 288.751C127.608 289.118 127.387 289.508 127.311 289.923C127.235 290.331 127.327 290.665 127.584 290.922C127.813 291.151 128.077 291.249 128.377 291.215C128.676 291.181 129.048 291.031 129.49 290.766L130.6 290.093C131.267 289.687 131.866 289.486 132.397 289.491C132.926 289.493 133.399 289.704 133.819 290.123C134.162 290.467 134.371 290.873 134.444 291.341C134.519 291.808 134.459 292.294 134.263 292.803C134.068 293.311 133.737 293.798 133.27 294.264C132.658 294.876 132.019 295.25 131.352 295.386C130.685 295.522 130.043 295.388 129.426 294.984L130.083 293.89C130.489 294.13 130.889 294.214 131.282 294.143C131.678 294.071 132.065 293.845 132.443 293.467C132.872 293.037 133.123 292.605 133.193 292.17C133.264 291.73 133.17 291.381 132.912 291.123C132.704 290.915 132.456 290.814 132.17 290.819C131.881 290.822 131.55 290.939 131.178 291.171L129.943 291.937C129.263 292.357 128.657 292.559 128.127 292.543C127.595 292.523 127.122 292.306 126.709 291.892C126.37 291.553 126.166 291.158 126.096 290.708C126.028 290.255 126.086 289.789 126.269 289.309C126.453 288.828 126.757 288.376 127.179 287.954C127.773 287.36 128.37 287.023 128.969 286.945C129.57 286.864 130.156 286.966 130.726 287.25ZM133.491 281.798L134.272 282.579L131.161 285.689L130.38 284.909L133.491 281.798ZM129.85 282.565L130.773 281.642L136.489 287.359C136.75 287.619 136.982 287.777 137.188 287.831C137.394 287.881 137.579 287.868 137.743 287.792C137.907 287.711 138.057 287.603 138.192 287.468C138.294 287.366 138.372 287.278 138.427 287.202C138.479 287.124 138.52 287.062 138.552 287.015L139.567 287.655C139.528 287.741 139.464 287.852 139.376 287.987C139.29 288.125 139.16 288.28 138.989 288.452C138.728 288.712 138.417 288.912 138.055 289.05C137.695 289.186 137.319 289.221 136.926 289.156C136.535 289.088 136.165 288.88 135.817 288.531L129.85 282.565ZM143.453 284.081C142.875 284.659 142.248 285.031 141.574 285.195C140.899 285.354 140.218 285.317 139.531 285.083C138.844 284.843 138.193 284.416 137.579 283.802C136.964 283.187 136.535 282.534 136.29 281.842C136.046 281.144 135.994 280.461 136.135 279.795C136.276 279.123 136.617 278.516 137.159 277.974C137.471 277.661 137.832 277.405 138.241 277.204C138.65 277.003 139.097 276.895 139.581 276.879C140.063 276.861 140.569 276.969 141.1 277.203C141.632 277.437 142.177 277.834 142.737 278.393L143.128 278.784L138.5 283.411L137.704 282.615L141.393 278.925C141.055 278.587 140.685 278.353 140.284 278.223C139.886 278.09 139.486 278.07 139.085 278.165C138.686 278.256 138.32 278.468 137.987 278.802C137.619 279.169 137.392 279.578 137.306 280.029C137.221 280.474 137.25 280.913 137.396 281.345C137.541 281.777 137.779 282.159 138.11 282.489L138.641 283.02C139.094 283.473 139.556 283.779 140.028 283.938C140.499 284.091 140.957 284.109 141.403 283.992C141.845 283.872 142.253 283.626 142.625 283.253C142.868 283.011 143.053 282.758 143.18 282.495C143.308 282.227 143.375 281.952 143.38 281.67C143.383 281.387 143.319 281.102 143.189 280.815L144.33 280.174C144.538 280.57 144.646 280.993 144.654 281.443C144.659 281.891 144.562 282.342 144.364 282.796C144.164 283.246 143.86 283.674 143.453 284.081ZM147.217 280.068L141.219 274.07L142.11 273.179L143.016 274.085L143.079 274.022C142.891 273.616 142.849 273.177 142.95 272.706C143.052 272.235 143.283 271.819 143.642 271.459C143.71 271.391 143.796 271.308 143.9 271.21C144.005 271.11 144.085 271.038 144.142 270.991L145.079 271.928C145.04 271.951 144.957 272.011 144.829 272.107C144.702 272.199 144.577 272.306 144.454 272.428C144.163 272.72 143.963 273.041 143.856 273.393C143.749 273.739 143.736 274.086 143.817 274.432C143.897 274.773 144.073 275.079 144.344 275.35L148.139 279.145L147.217 280.068ZM153.692 273.842C153.129 274.405 152.512 274.757 151.84 274.897C151.168 275.038 150.49 274.986 149.805 274.738C149.12 274.491 148.479 274.068 147.88 273.469C147.271 272.86 146.845 272.211 146.603 271.521C146.361 270.826 146.311 270.144 146.451 269.478C146.593 268.806 146.934 268.199 147.476 267.657C147.898 267.235 148.356 266.933 148.851 266.75C149.346 266.568 149.842 266.509 150.34 266.574C150.837 266.638 151.299 266.833 151.726 267.155L150.804 268.077C150.46 267.874 150.062 267.789 149.609 267.82C149.156 267.846 148.726 268.063 148.319 268.469C147.959 268.829 147.738 269.238 147.655 269.696C147.571 270.149 147.623 270.62 147.81 271.11C147.998 271.594 148.318 272.063 148.771 272.516C149.234 272.979 149.71 273.31 150.2 273.508C150.692 273.703 151.167 273.761 151.626 273.683C152.087 273.602 152.5 273.379 152.864 273.015C153.104 272.774 153.28 272.516 153.392 272.237C153.504 271.958 153.55 271.673 153.529 271.381C153.508 271.09 153.417 270.806 153.256 270.53L154.178 269.608C154.48 270.014 154.67 270.461 154.748 270.951C154.826 271.435 154.78 271.929 154.611 272.432C154.441 272.929 154.135 273.399 153.692 273.842ZM159.183 268.383C158.803 268.763 158.386 269.037 157.933 269.203C157.477 269.368 157.021 269.404 156.565 269.313C156.107 269.22 155.682 268.978 155.292 268.588C154.948 268.244 154.738 267.898 154.66 267.548C154.579 267.197 154.591 266.847 154.695 266.498C154.8 266.149 154.958 265.808 155.172 265.474C155.386 265.136 155.614 264.809 155.856 264.493C156.174 264.082 156.434 263.751 156.638 263.501C156.841 263.246 156.965 263.036 157.009 262.872C157.056 262.705 157.005 262.548 156.857 262.399L156.826 262.368C156.44 261.983 156.036 261.789 155.611 261.787C155.19 261.781 154.766 261.991 154.341 262.416C153.901 262.856 153.652 263.298 153.595 263.741C153.537 264.183 153.567 264.564 153.684 264.885L152.497 265.448C152.288 264.927 152.213 264.435 152.27 263.972C152.328 263.502 152.471 263.073 152.701 262.682C152.93 262.286 153.196 261.937 153.498 261.635C153.69 261.442 153.936 261.244 154.233 261.041C154.529 260.832 154.865 260.682 155.241 260.587C155.618 260.491 156.027 260.506 156.467 260.634C156.907 260.761 157.366 261.063 157.842 261.539L161.794 265.491L160.871 266.413L160.059 265.601L160.012 265.648C160.08 265.841 160.115 266.084 160.117 266.378C160.119 266.673 160.052 266.993 159.914 267.339C159.775 267.686 159.532 268.033 159.183 268.383ZM158.496 267.414C158.86 267.05 159.096 266.671 159.203 266.277C159.313 265.881 159.318 265.506 159.22 265.152C159.123 264.795 158.95 264.492 158.7 264.242L157.857 263.399C157.864 263.485 157.822 263.613 157.727 263.786C157.634 263.952 157.515 264.136 157.372 264.336C157.229 264.532 157.086 264.721 156.946 264.903C156.805 265.08 156.692 265.225 156.606 265.337C156.397 265.608 156.224 265.882 156.086 266.161C155.948 266.435 155.884 266.705 155.894 266.97C155.904 267.23 156.027 267.478 156.261 267.712C156.581 268.032 156.942 268.156 157.343 268.083C157.744 268.004 158.128 267.782 158.496 267.414ZM163.477 263.808L157.479 257.81L158.37 256.919L159.276 257.825L159.339 257.762C159.151 257.356 159.109 256.917 159.21 256.446C159.312 255.975 159.542 255.559 159.902 255.199C159.97 255.132 160.056 255.048 160.16 254.949C160.264 254.851 160.345 254.777 160.402 254.731L161.339 255.668C161.3 255.691 161.217 255.751 161.089 255.847C160.962 255.938 160.837 256.046 160.714 256.168C160.422 256.46 160.223 256.782 160.116 257.133C160.009 257.479 159.996 257.826 160.076 258.172C160.157 258.513 160.333 258.819 160.604 259.09L164.399 262.885L163.477 263.808ZM169.78 257.754C169.28 258.254 168.712 258.57 168.077 258.7C167.439 258.828 166.78 258.768 166.1 258.521C165.418 258.272 164.759 257.829 164.124 257.194C163.494 256.564 163.055 255.909 162.808 255.229C162.561 254.55 162.504 253.891 162.637 253.253C162.77 252.615 163.09 252.043 163.595 251.538C163.986 251.147 164.36 250.903 164.716 250.807C165.073 250.705 165.394 250.676 165.677 250.72C165.961 250.76 166.189 250.797 166.361 250.833L166.439 250.756L163.487 247.804L164.409 246.881L172.406 254.878L171.516 255.769L170.594 254.847L170.485 254.957C170.526 255.134 170.568 255.368 170.609 255.66C170.648 255.949 170.617 256.275 170.515 256.637C170.411 256.996 170.166 257.368 169.78 257.754ZM169.077 256.802C169.448 256.431 169.664 256.022 169.727 255.574C169.786 255.124 169.711 254.66 169.5 254.184C169.287 253.705 168.954 253.239 168.501 252.786C168.053 252.338 167.596 252.012 167.13 251.806C166.661 251.598 166.206 251.528 165.763 251.596C165.318 251.661 164.907 251.881 164.532 252.256C164.141 252.647 163.916 253.073 163.856 253.534C163.796 253.989 163.871 254.453 164.082 254.924C164.293 255.391 164.609 255.834 165.031 256.256C165.458 256.683 165.91 257.006 166.389 257.225C166.869 257.437 167.34 257.518 167.804 257.466C168.267 257.409 168.692 257.187 169.077 256.802Z" fill="white"/>
<path d="M62.1016 336.052L74.9955 323.158L98.1448 346.307L85.2509 359.201L62.1016 336.052Z" fill="#FF5F00"/>
<path d="M74.4941 346.808C69.7906 342.105 67.829 335.722 68.5269 329.625C64.0671 330.159 59.7292 332.125 56.2909 335.563C48.1449 343.709 48.1395 356.884 56.2787 365.023C64.4177 373.162 77.5929 373.157 85.7387 365.011C89.177 361.573 91.1427 357.235 91.6763 352.775C85.6205 353.514 79.1975 351.511 74.4941 346.808Z" fill="#EB001B"/>
<path d="M103.965 317.336C112.104 325.475 112.099 338.65 103.953 346.796C100.515 350.234 96.1768 352.2 91.7166 352.734C92.4557 346.596 90.4533 340.255 85.7499 335.551C81.0464 330.848 74.664 328.886 68.5672 329.584C69.1008 325.124 71.0667 320.786 74.5051 317.348C82.6509 309.202 95.867 309.238 103.965 317.336Z" fill="#F79E1B"/>
<path d="M339.906 51.949L320.342 71.513C315.278 76.5778 315.274 84.7861 320.335 89.8467L330.72 100.232C335.781 105.292 343.989 105.289 349.054 100.224L368.618 80.6602C373.682 75.5955 373.686 67.3872 368.625 62.3265L358.24 51.9416C353.18 46.8809 344.971 46.8843 339.906 51.949Z" fill="url(#paint1_linear_3443_1391)" stroke="#666666" stroke-width="2"/>
<path fill-rule="evenodd" clip-rule="evenodd" d="M341.583 62.192C337.564 60.8476 333.358 60.8427 331.153 61.4017C331.009 61.4403 330.855 61.4196 330.725 61.3441C330.595 61.2692 330.501 61.1455 330.462 61.0012C330.423 60.8562 330.443 60.7025 330.518 60.5731C330.593 60.4436 330.715 60.3498 330.86 60.3112C333.736 59.5668 338.286 59.9082 341.909 61.1174C341.984 61.1349 342.055 61.168 342.116 61.2155C342.177 61.2631 342.228 61.3231 342.262 61.3923C342.298 61.4608 342.318 61.5367 342.321 61.6135C342.324 61.6908 342.31 61.7675 342.28 61.8388C342.255 61.9218 342.211 61.9971 342.15 62.0586C342.077 62.1314 341.986 62.182 341.885 62.2061C341.785 62.2295 341.681 62.2242 341.583 62.192ZM342.309 87.1286C346.053 90.8196 353.967 91.769 357.798 90.8023C357.868 90.7807 357.943 90.7736 358.016 90.7822C358.09 90.7909 358.161 90.8145 358.225 90.8525C358.288 90.8904 358.344 90.9409 358.386 91.0018C358.429 91.0621 358.459 91.1309 358.474 91.2033C358.498 91.297 358.497 91.396 358.472 91.4893C358.446 91.5827 358.398 91.6675 358.33 91.7365C358.26 91.8064 358.172 91.8554 358.076 91.8779C354.002 92.9224 346.074 91.9952 341.886 88.2547L330.094 100.047C329.986 100.135 329.85 100.18 329.711 100.173C329.572 100.166 329.441 100.107 329.343 100.009C329.244 99.9103 329.185 99.7792 329.178 99.6403C329.171 99.5013 329.216 99.3651 329.304 99.2578L341.171 87.391C339.299 84.032 336.527 81.2599 333.168 79.3877L321.301 91.2545C321.197 91.3584 321.056 91.4167 320.909 91.4165C320.762 91.4162 320.621 91.3573 320.517 91.2531C320.413 91.1489 320.354 91.0081 320.354 90.8611C320.354 90.7141 320.412 90.5731 320.516 90.4691L332.308 78.677C328.553 74.474 327.656 66.545 328.685 62.4865C328.723 62.3423 328.817 62.219 328.947 62.1443C329.076 62.0695 329.23 62.0496 329.374 62.0888C329.519 62.1273 329.642 62.2224 329.718 62.3516C329.793 62.4815 329.813 62.6355 329.775 62.7797C328.79 66.5924 329.743 74.5102 333.438 78.2576C337.186 80.2991 340.267 83.3801 342.309 87.1286ZM367.65 60.9124L355.761 72.8012C352.402 70.929 349.63 68.1569 347.758 64.7979L359.647 52.9092C359.75 52.8052 359.809 52.6642 359.809 52.5172C359.808 52.3702 359.749 52.2294 359.645 52.1252C359.541 52.021 359.4 51.9621 359.253 51.9619C359.106 51.9616 358.965 52.0199 358.861 52.1238L346.67 64.3146C346.586 64.4006 346.533 64.5111 346.518 64.6303C346.502 64.7495 346.527 64.8702 346.586 64.9749C348.636 68.7572 351.742 71.8635 355.524 73.9131C359.215 77.6568 360.165 85.5709 359.198 89.4023C359.174 89.4722 359.164 89.5472 359.171 89.6219C359.178 89.696 359.2 89.7683 359.236 89.8339C359.272 89.8995 359.323 89.9559 359.382 90.0009C359.443 90.0454 359.511 90.0772 359.584 90.093C359.678 90.1171 359.776 90.1163 359.87 90.0911C359.963 90.0659 360.049 90.0168 360.118 89.9488C360.187 89.8794 360.236 89.7914 360.259 89.6953C361.307 85.6554 360.376 77.6927 356.636 73.5047L368.439 61.7016C368.527 61.5942 368.572 61.458 368.565 61.319C368.558 61.18 368.499 61.049 368.401 60.9506C368.302 60.8521 368.171 60.7932 368.032 60.7863C367.893 60.7793 367.757 60.8241 367.65 60.9124ZM331.525 63.93C331.563 63.7372 331.657 63.5609 331.796 63.4221C331.982 63.2362 332.234 63.1324 332.497 63.1328C332.76 63.1338 333.012 63.2387 333.199 63.4251C333.338 63.5642 333.433 63.7411 333.472 63.9337C333.51 64.1264 333.491 64.3259 333.416 64.507C333.342 64.688 333.214 64.8431 333.051 64.9517C332.889 65.0603 332.697 65.118 332.501 65.1176C332.305 65.117 332.113 65.0584 331.949 64.9495C331.786 64.84 331.658 64.6846 331.583 64.503C331.507 64.3219 331.487 64.1222 331.525 63.93Z" fill="#666666"/>
</g>
<defs>
<filter id="filter0_b_3443_1391" x="-198.731" y="-198.731" width="948.755" height="948.754" filterUnits="userSpaceOnUse" color-interpolation-filters="sRGB">
<feFlood flood-opacity="0" result="BackgroundImageFix"/>
<feGaussianBlur in="BackgroundImageFix" stdDeviation="103.877"/>
<feComposite in2="SourceAlpha" operator="in" result="effect1_backgroundBlur_3443_1391"/>
<feBlend mode="normal" in="SourceGraphic" in2="effect1_backgroundBlur_3443_1391" result="shape"/>
</filter>
<linearGradient id="paint0_linear_3443_1391" x1="-12.6421" y1="272.849" x2="830.465" y2="187.827" gradientUnits="userSpaceOnUse">
<stop stop-color="#272727"/>
<stop offset="0.518853" stop-color="#696160" stop-opacity="0.5"/>
<stop offset="1" stop-color="#C4C4C4" stop-opacity="0.56"/>
</linearGradient>
<linearGradient id="paint1_linear_3443_1391" x1="306.223" y1="84.4104" x2="382.117" y2="68.0407" gradientUnits="userSpaceOnUse">
<stop stop-color="#DDD9D6"/>
<stop offset="0.212761" stop-color="#8A868C"/>
<stop offset="0.548384" stop-color="#F2F3F3" stop-opacity="0.8"/>
<stop offset="0.914316" stop-color="#807C80"/>
<stop offset="1" stop-color="#A6A8AB"/>
</linearGradient>
<clipPath id="clip0_3443_1391">
<rect width="491.965" height="287.682" fill="white" transform="translate(0 347.872) rotate(-45)"/>
</clipPath>
</defs>
</svg>
