<svg width="575" height="137" viewBox="0 0 575 137" fill="none" xmlns="http://www.w3.org/2000/svg">
<g clip-path="url(#clip0_3430_3577)">
<path d="M0.25 -5.54883H165.75V144.451H0.25V-5.54883Z" fill="#FF9C8B"/>
<path d="M165.75 69.4512C165.75 110.872 128.701 144.451 83 144.451V-5.54883C128.701 -5.54883 165.75 28.0302 165.75 69.4512Z" fill="#FF7F6A"/>
<path d="M0.25 69.4512C0.25 110.872 37.2984 144.451 83 144.451V-5.54883C37.2984 -5.54883 0.25 28.0302 0.25 69.4512Z" fill="#FBC7BF"/>
<path d="M331.25 -5.54883V144.451H165.75V-5.54883H331.25Z" fill="#FF9C8B"/>
</g>
<g clip-path="url(#clip1_3430_3577)">
<path d="M408.75 -13.5488V136.451H243.25V-13.5488H408.75Z" fill="#FF9C8B"/>
<path d="M243.25 136.451V-13.5488L408.75 136.451H243.25Z" fill="#FF7F6A"/>
<path d="M408.75 136.451V-13.5488H574.25V136.451H408.75Z" fill="#FF9C8B"/>
<path d="M408.75 -13.5488C408.75 6.14947 413.031 25.6549 421.348 43.8537C429.665 62.0527 441.856 78.5887 457.224 92.5169C472.592 106.446 490.836 117.495 510.916 125.033C530.995 132.571 552.517 136.451 574.25 136.451V-13.5488H408.75Z" fill="#FBC7BF"/>
</g>
<defs>
<clipPath id="clip0_3430_3577">
<rect width="331" height="136" fill="white" transform="translate(0.25 0.451172)"/>
</clipPath>
<clipPath id="clip1_3430_3577">
<rect width="331" height="136" fill="white" transform="translate(243.25 0.451172)"/>
</clipPath>
</defs>
</svg>
