<svg width="493" height="289" viewBox="0 0 493 289" fill="none" xmlns="http://www.w3.org/2000/svg">
<g clip-path="url(#clip0_3447_2157)">
<g filter="url(#filter0_b_3447_2157)">
<path d="M471.879 1.23779L21.416 1.23779C10.1945 1.23779 1.09766 10.3273 1.09766 21.5397L1.09766 267.754C1.09766 278.967 10.1945 288.056 21.416 288.056H471.879C483.101 288.056 492.198 278.967 492.198 267.754V21.5397C492.198 10.3273 483.101 1.23779 471.879 1.23779Z" fill="url(#paint0_linear_3447_2157)"/>
</g>
<path d="M29.8203 237.988H33.1658L37.646 248.915H37.8229L42.3032 237.988H45.6486V253.067H43.0253V242.708H42.8853L38.7145 253.023H36.7544L32.5836 242.686H32.4436V253.067H29.8203V237.988ZM48.5077 253.067V241.758H51.0942V243.643H51.2121C51.4184 242.99 51.7721 242.487 52.2732 242.134C52.7792 241.775 53.3564 241.596 54.0049 241.596C54.1522 241.596 54.3169 241.603 54.4986 241.618C54.6853 241.628 54.84 241.645 54.9628 241.67V244.122C54.8499 244.082 54.6706 244.048 54.4249 244.019C54.1842 243.984 53.9509 243.967 53.7249 243.967C53.2385 243.967 52.8013 244.072 52.4132 244.283C52.03 244.49 51.728 244.776 51.5069 245.145C51.2858 245.513 51.1753 245.937 51.1753 246.419V253.067H48.5077ZM57.0814 253.23C56.6344 253.23 56.2512 253.073 55.9319 252.758C55.6126 252.444 55.4553 252.061 55.4602 251.609C55.4553 251.168 55.6126 250.79 55.9319 250.476C56.2512 250.161 56.6344 250.005 57.0814 250.005C57.5137 250.005 57.8895 250.161 58.2088 250.476C58.5331 250.79 58.6976 251.168 58.7025 251.609C58.6976 251.909 58.619 252.181 58.4667 252.427C58.3193 252.673 58.1229 252.869 57.8772 253.016C57.6365 253.158 57.3712 253.23 57.0814 253.23ZM72.2097 237.988H74.9214V248.591C74.9165 249.562 74.7101 250.4 74.3024 251.101C73.8946 251.798 73.3248 252.336 72.5929 252.714C71.8658 253.087 71.0183 253.274 70.0506 253.274C69.1663 253.274 68.3704 253.117 67.6631 252.802C66.9606 252.483 66.403 252.012 65.9903 251.389C65.5777 250.765 65.3714 249.989 65.3714 249.062H68.0905C68.0954 249.469 68.1838 249.82 68.3557 250.114C68.5326 250.409 68.7758 250.635 69.0852 250.792C69.3948 250.949 69.7509 251.028 70.1537 251.028C70.5909 251.028 70.9619 250.937 71.2665 250.756C71.571 250.569 71.8019 250.294 71.9591 249.93C72.1212 249.568 72.2047 249.121 72.2097 248.591V237.988ZM81.0265 253.295C80.3093 253.295 79.6632 253.168 79.0884 252.913C78.5187 252.653 78.0666 252.27 77.7326 251.764C77.4035 251.258 77.2389 250.635 77.2389 249.894C77.2389 249.256 77.3568 248.728 77.5926 248.311C77.8284 247.893 78.1502 247.56 78.5579 247.309C78.9657 247.059 79.425 246.87 79.9359 246.743C80.4518 246.61 80.9847 246.515 81.535 246.456C82.1981 246.387 82.7361 246.325 83.1487 246.272C83.5613 246.212 83.861 246.124 84.0477 246.007C84.2393 245.884 84.3351 245.695 84.3351 245.439V245.395C84.3351 244.84 84.1705 244.411 83.8414 244.107C83.5122 243.803 83.0382 243.65 82.4192 243.65C81.7658 243.65 81.2475 243.792 80.8644 244.077C80.4861 244.362 80.2307 244.698 80.098 245.086L77.6074 244.732C77.8039 244.046 78.1281 243.471 78.58 243.01C79.032 242.543 79.5846 242.195 80.238 241.964C80.8914 241.729 81.6135 241.611 82.4045 241.611C82.9498 241.611 83.4926 241.674 84.033 241.802C84.5734 241.93 85.0671 242.141 85.5141 242.435C85.9612 242.725 86.3198 243.12 86.59 243.62C86.8651 244.122 87.0027 244.747 87.0027 245.499V253.067H84.4382V251.514H84.3499C84.1878 251.828 83.9593 252.122 83.6646 252.397C83.3747 252.667 83.0087 252.886 82.5666 253.053C82.1294 253.214 81.616 253.295 81.0265 253.295ZM81.7192 251.337C82.2547 251.337 82.7189 251.232 83.1119 251.021C83.5049 250.805 83.807 250.52 84.0182 250.166C84.2343 249.813 84.3424 249.428 84.3424 249.01V247.677C84.259 247.747 84.1165 247.81 83.9151 247.869C83.7186 247.928 83.4975 247.98 83.2519 248.024C83.0063 248.068 82.763 248.108 82.5223 248.141C82.2816 248.176 82.0729 248.205 81.896 248.23C81.4981 248.284 81.1419 248.372 80.8275 248.495C80.5131 248.617 80.265 248.789 80.0833 249.01C79.9015 249.226 79.8106 249.506 79.8106 249.85C79.8106 250.341 79.99 250.711 80.3485 250.961C80.7072 251.212 81.164 251.337 81.7192 251.337ZM92.1169 249.518L92.1091 246.301H92.5371L96.6042 241.758H99.7211L94.7176 247.324H94.1651L92.1169 249.518ZM89.6847 253.067V237.988H92.352V253.067H89.6847ZM96.7884 253.067L93.1042 247.921L94.9018 246.043L99.9788 253.067H96.7884ZM105.97 253.289C104.865 253.289 103.907 253.045 103.097 252.559C102.286 252.073 101.657 251.393 101.21 250.52C100.767 249.646 100.547 248.625 100.547 247.457C100.547 246.288 100.767 245.265 101.21 244.387C101.657 243.508 102.286 242.826 103.097 242.339C103.907 241.854 104.865 241.611 105.97 241.611C107.076 241.611 108.034 241.854 108.844 242.339C109.655 242.826 110.281 243.508 110.723 244.387C111.17 245.265 111.393 246.288 111.393 247.457C111.393 248.625 111.17 249.646 110.723 250.52C110.281 251.393 109.655 252.073 108.844 252.559C108.034 253.045 107.076 253.289 105.97 253.289ZM105.984 251.153C106.584 251.153 107.085 250.989 107.488 250.66C107.891 250.326 108.191 249.879 108.387 249.32C108.589 248.76 108.689 248.137 108.689 247.449C108.689 246.757 108.589 246.132 108.387 245.572C108.191 245.007 107.891 244.559 107.488 244.224C107.085 243.891 106.584 243.724 105.984 243.724C105.37 243.724 104.86 243.891 104.452 244.224C104.049 244.559 103.747 245.007 103.545 245.572C103.349 246.132 103.251 246.757 103.251 247.449C103.251 248.137 103.349 248.76 103.545 249.32C103.747 249.879 104.049 250.326 104.452 250.66C104.86 250.989 105.37 251.153 105.984 251.153ZM113.775 253.067V237.988H116.443V243.628H116.553C116.691 243.354 116.885 243.062 117.136 242.752C117.386 242.438 117.725 242.17 118.153 241.95C118.58 241.723 119.126 241.611 119.789 241.611C120.663 241.611 121.451 241.834 122.153 242.281C122.862 242.723 123.421 243.378 123.834 244.247C124.252 245.111 124.46 246.171 124.46 247.428C124.46 248.669 124.256 249.725 123.849 250.593C123.441 251.462 122.886 252.125 122.184 252.582C121.481 253.038 120.685 253.266 119.796 253.266C119.147 253.266 118.609 253.158 118.182 252.942C117.754 252.726 117.411 252.466 117.151 252.162C116.895 251.853 116.696 251.561 116.553 251.286H116.399V253.067H113.775ZM116.392 247.413C116.392 248.144 116.495 248.785 116.701 249.334C116.912 249.884 117.214 250.313 117.607 250.622C118.005 250.927 118.487 251.079 119.051 251.079C119.641 251.079 120.135 250.922 120.532 250.608C120.931 250.289 121.23 249.854 121.432 249.305C121.638 248.75 121.741 248.12 121.741 247.413C121.741 246.711 121.641 246.087 121.439 245.543C121.238 244.998 120.938 244.571 120.54 244.262C120.142 243.952 119.646 243.798 119.051 243.798C118.481 243.798 117.998 243.947 117.6 244.247C117.202 244.546 116.9 244.966 116.693 245.506C116.492 246.045 116.392 246.681 116.392 247.413ZM131.993 237.988H135.339L139.819 248.915H139.996L144.476 237.988H147.821V253.067H145.198V242.708H145.058L140.887 253.023H138.927L134.756 242.686H134.617V253.067H131.993V237.988ZM153.938 253.295C153.221 253.295 152.574 253.168 152 252.913C151.43 252.653 150.978 252.27 150.643 251.764C150.315 251.258 150.15 250.635 150.15 249.894C150.15 249.256 150.268 248.728 150.504 248.311C150.739 247.893 151.061 247.56 151.469 247.309C151.877 247.059 152.336 246.87 152.847 246.743C153.363 246.61 153.896 246.515 154.446 246.456C155.109 246.387 155.647 246.325 156.06 246.272C156.473 246.212 156.773 246.124 156.958 246.007C157.15 245.884 157.246 245.695 157.246 245.439V245.395C157.246 244.84 157.082 244.411 156.753 244.107C156.423 243.803 155.949 243.65 155.33 243.65C154.677 243.65 154.159 243.792 153.776 244.077C153.397 244.362 153.142 244.698 153.009 245.086L150.519 244.732C150.715 244.046 151.039 243.471 151.492 243.01C151.943 242.543 152.496 242.195 153.149 241.964C153.803 241.729 154.525 241.611 155.316 241.611C155.861 241.611 156.403 241.674 156.944 241.802C157.484 241.93 157.978 242.141 158.425 242.435C158.873 242.725 159.231 243.12 159.501 243.62C159.776 244.122 159.914 244.747 159.914 245.499V253.067H157.349V251.514H157.261C157.099 251.828 156.87 252.122 156.575 252.397C156.286 252.667 155.92 252.886 155.477 253.053C155.041 253.214 154.527 253.295 153.938 253.295ZM154.63 251.337C155.166 251.337 155.63 251.232 156.023 251.021C156.416 250.805 156.718 250.52 156.929 250.166C157.145 249.813 157.253 249.428 157.253 249.01V247.677C157.17 247.747 157.028 247.81 156.826 247.869C156.63 247.928 156.409 247.98 156.163 248.024C155.917 248.068 155.675 248.108 155.433 248.141C155.193 248.176 154.984 248.205 154.807 248.23C154.41 248.284 154.053 248.372 153.739 248.495C153.424 248.617 153.176 248.789 152.994 249.01C152.813 249.226 152.722 249.506 152.722 249.85C152.722 250.341 152.901 250.711 153.26 250.961C153.618 251.212 154.075 251.337 154.63 251.337ZM165.264 246.441V253.067H162.596V241.758H165.145V243.68H165.279C165.539 243.047 165.954 242.543 166.524 242.17C167.099 241.798 167.808 241.611 168.653 241.611C169.434 241.611 170.114 241.778 170.695 242.111C171.279 242.446 171.731 242.928 172.05 243.562C172.375 244.195 172.534 244.963 172.529 245.867V253.067H169.862V246.279C169.862 245.523 169.665 244.931 169.272 244.504C168.884 244.077 168.346 243.864 167.658 243.864C167.192 243.864 166.777 243.967 166.413 244.173C166.054 244.374 165.772 244.667 165.566 245.049C165.364 245.432 165.264 245.896 165.264 246.441ZM180.164 257.544C179.206 257.544 178.383 257.414 177.694 257.154C177.007 256.899 176.455 256.555 176.037 256.123C175.619 255.691 175.33 255.212 175.167 254.687L177.57 254.106C177.678 254.326 177.835 254.545 178.041 254.761C178.248 254.982 178.525 255.163 178.874 255.306C179.227 255.453 179.672 255.527 180.208 255.527C180.964 255.527 181.59 255.343 182.087 254.974C182.583 254.611 182.831 254.012 182.831 253.178V251.035H182.698C182.561 251.31 182.359 251.593 182.094 251.882C181.833 252.171 181.488 252.414 181.055 252.611C180.627 252.807 180.089 252.905 179.441 252.905C178.572 252.905 177.784 252.702 177.076 252.294C176.373 251.882 175.813 251.269 175.395 250.453C174.983 249.634 174.776 248.608 174.776 247.376C174.776 246.134 174.983 245.086 175.395 244.232C175.813 243.373 176.376 242.723 177.083 242.281C177.79 241.834 178.579 241.611 179.449 241.611C180.112 241.611 180.657 241.723 181.085 241.95C181.517 242.17 181.861 242.438 182.116 242.752C182.372 243.062 182.566 243.354 182.698 243.628H182.846V241.758H185.476V253.251C185.476 254.218 185.245 255.019 184.783 255.651C184.322 256.285 183.691 256.759 182.89 257.072C182.089 257.387 181.181 257.544 180.164 257.544ZM180.185 250.814C180.751 250.814 181.232 250.677 181.63 250.402C182.028 250.127 182.33 249.732 182.536 249.217C182.742 248.701 182.846 248.083 182.846 247.361C182.846 246.649 182.742 246.026 182.536 245.491C182.335 244.956 182.035 244.541 181.637 244.247C181.245 243.947 180.76 243.798 180.185 243.798C179.591 243.798 179.095 243.952 178.697 244.262C178.299 244.571 178 244.995 177.798 245.535C177.597 246.071 177.496 246.679 177.496 247.361C177.496 248.053 177.597 248.66 177.798 249.18C178.004 249.695 178.307 250.097 178.704 250.387C179.107 250.672 179.601 250.814 180.185 250.814ZM193.148 253.289C192.042 253.289 191.084 253.045 190.274 252.559C189.463 252.073 188.834 251.393 188.387 250.52C187.945 249.646 187.724 248.625 187.724 247.457C187.724 246.288 187.945 245.265 188.387 244.387C188.834 243.508 189.463 242.826 190.274 242.339C191.084 241.854 192.042 241.611 193.148 241.611C194.253 241.611 195.211 241.854 196.021 242.339C196.832 242.826 197.458 243.508 197.9 244.387C198.347 245.265 198.571 246.288 198.571 247.457C198.571 248.625 198.347 249.646 197.9 250.52C197.458 251.393 196.832 252.073 196.021 252.559C195.211 253.045 194.253 253.289 193.148 253.289ZM193.162 251.153C193.762 251.153 194.262 250.989 194.665 250.66C195.068 250.326 195.368 249.879 195.564 249.32C195.766 248.76 195.866 248.137 195.866 247.449C195.866 246.757 195.766 246.132 195.564 245.572C195.368 245.007 195.068 244.559 194.665 244.224C194.262 243.891 193.762 243.724 193.162 243.724C192.548 243.724 192.037 243.891 191.629 244.224C191.227 244.559 190.925 245.007 190.723 245.572C190.526 246.132 190.428 246.757 190.428 247.449C190.428 248.137 190.526 248.76 190.723 249.32C190.925 249.879 191.227 250.326 191.629 250.66C192.037 250.989 192.548 251.153 193.162 251.153Z" fill="white"/>
<path d="M37.4881 184.229C36.5253 184.223 35.5854 184.056 34.6683 183.729C33.7513 183.395 32.926 182.855 32.1924 182.109C31.4588 181.356 30.8758 180.358 30.4435 179.115C30.0112 177.865 29.7983 176.317 29.8048 174.471C29.8048 172.75 29.9883 171.215 30.3551 169.867C30.7219 168.519 31.2492 167.38 31.937 166.451C32.6247 165.514 33.4532 164.802 34.4227 164.31C35.3986 163.819 36.4892 163.574 37.6944 163.574C38.9587 163.574 40.0787 163.823 41.0547 164.321C42.0372 164.817 42.8297 165.498 43.4323 166.362C44.035 167.22 44.4083 168.188 44.5524 169.268H40.9662C40.7828 168.496 40.4062 167.881 39.8363 167.423C39.273 166.958 38.559 166.726 37.6944 166.726C36.2993 166.726 35.2251 167.331 34.4718 168.542C33.7251 169.753 33.3484 171.415 33.342 173.529H33.4794C33.8005 172.953 34.2163 172.459 34.7272 172.047C35.2381 171.634 35.8146 171.317 36.4565 171.094C37.1049 170.865 37.7894 170.751 38.5099 170.751C39.689 170.751 40.7468 171.032 41.6835 171.595C42.6267 172.158 43.3734 172.933 43.9236 173.921C44.4738 174.903 44.7456 176.029 44.7391 177.298C44.7456 178.621 44.4444 179.809 43.8352 180.862C43.226 181.91 42.3778 182.734 41.2904 183.336C40.2032 183.938 38.9357 184.236 37.4881 184.229ZM37.4685 181.284C38.1824 181.284 38.8211 181.111 39.3844 180.764C39.9477 180.417 40.3931 179.95 40.7206 179.36C41.0481 178.771 41.2086 178.11 41.2021 177.377C41.2086 176.657 41.0514 176.006 40.7304 175.424C40.416 174.841 39.9805 174.38 39.4236 174.04C38.8669 173.699 38.2316 173.529 37.5176 173.529C36.9871 173.529 36.4925 173.63 36.034 173.833C35.5755 174.036 35.176 174.318 34.8353 174.677C34.4948 175.03 34.2262 175.443 34.0297 175.914C33.8397 176.379 33.7415 176.877 33.7349 177.406C33.7415 178.107 33.9053 178.751 34.2262 179.34C34.5471 179.93 34.9893 180.401 35.5526 180.754C36.1159 181.108 36.7545 181.284 37.4685 181.284ZM49.9036 183.955L58.4613 167.03V166.892H48.528V163.849H62.2341V166.962L53.6863 183.955H49.9036ZM73.2741 184.229C71.8592 184.229 70.6016 183.987 69.5012 183.503C68.4074 183.019 67.5427 182.344 66.9073 181.48C66.272 180.616 65.9347 179.619 65.8954 178.486H69.5896C69.6224 179.029 69.8025 179.504 70.13 179.91C70.4575 180.309 70.8931 180.62 71.4368 180.843C71.9804 181.065 72.5896 181.176 73.2642 181.176C73.9847 181.176 74.6234 181.052 75.1801 180.803C75.7369 180.548 76.1725 180.195 76.4869 179.743C76.8013 179.291 76.9552 178.771 76.9487 178.182C76.9552 177.574 76.798 177.036 76.477 176.573C76.1561 176.108 75.691 175.744 75.0819 175.482C74.4793 175.221 73.7522 175.09 72.9007 175.09H71.1223V172.282H72.9007C73.6015 172.282 74.214 172.161 74.738 171.919C75.2686 171.677 75.6845 171.336 75.9858 170.898C76.2871 170.453 76.4345 169.939 76.4279 169.356C76.4345 168.787 76.3067 168.293 76.0447 167.874C75.7892 167.449 75.4258 167.118 74.9541 166.883C74.4891 166.647 73.9422 166.53 73.3133 166.53C72.6977 166.53 72.1278 166.64 71.6037 166.863C71.0798 167.085 70.6573 167.403 70.3363 167.815C70.0154 168.221 69.845 168.705 69.8254 169.268H66.3179C66.344 168.142 66.6683 167.154 67.2905 166.303C67.9194 165.446 68.7578 164.778 69.8058 164.301C70.8538 163.816 72.0296 163.574 73.333 163.574C74.6758 163.574 75.8417 163.826 76.8308 164.33C77.8264 164.828 78.596 165.498 79.1396 166.343C79.6833 167.187 79.9551 168.119 79.9551 169.14C79.9617 170.273 79.6276 171.221 78.953 171.988C78.2849 172.753 77.4072 173.254 76.3199 173.489V173.646C77.7346 173.843 78.8187 174.367 79.5719 175.217C80.3318 176.062 80.7084 177.112 80.7019 178.369C80.7019 179.494 80.381 180.502 79.739 181.392C79.1037 182.276 78.2259 182.97 77.1059 183.473C75.9923 183.978 74.7151 184.229 73.2741 184.229ZM92.334 184.229C90.8728 184.229 89.5759 183.984 88.4433 183.493C87.3167 183.003 86.4321 182.331 85.7902 181.48C85.1548 180.623 84.8404 179.652 84.847 178.565C84.8404 177.721 85.0238 176.945 85.3972 176.238C85.7706 175.532 86.2749 174.942 86.9102 174.471C87.5519 173.994 88.266 173.689 89.052 173.558V173.421C88.017 173.192 87.1792 172.665 86.5369 171.84C85.9016 171.009 85.5871 170.05 85.5937 168.964C85.5871 167.93 85.8754 167.007 86.4583 166.195C87.0412 165.384 87.8407 164.746 88.8557 164.281C89.8708 163.81 91.0302 163.574 92.334 163.574C93.624 163.574 94.774 163.81 95.7821 164.281C96.798 164.746 97.5969 165.384 98.1797 166.195C98.7694 167.007 99.0642 167.93 99.0642 168.964C99.0642 170.05 98.74 171.009 98.0915 171.84C97.4491 172.665 96.6208 173.192 95.6057 173.421V173.558C96.3917 173.689 97.0989 173.994 97.7275 174.471C98.363 174.942 98.8671 175.532 99.2406 176.238C99.621 176.945 99.8103 177.721 99.8103 178.565C99.8103 179.652 99.4896 180.623 98.848 181.48C98.2056 182.331 97.322 183.003 96.1954 183.493C95.0749 183.984 93.7875 184.229 92.334 184.229ZM92.334 181.422C93.0871 181.422 93.7416 181.294 94.2984 181.039C94.8553 180.777 95.2876 180.411 95.5954 179.939C95.9032 179.468 96.0605 178.925 96.0674 178.31C96.0605 177.668 95.8937 177.102 95.566 176.611C95.2452 176.114 94.8034 175.724 94.2396 175.443C93.6828 175.162 93.0474 175.021 92.334 175.021C91.613 175.021 90.9714 175.162 90.4077 175.443C89.8448 175.724 89.3995 176.114 89.0719 176.611C88.7511 177.102 88.5937 177.668 88.5998 178.31C88.5937 178.925 88.7442 179.468 89.052 179.939C89.3598 180.404 89.7921 180.768 90.3489 181.029C90.9126 181.291 91.5741 181.422 92.334 181.422ZM92.334 172.262C92.9496 172.262 93.4935 172.138 93.9647 171.889C94.4428 171.64 94.8198 171.294 95.0948 170.849C95.3697 170.403 95.5106 169.89 95.5167 169.307C95.5106 168.732 95.3732 168.227 95.1043 167.795C94.8362 167.357 94.4627 167.02 93.9846 166.784C93.5065 166.543 92.9557 166.422 92.334 166.422C91.6986 166.422 91.1383 166.543 90.6532 166.784C90.1751 167.02 89.8025 167.357 89.5336 167.795C89.2716 168.227 89.1436 168.732 89.1505 169.307C89.1436 169.89 89.275 170.403 89.5431 170.849C89.8189 171.287 90.195 171.634 90.6731 171.889C91.1582 172.138 91.7115 172.262 92.334 172.262ZM113.334 172.439V175.365H104.275V172.439H113.334ZM126.326 163.849V183.955H122.681V167.393H122.563L117.857 170.397V167.059L122.858 163.849H126.326ZM132.542 183.955V181.324L139.528 174.481C140.196 173.807 140.753 173.208 141.198 172.685C141.644 172.161 141.978 171.653 142.201 171.163C142.423 170.672 142.534 170.148 142.534 169.592C142.534 168.957 142.391 168.414 142.102 167.963C141.814 167.504 141.418 167.151 140.913 166.902C140.409 166.653 139.836 166.53 139.194 166.53C138.532 166.53 137.953 166.667 137.455 166.942C136.957 167.209 136.571 167.593 136.295 168.09C136.027 168.587 135.892 169.18 135.892 169.867H132.424C132.424 168.591 132.716 167.482 133.299 166.539C133.882 165.597 134.684 164.867 135.706 164.35C136.734 163.832 137.914 163.574 139.243 163.574C140.592 163.574 141.778 163.826 142.8 164.33C143.822 164.834 144.615 165.525 145.177 166.402C145.747 167.279 146.033 168.28 146.033 169.406C146.033 170.158 145.888 170.898 145.6 171.624C145.311 172.351 144.804 173.156 144.077 174.04C143.357 174.922 142.345 175.993 141.041 177.25L137.573 180.774V180.911H146.337V183.955H132.542ZM158.055 184.229C156.64 184.229 155.382 183.987 154.282 183.503C153.188 183.019 152.323 182.344 151.688 181.48C151.052 180.616 150.715 179.619 150.676 178.486H154.37C154.403 179.029 154.584 179.504 154.91 179.91C155.238 180.309 155.674 180.62 156.218 180.843C156.761 181.065 157.37 181.176 158.045 181.176C158.766 181.176 159.404 181.052 159.961 180.803C160.517 180.548 160.953 180.195 161.268 179.743C161.582 179.291 161.736 178.771 161.73 178.182C161.736 177.574 161.578 177.036 161.257 176.573C160.937 176.108 160.472 175.744 159.863 175.482C159.26 175.221 158.533 175.09 157.681 175.09H155.903V172.282H157.681C158.382 172.282 158.995 172.161 159.519 171.919C160.05 171.677 160.466 171.336 160.766 170.898C161.068 170.453 161.215 169.939 161.208 169.356C161.215 168.787 161.087 168.293 160.825 167.874C160.57 167.449 160.206 167.118 159.735 166.883C159.27 166.647 158.722 166.53 158.094 166.53C157.478 166.53 156.908 166.64 156.385 166.863C155.861 167.085 155.438 167.403 155.117 167.815C154.796 168.221 154.626 168.705 154.606 169.268H151.098C151.125 168.142 151.449 167.154 152.071 166.303C152.7 165.446 153.538 164.778 154.586 164.301C155.634 163.816 156.81 163.574 158.114 163.574C159.456 163.574 160.622 163.826 161.611 164.33C162.607 164.828 163.377 165.498 163.921 166.343C164.464 167.187 164.736 168.119 164.736 169.14C164.743 170.273 164.408 171.221 163.734 171.988C163.065 172.753 162.188 173.254 161.1 173.489V173.646C162.516 173.843 163.6 174.367 164.353 175.217C165.113 176.062 165.489 177.112 165.483 178.369C165.483 179.494 165.161 180.502 164.52 181.392C163.884 182.276 163.007 182.97 161.887 183.473C160.773 183.978 159.495 184.229 158.055 184.229ZM169.598 180.224V177.328L178.136 163.849H180.553V167.972H179.08L173.332 177.073V177.23H185.25V180.224H169.598ZM179.197 183.955V179.34L179.236 178.045V163.849H182.676V183.955H179.197ZM198.682 172.439V175.365H189.623V172.439H198.682ZM210.476 163.574C211.439 163.581 212.375 163.751 213.286 164.085C214.203 164.412 215.029 164.949 215.762 165.695C216.496 166.435 217.079 167.425 217.511 168.669C217.943 169.913 218.159 171.451 218.159 173.284C218.165 175.011 217.982 176.556 217.609 177.917C217.242 179.272 216.715 180.417 216.027 181.353C215.339 182.289 214.511 183.003 213.541 183.493C212.572 183.984 211.481 184.229 210.27 184.229C208.999 184.229 207.872 183.981 206.89 183.484C205.914 182.986 205.124 182.305 204.522 181.442C203.919 180.578 203.549 179.589 203.412 178.477H206.998C207.181 179.275 207.555 179.91 208.118 180.382C208.688 180.846 209.405 181.078 210.27 181.078C211.664 181.078 212.739 180.473 213.492 179.262C214.245 178.052 214.622 176.37 214.622 174.216H214.485C214.164 174.792 213.748 175.29 213.237 175.709C212.726 176.121 212.146 176.438 211.498 176.661C210.856 176.883 210.175 176.994 209.454 176.994C208.275 176.994 207.214 176.712 206.271 176.15C205.335 175.587 204.591 174.814 204.04 173.833C203.497 172.852 203.221 171.729 203.215 170.466C203.215 169.157 203.516 167.982 204.119 166.942C204.728 165.895 205.577 165.07 206.663 164.467C207.751 163.859 209.022 163.561 210.476 163.574ZM210.486 166.519C209.779 166.519 209.14 166.693 208.57 167.039C208.006 167.38 207.561 167.844 207.233 168.434C206.912 169.016 206.753 169.667 206.753 170.387C206.759 171.101 206.919 171.748 207.233 172.331C207.555 172.914 207.99 173.375 208.541 173.716C209.097 174.056 209.733 174.226 210.446 174.226C210.977 174.226 211.472 174.124 211.93 173.921C212.389 173.719 212.788 173.437 213.129 173.077C213.476 172.711 213.745 172.295 213.934 171.831C214.131 171.366 214.226 170.875 214.219 170.358C214.219 169.671 214.056 169.036 213.728 168.454C213.407 167.871 212.965 167.403 212.402 167.05C211.845 166.696 211.206 166.519 210.486 166.519ZM229.691 184.229C228.23 184.229 226.933 183.984 225.8 183.493C224.673 183.003 223.789 182.331 223.146 181.48C222.512 180.623 222.197 179.652 222.204 178.565C222.197 177.721 222.38 176.945 222.754 176.238C223.127 175.532 223.632 174.942 224.267 174.471C224.909 173.994 225.623 173.689 226.409 173.558V173.421C225.374 173.192 224.536 172.665 223.893 171.84C223.258 171.009 222.944 170.05 222.95 168.964C222.944 167.93 223.232 167.007 223.815 166.195C224.398 165.384 225.197 164.746 226.212 164.281C227.227 163.81 228.387 163.574 229.691 163.574C230.981 163.574 232.131 163.81 233.139 164.281C234.155 164.746 234.954 165.384 235.536 166.195C236.126 167.007 236.421 167.93 236.421 168.964C236.421 170.05 236.097 171.009 235.448 171.84C234.806 172.665 233.977 173.192 232.962 173.421V173.558C233.748 173.689 234.456 173.994 235.084 174.471C235.72 174.942 236.224 175.532 236.597 176.238C236.978 176.945 237.167 177.721 237.167 178.565C237.167 179.652 236.846 180.623 236.205 181.48C235.562 182.331 234.679 183.003 233.552 183.493C232.432 183.984 231.144 184.229 229.691 184.229ZM229.691 181.422C230.444 181.422 231.098 181.294 231.655 181.039C232.212 180.777 232.644 180.411 232.952 179.939C233.26 179.468 233.417 178.925 233.424 178.31C233.417 177.668 233.25 177.102 232.923 176.611C232.602 176.114 232.16 175.724 231.596 175.443C231.04 175.162 230.404 175.021 229.691 175.021C228.97 175.021 228.328 175.162 227.764 175.443C227.201 175.724 226.756 176.114 226.429 176.611C226.108 177.102 225.95 177.668 225.956 178.31C225.95 178.925 226.101 179.468 226.409 179.939C226.716 180.404 227.149 180.768 227.706 181.029C228.269 181.291 228.931 181.422 229.691 181.422ZM229.691 172.262C230.306 172.262 230.85 172.138 231.321 171.889C231.799 171.64 232.176 171.294 232.451 170.849C232.726 170.403 232.867 169.89 232.873 169.307C232.867 168.732 232.73 168.227 232.461 167.795C232.193 167.357 231.819 167.02 231.341 166.784C230.863 166.543 230.312 166.422 229.691 166.422C229.055 166.422 228.495 166.543 228.01 166.784C227.532 167.02 227.159 167.357 226.89 167.795C226.628 168.227 226.5 168.732 226.507 169.307C226.5 169.89 226.632 170.403 226.9 170.849C227.176 171.287 227.552 171.634 228.03 171.889C228.515 172.138 229.068 172.262 229.691 172.262ZM242.241 183.955L250.799 167.03V166.892H240.866V163.849H254.572V166.962L246.023 183.955H242.241ZM265.611 184.229C264.197 184.229 262.939 183.987 261.839 183.503C260.745 183.019 259.88 182.344 259.245 181.48C258.609 180.616 258.272 179.619 258.232 178.486H261.927C261.96 179.029 262.14 179.504 262.467 179.91C262.795 180.309 263.231 180.62 263.774 180.843C264.318 181.065 264.927 181.176 265.602 181.176C266.322 181.176 266.961 181.052 267.518 180.803C268.074 180.548 268.51 180.195 268.824 179.743C269.139 179.291 269.293 178.771 269.286 178.182C269.293 177.574 269.135 177.036 268.814 176.573C268.494 176.108 268.028 175.744 267.419 175.482C266.816 175.221 266.089 175.09 265.238 175.09H263.46V172.282H265.238C265.939 172.282 266.552 172.161 267.076 171.919C267.606 171.677 268.022 171.336 268.323 170.898C268.624 170.453 268.772 169.939 268.765 169.356C268.772 168.787 268.644 168.293 268.382 167.874C268.127 167.449 267.763 167.118 267.292 166.883C266.827 166.647 266.279 166.53 265.651 166.53C265.035 166.53 264.465 166.64 263.941 166.863C263.417 167.085 262.995 167.403 262.674 167.815C262.353 168.221 262.183 168.705 262.163 169.268H258.655C258.681 168.142 259.005 167.154 259.628 166.303C260.257 165.446 261.095 164.778 262.143 164.301C263.191 163.816 264.367 163.574 265.671 163.574C267.013 163.574 268.179 163.826 269.168 164.33C270.164 164.828 270.934 165.498 271.477 166.343C272.02 167.187 272.293 168.119 272.293 169.14C272.299 170.273 271.965 171.221 271.291 171.988C270.622 172.753 269.745 173.254 268.657 173.489V173.646C270.072 173.843 271.156 174.367 271.91 175.217C272.669 176.062 273.046 177.112 273.039 178.369C273.039 179.494 272.718 180.502 272.077 181.392C271.441 182.276 270.564 182.97 269.443 183.473C268.329 183.978 267.052 184.229 265.611 184.229ZM286.705 172.439V175.365H277.646V172.439H286.705ZM299.698 163.849V183.955H296.052V167.393H295.935L291.229 170.397V167.059L296.23 163.849H299.698ZM305.913 183.955V181.324L312.899 174.481C313.567 173.807 314.124 173.208 314.57 172.685C315.015 172.161 315.349 171.653 315.572 171.163C315.794 170.672 315.906 170.148 315.906 169.592C315.906 168.957 315.761 168.414 315.473 167.963C315.185 167.504 314.788 167.151 314.284 166.902C313.78 166.653 313.207 166.53 312.565 166.53C311.903 166.53 311.324 166.667 310.826 166.942C310.328 167.209 309.941 167.593 309.667 168.09C309.398 168.587 309.264 169.18 309.264 169.867H305.796C305.796 168.591 306.087 167.482 306.67 166.539C307.253 165.597 308.055 164.867 309.077 164.35C310.106 163.832 311.284 163.574 312.614 163.574C313.964 163.574 315.149 163.826 316.171 164.33C317.193 164.834 317.985 165.525 318.549 166.402C319.118 167.279 319.403 168.28 319.403 169.406C319.403 170.158 319.259 170.898 318.971 171.624C318.683 172.351 318.175 173.156 317.448 174.04C316.728 174.922 315.715 175.993 314.412 177.25L310.944 180.774V180.911L319.708 180.911V183.955L305.913 183.955ZM331.357 184.229C329.897 184.229 328.6 183.984 327.466 183.493C326.34 183.003 325.455 182.331 324.814 181.48C324.178 180.623 323.863 179.652 323.87 178.565C323.863 177.721 324.047 176.945 324.42 176.238C324.794 175.532 325.298 174.942 325.933 174.471C326.576 173.994 327.289 173.689 328.075 173.558V173.421C327.04 173.192 326.202 172.665 325.56 171.84C324.925 171.009 324.61 170.05 324.616 168.964C324.61 167.93 324.898 167.007 325.481 166.195C326.065 165.384 326.864 164.746 327.879 164.281C328.894 163.81 330.053 163.574 331.357 163.574C332.647 163.574 333.797 163.81 334.806 164.281C335.821 164.746 336.62 165.384 337.203 166.195C337.792 167.007 338.087 167.93 338.087 168.964C338.087 170.05 337.763 171.009 337.115 171.84C336.473 172.665 335.644 173.192 334.629 173.421V173.558C335.415 173.689 336.122 173.994 336.751 174.471C337.386 174.942 337.891 175.532 338.264 176.238C338.644 176.945 338.834 177.721 338.834 178.565C338.834 179.652 338.513 180.623 337.871 181.48C337.229 182.331 336.345 183.003 335.218 183.493C334.098 183.984 332.811 184.229 331.357 184.229ZM331.357 181.422C332.11 181.422 332.765 181.294 333.322 181.039C333.879 180.777 334.311 180.411 334.619 179.939C334.927 179.468 335.084 178.925 335.09 178.31C335.084 177.668 334.917 177.102 334.59 176.611C334.268 176.114 333.826 175.724 333.263 175.443C332.707 175.162 332.071 175.021 331.357 175.021C330.637 175.021 329.994 175.162 329.432 175.443C328.868 175.724 328.423 176.114 328.095 176.611C327.774 177.102 327.617 177.668 327.624 178.31C327.617 178.925 327.767 179.468 328.075 179.939C328.384 180.404 328.816 180.768 329.372 181.029C329.936 181.291 330.597 181.422 331.357 181.422ZM331.357 172.262C331.973 172.262 332.516 172.138 332.988 171.889C333.466 171.64 333.843 171.294 334.118 170.849C334.393 170.403 334.534 169.89 334.541 169.307C334.534 168.732 334.396 168.227 334.127 167.795C333.859 167.357 333.486 167.02 333.008 166.784C332.529 166.543 331.98 166.422 331.357 166.422C330.722 166.422 330.161 166.543 329.677 166.784C329.199 167.02 328.825 167.357 328.557 167.795C328.295 168.227 328.167 168.732 328.174 169.307C328.167 169.89 328.298 170.403 328.567 170.849C328.842 171.287 329.218 171.634 329.696 171.889C330.181 172.138 330.735 172.262 331.357 172.262ZM350.392 184.229C348.977 184.229 347.72 183.987 346.619 183.503C345.525 183.019 344.661 182.344 344.025 181.48C343.39 180.616 343.053 179.619 343.014 178.486H346.707C346.74 179.029 346.921 179.504 347.248 179.91C347.575 180.309 348.011 180.62 348.555 180.843C349.099 181.065 349.708 181.176 350.382 181.176C351.103 181.176 351.741 181.052 352.298 180.803C352.855 180.548 353.291 180.195 353.605 179.743C353.919 179.291 354.073 178.771 354.067 178.182C354.073 177.574 353.916 177.036 353.595 176.573C353.274 176.108 352.809 175.744 352.2 175.482C351.598 175.221 350.87 175.09 350.019 175.09H348.24V172.282H350.019C350.72 172.282 351.332 172.161 351.856 171.919C352.387 171.677 352.803 171.336 353.104 170.898C353.405 170.453 353.552 169.939 353.546 169.356C353.552 168.787 353.425 168.293 353.163 167.874C352.908 167.449 352.543 167.118 352.072 166.883C351.607 166.647 351.06 166.53 350.431 166.53C349.816 166.53 349.246 166.64 348.722 166.863C348.198 167.085 347.775 167.403 347.454 167.815C347.134 168.221 346.963 168.705 346.943 169.268H343.436C343.462 168.142 343.787 167.154 344.408 166.303C345.038 165.446 345.876 164.778 346.924 164.301C347.971 163.816 349.147 163.574 350.451 163.574C351.794 163.574 352.959 163.826 353.948 164.33C354.945 164.828 355.714 165.498 356.258 166.343C356.802 167.187 357.073 168.119 357.073 169.14C357.08 170.273 356.746 171.221 356.071 171.988C355.403 172.753 354.525 173.254 353.438 173.489V173.646C354.853 173.843 355.937 174.367 356.69 175.217C357.45 176.062 357.826 177.112 357.82 178.369C357.82 179.494 357.499 180.502 356.857 181.392C356.222 182.276 355.344 182.97 354.224 183.473C353.111 183.978 351.833 184.229 350.392 184.229Z" fill="white"/>
<path d="M38.5124 139.031H37.2941C37.222 138.682 37.096 138.374 36.9158 138.109C36.739 137.844 36.5228 137.621 36.2673 137.441C36.0152 137.258 35.7352 137.121 35.4273 137.029C35.1195 136.937 34.7985 136.892 34.4644 136.892C33.8553 136.892 33.3034 137.045 32.8089 137.353C32.3177 137.66 31.9263 138.114 31.6348 138.713C31.3466 139.311 31.2025 140.046 31.2025 140.917C31.2025 141.786 31.3466 142.522 31.6348 143.12C31.9263 143.719 32.3177 144.173 32.8089 144.48C33.3034 144.788 33.8553 144.941 34.4644 144.941C34.7985 144.941 35.1195 144.896 35.4273 144.804C35.7352 144.713 36.0152 144.577 36.2673 144.396C36.5228 144.213 36.739 143.989 36.9158 143.724C37.096 143.456 37.222 143.148 37.2941 142.802H38.5124C38.4207 143.315 38.2537 143.775 38.0113 144.18C37.769 144.586 37.4677 144.932 37.1074 145.216C36.7472 145.498 36.3427 145.712 35.894 145.859C35.4486 146.007 34.972 146.08 34.4644 146.08C33.6064 146.08 32.8433 145.871 32.1752 145.452C31.5071 145.033 30.9814 144.438 30.5982 143.665C30.215 142.893 30.0234 141.977 30.0234 140.917C30.0234 139.857 30.215 138.94 30.5982 138.168C30.9814 137.395 31.5071 136.8 32.1752 136.381C32.8433 135.962 33.6064 135.753 34.4644 135.753C34.972 135.753 35.4486 135.826 35.894 135.973C36.3427 136.121 36.7472 136.337 37.1074 136.621C37.4677 136.903 37.769 137.247 38.0113 137.652C38.2537 138.054 38.4207 138.515 38.5124 139.031ZM42.5444 146.12C42.0662 146.12 41.6323 146.029 41.2426 145.849C40.8528 145.666 40.5434 145.403 40.3141 145.059C40.0848 144.713 39.9702 144.294 39.9702 143.803C39.9702 143.371 40.0554 143.02 40.2257 142.752C40.3959 142.48 40.6236 142.268 40.9085 142.114C41.1935 141.96 41.5078 141.846 41.8517 141.77C42.1989 141.692 42.5477 141.63 42.8981 141.584C43.3566 141.525 43.7283 141.481 44.0132 141.451C44.3015 141.418 44.5111 141.365 44.642 141.29C44.7763 141.215 44.8435 141.083 44.8435 140.897V140.858C44.8435 140.373 44.7109 139.996 44.4455 139.729C44.1835 139.46 43.7856 139.326 43.2518 139.326C42.6983 139.326 42.2644 139.447 41.95 139.689C41.6355 139.932 41.4145 140.19 41.2867 140.465L40.1864 140.072C40.3829 139.614 40.6449 139.257 40.9724 139.002C41.3032 138.744 41.6634 138.563 42.0531 138.462C42.4461 138.358 42.8326 138.305 43.2125 138.305C43.4548 138.305 43.7333 138.334 44.0476 138.393C44.3653 138.449 44.6715 138.565 44.9663 138.742C45.2643 138.918 45.5116 139.185 45.7081 139.542C45.9046 139.899 46.0029 140.377 46.0029 140.975V145.943H44.8435V144.922H44.7845C44.7059 145.086 44.575 145.26 44.3915 145.447C44.2081 145.633 43.9641 145.792 43.6596 145.923C43.355 146.054 42.9833 146.12 42.5444 146.12ZM42.7212 145.079C43.1797 145.079 43.5662 144.989 43.8806 144.809C44.1983 144.629 44.4374 144.396 44.5979 144.112C44.7616 143.827 44.8435 143.528 44.8435 143.214V142.154C44.7944 142.212 44.6863 142.266 44.5193 142.315C44.3555 142.361 44.1656 142.402 43.9494 142.438C43.7365 142.471 43.5285 142.5 43.3255 142.526C43.1257 142.549 42.9636 142.569 42.8392 142.586C42.5378 142.624 42.2562 142.688 41.9942 142.777C41.7355 142.862 41.5258 142.991 41.3653 143.164C41.2082 143.335 41.1296 143.567 41.1296 143.862C41.1296 144.264 41.2786 144.568 41.5766 144.775C41.8779 144.978 42.2594 145.079 42.7212 145.079ZM48.1189 145.943V138.403H49.239V139.542H49.3176C49.4552 139.169 49.7041 138.866 50.0643 138.634C50.4246 138.402 50.8307 138.285 51.2826 138.285C51.3678 138.285 51.4742 138.287 51.6019 138.29C51.7297 138.294 51.8263 138.299 51.8918 138.305V139.483C51.8525 139.473 51.7624 139.458 51.6216 139.439C51.4841 139.416 51.3383 139.405 51.1844 139.405C50.8175 139.405 50.49 139.482 50.2019 139.635C49.917 139.786 49.691 139.996 49.5239 140.263C49.3602 140.529 49.2783 140.831 49.2783 141.171V145.943H48.1189ZM55.8857 146.1C55.2569 146.1 54.7018 145.941 54.2203 145.624C53.7389 145.303 53.3623 144.852 53.0904 144.268C52.8186 143.683 52.6827 142.991 52.6827 142.193C52.6827 141.4 52.8186 140.713 53.0904 140.131C53.3623 139.548 53.7405 139.099 54.2252 138.781C54.7099 138.464 55.27 138.305 55.9054 138.305C56.3966 138.305 56.7848 138.387 57.0696 138.55C57.3578 138.711 57.5773 138.894 57.728 139.101C57.8819 139.303 58.0014 139.47 58.0865 139.601H58.1848V135.89H59.3442V145.943H58.2241V144.784H58.0865C58.0014 144.922 57.8802 145.095 57.723 145.304C57.5658 145.511 57.3415 145.696 57.05 145.859C56.7585 146.02 56.3704 146.1 55.8857 146.1ZM56.0429 145.059C56.508 145.059 56.901 144.938 57.2219 144.696C57.5428 144.451 57.7868 144.112 57.9539 143.68C58.1209 143.245 58.2044 142.742 58.2044 142.173C58.2044 141.61 58.1226 141.118 57.9588 140.695C57.7951 140.27 57.5527 139.939 57.2318 139.704C56.9108 139.465 56.5146 139.346 56.0429 139.346C55.5516 139.346 55.1422 139.471 54.8147 139.723C54.4905 139.972 54.2465 140.311 54.0828 140.739C53.9223 141.165 53.842 141.643 53.842 142.173C53.842 142.71 53.9239 143.197 54.0877 143.636C54.2547 144.071 54.5004 144.418 54.8246 144.676C55.1521 144.932 55.5582 145.059 56.0429 145.059ZM73.6545 135.89V145.943H72.4755L66.9931 138.05H66.8948V145.943H65.6764V135.89H66.8555L72.3576 143.803H72.4558V135.89H73.6545ZM80.6905 142.86V138.403H81.8499V145.943H80.6905V144.667H80.6119C80.435 145.049 80.16 145.375 79.7866 145.643C79.4132 145.908 78.9417 146.041 78.3718 146.041C77.9001 146.041 77.481 145.938 77.1141 145.732C76.7474 145.522 76.4592 145.208 76.2495 144.789C76.0399 144.367 75.9351 143.836 75.9351 143.194V138.403H77.0945V143.115C77.0945 143.665 77.2484 144.103 77.5563 144.431C77.8674 144.758 78.2637 144.922 78.7451 144.922C79.0333 144.922 79.3264 144.848 79.6244 144.7C79.9258 144.554 80.178 144.328 80.381 144.023C80.5874 143.719 80.6905 143.331 80.6905 142.86ZM83.9734 145.943V138.403H85.0934V139.581H85.1917C85.3489 139.178 85.6026 138.866 85.9531 138.644C86.3035 138.418 86.7244 138.305 87.2154 138.305C87.7134 138.305 88.1276 138.418 88.4587 138.644C88.7924 138.866 89.0527 139.178 89.2395 139.581H89.3181C89.5118 139.192 89.8015 138.883 90.1879 138.653C90.5744 138.422 91.0378 138.305 91.5782 138.305C92.2526 138.305 92.8042 138.516 93.2331 138.938C93.6628 139.357 93.8772 140.01 93.8772 140.897V145.943H92.7178V140.897C92.7178 140.34 92.5656 139.943 92.2613 139.704C91.9561 139.465 91.5973 139.346 91.1848 139.346C90.6548 139.346 90.2433 139.506 89.9519 139.826C89.6605 140.144 89.5144 140.547 89.5144 141.034V145.943H88.3359V140.779C88.3359 140.351 88.1967 140.005 87.9183 139.743C87.6399 139.478 87.2811 139.346 86.8423 139.346C86.541 139.346 86.2593 139.425 85.9973 139.586C85.7386 139.747 85.529 139.969 85.3685 140.254C85.2113 140.536 85.1327 140.86 85.1327 141.23V145.943H83.9734ZM96.1538 145.943V135.89H97.3132V139.601H97.4118C97.4965 139.47 97.615 139.303 97.7654 139.101C97.9193 138.894 98.1389 138.711 98.4234 138.55C98.7122 138.387 99.1012 138.305 99.5932 138.305C100.228 138.305 100.788 138.464 101.273 138.781C101.757 139.099 102.136 139.548 102.408 140.131C102.68 140.713 102.816 141.4 102.816 142.193C102.816 142.991 102.68 143.683 102.408 144.268C102.136 144.852 101.759 145.303 101.277 145.624C100.797 145.941 100.242 146.1 99.6122 146.1C99.128 146.1 98.7398 146.02 98.4484 145.859C98.1571 145.696 97.9323 145.511 97.7749 145.304C97.6184 145.095 97.4965 144.922 97.4118 144.784H97.2743V145.943H96.1538ZM97.2942 142.173C97.2942 142.742 97.3772 143.245 97.5441 143.68C97.7109 144.112 97.9556 144.451 98.2764 144.696C98.5972 144.938 98.9906 145.059 99.4557 145.059C99.9399 145.059 100.345 144.932 100.669 144.676C100.996 144.418 101.242 144.071 101.405 143.636C101.572 143.197 101.656 142.71 101.656 142.173C101.656 141.643 101.574 141.165 101.411 140.739C101.25 140.311 101.006 139.972 100.678 139.723C100.354 139.471 99.9468 139.346 99.4557 139.346C98.9836 139.346 98.5876 139.465 98.2669 139.704C97.9452 139.939 97.7031 140.27 97.5397 140.695C97.3755 141.118 97.2942 141.61 97.2942 142.173ZM107.753 146.1C107.025 146.1 106.399 145.939 105.871 145.619C105.347 145.295 104.943 144.843 104.658 144.264C104.376 143.682 104.235 143.004 104.235 142.232C104.235 141.46 104.376 140.779 104.658 140.19C104.943 139.597 105.339 139.136 105.847 138.806C106.357 138.472 106.954 138.305 107.635 138.305C108.027 138.305 108.416 138.371 108.799 138.501C109.183 138.632 109.531 138.845 109.846 139.139C110.16 139.431 110.41 139.817 110.597 140.298C110.784 140.779 110.877 141.371 110.877 142.075V142.566H105.06V141.564H109.698C109.698 141.139 109.613 140.759 109.443 140.426C109.275 140.091 109.036 139.828 108.725 139.635C108.417 139.442 108.054 139.346 107.635 139.346C107.173 139.346 106.774 139.46 106.436 139.689C106.102 139.915 105.845 140.21 105.664 140.573C105.485 140.936 105.395 141.325 105.395 141.741V142.408C105.395 142.978 105.492 143.461 105.69 143.856C105.889 144.249 106.166 144.548 106.52 144.755C106.873 144.958 107.284 145.059 107.753 145.059C108.057 145.059 108.333 145.017 108.578 144.932C108.827 144.843 109.042 144.713 109.222 144.539C109.401 144.362 109.541 144.143 109.639 143.881L110.759 144.195C110.641 144.575 110.443 144.909 110.165 145.196C109.886 145.481 109.542 145.703 109.133 145.864C108.724 146.021 108.264 146.1 107.753 146.1ZM112.641 145.943V138.403H113.761V139.542H113.839C113.977 139.169 114.226 138.866 114.586 138.634C114.946 138.402 115.352 138.285 115.805 138.285C115.889 138.285 115.996 138.287 116.124 138.29C116.252 138.294 116.348 138.299 116.413 138.305V139.483C116.374 139.473 116.285 139.458 116.144 139.439C116.006 139.416 115.86 139.405 115.706 139.405C115.34 139.405 115.012 139.482 114.724 139.635C114.439 139.786 114.213 139.996 114.046 140.263C113.882 140.529 113.8 140.831 113.8 141.171V145.943H112.641Z" fill="white"/>
<path d="M405.307 253.354C404.093 253.354 403.052 253.048 402.182 252.434C401.317 251.816 400.652 250.925 400.186 249.761C399.723 248.593 399.492 247.187 399.492 245.543C399.497 243.898 399.731 242.499 400.193 241.346C400.659 240.187 401.325 239.304 402.19 238.695C403.059 238.086 404.098 237.782 405.307 237.782C406.515 237.782 407.554 238.086 408.424 238.695C409.293 239.304 409.959 240.187 410.421 241.346C410.887 242.504 411.12 243.903 411.12 245.543C411.12 247.192 410.887 248.601 410.421 249.769C409.959 250.932 409.293 251.821 408.424 252.434C407.559 253.048 406.52 253.354 405.307 253.354ZM405.307 251.05C406.25 251.05 406.994 250.586 407.539 249.658C408.09 248.725 408.365 247.354 408.365 245.543C408.365 244.345 408.239 243.339 407.989 242.523C407.738 241.709 407.384 241.095 406.928 240.683C406.47 240.266 405.93 240.057 405.307 240.057C404.369 240.057 403.627 240.524 403.081 241.457C402.536 242.384 402.261 243.746 402.255 245.543C402.251 246.745 402.371 247.756 402.617 248.576C402.868 249.396 403.221 250.014 403.678 250.432C404.135 250.844 404.678 251.05 405.307 251.05ZM418.933 253.274C417.838 253.274 416.865 253.09 416.015 252.721C415.17 252.353 414.507 251.85 414.025 251.212C413.549 250.569 413.313 249.84 413.318 249.025C413.313 248.392 413.451 247.811 413.731 247.28C414.011 246.751 414.389 246.308 414.866 245.955C415.347 245.596 415.883 245.368 416.472 245.27V245.167C415.696 244.995 415.067 244.6 414.586 243.982C414.109 243.358 413.873 242.639 413.878 241.825C413.873 241.049 414.089 240.357 414.527 239.748C414.964 239.14 415.564 238.661 416.324 238.312C417.086 237.959 417.956 237.782 418.933 237.782C419.901 237.782 420.763 237.959 421.52 238.312C422.282 238.661 422.881 239.14 423.318 239.748C423.76 240.357 423.981 241.049 423.981 241.825C423.981 242.639 423.738 243.358 423.252 243.982C422.77 244.6 422.148 244.995 421.388 245.167V245.27C421.976 245.368 422.507 245.596 422.978 245.955C423.456 246.308 423.834 246.751 424.114 247.28C424.399 247.811 424.541 248.392 424.541 249.025C424.541 249.84 424.301 250.569 423.819 251.212C423.337 251.85 422.674 252.353 421.829 252.721C420.989 253.09 420.024 253.274 418.933 253.274ZM418.933 251.168C419.498 251.168 419.99 251.072 420.407 250.881C420.825 250.684 421.149 250.409 421.38 250.056C421.611 249.703 421.728 249.296 421.733 248.833C421.728 248.353 421.604 247.928 421.357 247.56C421.117 247.187 420.786 246.895 420.363 246.684C419.945 246.472 419.469 246.367 418.933 246.367C418.393 246.367 417.912 246.472 417.489 246.684C417.066 246.895 416.733 247.187 416.487 247.56C416.247 247.928 416.128 248.353 416.133 248.833C416.128 249.296 416.241 249.703 416.472 250.056C416.703 250.405 417.027 250.677 417.445 250.873C417.868 251.069 418.363 251.168 418.933 251.168ZM418.933 244.298C419.396 244.298 419.803 244.205 420.156 244.019C420.515 243.832 420.798 243.572 421.004 243.238C421.21 242.904 421.316 242.519 421.321 242.082C421.316 241.65 421.213 241.273 421.012 240.949C420.81 240.619 420.53 240.366 420.171 240.19C419.813 240.009 419.4 239.917 418.933 239.917C418.457 239.917 418.037 240.009 417.673 240.19C417.314 240.366 417.034 240.619 416.834 240.949C416.637 241.273 416.541 241.65 416.546 242.082C416.541 242.519 416.639 242.904 416.841 243.238C417.047 243.567 417.329 243.827 417.688 244.019C418.052 244.205 418.467 244.298 418.933 244.298ZM433.153 237.281L428.29 255.335H425.955L430.818 237.281H433.153ZM434.826 253.067V251.094L440.066 245.963C440.566 245.456 440.984 245.007 441.318 244.615C441.652 244.222 441.903 243.842 442.07 243.474C442.237 243.106 442.32 242.713 442.32 242.295C442.32 241.819 442.213 241.412 441.997 241.073C441.78 240.73 441.483 240.465 441.104 240.278C440.726 240.092 440.297 239.998 439.815 239.998C439.319 239.998 438.884 240.101 438.51 240.308C438.137 240.509 437.847 240.796 437.641 241.169C437.44 241.542 437.339 241.986 437.339 242.502H434.738C434.738 241.545 434.956 240.713 435.393 240.006C435.831 239.298 436.433 238.752 437.199 238.364C437.97 237.976 438.855 237.782 439.851 237.782C440.864 237.782 441.753 237.972 442.52 238.349C443.286 238.727 443.88 239.245 444.302 239.902C444.73 240.561 444.944 241.311 444.944 242.155C444.944 242.72 444.836 243.275 444.62 243.819C444.404 244.364 444.022 244.968 443.478 245.631C442.937 246.294 442.178 247.096 441.2 248.039L438.599 250.682V250.785H445.172V253.067H434.826ZM447.714 253.067V251.094L452.954 245.963C453.454 245.456 453.872 245.007 454.207 244.615C454.54 244.222 454.791 243.842 454.958 243.474C455.125 243.106 455.209 242.713 455.209 242.295C455.209 241.819 455.101 241.412 454.884 241.073C454.668 240.73 454.371 240.465 453.992 240.278C453.614 240.092 453.185 239.998 452.703 239.998C452.207 239.998 451.772 240.101 451.398 240.308C451.026 240.509 450.735 240.796 450.529 241.169C450.328 241.542 450.227 241.986 450.227 242.502H447.626C447.626 241.545 447.845 240.713 448.281 240.006C448.719 239.298 449.321 238.752 450.087 238.364C450.859 237.976 451.742 237.782 452.74 237.782C453.752 237.782 454.641 237.972 455.408 238.349C456.174 238.727 456.768 239.245 457.19 239.902C457.618 240.561 457.832 241.311 457.832 242.155C457.832 242.72 457.724 243.275 457.508 243.819C457.292 244.364 456.911 244.968 456.366 245.631C455.825 246.294 455.066 247.096 454.088 248.039L451.487 250.682V250.785H458.06V253.067H447.714Z" fill="white"/>
<path d="M400.015 214.506L403.003 222.968H403.12L406.107 214.506H407.384L403.69 224.558H402.433L398.738 214.506H400.015ZM410.312 224.735C409.834 224.735 409.401 224.645 409.011 224.465C408.621 224.282 408.311 224.018 408.082 223.675C407.853 223.328 407.738 222.909 407.738 222.418C407.738 221.986 407.824 221.636 407.994 221.368C408.164 221.096 408.392 220.883 408.676 220.729C408.961 220.576 409.276 220.462 409.619 220.386C409.967 220.308 410.315 220.246 410.666 220.2C411.125 220.14 411.496 220.096 411.781 220.067C412.07 220.034 412.279 219.98 412.41 219.905C412.544 219.83 412.612 219.699 412.612 219.512V219.473C412.612 218.989 412.479 218.612 412.213 218.344C411.951 218.076 411.554 217.942 411.02 217.942C410.466 217.942 410.033 218.063 409.718 218.304C409.403 218.547 409.183 218.806 409.055 219.08L407.954 218.688C408.15 218.229 408.412 217.873 408.74 217.618C409.071 217.359 409.432 217.179 409.821 217.078C410.214 216.973 410.601 216.92 410.98 216.92C411.222 216.92 411.501 216.95 411.816 217.009C412.134 217.065 412.44 217.181 412.735 217.358C413.032 217.534 413.279 217.801 413.476 218.158C413.673 218.514 413.77 218.992 413.77 219.591V224.558H412.612V223.537H412.552C412.474 223.701 412.343 223.876 412.16 224.062C411.976 224.249 411.733 224.408 411.427 224.538C411.123 224.67 410.751 224.735 410.312 224.735ZM410.489 223.694C410.947 223.694 411.334 223.605 411.649 223.425C411.966 223.244 412.206 223.012 412.365 222.728C412.53 222.443 412.612 222.144 412.612 221.829V220.769C412.563 220.828 412.454 220.882 412.288 220.931C412.123 220.977 411.933 221.018 411.717 221.053C411.504 221.086 411.297 221.116 411.094 221.142C410.894 221.165 410.731 221.185 410.607 221.201C410.306 221.24 410.024 221.304 409.762 221.392C409.504 221.478 409.293 221.606 409.134 221.78C408.976 221.95 408.897 222.183 408.897 222.477C408.897 222.88 409.046 223.184 409.344 223.39C409.646 223.593 410.028 223.694 410.489 223.694ZM417.046 214.506V224.558H415.887V214.506H417.046ZM419.17 224.558V217.019H420.329V224.558H419.17ZM419.76 215.762C419.533 215.762 419.339 215.685 419.174 215.531C419.014 215.378 418.934 215.193 418.934 214.977C418.934 214.761 419.014 214.576 419.174 214.422C419.339 214.268 419.533 214.191 419.76 214.191C419.985 214.191 420.178 214.268 420.339 214.422C420.502 214.576 420.584 214.761 420.584 214.977C420.584 215.193 420.502 215.378 420.339 215.531C420.178 215.685 419.985 215.762 419.76 215.762ZM425.302 224.716C424.673 224.716 424.118 224.557 423.637 224.24C423.155 223.918 422.779 223.467 422.506 222.884C422.235 222.298 422.099 221.606 422.099 220.808C422.099 220.016 422.235 219.329 422.506 218.747C422.779 218.164 423.157 217.714 423.642 217.397C424.126 217.079 424.686 216.92 425.322 216.92C425.813 216.92 426.201 217.003 426.485 217.166C426.774 217.327 426.994 217.51 427.144 217.716C427.298 217.918 427.417 218.086 427.503 218.216H427.601V214.506H428.76V224.558H427.641V223.4H427.503C427.417 223.537 427.296 223.711 427.139 223.92C426.982 224.126 426.758 224.311 426.466 224.475C426.175 224.635 425.787 224.716 425.302 224.716ZM425.459 223.675C425.924 223.675 426.317 223.554 426.638 223.312C426.959 223.066 427.203 222.728 427.37 222.296C427.537 221.86 427.621 221.358 427.621 220.788C427.621 220.226 427.539 219.733 427.375 219.311C427.211 218.886 426.969 218.555 426.648 218.319C426.327 218.081 425.93 217.962 425.459 217.962C424.968 217.962 424.558 218.087 424.231 218.339C423.906 218.588 423.662 218.927 423.499 219.355C423.338 219.781 423.258 220.259 423.258 220.788C423.258 221.326 423.34 221.813 423.504 222.252C423.671 222.686 423.917 223.034 424.241 223.292C424.569 223.548 424.974 223.675 425.459 223.675ZM434.543 215.586V214.506H442.088V215.586H438.925V224.558H437.706V215.586H434.543ZM444.971 220.023V224.558H443.811V214.506H444.971V218.196H445.069C445.246 217.808 445.511 217.498 445.865 217.269C446.222 217.037 446.697 216.92 447.289 216.92C447.803 216.92 448.254 217.023 448.64 217.23C449.027 217.433 449.327 217.746 449.539 218.167C449.756 218.586 449.864 219.12 449.864 219.768V224.558H448.704V219.846C448.704 219.247 448.549 218.784 448.237 218.457C447.93 218.127 447.502 217.962 446.955 217.962C446.576 217.962 446.235 218.041 445.933 218.202C445.636 218.362 445.4 218.596 445.226 218.904C445.056 219.212 444.971 219.584 444.971 220.023ZM451.985 224.558V217.019H453.104V218.158H453.183C453.32 217.784 453.569 217.482 453.93 217.25C454.29 217.017 454.696 216.901 455.148 216.901C455.233 216.901 455.34 216.902 455.467 216.906C455.595 216.909 455.692 216.914 455.758 216.92V218.099C455.718 218.089 455.628 218.074 455.487 218.055C455.35 218.031 455.204 218.02 455.05 218.02C454.683 218.02 454.355 218.097 454.067 218.251C453.782 218.401 453.556 218.611 453.39 218.879C453.226 219.144 453.144 219.447 453.144 219.787V224.558H451.985ZM461.887 221.476V217.019H463.046V224.558H461.887V223.282H461.808C461.632 223.665 461.356 223.991 460.983 224.259C460.61 224.524 460.138 224.657 459.568 224.657C459.097 224.657 458.678 224.553 458.311 224.348C457.943 224.138 457.656 223.824 457.446 223.405C457.236 222.983 457.132 222.451 457.132 221.809V217.019H458.291V221.731C458.291 222.281 458.445 222.719 458.753 223.046C459.064 223.374 459.46 223.537 459.942 223.537C460.23 223.537 460.523 223.464 460.821 223.316C461.123 223.169 461.374 222.944 461.577 222.639C461.784 222.335 461.887 221.947 461.887 221.476Z" fill="white"/>
<path d="M107.516 45.6504H109.151L112.998 55.0381H113.131L116.977 45.6504H118.613V56.9598H117.332V48.3673H117.221L113.684 56.9598H112.446L108.909 48.3673H108.798V56.9598H107.516V45.6504ZM123.683 57.1585C123.144 57.1585 122.657 57.0573 122.218 56.8549C121.78 56.6487 121.432 56.3523 121.174 55.9657C120.915 55.5755 120.787 55.1043 120.787 54.5521C120.787 54.0662 120.883 53.6722 121.074 53.3704C121.266 53.0648 121.521 52.8255 121.842 52.6525C122.163 52.4794 122.517 52.3506 122.903 52.266C123.294 52.1776 123.686 52.1076 124.081 52.0561C124.596 51.9898 125.015 51.9401 125.335 51.907C125.66 51.8702 125.896 51.8095 126.043 51.7247C126.194 51.6401 126.269 51.4928 126.269 51.283V51.2388C126.269 50.694 126.119 50.2706 125.821 49.9687C125.526 49.6668 125.079 49.5159 124.478 49.5159C123.856 49.5159 123.367 49.6521 123.014 49.9245C122.66 50.197 122.411 50.4878 122.268 50.7971L121.03 50.3552C121.251 49.8398 121.546 49.4386 121.914 49.1514C122.287 48.8606 122.691 48.6581 123.13 48.544C123.572 48.4262 124.007 48.3673 124.434 48.3673C124.707 48.3673 125.02 48.4004 125.374 48.4667C125.731 48.5293 126.075 48.66 126.407 48.8588C126.743 49.0576 127.02 49.3576 127.242 49.7589C127.463 50.1602 127.574 50.6976 127.574 51.3713V56.9598H126.269V55.8112H126.202C126.114 55.9952 125.967 56.1922 125.761 56.402C125.554 56.6119 125.28 56.7904 124.938 56.9376C124.594 57.0849 124.177 57.1585 123.683 57.1585ZM123.882 55.9879C124.397 55.9879 124.832 55.8866 125.186 55.6841C125.544 55.4817 125.813 55.2203 125.992 54.9C126.177 54.5797 126.269 54.2428 126.269 53.8894V52.6966C126.214 52.7629 126.092 52.8237 125.904 52.8789C125.72 52.9304 125.506 52.9764 125.264 53.017C125.024 53.0538 124.79 53.0868 124.561 53.1163C124.337 53.1421 124.154 53.1642 124.014 53.1826C123.675 53.2268 123.359 53.2986 123.064 53.3979C122.773 53.4937 122.537 53.6391 122.356 53.8342C122.179 54.0257 122.091 54.287 122.091 54.6184C122.091 55.0712 122.259 55.4135 122.594 55.6455C122.933 55.8737 123.362 55.9879 123.882 55.9879ZM135.967 50.3774L134.795 50.7087C134.722 50.5136 134.613 50.324 134.469 50.1399C134.329 49.9521 134.138 49.7975 133.894 49.676C133.651 49.5546 133.34 49.4938 132.96 49.4938C132.441 49.4938 132.008 49.6134 131.662 49.8527C131.319 50.0884 131.148 50.3884 131.148 50.7528C131.148 51.0768 131.266 51.3327 131.502 51.5204C131.737 51.7082 132.106 51.8647 132.607 51.9899L133.866 52.299C134.626 52.4831 135.191 52.7648 135.564 53.1439C135.935 53.5195 136.121 54.0035 136.121 54.5963C136.121 55.0822 135.982 55.5166 135.702 55.8995C135.425 56.2824 135.039 56.5842 134.541 56.8051C134.044 57.026 133.465 57.1364 132.806 57.1364C131.94 57.1364 131.223 56.9487 130.656 56.5732C130.088 56.1977 129.729 55.6492 129.578 54.9276L130.816 54.6184C130.934 55.0749 131.157 55.4172 131.485 55.6455C131.816 55.8737 132.25 55.9879 132.784 55.9879C133.392 55.9879 133.874 55.859 134.231 55.6013C134.593 55.3399 134.773 55.027 134.773 54.6625C134.773 54.368 134.67 54.1214 134.464 53.9226C134.257 53.7201 133.941 53.5692 133.513 53.4697L132.098 53.1384C131.321 52.9543 130.749 52.6691 130.385 52.2825C130.024 51.8922 129.843 51.4045 129.843 50.8191C129.843 50.3406 129.978 49.9172 130.247 49.549C130.52 49.1808 130.89 48.8919 131.358 48.682C131.829 48.4722 132.364 48.3673 132.96 48.3673C133.801 48.3673 134.46 48.5513 134.939 48.9195C135.422 49.2876 135.764 49.7736 135.967 50.3774ZM141.777 48.4777V49.5821H137.378V48.4777H141.777ZM138.66 46.4455H139.965V54.53C139.965 54.8981 140.017 55.1742 140.124 55.3583C140.235 55.5387 140.375 55.6602 140.545 55.7228C140.718 55.7817 140.9 55.8112 141.092 55.8112C141.236 55.8112 141.353 55.8038 141.446 55.7891C141.537 55.7707 141.611 55.7559 141.666 55.7449L141.932 56.9156C141.843 56.9487 141.72 56.9819 141.561 57.015C141.403 57.0518 141.202 57.0702 140.959 57.0702C140.591 57.0702 140.229 56.991 139.875 56.8328C139.525 56.6744 139.235 56.4333 139.002 56.1093C138.774 55.7854 138.66 55.3767 138.66 54.8834V46.4455ZM147.207 57.1364C146.389 57.1364 145.683 56.956 145.09 56.5953C144.5 56.2308 144.046 55.7228 143.725 55.0712C143.408 54.4159 143.25 53.6538 143.25 52.785C143.25 51.9162 143.408 51.1505 143.725 50.4878C144.046 49.8214 144.492 49.3024 145.062 48.9306C145.637 48.555 146.308 48.3673 147.074 48.3673C147.516 48.3673 147.953 48.4409 148.384 48.5882C148.815 48.7354 149.207 48.9747 149.561 49.306C149.914 49.6337 150.196 50.0681 150.406 50.6092C150.617 51.1505 150.722 51.8168 150.722 52.6083V53.1605H144.178V52.034H149.396C149.396 51.5554 149.3 51.1284 149.108 50.7528C148.92 50.3774 148.651 50.081 148.301 49.8638C147.954 49.6466 147.545 49.538 147.074 49.538C146.555 49.538 146.105 49.6668 145.725 49.9245C145.35 50.1786 145.061 50.5099 144.858 50.9185C144.655 51.3271 144.554 51.7652 144.554 52.2328V52.9838C144.554 53.6244 144.665 54.1674 144.886 54.6129C145.111 55.0546 145.422 55.3915 145.82 55.6234C146.217 55.8516 146.68 55.9657 147.207 55.9657C147.55 55.9657 147.859 55.9179 148.135 55.8222C148.415 55.7228 148.656 55.5755 148.86 55.3804C149.062 55.1817 149.218 54.9349 149.329 54.6404L150.589 54.9938C150.457 55.421 150.234 55.7964 149.921 56.1204C149.608 56.4406 149.22 56.691 148.759 56.8714C148.299 57.0481 147.781 57.1364 147.207 57.1364ZM152.705 56.9598V48.4777H153.966V49.7589H154.054C154.209 49.3392 154.489 48.9986 154.895 48.7372C155.299 48.4759 155.757 48.3452 156.265 48.3452C156.361 48.3452 156.48 48.347 156.624 48.3507C156.768 48.3544 156.876 48.36 156.95 48.3673V49.6926C156.906 49.6816 156.805 49.665 156.646 49.6429C156.492 49.6171 156.327 49.6043 156.154 49.6043C155.742 49.6043 155.374 49.6907 155.049 49.8638C154.729 50.0331 154.474 50.2688 154.287 50.5706C154.102 50.8688 154.01 51.2093 154.01 51.5922V56.9598H152.705ZM161.686 57.1364C160.891 57.1364 160.205 56.9487 159.631 56.5732C159.056 56.1977 158.613 55.6805 158.305 55.0215C157.995 54.3625 157.84 53.6097 157.84 52.7629C157.84 51.9015 157.999 51.1412 158.315 50.4822C158.636 49.8196 159.082 49.3024 159.653 48.9306C160.228 48.555 160.899 48.3673 161.665 48.3673C162.261 48.3673 162.799 48.4777 163.278 48.6986C163.757 48.9195 164.149 49.2287 164.456 49.6264C164.762 50.0239 164.951 50.4878 165.024 51.018H163.721C163.621 50.6314 163.4 50.289 163.057 49.9908C162.719 49.6889 162.261 49.538 161.686 49.538C161.178 49.538 160.733 49.6705 160.35 49.9356C159.97 50.197 159.673 50.5669 159.459 51.0455C159.25 51.5204 159.144 52.0781 159.144 52.7187C159.144 53.374 159.247 53.9446 159.454 54.4306C159.664 54.9165 159.959 55.2939 160.338 55.5626C160.721 55.8314 161.171 55.9657 161.686 55.9657C162.026 55.9657 162.333 55.9068 162.61 55.7891C162.886 55.6712 163.12 55.5019 163.312 55.281C163.503 55.0601 163.639 54.7951 163.721 54.4859H165.024C164.951 54.9865 164.769 55.4375 164.477 55.8387C164.19 56.2363 163.809 56.5529 163.333 56.7885C162.862 57.0205 162.313 57.1364 161.686 57.1364ZM169.43 57.1585C168.892 57.1585 168.403 57.0573 167.965 56.8549C167.527 56.6487 167.178 56.3523 166.921 55.9657C166.662 55.5755 166.533 55.1043 166.533 54.5521C166.533 54.0662 166.629 53.6722 166.821 53.3704C167.012 53.0648 167.268 52.8255 167.589 52.6525C167.91 52.4794 168.263 52.3506 168.65 52.266C169.041 52.1776 169.433 52.1076 169.827 52.0561C170.344 51.9898 170.761 51.9401 171.082 51.907C171.406 51.8702 171.642 51.8095 171.789 51.7247C171.94 51.6401 172.016 51.4928 172.016 51.283V51.2388C172.016 50.694 171.867 50.2706 171.568 49.9687C171.274 49.6668 170.826 49.5159 170.225 49.5159C169.603 49.5159 169.114 49.6521 168.76 49.9245C168.407 50.197 168.159 50.4878 168.014 50.7971L166.777 50.3552C166.998 49.8398 167.292 49.4386 167.661 49.1514C168.033 48.8606 168.438 48.6581 168.877 48.544C169.319 48.4262 169.754 48.3673 170.181 48.3673C170.453 48.3673 170.767 48.4004 171.121 48.4667C171.478 48.5293 171.822 48.66 172.154 48.8588C172.49 49.0576 172.768 49.3576 172.988 49.7589C173.21 50.1602 173.32 50.6976 173.32 51.3713V56.9598H172.016V55.8112H171.949C171.861 55.9952 171.714 56.1922 171.507 56.402C171.301 56.6119 171.027 56.7904 170.684 56.9376C170.341 57.0849 169.923 57.1585 169.43 57.1585ZM169.629 55.9879C170.144 55.9879 170.579 55.8866 170.932 55.6841C171.29 55.4817 171.559 55.2203 171.74 54.9C171.924 54.5797 172.016 54.2428 172.016 53.8894V52.6966C171.96 52.7629 171.839 52.8237 171.651 52.8789C171.467 52.9304 171.253 52.9764 171.01 53.017C170.771 53.0538 170.536 53.0868 170.308 53.1163C170.083 53.1421 169.901 53.1642 169.761 53.1826C169.422 53.2268 169.105 53.2986 168.811 53.3979C168.519 53.4937 168.283 53.6391 168.103 53.8342C167.926 54.0257 167.838 54.287 167.838 54.6184C167.838 55.0712 168.006 55.4135 168.34 55.6455C168.68 55.8737 169.109 55.9879 169.629 55.9879ZM175.701 56.9598V48.4777H176.96V49.7589H177.049C177.204 49.3392 177.484 48.9986 177.889 48.7372C178.295 48.4759 178.751 48.3452 179.26 48.3452C179.355 48.3452 179.476 48.347 179.619 48.3507C179.763 48.3544 179.872 48.36 179.945 48.3673V49.6926C179.901 49.6816 179.8 49.665 179.642 49.6429C179.487 49.6171 179.323 49.6043 179.15 49.6043C178.736 49.6043 178.368 49.6907 178.044 49.8638C177.724 50.0331 177.47 50.2688 177.281 50.5706C177.097 50.8688 177.005 51.2093 177.005 51.5922V56.9598H175.701ZM184.438 57.1364C183.731 57.1364 183.106 56.9579 182.565 56.6008C182.024 56.24 181.6 55.732 181.294 55.0767C180.988 54.4177 180.835 53.6391 180.835 52.7408C180.835 51.8499 180.988 51.0768 181.294 50.4215C181.6 49.7662 182.025 49.2601 182.57 48.9029C183.116 48.5459 183.746 48.3673 184.46 48.3673C185.013 48.3673 185.45 48.4593 185.77 48.6434C186.094 48.8238 186.341 49.0299 186.511 49.2619C186.684 49.4901 186.819 49.6779 186.915 49.8252H187.025V45.6504H188.329V56.9598L187.069 56.9598V55.6565H186.915C186.819 55.8112 186.682 56.0063 186.506 56.2418C186.329 56.4738 186.076 56.6818 185.748 56.8658C185.421 57.0462 184.984 57.1364 184.438 57.1364ZM184.615 55.9657C185.139 55.9657 185.581 55.8296 185.942 55.5571C186.303 55.281 186.578 54.9 186.765 54.4141C186.953 53.9244 187.047 53.3593 187.047 52.7187C187.047 52.0856 186.954 51.5315 186.77 51.0566C186.586 50.578 186.314 50.2061 185.952 49.9411C185.592 49.6723 185.146 49.538 184.615 49.538C184.062 49.538 183.602 49.6798 183.233 49.9632C182.869 50.2429 182.594 50.624 182.41 51.1062C182.229 51.5848 182.139 52.1224 182.139 52.7187C182.139 53.3225 182.231 53.871 182.415 54.3643C182.604 54.854 182.88 55.2442 183.244 55.5351C183.613 55.8222 184.07 55.9657 184.615 55.9657Z" fill="white"/>
<path d="M52.9336 36.3604H71.1684V69.0985H52.9336V36.3604Z" fill="#FF5F00"/>
<path d="M54.0925 52.7292C54.0925 46.0775 57.2183 40.1775 62.0229 36.3599C58.492 33.5836 54.0347 31.9062 49.1721 31.9062C37.652 31.9062 28.332 41.2186 28.332 52.7292C28.332 64.2394 37.6519 73.552 49.1719 73.552C54.0345 73.552 58.4917 71.8746 62.0229 69.0981C57.2183 65.3385 54.0925 59.3808 54.0925 52.7292Z" fill="#EB001B"/>
<path d="M95.7731 52.7292C95.7731 64.2394 86.453 73.552 74.9331 73.552C70.0705 73.552 65.6132 71.8746 62.082 69.0981C66.9446 65.2807 70.0128 59.3808 70.0128 52.7292C70.0128 46.0775 66.8866 40.1775 62.082 36.3599C65.6129 33.5836 70.0705 31.9062 74.9331 31.9062C86.453 31.9062 95.7731 41.2766 95.7731 52.7292Z" fill="#F79E1B"/>
<path d="M450.262 31.9062L422.594 31.9062C415.432 31.9062 409.625 37.708 409.625 44.8649V59.5514C409.625 66.7082 415.432 72.51 422.594 72.51H450.262C457.424 72.51 463.231 66.7082 463.231 59.5514V44.8649C463.231 37.708 457.424 31.9062 450.262 31.9062Z" fill="url(#paint1_linear_3447_2157)" stroke="#666666" stroke-width="2"/>
<path fill-rule="evenodd" clip-rule="evenodd" d="M444.207 40.3354C442.316 36.5433 439.345 33.5656 437.391 32.402C437.261 32.327 437.167 32.2034 437.129 32.0586C437.09 31.9139 437.111 31.7596 437.185 31.6299C437.26 31.5001 437.383 31.4054 437.527 31.3668C437.672 31.3281 437.825 31.3485 437.955 31.4236C440.515 32.9309 443.491 36.3899 445.197 39.8065C445.238 39.8719 445.265 39.9456 445.274 40.0223C445.284 40.0991 445.277 40.1771 445.253 40.2507C445.229 40.3243 445.19 40.3918 445.138 40.4485C445.085 40.5052 445.021 40.5497 444.949 40.5787C444.873 40.62 444.788 40.6418 444.702 40.6422C444.599 40.6423 444.499 40.6136 444.411 40.5594C444.323 40.5053 444.253 40.4277 444.207 40.3354ZM427.087 58.4818C427.124 63.7389 432.049 70.0063 435.442 72.032C435.507 72.0663 435.565 72.1141 435.611 72.1722C435.656 72.2303 435.69 72.2974 435.708 72.3692C435.726 72.441 435.73 72.5159 435.717 72.5891C435.705 72.6622 435.677 72.7319 435.636 72.7936C435.587 72.8769 435.516 72.9459 435.432 72.9941C435.349 73.0422 435.254 73.0679 435.157 73.0686C435.059 73.069 434.962 73.0414 434.878 72.9893C431.259 70.8473 426.308 64.5852 425.992 58.979H409.315C409.177 58.9654 409.049 58.9008 408.955 58.7976C408.862 58.6945 408.811 58.5602 408.811 58.421C408.811 58.2817 408.862 58.1474 408.955 58.0442C409.049 57.9411 409.177 57.8764 409.315 57.863H426.097C427.149 54.1639 427.149 50.2436 426.097 46.5446H409.315C409.168 46.5446 409.027 46.4861 408.923 46.382C408.82 46.2778 408.762 46.1366 408.762 45.9893C408.762 45.842 408.82 45.7007 408.923 45.5966C409.027 45.4925 409.168 45.434 409.315 45.434H425.992C426.308 39.8065 431.281 33.5656 434.878 31.4236C435.007 31.3485 435.161 31.3281 435.305 31.3668C435.45 31.4054 435.572 31.5001 435.647 31.6299C435.722 31.7596 435.742 31.9139 435.704 32.0586C435.665 32.2034 435.571 32.327 435.442 32.402C432.049 34.4012 427.124 40.6739 427.087 45.9364C428.294 50.0305 428.294 54.3877 427.087 58.4818ZM463.544 57.863H446.73C445.679 54.1639 445.679 50.2436 446.73 46.5446H463.544C463.691 46.5446 463.831 46.4861 463.935 46.382C464.039 46.2778 464.097 46.1366 464.097 45.9893C464.097 45.842 464.039 45.7007 463.935 45.5966C463.831 45.4925 463.691 45.434 463.544 45.434H446.303C446.183 45.4353 446.067 45.4758 445.972 45.5493C445.877 45.6227 445.809 45.7252 445.777 45.8412C444.551 49.965 444.551 54.358 445.777 58.4818C445.739 63.7389 440.815 70.0063 437.422 72.032C437.355 72.0643 437.296 72.1107 437.247 72.1679C437.2 72.2252 437.164 72.292 437.143 72.364C437.123 72.436 437.118 72.5115 437.129 72.5855C437.14 72.6597 437.166 72.7305 437.207 72.7936C437.256 72.8769 437.326 72.9459 437.41 72.9941C437.494 73.0423 437.589 73.0679 437.686 73.0686C437.784 73.069 437.881 73.0414 437.965 72.9893C441.563 70.8737 446.535 64.5852 446.851 58.979H463.544C463.682 58.9654 463.81 58.9008 463.903 58.7976C463.997 58.6945 464.048 58.5602 464.048 58.421C464.048 58.2817 463.997 58.1474 463.903 58.0442C463.81 57.9411 463.682 57.8764 463.544 57.863ZM435.866 34.4525C436.029 34.3433 436.22 34.2849 436.416 34.2849C436.679 34.2849 436.931 34.3896 437.117 34.5762C437.302 34.7626 437.406 35.0156 437.406 35.2792C437.406 35.4758 437.348 35.6681 437.239 35.8316C437.131 35.9951 436.976 36.1226 436.795 36.1979C436.614 36.2731 436.415 36.2928 436.223 36.2544C436.031 36.216 435.854 36.1214 435.716 35.9824C435.578 35.8433 435.483 35.6661 435.445 35.4732C435.406 35.2803 435.426 35.0804 435.502 34.8988C435.576 34.7171 435.703 34.5617 435.866 34.4525Z" fill="#666666"/>
</g>
<defs>
<filter id="filter0_b_3447_2157" x="-207.652" y="-207.512" width="908.602" height="704.318" filterUnits="userSpaceOnUse" color-interpolation-filters="sRGB">
<feFlood flood-opacity="0" result="BackgroundImageFix"/>
<feGaussianBlur in="BackgroundImageFix" stdDeviation="104.375"/>
<feComposite in2="SourceAlpha" operator="in" result="effect1_backgroundBlur_3447_2157"/>
<feBlend mode="normal" in="SourceGraphic" in2="effect1_backgroundBlur_3447_2157" result="shape"/>
</filter>
<linearGradient id="paint0_linear_3447_2157" x1="44.776" y1="-61.181" x2="701.062" y2="474.867" gradientUnits="userSpaceOnUse">
<stop offset="0.104167" stop-color="#272727"/>
<stop offset="0.828125" stop-color="#696160" stop-opacity="0.65"/>
<stop offset="1" stop-color="#C4C4C4" stop-opacity="0.56"/>
</linearGradient>
<linearGradient id="paint1_linear_3447_2157" x1="403.491" y1="31.0423" x2="468.731" y2="73.1323" gradientUnits="userSpaceOnUse">
<stop stop-color="#DDD9D6"/>
<stop offset="0.212761" stop-color="#8A868C"/>
<stop offset="0.548384" stop-color="#F2F3F3" stop-opacity="0.8"/>
<stop offset="0.914316" stop-color="#807C80"/>
<stop offset="1" stop-color="#A6A8AB"/>
</linearGradient>
<clipPath id="clip0_3447_2157">
<rect width="491.965" height="287.682" fill="white" transform="translate(0.664062 0.805664)"/>
</clipPath>
</defs>
</svg>
