<svg width="465" height="300" viewBox="0 0 465 300" fill="none" xmlns="http://www.w3.org/2000/svg">
<g clip-path="url(#clip0_3436_3641)">
<path d="M447.318 57.8544L69.4464 2.89126C60.0332 1.52206 50.7557 7.9758 48.7244 17.3061L4.11951 222.19C2.08824 231.521 8.07246 240.194 17.4857 241.564L395.357 296.527C404.77 297.896 414.048 291.442 416.079 282.112L460.684 77.2276C462.715 67.8973 456.731 59.2236 447.318 57.8544Z" fill="url(#paint0_linear_3436_3641)"/>
<path d="M33.6055 200.926L36.4118 201.334L38.1905 210.973L38.3389 210.995L44.0767 202.449L46.883 202.857L44.1512 215.405L41.9506 215.085L43.8273 206.465L43.7099 206.448L38.3425 214.523L36.6983 214.283L35.0724 205.172L34.955 205.155L33.0742 213.794L30.8736 213.474L33.6055 200.926ZM46.5495 215.754L48.5984 206.343L50.7681 206.659L50.4266 208.227L50.5255 208.242C50.8169 207.723 51.2047 207.348 51.689 207.115C52.1784 206.879 52.695 206.8 53.239 206.879C53.3626 206.897 53.4994 206.923 53.6492 206.958C53.8039 206.989 53.9308 207.022 54.0292 207.057L53.5851 209.098C53.4975 209.051 53.3532 209.001 53.1525 208.946C52.9568 208.888 52.7642 208.846 52.5746 208.818C52.1666 208.759 51.7808 208.793 51.4171 208.921C51.0582 209.046 50.7529 209.248 50.5006 209.528C50.2485 209.807 50.0789 210.147 49.9917 210.547L48.7873 216.08L46.5495 215.754ZM53.7121 216.935C53.3372 216.881 53.0442 216.703 52.8333 216.403C52.6225 216.102 52.5599 215.764 52.6459 215.389C52.7217 215.021 52.922 214.726 53.2468 214.503C53.5716 214.281 53.9214 214.197 54.2964 214.252C54.659 214.305 54.946 214.481 55.1569 214.781C55.3719 215.082 55.4415 215.417 55.3657 215.785C55.3072 216.033 55.192 216.25 55.0197 216.437C54.8515 216.623 54.6512 216.762 54.4186 216.854C54.1908 216.944 53.9553 216.971 53.7121 216.935ZM69.1638 206.098L71.4385 206.429L69.5177 215.252C69.3375 216.06 69.0128 216.731 68.5436 217.265C68.0753 217.796 67.5 218.173 66.8174 218.399C66.1399 218.621 65.3952 218.673 64.5834 218.555C63.8416 218.447 63.2025 218.219 62.6661 217.871C62.1346 217.52 61.7523 217.059 61.519 216.491C61.2858 215.921 61.2533 215.25 61.4212 214.479L63.7021 214.811C63.6326 215.15 63.6431 215.453 63.734 215.719C63.829 215.985 63.992 216.203 64.2232 216.371C64.4544 216.54 64.7389 216.649 65.0768 216.698C65.4436 216.751 65.7712 216.721 66.0596 216.607C66.3488 216.489 66.5923 216.289 66.79 216.005C66.9918 215.723 67.1427 215.362 67.243 214.921L69.1638 206.098ZM73.7866 219.912C73.185 219.824 72.6662 219.639 72.2302 219.357C71.7994 219.071 71.4895 218.697 71.3011 218.235C71.1165 217.775 71.0913 217.236 71.2255 216.619C71.3412 216.088 71.5358 215.663 71.8091 215.345C72.0826 215.026 72.4129 214.788 72.8003 214.629C73.1877 214.471 73.6072 214.37 74.0589 214.326C74.5156 214.279 74.98 214.264 75.4522 214.282C76.021 214.306 76.4834 214.32 76.8393 214.326C77.1962 214.327 77.4635 214.29 77.6414 214.215C77.8244 214.136 77.939 213.991 77.9853 213.778L77.9933 213.741C78.0938 213.28 78.0335 212.902 77.8125 212.609C77.5915 212.316 77.2215 212.131 76.7023 212.055C76.1542 211.976 75.6936 212.031 75.3206 212.221C74.9518 212.412 74.6766 212.66 74.4951 212.967L72.4698 212.369C72.7591 211.821 73.1351 211.383 73.5978 211.054C74.0614 210.721 74.5881 210.499 75.178 210.387C75.7688 210.27 76.3958 210.26 77.0593 210.357C77.5168 210.423 77.9607 210.542 78.3908 210.714C78.8209 210.887 79.1969 211.122 79.5186 211.422C79.8411 211.717 80.0703 212.09 80.2063 212.54C80.3463 212.99 80.3484 213.527 80.2122 214.153L78.8411 220.451L76.6899 220.138L76.9713 218.846L76.8972 218.835C76.7044 219.076 76.4594 219.293 76.1623 219.486C75.8702 219.676 75.5236 219.813 75.1225 219.898C74.7265 219.979 74.2811 219.984 73.7866 219.912ZM74.7225 218.367C75.1717 218.432 75.5802 218.401 75.9481 218.273C76.3168 218.142 76.6219 217.941 76.8631 217.673C77.1084 217.405 77.2689 217.098 77.3445 216.751L77.586 215.641C77.5035 215.689 77.3724 215.725 77.1927 215.749C77.0173 215.774 76.8225 215.79 76.6084 215.797C76.3944 215.803 76.1832 215.807 75.9751 215.805C75.767 215.805 75.5866 215.804 75.4336 215.803C75.0901 215.799 74.7754 215.829 74.4894 215.893C74.2035 215.956 73.9642 216.069 73.7717 216.231C73.5801 216.388 73.4532 216.61 73.3909 216.896C73.302 217.305 73.3853 217.635 73.6408 217.887C73.8963 218.139 74.2568 218.299 74.7225 218.367ZM83.774 218.122L84.3503 215.444L84.7094 215.496L88.9441 212.212L91.5588 212.592L86.3532 216.613L85.8897 216.546L83.774 218.122ZM81.0909 220.778L83.8227 208.23L86.0602 208.556L83.3284 221.104L81.0909 220.778ZM87.0498 221.645L84.8917 216.913L86.7398 215.57L89.7261 222.034L87.0498 221.645ZM94.7115 222.949C93.7846 222.815 93.0251 222.495 92.4335 221.992C91.8413 221.488 91.4372 220.846 91.2204 220.065C91.0073 219.284 91.0073 218.407 91.2189 217.435C91.4307 216.463 91.801 215.638 92.3315 214.961C92.8656 214.285 93.5165 213.793 94.2849 213.488C95.0525 213.182 95.9001 213.097 96.827 213.232C97.7546 213.367 98.5143 213.686 99.1059 214.189C99.6981 214.693 100.1 215.337 100.312 216.122C100.528 216.908 100.529 217.786 100.318 218.759C100.106 219.731 99.7339 220.553 99.2007 221.225C98.6711 221.898 98.0228 222.388 97.2544 222.693C96.4869 222.999 95.6391 223.084 94.7115 222.949ZM95.1107 221.174C95.614 221.247 96.0637 221.172 96.4613 220.947C96.8597 220.719 97.1923 220.384 97.4584 219.942C97.7288 219.501 97.9257 218.994 98.0503 218.422C98.1757 217.846 98.2049 217.314 98.1373 216.823C98.075 216.329 97.9046 215.919 97.6272 215.592C97.3496 215.265 96.9598 215.066 96.4565 214.992C95.9416 214.917 95.4827 214.994 95.0807 215.222C94.6821 215.451 94.3471 215.787 94.0757 216.232C93.8097 216.674 93.6144 217.183 93.489 217.759C93.3644 218.331 93.3336 218.861 93.3968 219.351C93.4644 219.841 93.6373 220.25 93.9149 220.577C94.1968 220.9 94.5957 221.099 95.1107 221.174ZM101.299 223.718L104.031 211.17L106.269 211.495L105.247 216.189L105.34 216.202C105.505 215.99 105.721 215.771 105.987 215.544C106.254 215.313 106.587 215.132 106.986 215.001C107.385 214.864 107.863 214.837 108.419 214.918C109.152 215.025 109.773 215.307 110.281 215.764C110.795 216.218 111.146 216.832 111.335 217.605C111.529 218.375 111.512 219.283 111.284 220.329C111.059 221.362 110.697 222.215 110.198 222.888C109.698 223.561 109.112 224.045 108.441 224.34C107.768 224.634 107.06 224.726 106.313 224.618C105.77 224.539 105.338 224.383 105.019 224.151C104.699 223.919 104.458 223.661 104.295 223.376C104.136 223.088 104.022 222.82 103.952 222.574L103.823 222.556L103.5 224.038L101.299 223.718ZM104.518 219.332C104.386 219.94 104.356 220.486 104.43 220.968C104.507 221.451 104.683 221.846 104.957 222.151C105.235 222.453 105.612 222.638 106.085 222.707C106.58 222.779 107.022 222.709 107.413 222.496C107.805 222.279 108.135 221.954 108.403 221.521C108.677 221.085 108.878 220.573 109.006 219.985C109.133 219.4 109.162 218.869 109.091 218.391C109.021 217.913 108.847 217.521 108.569 217.216C108.292 216.91 107.903 216.72 107.404 216.648C106.926 216.578 106.494 216.644 106.105 216.845C105.717 217.045 105.388 217.357 105.117 217.781C104.85 218.206 104.651 218.723 104.518 219.332ZM119.313 213.392L122.12 213.801L123.899 223.44L124.047 223.461L129.784 214.915L132.591 215.324L129.859 227.872L127.658 227.552L129.535 218.932L129.417 218.915L124.05 226.989L122.406 226.75L120.78 217.639L120.663 217.622L118.782 226.261L116.581 225.941L119.313 213.392ZM134.948 228.808C134.347 228.721 133.827 228.535 133.392 228.253C132.961 227.967 132.651 227.594 132.462 227.131C132.278 226.671 132.252 226.132 132.387 225.516C132.502 224.984 132.697 224.559 132.971 224.241C133.244 223.922 133.574 223.684 133.962 223.526C134.35 223.367 134.769 223.266 135.221 223.222C135.677 223.175 136.142 223.16 136.614 223.179C137.182 223.202 137.645 223.217 138.001 223.222C138.358 223.223 138.625 223.186 138.803 223.111C138.986 223.033 139.101 222.887 139.147 222.674L139.155 222.637C139.255 222.176 139.195 221.799 138.974 221.505C138.753 221.212 138.383 221.027 137.864 220.951C137.316 220.872 136.855 220.927 136.482 221.118C136.113 221.308 135.838 221.556 135.656 221.863L133.632 221.265C133.921 220.718 134.297 220.279 134.76 219.95C135.223 219.617 135.75 219.395 136.339 219.283C136.93 219.166 137.557 219.157 138.221 219.253C138.679 219.32 139.122 219.438 139.552 219.611C139.982 219.783 140.358 220.019 140.68 220.318C141.003 220.614 141.232 220.987 141.368 221.436C141.508 221.886 141.51 222.424 141.374 223.049L140.003 229.347L137.851 229.034L138.133 227.742L138.059 227.731C137.866 227.972 137.621 228.19 137.324 228.382C137.032 228.572 136.685 228.709 136.284 228.794C135.888 228.875 135.443 228.88 134.948 228.808ZM135.884 227.263C136.333 227.328 136.742 227.297 137.11 227.17C137.479 227.038 137.783 226.837 138.024 226.569C138.27 226.301 138.43 225.994 138.506 225.647L138.747 224.538C138.665 224.585 138.534 224.621 138.354 224.645C138.179 224.67 137.984 224.686 137.77 224.693C137.556 224.7 137.345 224.703 137.137 224.702C136.929 224.701 136.748 224.7 136.595 224.699C136.252 224.695 135.937 224.725 135.651 224.789C135.365 224.853 135.125 224.965 134.933 225.127C134.742 225.285 134.615 225.507 134.552 225.793C134.464 226.201 134.547 226.531 134.802 226.783C135.058 227.035 135.418 227.195 135.884 227.263ZM145.691 224.486L144.491 230L142.252 229.675L144.301 220.264L146.44 220.575L146.092 222.174L146.204 222.19C146.537 221.695 146.976 221.327 147.521 221.086C148.071 220.846 148.701 220.777 149.409 220.88C150.064 220.976 150.605 221.198 151.031 221.546C151.461 221.895 151.752 222.352 151.905 222.918C152.063 223.485 152.058 224.143 151.89 224.895L150.585 230.887L148.348 230.561L149.577 224.912C149.714 224.283 149.656 223.767 149.404 223.364C149.156 222.961 148.743 222.718 148.166 222.634C147.775 222.577 147.408 222.612 147.066 222.739C146.728 222.862 146.439 223.072 146.196 223.365C145.958 223.659 145.79 224.033 145.691 224.486ZM156.178 235.543C155.375 235.427 154.708 235.218 154.178 234.917C153.647 234.621 153.246 234.268 152.974 233.857C152.702 233.447 152.546 233.013 152.504 232.556L154.625 232.366C154.676 232.562 154.768 232.763 154.902 232.968C155.035 233.177 155.235 233.362 155.502 233.523C155.772 233.689 156.131 233.805 156.581 233.87C157.215 233.963 157.774 233.886 158.257 233.639C158.739 233.398 159.056 232.93 159.207 232.236L159.595 230.453L159.483 230.437C159.318 230.648 159.098 230.859 158.823 231.067C158.552 231.276 158.218 231.436 157.82 231.547C157.425 231.658 156.956 231.674 156.412 231.595C155.683 231.489 155.059 231.224 154.539 230.798C154.024 230.369 153.666 229.791 153.463 229.061C153.265 228.329 153.278 227.45 153.501 226.425C153.726 225.391 154.089 224.544 154.59 223.884C155.096 223.22 155.686 222.748 156.359 222.466C157.033 222.181 157.735 222.092 158.465 222.198C159.021 222.279 159.459 222.439 159.776 222.679C160.099 222.915 160.339 223.18 160.496 223.473C160.654 223.761 160.764 224.028 160.825 224.273L160.949 224.291L161.288 222.734L163.494 223.055L161.412 232.619C161.237 233.424 160.898 234.062 160.396 234.532C159.894 235.003 159.279 235.32 158.551 235.484C157.822 235.648 157.031 235.668 156.178 235.543ZM157.416 229.946C157.89 230.015 158.318 229.959 158.702 229.779C159.086 229.599 159.41 229.307 159.677 228.904C159.943 228.499 160.142 227.997 160.273 227.397C160.402 226.805 160.428 226.273 160.352 225.803C160.28 225.333 160.103 224.952 159.823 224.658C159.548 224.361 159.169 224.177 158.687 224.107C158.189 224.035 157.744 224.103 157.355 224.312C156.964 224.52 156.636 224.837 156.37 225.262C156.104 225.683 155.908 226.176 155.785 226.744C155.659 227.32 155.634 227.837 155.709 228.295C155.788 228.749 155.969 229.12 156.251 229.41C156.537 229.696 156.925 229.875 157.416 229.946ZM167.841 233.586C166.913 233.452 166.154 233.132 165.562 232.629C164.97 232.125 164.566 231.483 164.349 230.702C164.137 229.921 164.136 229.044 164.348 228.072C164.559 227.099 164.93 226.275 165.46 225.598C165.994 224.922 166.645 224.43 167.414 224.125C168.181 223.819 169.029 223.734 169.956 223.869C170.883 224.004 171.643 224.323 172.234 224.826C172.827 225.329 173.228 225.974 173.44 226.759C173.656 227.545 173.658 228.423 173.446 229.396C173.235 230.368 172.862 231.19 172.329 231.862C171.8 232.535 171.151 233.024 170.383 233.33C169.615 233.635 168.768 233.721 167.841 233.586ZM168.24 231.811C168.743 231.884 169.192 231.809 169.59 231.584C169.988 231.356 170.321 231.021 170.587 230.579C170.857 230.137 171.054 229.631 171.179 229.059C171.304 228.483 171.333 227.951 171.266 227.46C171.204 226.966 171.033 226.556 170.756 226.229C170.478 225.902 170.088 225.702 169.586 225.629C169.07 225.554 168.611 225.631 168.209 225.859C167.811 226.088 167.476 226.424 167.205 226.869C166.938 227.311 166.743 227.82 166.618 228.396C166.493 228.968 166.462 229.498 166.526 229.988C166.594 230.478 166.766 230.887 167.043 231.214C167.325 231.537 167.724 231.736 168.24 231.811Z" fill="white"/>
<path d="M49.7774 157.127C48.9709 157.004 48.2128 156.75 47.5026 156.367C46.794 155.976 46.1995 155.426 45.7192 154.716C45.2402 154 44.932 153.099 44.7946 152.011C44.6584 150.918 44.7603 149.604 45.1001 148.069C45.412 146.637 45.8439 145.382 46.3958 144.305C46.9477 143.228 47.5964 142.344 48.3416 141.655C49.0882 140.96 49.9123 140.468 50.8146 140.177C51.7222 139.888 52.6815 139.817 53.6925 139.964C54.753 140.118 55.6474 140.462 56.376 140.995C57.1102 141.528 57.6516 142.192 58.0007 142.984C58.3508 143.771 58.4885 144.623 58.4138 145.539L55.4054 145.101C55.3915 144.436 55.187 143.879 54.7919 143.428C54.4036 142.972 53.8468 142.692 53.1215 142.587C51.9512 142.416 50.9404 142.789 50.0893 143.704C49.2434 144.621 48.6264 145.958 48.2379 147.717L48.3533 147.733C48.7269 147.293 49.1653 146.933 49.6686 146.652C50.1718 146.372 50.7129 146.177 51.2916 146.071C51.8772 145.959 52.472 145.947 53.0764 146.035C54.0655 146.179 54.9018 146.543 55.5857 147.125C56.2748 147.709 56.7608 148.445 57.0433 149.334C57.3269 150.219 57.351 151.189 57.1156 152.244C56.8814 153.345 56.4135 154.297 55.7117 155.099C55.0109 155.897 54.15 156.479 53.1288 156.847C52.1077 157.216 50.9905 157.309 49.7774 157.127ZM50.2945 154.674C50.8934 154.761 51.4606 154.694 51.9959 154.475C52.5313 154.254 52.9897 153.92 53.3711 153.47C53.7525 153.019 54.0069 152.489 54.1343 151.878C54.2701 151.28 54.2563 150.718 54.0925 150.195C53.9343 149.672 53.6525 149.235 53.2471 148.884C52.8417 148.532 52.3396 148.313 51.7407 148.226C51.2957 148.161 50.8625 148.185 50.4411 148.298C50.0197 148.411 49.6335 148.597 49.2826 148.854C48.9329 149.107 48.6329 149.418 48.3827 149.785C48.1392 150.149 47.9666 150.551 47.8652 150.991C47.7438 151.575 47.7644 152.131 47.9269 152.661C48.0893 153.19 48.375 153.636 48.7835 153.999C49.1918 154.362 49.6956 154.587 50.2945 154.674ZM60.242 158.413L70.4867 145.373L70.5116 145.259L62.1791 144.047L62.7304 141.514L74.2278 143.187L73.6639 145.777L63.4151 158.875L60.242 158.413ZM79.7965 161.493C78.6097 161.321 77.5985 160.966 76.7632 160.428C75.9333 159.892 75.3303 159.225 74.9538 158.429C74.5773 157.632 74.4751 156.761 74.6474 155.814L77.7463 156.264C77.6753 156.721 77.7405 157.137 77.9416 157.515C78.1441 157.887 78.4531 158.199 78.8688 158.451C79.2846 158.702 79.7754 158.869 80.3413 158.951C80.9457 159.039 81.504 159.014 82.0161 158.875C82.5293 158.731 82.9587 158.49 83.3043 158.152C83.6499 157.814 83.8732 157.4 83.9745 156.909C84.0901 156.404 84.0556 155.938 83.8704 155.512C83.6854 155.087 83.3612 154.727 82.8977 154.435C82.4396 154.144 81.8533 153.946 81.139 153.843L79.6472 153.626L80.1559 151.289L81.6476 151.506C82.2355 151.592 82.7714 151.565 83.2547 151.428C83.7437 151.291 84.1542 151.059 84.4864 150.73C84.8198 150.397 85.0364 149.988 85.1366 149.502C85.2452 149.029 85.2275 148.602 85.0837 148.221C84.9464 147.836 84.7014 147.517 84.3483 147.264C84.001 147.011 83.5635 146.846 83.036 146.769C82.5195 146.694 82.0214 146.717 81.5415 146.838C81.0617 146.959 80.6497 147.172 80.3058 147.476C79.963 147.775 79.7325 148.156 79.614 148.623L76.6717 148.195C76.8976 147.261 77.3486 146.478 78.0248 145.846C78.7075 145.21 79.5318 144.756 80.4975 144.487C81.4644 144.211 82.4945 144.153 83.5879 144.312C84.7143 144.476 85.6466 144.828 86.385 145.368C87.1301 145.904 87.6543 146.556 87.9572 147.325C88.2603 148.094 88.3195 148.903 88.1345 149.752C87.9348 150.696 87.4827 151.444 86.778 151.999C86.0789 152.555 85.2519 152.865 84.2972 152.928L84.2687 153.058C85.4199 153.394 86.2343 153.963 86.7122 154.762C87.1965 155.558 87.3221 156.478 87.0891 157.523C86.8852 158.459 86.4333 159.259 85.7336 159.921C85.0405 160.579 84.1785 161.049 83.1478 161.332C82.1223 161.616 81.0053 161.669 79.7965 161.493ZM95.785 163.819C94.5592 163.641 93.5158 163.278 92.6545 162.732C91.7984 162.186 91.178 161.519 90.7937 160.733C90.4159 159.942 90.3283 159.095 90.5307 158.192C90.6781 157.488 90.9725 156.865 91.4137 156.323C91.8549 155.78 92.3847 155.351 93.003 155.037C93.6277 154.718 94.2821 154.551 94.965 154.539L94.9899 154.424C94.1632 154.108 93.5559 153.567 93.1665 152.802C92.7841 152.033 92.6941 151.196 92.8963 150.294C93.0782 149.432 93.4871 148.7 94.1232 148.095C94.7592 147.491 95.5454 147.057 96.4811 146.794C97.4179 146.527 98.4332 146.472 99.5269 146.631C100.609 146.788 101.531 147.125 102.291 147.64C103.059 148.15 103.614 148.779 103.956 149.525C104.303 150.273 104.383 151.077 104.196 151.937C103.999 152.841 103.554 153.599 102.859 154.212C102.171 154.82 101.38 155.157 100.487 155.224L100.463 155.338C101.098 155.543 101.636 155.883 102.077 156.357C102.525 156.826 102.841 157.378 103.026 158.012C103.217 158.646 103.236 159.315 103.083 160.017C102.886 160.922 102.441 161.691 101.747 162.326C101.054 162.956 100.191 163.407 99.1574 163.677C98.1285 163.949 97.0042 163.996 95.785 163.819ZM96.2936 161.482C96.9253 161.574 97.4975 161.548 98.0108 161.404C98.5253 161.254 98.9543 161.002 99.2979 160.647C99.6414 160.292 99.8719 159.86 99.9891 159.349C100.1 158.814 100.062 158.322 99.8762 157.874C99.6972 157.421 99.3972 157.043 98.9752 156.74C98.5591 156.438 98.0515 156.243 97.4532 156.156C96.8483 156.068 96.2846 156.107 95.7607 156.273C95.2377 156.438 94.7936 156.707 94.4286 157.082C94.0706 157.451 93.8361 157.902 93.7249 158.437C93.6084 158.948 93.6361 159.419 93.809 159.848C93.983 160.273 94.2798 160.628 94.6994 160.914C95.1249 161.2 95.6561 161.39 96.2936 161.482ZM97.9529 153.861C98.4693 153.936 98.9481 153.899 99.3884 153.749C99.8346 153.6 100.214 153.358 100.525 153.021C100.836 152.684 101.047 152.274 101.158 151.79C101.257 151.31 101.233 150.874 101.086 150.481C100.941 150.084 100.688 149.758 100.33 149.504C99.9726 149.244 99.5325 149.076 99.0111 149C98.478 148.923 97.9861 148.955 97.5354 149.097C97.0916 149.235 96.718 149.47 96.413 149.802C96.115 150.129 95.9163 150.533 95.8179 151.013C95.7064 151.497 95.7237 151.94 95.8678 152.344C96.0198 152.742 96.2724 153.077 96.6273 153.348C96.9891 153.614 97.4307 153.785 97.9529 153.861ZM115.537 156.57L115.007 159.005L107.408 157.899L107.938 155.464L115.537 156.57ZM127.992 151.007L124.349 167.738L121.291 167.293L124.292 153.512L124.193 153.497L119.701 155.423L120.306 152.645L125.082 150.584L127.992 151.007ZM129.563 168.496L130.04 166.307L137.14 161.465C137.822 160.986 138.398 160.556 138.866 160.174C139.335 159.792 139.707 159.411 139.983 159.03C140.258 158.649 140.446 158.227 140.547 157.764C140.662 157.235 140.64 156.766 140.48 156.355C140.321 155.938 140.053 155.596 139.675 155.327C139.297 155.059 138.838 154.886 138.3 154.808C137.745 154.727 137.234 154.771 136.766 154.938C136.3 155.101 135.907 155.373 135.586 155.752C135.271 156.134 135.05 156.61 134.926 157.182L132.017 156.759C132.248 155.697 132.693 154.81 133.353 154.096C134.013 153.383 134.818 152.874 135.769 152.568C136.725 152.263 137.762 152.192 138.876 152.354C140.008 152.519 140.957 152.874 141.723 153.417C142.489 153.961 143.029 154.633 143.342 155.431C143.661 156.231 143.719 157.099 143.515 158.035C143.379 158.662 143.124 159.259 142.751 159.829C142.377 160.398 141.805 161.006 141.035 161.653C140.271 162.3 139.229 163.067 137.907 163.954L134.36 166.463L134.335 166.577L141.686 167.647L141.135 170.179L129.563 168.496ZM150.915 171.838C149.728 171.665 148.717 171.31 147.881 170.773C147.052 170.237 146.449 169.57 146.072 168.773C145.695 167.977 145.593 167.105 145.766 166.158L148.864 166.609C148.793 167.065 148.859 167.482 149.06 167.86C149.262 168.232 149.571 168.544 149.987 168.796C150.403 169.047 150.894 169.214 151.459 169.296C152.064 169.384 152.622 169.358 153.134 169.219C153.647 169.075 154.077 168.834 154.423 168.497C154.768 168.159 154.991 167.745 155.093 167.254C155.208 166.748 155.174 166.282 154.989 165.857C154.804 165.431 154.479 165.072 154.016 164.78C153.558 164.488 152.972 164.291 152.257 164.187L150.765 163.97L151.274 161.634L152.766 161.851C153.353 161.936 153.89 161.909 154.373 161.772C154.862 161.636 155.273 161.403 155.605 161.075C155.938 160.741 156.155 160.332 156.255 159.846C156.363 159.373 156.346 158.946 156.202 158.566C156.065 158.181 155.819 157.861 155.467 157.608C155.119 157.355 154.681 157.191 154.154 157.114C153.638 157.039 153.14 157.061 152.66 157.183C152.18 157.304 151.768 157.517 151.424 157.82C151.082 158.119 150.851 158.501 150.732 158.967L147.79 158.539C148.016 157.606 148.467 156.823 149.143 156.191C149.826 155.554 150.65 155.101 151.615 154.831C152.582 154.556 153.613 154.498 154.706 154.657C155.833 154.821 156.765 155.173 157.503 155.713C158.248 156.248 158.773 156.9 159.076 157.669C159.379 158.438 159.438 159.247 159.253 160.097C159.053 161.04 158.601 161.789 157.896 162.344C157.197 162.899 156.37 163.209 155.415 163.272L155.387 163.403C156.538 163.739 157.353 164.307 157.831 165.107C158.315 165.903 158.44 166.823 158.208 167.867C158.004 168.804 157.551 169.604 156.852 170.266C156.159 170.924 155.297 171.394 154.266 171.676C153.241 171.96 152.123 172.014 150.915 171.838ZM161.324 169.913L161.848 167.504L171.453 157.329L173.48 157.623L172.733 161.055L171.497 160.875L165.026 167.746L164.998 167.877L174.995 169.331L174.453 171.823L161.324 169.913ZM168.7 174.189L169.536 170.349L169.803 169.276L172.375 157.463L175.26 157.882L171.618 174.613L168.7 174.189ZM187.131 166.983L186.601 169.418L179.002 168.313L179.532 165.878L187.131 166.983ZM198.63 161.046C199.437 161.169 200.191 161.425 200.895 161.814C201.605 162.198 202.2 162.745 202.68 163.456C203.162 164.161 203.471 165.056 203.609 166.144C203.746 167.232 203.649 168.538 203.317 170.063C203.009 171.502 202.575 172.765 202.015 173.851C201.462 174.934 200.812 175.823 200.066 176.518C199.319 177.213 198.495 177.705 197.593 177.995C196.691 178.286 195.732 178.357 194.715 178.209C193.649 178.054 192.749 177.709 192.015 177.176C191.287 176.643 190.748 175.98 190.399 175.188C190.05 174.395 189.918 173.528 190.005 172.585L193.013 173.022C193.022 173.709 193.221 174.283 193.607 174.744C194.001 175.2 194.561 175.481 195.286 175.586C196.456 175.756 197.467 175.384 198.318 174.468C199.169 173.553 199.79 172.199 200.181 170.407L200.065 170.39C199.692 170.831 199.253 171.194 198.748 171.48C198.245 171.761 197.701 171.954 197.116 172.06C196.538 172.167 195.946 172.176 195.342 172.089C194.353 171.945 193.514 171.581 192.825 170.998C192.141 170.415 191.657 169.681 191.373 168.797C191.096 167.915 191.068 166.946 191.291 165.895C191.528 164.805 191.994 163.865 192.688 163.072C193.389 162.276 194.25 161.693 195.27 161.324C196.293 160.951 197.413 160.858 198.63 161.046ZM198.105 163.498C197.512 163.412 196.944 163.478 196.404 163.697C195.869 163.911 195.411 164.244 195.03 164.694C194.655 165.139 194.403 165.662 194.273 166.261C194.149 166.855 194.166 167.414 194.324 167.937C194.488 168.461 194.769 168.898 195.17 169.249C195.575 169.6 196.077 169.819 196.676 169.906C197.121 169.971 197.554 169.946 197.975 169.833C198.397 169.721 198.783 169.536 199.134 169.277C199.491 169.015 199.792 168.702 200.035 168.338C200.285 167.976 200.454 167.579 200.542 167.147C200.666 166.576 200.644 166.028 200.475 165.503C200.311 164.979 200.024 164.536 199.616 164.173C199.213 163.811 198.709 163.586 198.105 163.498ZM211.007 180.578C209.781 180.4 208.737 180.038 207.876 179.491C207.02 178.945 206.4 178.279 206.015 177.492C205.638 176.702 205.55 175.855 205.753 174.951C205.9 174.248 206.194 173.625 206.635 173.082C207.077 172.54 207.606 172.111 208.225 171.797C208.849 171.477 209.504 171.311 210.187 171.298L210.212 171.184C209.385 170.867 208.778 170.326 208.388 169.561C208.006 168.792 207.916 167.956 208.118 167.053C208.3 166.192 208.709 165.459 209.345 164.855C209.981 164.251 210.767 163.817 211.703 163.554C212.64 163.286 213.655 163.231 214.749 163.39C215.831 163.548 216.753 163.884 217.513 164.399C218.281 164.91 218.836 165.539 219.177 166.285C219.525 167.032 219.605 167.836 219.418 168.697C219.221 169.6 218.775 170.359 218.081 170.971C217.392 171.579 216.602 171.917 215.709 171.984L215.684 172.098C216.32 172.302 216.858 172.642 217.299 173.117C217.747 173.586 218.063 174.138 218.248 174.771C218.439 175.406 218.457 176.074 218.304 176.777C218.107 177.681 217.662 178.451 216.969 179.086C216.276 179.715 215.413 180.166 214.379 180.437C213.35 180.709 212.226 180.756 211.007 180.578ZM211.515 178.242C212.147 178.334 212.719 178.307 213.232 178.163C213.747 178.013 214.176 177.761 214.52 177.406C214.863 177.052 215.094 176.619 215.211 176.108C215.321 175.573 215.284 175.082 215.098 174.634C214.919 174.18 214.619 173.802 214.197 173.5C213.781 173.197 213.273 173.003 212.675 172.916C212.07 172.828 211.506 172.867 210.982 173.032C210.459 173.197 210.015 173.467 209.65 173.841C209.292 174.21 209.058 174.662 208.947 175.197C208.83 175.708 208.858 176.179 209.031 176.608C209.205 177.032 209.501 177.388 209.921 177.673C210.347 177.96 210.878 178.149 211.515 178.242ZM213.175 170.62C213.691 170.695 214.17 170.658 214.61 170.509C215.056 170.36 215.435 170.118 215.746 169.781C216.058 169.444 216.269 169.034 216.38 168.549C216.479 168.07 216.455 167.633 216.308 167.241C216.162 166.844 215.91 166.518 215.552 166.263C215.194 166.004 214.754 165.836 214.233 165.76C213.7 165.682 213.208 165.715 212.757 165.857C212.313 165.995 211.94 166.23 211.635 166.561C211.337 166.889 211.138 167.293 211.04 167.773C210.928 168.257 210.945 168.7 211.089 169.104C211.241 169.502 211.494 169.837 211.849 170.107C212.211 170.373 212.652 170.544 213.175 170.62ZM221.584 181.881L231.829 168.841L231.854 168.727L223.522 167.515L224.073 164.983L235.57 166.655L235.006 169.245L224.757 182.343L221.584 181.881ZM241.138 184.961C239.952 184.789 238.941 184.434 238.106 183.896C237.276 183.36 236.673 182.693 236.296 181.897C235.92 181.1 235.818 180.229 235.989 179.282L239.088 179.732C239.018 180.189 239.083 180.605 239.284 180.983C239.486 181.355 239.796 181.667 240.211 181.919C240.627 182.17 241.118 182.337 241.684 182.419C242.288 182.507 242.846 182.482 243.358 182.343C243.872 182.199 244.301 181.958 244.646 181.62C244.992 181.282 245.215 180.868 245.316 180.377C245.432 179.872 245.398 179.406 245.213 178.981C245.028 178.555 244.704 178.195 244.24 177.903C243.782 177.612 243.195 177.414 242.482 177.311L240.99 177.094L241.498 174.757L242.99 174.974C243.578 175.06 244.114 175.033 244.597 174.896C245.086 174.759 245.496 174.527 245.829 174.198C246.162 173.865 246.379 173.456 246.479 172.97C246.588 172.497 246.57 172.07 246.426 171.689C246.289 171.304 246.044 170.985 245.691 170.732C245.343 170.479 244.906 170.314 244.378 170.237C243.862 170.162 243.364 170.185 242.884 170.306C242.404 170.427 241.992 170.64 241.648 170.944C241.306 171.243 241.075 171.624 240.956 172.091L238.014 171.663C238.24 170.729 238.691 169.946 239.367 169.314C240.05 168.678 240.874 168.224 241.84 167.955C242.807 167.679 243.837 167.621 244.93 167.78C246.057 167.944 246.989 168.296 247.727 168.836C248.473 169.372 248.997 170.024 249.3 170.793C249.602 171.562 249.662 172.371 249.477 173.22C249.277 174.163 248.825 174.912 248.121 175.467C247.421 176.023 246.594 176.333 245.639 176.396L245.611 176.526C246.763 176.862 247.576 177.431 248.055 178.23C248.539 179.026 248.664 179.946 248.431 180.991C248.227 181.927 247.775 182.727 247.076 183.389C246.383 184.047 245.521 184.517 244.49 184.8C243.464 185.084 242.347 185.137 241.138 184.961ZM260.969 177.724L260.439 180.158L252.84 179.053L253.37 176.618L260.969 177.724ZM273.424 172.161L269.782 188.892L266.724 188.447L269.724 174.666L269.625 174.651L265.134 176.577L265.738 173.799L270.515 171.738L273.424 172.161ZM274.996 189.65L275.472 187.461L282.572 182.619C283.254 182.14 283.83 181.71 284.299 181.328C284.767 180.946 285.139 180.565 285.415 180.184C285.691 179.803 285.879 179.381 285.98 178.918C286.095 178.389 286.072 177.919 285.912 177.509C285.754 177.092 285.485 176.75 285.107 176.481C284.729 176.213 284.271 176.04 283.732 175.962C283.177 175.881 282.666 175.924 282.199 176.092C281.733 176.254 281.339 176.526 281.018 176.906C280.703 177.288 280.483 177.764 280.358 178.336L277.449 177.913C277.68 176.851 278.126 175.963 278.785 175.25C279.445 174.537 280.25 174.027 281.201 173.722C282.158 173.417 283.193 173.346 284.309 173.508C285.441 173.673 286.39 174.027 287.156 174.571C287.922 175.115 288.461 175.787 288.775 176.585C289.094 177.385 289.151 178.252 288.947 179.189C288.811 179.815 288.557 180.413 288.183 180.982C287.81 181.552 287.238 182.16 286.468 182.807C285.704 183.454 284.661 184.221 283.34 185.108L279.792 187.617L279.767 187.731L287.119 188.801L286.568 191.333L274.996 189.65ZM296.29 192.983C295.065 192.805 294.021 192.443 293.159 191.896C292.303 191.35 291.683 190.684 291.299 189.897C290.921 189.107 290.833 188.259 291.036 187.356C291.183 186.653 291.477 186.03 291.918 185.487C292.36 184.945 292.889 184.516 293.508 184.202C294.133 183.882 294.787 183.716 295.47 183.703L295.494 183.589C294.668 183.272 294.06 182.731 293.671 181.966C293.289 181.197 293.199 180.361 293.401 179.458C293.583 178.597 293.992 177.864 294.628 177.259C295.264 176.656 296.05 176.222 296.986 175.959C297.922 175.691 298.938 175.636 300.031 175.795C301.114 175.953 302.035 176.289 302.797 176.804C303.564 177.315 304.118 177.943 304.46 178.69C304.808 179.437 304.888 180.241 304.701 181.102C304.504 182.005 304.058 182.764 303.364 183.376C302.676 183.984 301.885 184.322 300.992 184.388L300.967 184.503C301.603 184.707 302.141 185.047 302.582 185.521C303.029 185.991 303.346 186.543 303.531 187.176C303.722 187.811 303.741 188.479 303.588 189.182C303.391 190.086 302.945 190.856 302.252 191.49C301.559 192.12 300.696 192.571 299.662 192.842C298.633 193.113 297.509 193.161 296.29 192.983ZM296.798 190.647C297.43 190.739 298.003 190.712 298.516 190.568C299.031 190.418 299.46 190.166 299.803 189.811C300.147 189.457 300.377 189.024 300.494 188.513C300.605 187.978 300.567 187.487 300.381 187.038C300.202 186.585 299.902 186.207 299.48 185.905C299.064 185.602 298.557 185.408 297.958 185.321C297.354 185.233 296.789 185.271 296.266 185.437C295.742 185.602 295.298 185.872 294.933 186.246C294.575 186.615 294.341 187.067 294.23 187.602C294.113 188.113 294.141 188.583 294.314 189.013C294.488 189.437 294.785 189.793 295.204 190.078C295.629 190.365 296.161 190.554 296.798 190.647ZM298.457 183.025C298.974 183.1 299.453 183.063 299.893 182.913C300.339 182.765 300.718 182.523 301.029 182.186C301.341 181.848 301.552 181.439 301.663 180.954C301.762 180.475 301.738 180.038 301.591 179.646C301.445 179.249 301.193 178.923 300.834 178.668C300.477 178.408 300.038 178.241 299.516 178.165C298.983 178.087 298.491 178.119 298.041 178.262C297.597 178.4 297.222 178.634 296.918 178.966C296.62 179.293 296.422 179.698 296.322 180.177C296.212 180.662 296.228 181.105 296.373 181.509C296.524 181.907 296.777 182.241 297.132 182.512C297.494 182.778 297.935 182.949 298.457 183.025ZM312.257 195.306C311.07 195.133 310.059 194.778 309.224 194.241C308.394 193.705 307.791 193.038 307.414 192.241C307.038 191.445 306.936 190.573 307.108 189.626L310.207 190.077C310.136 190.533 310.201 190.95 310.402 191.328C310.605 191.7 310.914 192.012 311.33 192.264C311.746 192.515 312.236 192.682 312.802 192.764C313.407 192.852 313.964 192.826 314.477 192.687C314.99 192.543 315.419 192.302 315.765 191.965C316.11 191.627 316.334 191.213 316.435 190.722C316.551 190.217 316.516 189.75 316.331 189.325C316.146 188.899 315.822 188.54 315.358 188.248C314.9 187.956 314.314 187.759 313.6 187.655L312.108 187.438L312.616 185.102L314.108 185.319C314.697 185.404 315.232 185.378 315.715 185.24C316.205 185.104 316.615 184.871 316.947 184.543C317.281 184.209 317.497 183.8 317.597 183.314C317.706 182.841 317.688 182.414 317.544 182.034C317.407 181.649 317.162 181.329 316.809 181.076C316.462 180.823 316.024 180.659 315.496 180.582C314.98 180.507 314.482 180.529 314.002 180.651C313.522 180.772 313.11 180.985 312.766 181.288C312.424 181.587 312.193 181.969 312.075 182.435L309.132 182.007C309.358 181.074 309.81 180.291 310.485 179.659C311.168 179.022 311.992 178.569 312.958 178.299C313.925 178.024 314.955 177.966 316.049 178.125C317.175 178.289 318.107 178.641 318.845 179.181C319.591 179.716 320.115 180.368 320.418 181.138C320.721 181.906 320.78 182.715 320.595 183.565C320.396 184.508 319.943 185.257 319.239 185.812C318.539 186.367 317.712 186.677 316.757 186.74L316.729 186.871C317.881 187.207 318.695 187.775 319.173 188.575C319.657 189.371 319.783 190.291 319.55 191.335C319.346 192.272 318.894 193.072 318.194 193.734C317.501 194.392 316.639 194.862 315.609 195.144C314.583 195.428 313.466 195.482 312.257 195.306Z" fill="white"/>
<path d="M58.8239 119.64L57.8019 119.492C57.8049 119.192 57.7548 118.921 57.6517 118.678C57.5515 118.436 57.4105 118.224 57.2287 118.043C57.0504 117.86 56.8404 117.711 56.5987 117.598C56.3571 117.484 56.0962 117.407 55.8159 117.366C55.305 117.292 54.8142 117.352 54.3436 117.548C53.8758 117.744 53.4653 118.073 53.1124 118.536C52.7621 118.999 52.5082 119.593 52.3505 120.317C52.1929 121.041 52.1805 121.67 52.3139 122.204C52.4499 122.738 52.6961 123.163 53.0524 123.479C53.4115 123.795 53.8466 123.99 54.3576 124.064C54.6378 124.105 54.9153 124.106 55.1901 124.068C55.465 124.029 55.7245 123.95 55.9687 123.831C56.2162 123.71 56.4381 123.55 56.6344 123.351C56.8342 123.149 56.9957 122.909 57.1189 122.629L58.1409 122.778C57.971 123.194 57.7475 123.556 57.4708 123.864C57.1939 124.172 56.8786 124.423 56.5249 124.616C56.1717 124.806 55.7936 124.935 55.3906 125.002C54.9902 125.071 54.5771 125.074 54.1513 125.012C53.4315 124.907 52.8293 124.64 52.3448 124.21C51.8602 123.78 51.5271 123.22 51.3456 122.531C51.1641 121.841 51.1694 121.055 51.3614 120.173C51.5535 119.291 51.8802 118.552 52.3416 117.956C52.803 117.36 53.3518 116.929 53.9881 116.662C54.6244 116.395 55.3024 116.314 56.0222 116.418C56.448 116.48 56.8345 116.6 57.1815 116.776C57.5311 116.954 57.8313 117.183 58.082 117.463C58.3332 117.742 58.5236 118.064 58.6535 118.431C58.7839 118.796 58.8406 119.199 58.8239 119.64ZM60.922 126.031C60.5208 125.973 60.1733 125.844 59.8789 125.647C59.5852 125.447 59.3733 125.19 59.2433 124.876C59.1137 124.56 59.0935 124.197 59.1824 123.789C59.2606 123.429 59.3956 123.148 59.587 122.946C59.7791 122.74 60.0086 122.591 60.2754 122.498C60.5423 122.405 60.8267 122.348 61.1289 122.327C61.4343 122.304 61.7381 122.295 62.0404 122.3C62.4358 122.306 62.7556 122.315 62.9999 122.325C63.2476 122.333 63.4331 122.314 63.5566 122.268C63.6829 122.221 63.763 122.12 63.7968 121.965L63.8039 121.933C63.8917 121.529 63.8487 121.2 63.6746 120.945C63.5035 120.689 63.194 120.529 62.7462 120.464C62.2819 120.396 61.896 120.444 61.5884 120.607C61.2807 120.771 61.0485 120.959 60.8915 121.172L60.0395 120.711C60.2875 120.353 60.5719 120.088 60.8928 119.916C61.2171 119.742 61.5519 119.635 61.8972 119.599C62.2458 119.56 62.5795 119.563 62.8982 119.609C63.1015 119.639 63.3297 119.697 63.5828 119.785C63.8391 119.87 64.075 120.004 64.2902 120.187C64.5082 120.37 64.6673 120.622 64.7675 120.943C64.8677 121.264 64.8636 121.674 64.7551 122.172L63.8552 126.306L62.8827 126.164L63.0677 125.314L63.0182 125.307C62.9225 125.434 62.781 125.563 62.5933 125.696C62.4057 125.829 62.1722 125.932 61.8931 126.003C61.6138 126.075 61.2902 126.084 60.922 126.031ZM61.2589 125.186C61.6435 125.242 61.984 125.215 62.2803 125.103C62.5795 124.992 62.8222 124.828 63.0083 124.611C63.1973 124.394 63.3201 124.155 63.3771 123.893L63.5691 123.011C63.5173 123.054 63.4169 123.085 63.2679 123.106C63.1222 123.124 62.9554 123.135 62.7676 123.138C62.5831 123.14 62.4033 123.139 62.2283 123.136C62.0565 123.131 61.9169 123.127 61.8095 123.126C61.5497 123.121 61.3018 123.14 61.0661 123.182C60.8336 123.221 60.6344 123.303 60.4683 123.428C60.3057 123.55 60.1976 123.734 60.1443 123.979C60.0713 124.314 60.1413 124.585 60.3539 124.794C60.5698 124.999 60.8715 125.13 61.2589 125.186ZM65.6303 126.564L66.9961 120.29L67.9357 120.427L67.7294 121.374L67.7954 121.384C67.9784 121.09 68.2419 120.869 68.5862 120.719C68.9305 120.57 69.2923 120.522 69.6714 120.577C69.7429 120.588 69.8318 120.602 69.9383 120.621C70.0449 120.639 70.125 120.655 70.1789 120.668L69.9654 121.649C69.9343 121.635 69.8613 121.612 69.7467 121.579C69.6355 121.543 69.5153 121.516 69.3862 121.497C69.0785 121.452 68.7898 121.476 68.5202 121.569C68.254 121.66 68.0264 121.807 67.8377 122.009C67.6523 122.21 67.5288 122.451 67.4672 122.735L66.6028 126.705L65.6303 126.564ZM72.117 127.642C71.5895 127.565 71.1526 127.365 70.8062 127.043C70.4606 126.717 70.2263 126.296 70.1039 125.777C69.982 125.257 69.9934 124.664 70.138 124C70.2815 123.341 70.5199 122.786 70.8535 122.334C71.1871 121.882 71.5858 121.555 72.05 121.349C72.514 121.144 73.0127 121.081 73.5456 121.158C73.9577 121.218 74.2684 121.334 74.4778 121.504C74.6904 121.673 74.8413 121.852 74.9304 122.043C75.0228 122.23 75.0927 122.384 75.1405 122.503L75.223 122.515L75.8952 119.427L76.8677 119.568L75.0466 127.933L74.107 127.797L74.3169 126.833L74.2015 126.816C74.1051 126.92 73.9721 127.05 73.8023 127.204C73.6331 127.357 73.4114 127.483 73.1373 127.584C72.8636 127.682 72.5236 127.701 72.117 127.642ZM72.4374 126.795C72.8275 126.852 73.1791 126.799 73.4921 126.637C73.8058 126.472 74.0718 126.22 74.2902 125.881C74.5092 125.539 74.6704 125.131 74.7735 124.657C74.8754 124.189 74.8959 123.769 74.8351 123.398C74.7747 123.024 74.6314 122.719 74.4049 122.484C74.1788 122.246 73.868 122.099 73.4724 122.041C73.0603 121.981 72.6942 122.035 72.3738 122.205C72.0567 122.373 71.7907 122.625 71.5757 122.962C71.3639 123.296 71.21 123.684 71.1141 124.125C71.0168 124.572 70.9972 124.987 71.055 125.373C71.1164 125.755 71.2596 126.073 71.4848 126.328C71.7132 126.581 72.0308 126.736 72.4374 126.795ZM88.8719 121.314L87.0508 129.679L86.0618 129.536L82.8927 122.299L82.8102 122.287L81.3804 128.855L80.3584 128.706L82.1795 120.341L83.1686 120.485L86.3505 127.74L86.4329 127.752L87.8664 121.168L88.8719 121.314ZM93.5114 127.973L94.3188 124.264L95.2913 124.406L93.9255 130.679L92.9529 130.538L93.1841 129.476L93.1182 129.467C92.9005 129.763 92.6107 130.001 92.249 130.178C91.8878 130.353 91.4681 130.407 90.99 130.337C90.5944 130.279 90.2616 130.142 89.9911 129.926C89.7215 129.707 89.5365 129.411 89.4366 129.036C89.3373 128.659 89.3456 128.204 89.4619 127.67L90.3298 123.684L91.3023 123.825L90.4487 127.746C90.349 128.204 90.3987 128.587 90.5977 128.897C90.7993 129.208 91.1022 129.392 91.5061 129.451C91.7478 129.486 92.007 129.461 92.2837 129.374C92.5631 129.289 92.8155 129.132 93.0411 128.903C93.2693 128.675 93.4261 128.365 93.5114 127.973ZM95.7068 130.938L97.0726 124.665L98.0121 124.801L97.7988 125.781L97.8813 125.793C98.0861 125.477 98.3554 125.249 98.6898 125.106C99.0246 124.961 99.3982 124.918 99.81 124.978C100.228 125.039 100.555 125.184 100.792 125.412C101.031 125.638 101.193 125.929 101.277 126.287L101.343 126.297C101.576 125.997 101.875 125.775 102.24 125.631C102.607 125.485 103.017 125.445 103.47 125.511C104.036 125.593 104.46 125.836 104.743 126.24C105.028 126.641 105.089 127.21 104.929 127.948L104.015 132.147L103.042 132.005L103.956 127.806C104.057 127.343 104.001 126.994 103.789 126.758C103.577 126.522 103.297 126.379 102.951 126.329C102.507 126.264 102.132 126.347 101.83 126.578C101.528 126.807 101.332 127.124 101.244 127.53L100.355 131.615L99.3663 131.471L100.302 127.174C100.379 126.817 100.325 126.513 100.139 126.261C99.9536 126.006 99.6766 125.853 99.3085 125.799C99.0557 125.762 98.805 125.794 98.5562 125.896C98.31 125.998 98.0939 126.157 97.9077 126.375C97.7248 126.59 97.6 126.851 97.5331 127.158L96.6793 131.08L95.7068 130.938ZM105.924 132.425L107.745 124.06L108.718 124.201L108.046 127.289L108.129 127.301C108.223 127.203 108.353 127.078 108.516 126.928C108.682 126.775 108.9 126.649 109.167 126.55C109.439 126.449 109.78 126.429 110.193 126.489C110.726 126.566 111.167 126.767 111.516 127.09C111.865 127.413 112.101 127.833 112.223 128.352C112.346 128.87 112.336 129.458 112.192 130.117C112.047 130.781 111.808 131.34 111.474 131.795C111.14 132.247 110.742 132.576 110.28 132.785C109.819 132.99 109.325 133.054 108.797 132.978C108.391 132.918 108.08 132.804 107.864 132.635C107.65 132.464 107.494 132.282 107.4 132.091C107.306 131.898 107.236 131.739 107.189 131.614L107.074 131.597L106.864 132.561L105.924 132.425ZM107.564 129.427C107.461 129.9 107.439 130.329 107.5 130.712C107.562 131.091 107.706 131.403 107.931 131.646C108.156 131.887 108.464 132.035 108.854 132.092C109.26 132.151 109.623 132.095 109.941 131.922C110.263 131.747 110.532 131.488 110.748 131.146C110.967 130.801 111.126 130.406 111.223 129.959C111.319 129.518 111.337 129.111 111.277 128.736C111.219 128.36 111.076 128.048 110.846 127.801C110.62 127.552 110.301 127.398 109.889 127.338C109.493 127.281 109.139 127.331 108.827 127.491C108.515 127.648 108.252 127.893 108.038 128.227C107.823 128.559 107.666 128.959 107.564 129.427ZM115.625 133.971C115.015 133.882 114.519 133.672 114.134 133.341C113.754 133.007 113.496 132.582 113.362 132.066C113.231 131.547 113.236 130.965 113.376 130.323C113.516 129.68 113.757 129.131 114.1 128.675C114.446 128.217 114.862 127.881 115.348 127.669C115.837 127.453 116.367 127.387 116.939 127.47C117.268 127.518 117.582 127.62 117.88 127.775C118.178 127.931 118.432 128.15 118.642 128.434C118.853 128.715 118.993 129.067 119.063 129.49C119.132 129.913 119.103 130.417 118.976 131.003L118.887 131.411L114.007 130.701L114.189 129.868L118.079 130.434C118.156 130.08 118.154 129.754 118.071 129.455C117.991 129.157 117.839 128.908 117.613 128.71C117.389 128.511 117.102 128.387 116.75 128.336C116.363 128.28 116.007 128.326 115.682 128.475C115.361 128.623 115.093 128.837 114.875 129.116C114.658 129.397 114.513 129.71 114.437 130.056L114.316 130.611C114.213 131.085 114.208 131.499 114.301 131.852C114.398 132.204 114.576 132.486 114.835 132.701C115.095 132.913 115.421 133.047 115.814 133.104C116.069 133.142 116.308 133.14 116.53 133.1C116.755 133.056 116.958 132.973 117.141 132.851C117.323 132.726 117.48 132.561 117.61 132.355L118.492 132.752C118.325 133.054 118.098 133.308 117.813 133.513C117.528 133.716 117.199 133.859 116.826 133.943C116.454 134.024 116.054 134.033 115.625 133.971ZM119.755 134.436L121.121 128.163L122.06 128.299L121.853 129.247L121.919 129.256C122.102 128.963 122.366 128.741 122.711 128.592C123.054 128.442 123.416 128.395 123.796 128.45C123.867 128.46 123.956 128.475 124.062 128.493C124.169 128.512 124.249 128.528 124.303 128.541L124.089 129.521C124.059 129.508 123.986 129.485 123.871 129.452C123.76 129.416 123.639 129.389 123.51 129.37C123.203 129.325 122.914 129.349 122.645 129.442C122.378 129.532 122.151 129.679 121.962 129.882C121.776 130.082 121.653 130.324 121.591 130.607L120.727 134.578L119.755 134.436Z" fill="white"/>
<path d="M345.798 259.527C344.779 259.379 343.962 258.997 343.343 258.38C342.73 257.76 342.333 256.938 342.153 255.913C341.976 254.884 342.038 253.686 342.335 252.318C342.638 250.95 343.087 249.814 343.683 248.911C344.285 248.004 345.003 247.349 345.839 246.949C346.678 246.548 347.605 246.422 348.619 246.569C349.633 246.717 350.449 247.097 351.068 247.709C351.687 248.322 352.086 249.138 352.263 250.159C352.444 251.18 352.387 252.372 352.09 253.736C351.791 255.109 351.34 256.253 350.737 257.168C350.139 258.079 349.42 258.738 348.579 259.142C347.743 259.547 346.815 259.675 345.798 259.527ZM346.215 257.61C347.006 257.725 347.715 257.43 348.34 256.724C348.971 256.015 349.45 254.907 349.778 253.4C349.995 252.403 350.072 251.551 350.01 250.842C349.947 250.133 349.761 249.58 349.453 249.181C349.145 248.778 348.73 248.538 348.207 248.462C347.42 248.348 346.713 248.645 346.086 249.355C345.461 250.061 344.983 251.16 344.653 252.655C344.432 253.655 344.35 254.511 344.407 255.223C344.469 255.936 344.653 256.494 344.961 256.897C345.27 257.295 345.688 257.533 346.215 257.61ZM357.243 261.123C356.324 260.989 355.541 260.718 354.895 260.307C354.253 259.898 353.788 259.398 353.5 258.808C353.216 258.215 353.15 257.58 353.302 256.902C353.413 256.375 353.634 255.908 353.965 255.501C354.295 255.094 354.693 254.772 355.157 254.536C355.626 254.297 356.116 254.172 356.629 254.162L356.647 254.077C356.027 253.839 355.571 253.434 355.279 252.86C354.993 252.283 354.925 251.656 355.077 250.979C355.213 250.333 355.52 249.783 355.997 249.33C356.474 248.877 357.064 248.552 357.765 248.354C358.468 248.153 359.23 248.113 360.049 248.232C360.861 248.35 361.553 248.602 362.123 248.988C362.699 249.372 363.115 249.843 363.372 250.402C363.632 250.963 363.692 251.566 363.552 252.212C363.404 252.889 363.069 253.458 362.549 253.918C362.033 254.374 361.44 254.626 360.77 254.677L360.752 254.762C361.228 254.916 361.632 255.17 361.962 255.526C362.299 255.878 362.535 256.293 362.674 256.768C362.818 257.244 362.831 257.745 362.717 258.272C362.569 258.95 362.235 259.527 361.715 260.003C361.195 260.476 360.548 260.813 359.773 261.016C359.001 261.221 358.158 261.256 357.243 261.123ZM357.624 259.37C358.099 259.439 358.528 259.42 358.913 259.312C359.299 259.199 359.621 259.01 359.878 258.744C360.136 258.478 360.308 258.154 360.396 257.77C360.479 257.369 360.452 257 360.311 256.664C360.177 256.324 359.953 256.041 359.636 255.814C359.324 255.587 358.944 255.441 358.494 255.376C358.041 255.31 357.618 255.339 357.225 255.463C356.832 255.587 356.5 255.789 356.226 256.07C355.958 256.347 355.781 256.686 355.699 257.086C355.611 257.47 355.632 257.823 355.762 258.145C355.892 258.464 356.115 258.73 356.429 258.944C356.749 259.158 357.146 259.301 357.624 259.37ZM358.869 253.654C359.257 253.71 359.615 253.682 359.946 253.571C360.28 253.459 360.565 253.277 360.798 253.024C361.032 252.772 361.19 252.464 361.273 252.101C361.347 251.741 361.329 251.414 361.219 251.12C361.11 250.822 360.921 250.577 360.652 250.387C360.384 250.192 360.054 250.065 359.662 250.008C359.263 249.95 358.894 249.975 358.556 250.082C358.223 250.185 357.942 250.361 357.715 250.61C357.491 250.856 357.342 251.158 357.268 251.519C357.184 251.882 357.197 252.214 357.306 252.516C357.419 252.816 357.609 253.066 357.875 253.27C358.147 253.469 358.478 253.597 358.869 253.654ZM372.069 249.55L364.718 263.98L362.759 263.695L370.11 249.265L372.069 249.55ZM370.612 262.89L370.97 261.249L376.294 257.618C376.806 257.257 377.238 256.935 377.589 256.649C377.941 256.363 378.22 256.077 378.427 255.791C378.633 255.505 378.774 255.188 378.85 254.841C378.936 254.445 378.92 254.093 378.8 253.784C378.681 253.472 378.479 253.216 378.195 253.014C377.912 252.813 377.569 252.683 377.165 252.624C376.748 252.563 376.365 252.596 376.014 252.722C375.664 252.844 375.37 253.047 375.129 253.333C374.893 253.619 374.727 253.976 374.634 254.405L372.452 254.088C372.626 253.291 372.959 252.625 373.454 252.091C373.949 251.555 374.553 251.174 375.266 250.944C375.983 250.716 376.76 250.663 377.597 250.784C378.446 250.908 379.157 251.174 379.732 251.581C380.306 251.99 380.711 252.493 380.946 253.092C381.185 253.691 381.229 254.342 381.076 255.045C380.974 255.515 380.783 255.963 380.503 256.39C380.223 256.817 379.794 257.273 379.217 257.758C378.643 258.243 377.861 258.819 376.87 259.484L374.209 261.366L374.191 261.452L379.704 262.254L379.291 264.153L370.612 262.89ZM381.423 264.463L381.781 262.821L387.106 259.19C387.617 258.83 388.049 258.507 388.401 258.222C388.752 257.935 389.031 257.649 389.238 257.364C389.444 257.078 389.586 256.761 389.661 256.414C389.748 256.017 389.731 255.666 389.611 255.357C389.492 255.045 389.29 254.788 389.006 254.587C388.723 254.385 388.38 254.255 387.976 254.196C387.559 254.136 387.176 254.168 386.825 254.294C386.476 254.417 386.181 254.62 385.94 254.905C385.704 255.191 385.538 255.548 385.445 255.978L383.263 255.66C383.437 254.864 383.771 254.198 384.265 253.663C384.76 253.128 385.364 252.746 386.077 252.517C386.795 252.288 387.571 252.235 388.408 252.357C389.257 252.48 389.969 252.746 390.543 253.154C391.117 253.562 391.522 254.065 391.757 254.664C391.997 255.264 392.04 255.915 391.887 256.617C391.785 257.087 391.594 257.536 391.314 257.962C391.034 258.389 390.605 258.846 390.028 259.33C389.454 259.816 388.672 260.391 387.681 261.056L385.02 262.939L385.002 263.024L390.515 263.826L390.102 265.725L381.423 264.463Z" fill="white"/>
<path d="M348.401 226.555L349.374 233.961L349.472 233.976L353.511 227.299L354.583 227.454L349.662 235.369L348.608 235.215L347.33 226.399L348.401 226.555ZM355.185 236.324C354.784 236.266 354.437 236.137 354.143 235.94C353.849 235.74 353.637 235.483 353.507 235.169C353.377 234.853 353.357 234.49 353.446 234.082C353.524 233.722 353.659 233.441 353.851 233.239C354.043 233.033 354.272 232.884 354.539 232.791C354.806 232.698 355.09 232.641 355.392 232.62C355.698 232.598 356.001 232.588 356.304 232.593C356.699 232.599 357.019 232.608 357.263 232.618C357.511 232.626 357.697 232.607 357.82 232.561C357.946 232.514 358.027 232.413 358.061 232.258L358.068 232.226C358.155 231.822 358.112 231.493 357.938 231.238C357.767 230.982 357.457 230.822 357.01 230.757C356.545 230.689 356.16 230.737 355.852 230.9C355.544 231.064 355.312 231.252 355.155 231.465L354.303 231.004C354.551 230.646 354.835 230.381 355.156 230.209C355.481 230.035 355.816 229.928 356.16 229.892C356.509 229.853 356.843 229.856 357.162 229.902C357.365 229.932 357.593 229.99 357.846 230.078C358.103 230.163 358.339 230.297 358.554 230.48C358.772 230.663 358.931 230.915 359.031 231.236C359.131 231.557 359.127 231.967 359.018 232.465L358.118 236.599L357.146 236.457L357.331 235.607L357.281 235.6C357.186 235.727 357.045 235.856 356.857 235.989C356.669 236.122 356.436 236.225 356.156 236.296C355.877 236.368 355.554 236.378 355.185 236.324ZM355.522 235.479C355.907 235.535 356.247 235.508 356.544 235.396C356.843 235.285 357.086 235.121 357.271 234.904C357.461 234.687 357.584 234.448 357.641 234.186L357.833 233.304C357.781 233.347 357.681 233.378 357.532 233.399C357.386 233.417 357.219 233.428 357.031 233.431C356.846 233.433 356.667 233.432 356.492 233.429C356.32 233.424 356.18 233.42 356.073 233.419C355.813 233.415 355.565 233.433 355.33 233.475C355.097 233.514 354.898 233.596 354.732 233.721C354.569 233.843 354.461 234.027 354.408 234.272C354.335 234.607 354.404 234.878 354.617 235.087C354.834 235.292 355.135 235.423 355.522 235.479ZM362.688 228.633L360.866 236.998L359.894 236.857L361.715 228.492L362.688 228.633ZM362.648 237.257L364.014 230.984L364.986 231.125L363.62 237.399L362.648 237.257ZM364.736 230.01C364.546 229.982 364.397 229.894 364.287 229.746C364.18 229.599 364.146 229.435 364.186 229.255C364.225 229.076 364.326 228.932 364.488 228.823C364.653 228.715 364.83 228.675 365.02 228.703C365.21 228.73 365.358 228.818 365.465 228.965C365.574 229.113 365.609 229.277 365.57 229.457C365.531 229.636 365.429 229.78 365.264 229.888C365.101 229.997 364.925 230.037 364.736 230.01ZM367.763 238.136C367.236 238.06 366.799 237.86 366.452 237.537C366.107 237.211 365.873 236.79 365.75 236.271C365.628 235.751 365.64 235.158 365.784 234.494C365.928 233.835 366.166 233.28 366.499 232.828C366.834 232.376 367.232 232.049 367.696 231.843C368.16 231.639 368.659 231.575 369.192 231.652C369.604 231.712 369.915 231.828 370.124 231.998C370.337 232.167 370.488 232.347 370.577 232.537C370.669 232.724 370.739 232.878 370.787 232.997L370.869 233.009L371.541 229.921L372.514 230.062L370.693 238.428L369.753 238.291L369.963 237.327L369.848 237.31C369.751 237.414 369.618 237.544 369.448 237.698C369.279 237.851 369.058 237.978 368.784 238.078C368.51 238.176 368.17 238.196 367.763 238.136ZM368.084 237.289C368.474 237.346 368.825 237.293 369.139 237.131C369.452 236.966 369.718 236.714 369.936 236.375C370.155 236.033 370.316 235.625 370.42 235.151C370.522 234.683 370.542 234.263 370.481 233.892C370.42 233.518 370.277 233.213 370.051 232.978C369.825 232.74 369.514 232.593 369.119 232.535C368.707 232.475 368.34 232.53 368.02 232.7C367.702 232.867 367.437 233.119 367.222 233.456C367.01 233.79 366.856 234.178 366.76 234.619C366.663 235.066 366.643 235.482 366.701 235.867C366.763 236.249 366.906 236.568 367.131 236.822C367.359 237.075 367.677 237.23 368.084 237.289ZM377.169 231.667L377.364 230.768L383.694 231.689L383.498 232.587L380.844 232.201L379.219 239.668L378.197 239.519L379.823 232.053L377.169 231.667ZM385.112 236.631L384.291 240.405L383.318 240.264L385.139 231.899L386.112 232.04L385.443 235.112L385.525 235.123C385.744 234.822 386.023 234.597 386.361 234.449C386.703 234.299 387.122 234.26 387.619 234.333C388.051 234.395 388.41 234.536 388.697 234.755C388.984 234.971 389.179 235.268 389.281 235.645C389.386 236.02 389.38 236.477 389.263 237.016L388.395 241.002L387.423 240.861L388.276 236.939C388.385 236.441 388.338 236.037 388.136 235.727C387.938 235.414 387.61 235.225 387.15 235.158C386.832 235.112 386.532 235.136 386.25 235.233C385.971 235.331 385.731 235.496 385.529 235.731C385.331 235.967 385.192 236.266 385.112 236.631ZM390.174 241.261L391.54 234.987L392.479 235.124L392.273 236.072L392.339 236.081C392.522 235.787 392.786 235.566 393.13 235.417C393.475 235.267 393.836 235.22 394.215 235.275C394.286 235.285 394.376 235.3 394.482 235.318C394.589 235.337 394.669 235.353 394.723 235.366L394.51 236.346C394.478 236.333 394.405 236.31 394.291 236.277C394.18 236.241 394.059 236.213 393.93 236.195C393.622 236.15 393.334 236.174 393.064 236.267C392.798 236.357 392.57 236.504 392.382 236.707C392.197 236.907 392.073 237.149 392.011 237.432L391.147 241.403L390.174 241.261ZM399.039 239.904L399.847 236.196L400.819 236.337L399.454 242.611L398.481 242.469L398.712 241.408L398.646 241.398C398.429 241.695 398.138 241.932 397.777 242.11C397.416 242.285 396.996 242.338 396.518 242.269C396.123 242.211 395.79 242.074 395.519 241.858C395.249 241.638 395.064 241.342 394.965 240.968C394.865 240.591 394.874 240.136 394.99 239.602L395.858 235.615L396.83 235.757L395.977 239.678C395.877 240.136 395.927 240.519 396.126 240.829C396.327 241.139 396.63 241.324 397.034 241.382C397.276 241.418 397.535 241.392 397.812 241.306C398.091 241.22 398.343 241.063 398.569 240.834C398.797 240.607 398.954 240.296 399.039 239.904Z" fill="white"/>
<path d="M133.625 50.3545L134.997 50.5541L136.523 58.8353L136.635 58.8515L141.562 51.5089L142.934 51.7085L140.885 61.1195L139.81 60.9631L141.367 53.813L141.274 53.7995L136.75 60.518L135.712 60.367L134.301 52.7853L134.208 52.7718L132.652 59.9219L131.576 59.7654L133.625 50.3545ZM145.102 61.9035C144.65 61.8378 144.26 61.694 143.929 61.4721C143.598 61.247 143.36 60.9579 143.214 60.6048C143.067 60.2485 143.045 59.8407 143.145 59.3812C143.233 58.9768 143.385 58.6607 143.6 58.433C143.816 58.202 144.074 58.0341 144.374 57.9292C144.675 57.8244 144.995 57.7604 145.334 57.7371C145.678 57.7112 146.02 57.7009 146.36 57.7061C146.804 57.7139 147.164 57.7235 147.44 57.7351C147.718 57.7441 147.927 57.7223 148.066 57.6697C148.208 57.6177 148.298 57.5044 148.336 57.3298L148.344 57.293C148.443 56.8397 148.394 56.4691 148.198 56.1815C148.006 55.8943 147.658 55.7141 147.154 55.6408C146.632 55.5649 146.197 55.6186 145.851 55.8021C145.505 55.9857 145.244 56.1973 145.067 56.4372L144.109 55.9185C144.388 55.5166 144.708 55.2186 145.069 55.0246C145.434 54.8281 145.81 54.709 146.199 54.6675C146.591 54.6235 146.967 54.6276 147.325 54.6797C147.554 54.7129 147.81 54.7786 148.095 54.877C148.384 54.9727 148.649 55.1235 148.891 55.3294C149.137 55.5357 149.315 55.8193 149.428 56.1802C149.541 56.5411 149.536 57.0019 149.414 57.5625L148.402 62.2128L147.307 62.0536L147.516 61.0979L147.46 61.0897C147.352 61.2321 147.193 61.3781 146.982 61.5275C146.771 61.6769 146.508 61.7921 146.195 61.8728C145.88 61.9535 145.516 61.9638 145.102 61.9035ZM145.481 60.9536C145.913 61.0165 146.297 60.9853 146.63 60.8599C146.967 60.7352 147.24 60.5504 147.449 60.3059C147.662 60.0619 147.8 59.7928 147.864 59.4987L148.08 58.5061C148.021 58.5545 147.908 58.5902 147.741 58.6133C147.577 58.6337 147.389 58.6459 147.178 58.65C146.971 58.6514 146.768 58.6503 146.571 58.647C146.378 58.6411 146.221 58.6371 146.1 58.6354C145.808 58.6308 145.529 58.6519 145.264 58.6986C145.002 58.7427 144.778 58.8349 144.591 58.9753C144.408 59.1131 144.287 59.3198 144.227 59.5955C144.145 59.9723 144.224 60.2777 144.462 60.5115C144.705 60.7428 145.045 60.8902 145.481 60.9536ZM156.635 57.7594L155.592 57.8922C155.566 57.7209 155.509 57.5498 155.422 57.3791C155.338 57.2058 155.206 57.0538 155.023 56.923C154.841 56.7922 154.591 56.7037 154.273 56.6574C153.837 56.594 153.453 56.6407 153.119 56.7976C152.789 56.9519 152.591 57.1807 152.525 57.4839C152.466 57.7535 152.518 57.9808 152.682 58.1658C152.846 58.3508 153.127 58.526 153.524 58.6913L154.525 59.1023C155.128 59.3481 155.552 59.6514 155.796 60.0124C156.039 60.3703 156.108 60.7958 156 61.289C155.912 61.6934 155.717 62.0379 155.412 62.3223C155.111 62.6072 154.732 62.8112 154.274 62.9342C153.817 63.0574 153.312 63.0787 152.759 62.9982C152.033 62.8926 151.465 62.6489 151.058 62.2673C150.649 61.8855 150.447 61.3853 150.451 60.7663L151.546 60.6601C151.562 61.0543 151.687 61.3664 151.921 61.5964C152.158 61.8268 152.5 61.9746 152.949 62.0398C153.458 62.114 153.886 62.0656 154.233 61.8948C154.583 61.7213 154.791 61.483 154.858 61.1797C154.911 60.9346 154.869 60.7167 154.732 60.5262C154.595 60.3325 154.357 60.1683 154.016 60.0333L152.89 59.585C152.271 59.337 151.843 59.0299 151.608 58.6637C151.375 58.2949 151.312 57.867 151.418 57.3799C151.505 56.9817 151.695 56.6458 151.987 56.3723C152.282 56.0991 152.645 55.9038 153.076 55.7864C153.509 55.6693 153.977 55.6472 154.477 55.72C155.182 55.8225 155.702 56.0561 156.037 56.421C156.375 56.7861 156.574 57.2323 156.635 57.7594ZM161.853 56.8876L161.653 57.8066L157.962 57.2699L158.163 56.3508L161.853 56.8876ZM159.606 54.8162L160.701 54.9754L159.236 61.7028C159.169 62.0091 159.164 62.2453 159.22 62.4116C159.28 62.5752 159.376 62.6934 159.507 62.7662C159.641 62.8363 159.789 62.8831 159.95 62.9065C160.07 62.924 160.17 62.9322 160.25 62.9312C160.331 62.9271 160.395 62.9238 160.443 62.9214L160.454 63.928C160.374 63.9447 160.264 63.9573 160.126 63.9655C159.986 63.9768 159.814 63.9675 159.61 63.9379C159.301 63.8929 159.012 63.783 158.744 63.6081C158.479 63.4336 158.279 63.1976 158.143 62.8996C158.01 62.6022 157.988 62.2482 158.078 61.8377L159.606 54.8162ZM164.839 64.7553C164.153 64.6555 163.594 64.4193 163.161 64.0468C162.733 63.6715 162.443 63.1933 162.292 62.6119C162.146 62.028 162.151 61.3746 162.308 60.6516C162.466 59.9286 162.737 59.3108 163.123 58.7979C163.512 58.2826 163.981 57.9051 164.527 57.6653C165.077 57.423 165.674 57.3486 166.317 57.4421C166.687 57.496 167.04 57.6105 167.375 57.7857C167.71 57.9608 167.996 58.2078 168.232 58.5266C168.47 58.8425 168.627 59.2383 168.706 59.7143C168.784 60.1903 168.752 60.7576 168.608 61.4163L168.508 61.8758L163.019 61.0773L163.223 60.1399L167.6 60.7765C167.686 60.3783 167.683 60.0112 167.59 59.6753C167.501 59.34 167.329 59.0605 167.075 58.837C166.823 58.614 166.5 58.4737 166.104 58.4162C165.669 58.3528 165.268 58.4052 164.903 58.5733C164.542 58.7389 164.239 58.9793 163.995 59.2947C163.751 59.6099 163.587 59.9621 163.502 60.3512L163.366 60.9761C163.25 61.5092 163.244 61.9746 163.349 62.3722C163.458 62.7672 163.658 63.0856 163.95 63.327C164.242 63.5655 164.609 63.7169 165.051 63.7812C165.339 63.823 165.607 63.821 165.856 63.775C166.109 63.7265 166.338 63.6334 166.544 63.4958C166.749 63.3551 166.925 63.1689 167.072 62.9373L168.064 63.3851C167.876 63.7244 167.621 64.0096 167.3 64.241C166.979 64.4693 166.609 64.6304 166.19 64.7242C165.772 64.8152 165.321 64.8255 164.839 64.7553ZM169.484 65.2793L171.02 58.221L172.078 58.3749L171.846 59.441L171.92 59.4517C172.125 59.1214 172.422 58.8722 172.81 58.7041C173.196 58.536 173.604 58.4831 174.03 58.5451C174.111 58.5568 174.211 58.5729 174.33 58.5935C174.451 58.6142 174.54 58.632 174.601 58.647L174.361 59.7499C174.326 59.7353 174.244 59.7092 174.115 59.6715C173.99 59.6312 173.854 59.6004 173.709 59.5793C173.363 59.529 173.039 59.556 172.735 59.6604C172.436 59.7622 172.18 59.9273 171.968 60.1556C171.758 60.3812 171.62 60.6533 171.551 60.9719L170.578 65.4385L169.484 65.2793ZM176.985 66.5221C176.318 66.425 175.777 66.1851 175.363 65.8027C174.949 65.42 174.671 64.9356 174.532 64.3496C174.391 63.7634 174.398 63.1181 174.551 62.4134C174.707 61.6966 174.978 61.0833 175.363 60.5735C175.752 60.0613 176.22 59.6853 176.766 59.4455C177.316 59.2032 177.913 59.1288 178.556 59.2223C179.056 59.2951 179.487 59.4526 179.849 59.6949C180.211 59.9371 180.484 60.2423 180.669 60.6106C180.853 60.9787 180.928 61.3878 180.894 61.838L179.8 61.6789C179.787 61.3451 179.663 61.0331 179.43 60.7432C179.2 60.4507 178.844 60.2693 178.362 60.1991C177.935 60.1371 177.538 60.193 177.168 60.3669C176.803 60.5381 176.487 60.8097 176.22 61.1818C175.959 61.5515 175.769 62.0027 175.653 62.5358C175.534 63.0811 175.517 63.5684 175.603 63.998C175.691 64.428 175.87 64.778 176.14 65.048C176.412 65.3184 176.765 65.485 177.197 65.5479C177.482 65.5894 177.75 65.5778 178.004 65.5136C178.257 65.4493 178.484 65.3368 178.685 65.1764C178.885 65.0159 179.048 64.812 179.172 64.5647L180.266 64.7238C180.113 65.1314 179.879 65.4844 179.561 65.7828C179.249 66.0786 178.871 66.2955 178.43 66.4335C177.993 66.5691 177.511 66.5986 176.985 66.5221ZM183.477 67.4853C183.026 67.4197 182.634 67.2758 182.303 67.0539C181.973 66.8288 181.734 66.5397 181.588 66.1866C181.442 65.8303 181.419 65.4225 181.519 64.963C181.607 64.5586 181.759 64.2425 181.975 64.0147C182.191 63.7838 182.449 63.6159 182.749 63.511C183.049 63.4062 183.369 63.3421 183.709 63.3188C184.053 63.293 184.395 63.2826 184.735 63.2879C185.18 63.2957 185.539 63.3053 185.814 63.3169C186.093 63.3258 186.302 63.3041 186.44 63.2515C186.583 63.1995 186.672 63.0862 186.711 62.9116L186.719 62.8748C186.817 62.4214 186.769 62.051 186.573 61.7633C186.381 61.4761 186.033 61.2959 185.529 61.2226C185.006 61.1466 184.572 61.2004 184.226 61.3839C183.88 61.5675 183.619 61.7792 183.442 62.019L182.484 61.5004C182.762 61.0984 183.082 60.8004 183.443 60.6064C183.809 60.4099 184.185 60.2907 184.574 60.2494C184.966 60.2053 185.341 60.2093 185.7 60.2614C185.928 60.2947 186.185 60.3605 186.47 60.4588C186.758 60.5545 187.023 60.7052 187.266 60.9112C187.511 61.1175 187.69 61.4012 187.803 61.762C187.916 62.1229 187.911 62.5836 187.789 63.1442L186.777 67.7946L185.682 67.6354L185.89 66.6796L185.834 66.6715C185.727 66.8139 185.568 66.9599 185.357 67.1093C185.145 67.2587 184.883 67.3738 184.569 67.4545C184.255 67.5352 183.891 67.5455 183.477 67.4853ZM183.856 66.5354C184.288 66.5983 184.671 66.5671 185.004 66.4417C185.341 66.3169 185.614 66.1322 185.824 65.8878C186.036 65.6437 186.174 65.3746 186.238 65.0805L186.454 64.0879C186.396 64.1363 186.283 64.1721 186.115 64.1951C185.952 64.2154 185.764 64.2277 185.553 64.2318C185.345 64.2332 185.143 64.2321 184.946 64.2288C184.753 64.2228 184.596 64.2189 184.475 64.2171C184.183 64.2126 183.904 64.2337 183.639 64.2804C183.377 64.3245 183.153 64.4167 182.966 64.5572C182.783 64.6948 182.662 64.9015 182.602 65.1773C182.52 65.5541 182.598 65.8594 182.837 66.0933C183.081 66.3247 183.42 66.472 183.856 66.5354ZM188.773 68.085L190.31 61.0268L191.367 61.1805L191.135 62.2466L191.209 62.2575C191.415 61.9271 191.712 61.6779 192.099 61.5098C192.486 61.3418 192.893 61.2887 193.32 61.3508C193.4 61.3625 193.5 61.3786 193.62 61.3992C193.74 61.4198 193.83 61.4377 193.89 61.4528L193.65 62.5557C193.615 62.5411 193.533 62.5149 193.405 62.4772C193.279 62.4369 193.144 62.4062 192.999 62.3851C192.652 62.3346 192.328 62.3617 192.024 62.4661C191.725 62.568 191.469 62.7331 191.257 62.9612C191.048 63.1869 190.909 63.4591 190.84 63.7777L189.868 68.2442L188.773 68.085ZM196.071 69.2982C195.478 69.2119 194.986 68.9871 194.596 68.6239C194.208 68.2576 193.944 67.7831 193.806 67.2005C193.669 66.6148 193.682 65.9482 193.844 65.2008C194.006 64.4594 194.274 63.8347 194.65 63.3268C195.025 62.8188 195.474 62.4495 195.995 62.2188C196.518 61.9883 197.079 61.9166 197.678 62.0037C198.142 62.0712 198.491 62.2011 198.726 62.3933C198.966 62.583 199.136 62.7847 199.236 62.9984C199.34 63.2094 199.419 63.3821 199.473 63.5163L199.565 63.5297L200.321 60.0558L201.416 60.215L199.367 69.6259L198.31 69.4722L198.546 68.3877L198.416 68.3689C198.308 68.4858 198.158 68.6315 197.967 68.806C197.776 68.9774 197.527 69.1197 197.219 69.2328C196.911 69.343 196.529 69.3647 196.071 69.2982ZM196.431 68.3455C196.87 68.4095 197.266 68.3501 197.618 68.1674C197.971 67.9817 198.27 67.6982 198.516 67.3167C198.762 66.9321 198.943 66.4734 199.059 65.9403C199.174 65.4135 199.197 64.9411 199.128 64.5234C199.061 64.1027 198.9 63.7601 198.644 63.4954C198.391 63.2278 198.041 63.0615 197.595 62.9968C197.132 62.9293 196.72 62.9912 196.359 63.182C196.003 63.3704 195.704 63.6539 195.462 64.0328C195.224 64.409 195.051 64.8453 194.943 65.3415C194.833 65.844 194.811 66.3116 194.876 66.7445C194.945 67.175 195.106 67.5334 195.359 67.82C195.616 68.1038 195.974 68.2791 196.431 68.3455Z" fill="white"/>
<path d="M89.5234 35.9639L104.82 38.1888L98.8888 65.4314L83.5925 63.2065L89.5234 35.9639Z" fill="#FF5F00"/>
<path d="M87.5282 49.7265C88.7333 44.1914 92.4242 39.6632 97.1461 37.0727C94.6872 34.3316 91.2521 32.392 87.1731 31.7987C77.5094 30.393 68.0044 37.005 65.9191 46.5834C63.8338 56.1615 69.9648 65.048 79.6283 66.4536C83.7072 67.0469 87.7501 66.195 91.2152 64.3154C87.866 60.6006 86.3232 55.2616 87.5282 49.7265Z" fill="#EB001B"/>
<path d="M122.493 54.8124C120.408 64.3905 110.903 71.0026 101.239 69.597C97.1604 69.0037 93.7252 67.0641 91.2661 64.3228C96.0367 61.7395 99.6793 57.2043 100.884 51.6692C102.089 46.1341 100.536 40.8431 97.1971 37.0801C100.662 35.2006 104.705 34.3487 108.784 34.942C118.448 36.3476 124.568 45.2822 122.493 54.8124Z" fill="#F79E1B"/>
<path d="M423.627 80.7376L400.418 77.3617C394.41 76.4878 388.488 80.6072 387.191 86.5627L384.531 98.7839C383.234 104.739 387.054 110.276 393.062 111.15L416.271 114.526C422.28 115.399 428.202 111.28 429.498 105.325L432.159 93.1034C433.455 87.1479 429.636 81.6115 423.627 80.7376Z" fill="url(#paint1_linear_3436_3641)" stroke="#666666" stroke-width="2"/>
<path fill-rule="evenodd" clip-rule="evenodd" d="M417.023 87.0128C416.123 83.6265 414.171 80.7862 412.742 79.5796C412.647 79.5013 412.591 79.387 412.585 79.2618C412.578 79.1366 412.624 79.0107 412.71 78.9119C412.796 78.8131 412.916 78.7493 413.045 78.7348C413.173 78.7202 413.297 78.7558 413.393 78.8341C415.267 80.4008 417.137 83.6422 417.95 86.6936C417.972 86.753 417.981 86.8176 417.975 86.8826C417.969 86.9477 417.949 87.0117 417.916 87.07C417.883 87.1284 417.837 87.1797 417.783 87.2206C417.729 87.2613 417.667 87.2905 417.602 87.3059C417.53 87.331 417.455 87.3388 417.383 87.3286C417.296 87.3161 417.217 87.28 417.153 87.2241C417.09 87.1684 417.045 87.0953 417.023 87.0128ZM399.375 100.024C398.453 104.404 401.449 110.22 403.928 112.319C403.976 112.356 404.016 112.403 404.044 112.457C404.072 112.511 404.088 112.57 404.09 112.632C404.093 112.694 404.082 112.757 404.058 112.816C404.035 112.876 403.999 112.93 403.953 112.977C403.897 113.04 403.825 113.089 403.746 113.119C403.667 113.149 403.583 113.159 403.502 113.147C403.419 113.136 403.343 113.101 403.282 113.047C400.634 110.823 397.615 105.008 398.366 100.304L384.376 98.2696C384.263 98.2414 384.167 98.172 384.108 98.0748C384.048 97.9775 384.029 97.8596 384.055 97.7437C384.08 97.6278 384.147 97.5223 384.244 97.4478C384.341 97.3734 384.46 97.3352 384.579 97.3409L398.656 99.3886C400.208 96.4388 400.919 93.1765 400.707 89.9701L386.629 87.9225C386.506 87.9045 386.398 87.8387 386.33 87.7394C386.262 87.64 386.239 87.5154 386.265 87.3928C386.292 87.2703 386.366 87.1598 386.472 87.0858C386.578 87.0118 386.707 86.9803 386.83 86.9983L400.819 89.0331C402.104 84.3889 407.406 79.8022 410.812 78.4588C410.934 78.412 411.067 78.4138 411.181 78.4637C411.295 78.5134 411.381 78.6072 411.419 78.7242C411.459 78.8413 411.448 78.9721 411.39 79.088C411.331 79.2037 411.229 79.295 411.108 79.3418C407.899 80.5914 402.632 85.2102 401.647 89.5848C401.918 93.1389 401.129 96.7647 399.375 100.024ZM430.068 103.958L415.964 101.906C415.753 98.6997 416.463 95.4375 418.015 92.4877L432.119 94.5391C432.242 94.5571 432.371 94.5256 432.477 94.4516C432.583 94.3776 432.657 94.2671 432.683 94.1446C432.71 94.022 432.687 93.8974 432.619 93.7981C432.551 93.6987 432.443 93.6329 432.32 93.6149L417.858 91.5113C417.757 91.4978 417.652 91.5173 417.559 91.5669C417.466 91.6164 417.39 91.6933 417.342 91.786C415.567 95.0681 414.772 98.7236 415.052 102.305C414.069 106.675 408.802 111.289 405.589 112.561C405.527 112.58 405.469 112.611 405.418 112.653C405.368 112.695 405.326 112.746 405.295 112.803C405.265 112.861 405.248 112.923 405.243 112.986C405.239 113.049 405.248 113.111 405.271 113.168C405.297 113.244 405.343 113.31 405.405 113.36C405.466 113.41 405.541 113.443 405.622 113.456C405.705 113.468 405.791 113.457 405.871 113.424C409.272 112.102 414.583 107.476 415.864 102.85L429.866 104.886C429.984 104.892 430.104 104.854 430.201 104.779C430.298 104.705 430.365 104.599 430.39 104.483C430.415 104.368 430.397 104.25 430.337 104.152C430.277 104.055 430.182 103.986 430.068 103.958ZM411.092 81.0997C411.248 81.0287 411.419 81.0035 411.584 81.0275C411.804 81.0596 411.997 81.1774 412.119 81.3553C412.24 81.533 412.282 81.7562 412.234 81.9757C412.199 82.1393 412.115 82.2922 411.994 82.415C411.873 82.5377 411.72 82.6249 411.555 82.6655C411.39 82.7061 411.219 82.6981 411.065 82.6427C410.911 82.5874 410.78 82.4871 410.689 82.3545C410.598 82.2219 410.551 82.0629 410.553 81.8977C410.556 81.7326 410.609 81.5687 410.705 81.4266C410.801 81.2845 410.935 81.1708 411.092 81.0997Z" fill="#666666"/>
</g>
<defs>
<linearGradient id="paint0_linear_3436_3641" x1="-23.999" y1="-53.1689" x2="548.692" y2="485.563" gradientUnits="userSpaceOnUse">
<stop stop-color="#272727"/>
<stop offset="0.719114" stop-color="#696160" stop-opacity="0.5"/>
<stop offset="1" stop-color="#C4C4C4" stop-opacity="0.56"/>
</linearGradient>
<linearGradient id="paint1_linear_3436_3641" x1="384.55" y1="74.3119" x2="430.565" y2="118.43" gradientUnits="userSpaceOnUse">
<stop stop-color="#DDD9D6"/>
<stop offset="0.212761" stop-color="#8A868C"/>
<stop offset="0.548384" stop-color="#F2F3F3" stop-opacity="0.8"/>
<stop offset="0.914316" stop-color="#807C80"/>
<stop offset="1" stop-color="#A6A8AB"/>
</linearGradient>
<clipPath id="clip0_3436_3641">
<rect width="417.027" height="244.999" fill="white" transform="matrix(0.989586 0.14394 -0.212725 0.977112 52.1172 0)"/>
</clipPath>
</defs>
</svg>
