<svg width="110" height="36" viewBox="0 0 110 36" fill="none" xmlns="http://www.w3.org/2000/svg">
<path d="M95.9492 27.4286C103.543 27.4286 109.699 21.2885 109.699 13.7143C109.699 6.1401 103.543 0 95.9492 0C88.3553 0 82.1992 6.1401 82.1992 13.7143C82.1992 21.2885 88.3553 27.4286 95.9492 27.4286Z" fill="#F15C45"/>
<path d="M13.392 35.432C10.872 35.432 8.592 34.832 6.552 33.632C4.512 32.432 2.904 30.776 1.728 28.664C0.576 26.552 0 24.188 0 21.572C0 18.956 0.576 16.592 1.728 14.48C2.904 12.368 4.5 10.724 6.516 9.54805C8.556 8.34805 10.848 7.74805 13.392 7.74805C15.24 7.74805 16.932 8.07205 18.468 8.72005C20.004 9.34405 21.3 10.196 22.356 11.276C23.436 12.332 24.216 13.508 24.696 14.804L20.304 16.856C19.776 15.464 18.9 14.348 17.676 13.508C16.452 12.644 15.024 12.212 13.392 12.212C11.736 12.212 10.26 12.608 8.964 13.4C7.668 14.168 6.66 15.26 5.94 16.676C5.244 18.092 4.896 19.724 4.896 21.572C4.896 23.42 5.244 25.064 5.94 26.504C6.66 27.92 7.668 29.024 8.964 29.816C10.26 30.584 11.736 30.968 13.392 30.968C15.024 30.968 16.452 30.548 17.676 29.708C18.9 28.844 19.776 27.716 20.304 26.324L24.696 28.376C24.216 29.672 23.436 30.86 22.356 31.94C21.3 32.996 20.004 33.848 18.468 34.496C16.932 35.12 15.24 35.432 13.392 35.432Z" fill="white"/>
<path d="M35.7269 8.18005H42.0629L51.3149 35H45.9869L44.0789 29.24H33.7109L31.7669 35H26.4749L35.7269 8.18005ZM42.6749 24.92L38.8949 13.616L35.1149 24.92H42.6749Z" fill="white"/>
<path d="M54.2998 8.18005H64.2718C66.0958 8.18005 67.7158 8.51605 69.1318 9.18805C70.5478 9.83605 71.6398 10.796 72.4078 12.068C73.1998 13.34 73.5958 14.864 73.5958 16.64C73.5958 18.464 73.1638 20.036 72.2998 21.356C71.4358 22.652 70.2478 23.612 68.7358 24.236L74.8918 35H69.3478L63.8038 25.1H59.1958V35H54.2998V8.18005ZM64.3438 20.78C65.6638 20.78 66.7198 20.408 67.5118 19.664C68.3038 18.896 68.6998 17.888 68.6998 16.64C68.6998 15.392 68.3038 14.396 67.5118 13.652C66.7198 12.884 65.6638 12.5 64.3438 12.5H59.1958V20.78H64.3438Z" fill="white"/>
<path d="M78.1006 8.18005H86.8486C89.6566 8.18005 92.1166 8.74405 94.2286 9.87205C96.3406 11 97.9726 12.584 99.1246 14.624C100.277 16.64 100.853 18.956 100.853 21.572C100.853 24.164 100.277 26.48 99.1246 28.52C97.9726 30.56 96.3286 32.156 94.1926 33.308C92.0806 34.436 89.6326 35 86.8486 35H78.1006V8.18005ZM86.9566 30.68C88.7566 30.68 90.3286 30.308 91.6726 29.564C93.0406 28.82 94.0846 27.764 94.8046 26.396C95.5486 25.004 95.9206 23.396 95.9206 21.572C95.9206 19.748 95.5486 18.152 94.8046 16.784C94.0846 15.416 93.0406 14.36 91.6726 13.616C90.3286 12.872 88.7566 12.5 86.9566 12.5H82.9966V30.68H86.9566Z" fill="white"/>
</svg>
