<svg width="144" height="144" viewBox="0 0 144 144" fill="none" xmlns="http://www.w3.org/2000/svg">
<circle cx="72" cy="72" r="72" fill="url(#paint0_angular_3454_1444)"/>
<path d="M53.1159 117.373C54.2091 117.842 55.0865 118.526 55.7482 119.426C56.4099 120.327 56.7994 121.344 56.9167 122.479C57.0235 123.609 56.8337 124.742 56.347 125.877C55.8604 127.012 55.1708 127.93 54.2781 128.632C53.3751 129.329 52.377 129.746 51.2837 129.881C50.1755 130.022 49.0696 129.856 47.9661 129.382C47.1644 129.039 46.4907 128.583 45.9449 128.017C45.3947 127.46 44.991 126.849 44.7338 126.185C44.4617 125.526 44.3421 124.87 44.375 124.219L46.662 124.146C46.6321 124.848 46.8045 125.495 47.1792 126.087C47.5494 126.689 48.0885 127.142 48.7965 127.446C49.5148 127.754 50.2288 127.857 50.9383 127.754C51.6434 127.662 52.2838 127.376 52.8595 126.896C53.4248 126.411 53.8794 125.768 54.2232 124.966C54.5669 124.164 54.7218 123.387 54.6877 122.632C54.6388 121.884 54.4069 121.218 53.992 120.633C53.5727 120.059 53.0039 119.618 52.2855 119.31C51.5775 119.006 50.88 118.923 50.1927 119.059C49.501 119.206 48.9112 119.533 48.4232 120.038L46.8997 118.331C47.349 117.858 47.9084 117.488 48.5778 117.221C49.2323 116.959 49.953 116.83 50.7398 116.835C51.5222 116.85 52.3142 117.029 53.1159 117.373Z" fill="#272727"/>
<path d="M38.8756 107.779C39.7562 108.644 40.3576 109.632 40.6796 110.743C40.9937 111.862 41.0074 112.979 40.7207 114.095C40.434 115.211 39.8619 116.205 39.0043 117.078C38.1467 117.95 37.1626 118.539 36.0518 118.845C34.941 119.151 33.8276 119.153 32.7115 118.85C31.5954 118.548 30.5971 117.964 29.7164 117.098C28.8358 116.233 28.2345 115.244 27.9124 114.134C27.5904 113.023 27.5727 111.91 27.8594 110.794C28.1381 109.67 28.7062 108.672 29.5637 107.799C30.4213 106.927 31.4095 106.341 32.5284 106.043C33.6391 105.737 34.7565 105.732 35.8806 106.026C36.9966 106.329 37.995 106.913 38.8756 107.779ZM37.3561 115.458C37.9437 114.86 38.3424 114.188 38.5522 113.441C38.762 112.694 38.7717 111.957 38.5811 111.23C38.3745 110.502 37.9804 109.853 37.3987 109.281C36.817 108.71 36.1649 108.331 35.4423 108.145C34.7038 107.959 33.963 107.977 33.2199 108.2C32.4769 108.423 31.8116 108.833 31.224 109.431C30.6364 110.029 30.2417 110.697 30.0398 111.436C29.83 112.183 29.8284 112.92 30.035 113.647C30.2255 114.374 30.6116 115.024 31.1933 115.595C31.775 116.167 32.4352 116.546 33.1737 116.732C33.8963 116.918 34.6291 116.899 35.3721 116.676C36.1072 116.462 36.7686 116.056 37.3561 115.458Z" fill="#272727"/>
<path d="M19.5356 103.782L18.5 101.716L27.9939 96.9572L25.5648 92.1115L27.3876 91.1978L30.8523 98.1093L19.5356 103.782Z" fill="#272727"/>
<path d="M13.351 88.5762L12.9046 86.3089L23.3245 84.2573L22.2773 78.9389L24.278 78.545L25.7715 86.1307L13.351 88.5762Z" fill="#272727"/>
<path d="M11.4286 72.1807L12.1369 63.7995L14.1687 63.9712L13.655 70.0497L16.8889 70.323L17.374 64.5832L19.4058 64.7549L18.9207 70.4947L22.2055 70.7723L22.7191 64.6938L24.7509 64.8655L24.0426 73.2467L11.4286 72.1807Z" fill="#272727"/>
<path d="M28.4343 54.19C27.9654 55.2831 27.2808 56.1604 26.3807 56.822C25.4806 57.4836 24.463 57.8729 23.3281 57.99C22.1976 58.0967 21.065 57.9066 19.9302 57.4198C18.7955 56.933 17.8773 56.2433 17.1755 55.3505C16.4782 54.4474 16.0621 53.4492 15.9272 52.3559C15.7862 51.2477 15.9525 50.1418 16.4259 49.0383C16.7698 48.2367 17.2252 47.5631 17.7921 47.0174C18.3486 46.4673 18.9593 46.0636 19.6243 45.8066C20.2834 45.5346 20.9386 45.4151 21.5901 45.4481L21.6629 47.735C20.9608 47.705 20.3137 47.8773 19.7216 48.2519C19.1191 48.6221 18.6659 49.1611 18.3622 49.869C18.0541 50.5873 17.9512 51.3013 18.0536 52.0108C18.1455 52.7159 18.4316 53.3563 18.9119 53.9322C19.3966 54.4976 20.0397 54.9522 20.8413 55.2961C21.6429 55.64 22.4208 55.795 23.1749 55.761C23.9231 55.7122 24.5896 55.4804 25.1743 55.0656C25.7486 54.6464 26.1898 54.0776 26.498 53.3593C26.8017 52.6514 26.8852 51.9538 26.7486 51.2666C26.6016 50.5748 26.2754 49.985 25.7698 49.4969L27.4772 47.9736C27.95 48.423 28.3202 48.9824 28.5877 49.6519C28.8492 50.3064 28.9776 51.0271 28.9729 51.814C28.9577 52.5964 28.7782 53.3884 28.4343 54.19Z" fill="#272727"/>
<path d="M27.285 35.6885L25.1281 38.1588L23.5921 36.8178L29.4034 30.1619L30.9394 31.503L28.816 33.9349L36.8159 40.9196L35.2849 42.6732L27.285 35.6885Z" fill="#272727"/>
<path d="M65.4333 20.0976L60.4767 13.5137L63.097 13.2472L66.3456 17.6479L68.6417 12.6833L71.262 12.4168L67.7475 19.8452L68.3166 25.4407L66.0006 25.6762L65.4333 20.0976Z" fill="#272727"/>
<path d="M84.2056 26.9659C83.0102 26.6564 81.9956 26.1011 81.1616 25.3001C80.3304 24.4881 79.7601 23.5271 79.4507 22.4173C79.1413 21.3074 79.14 20.1603 79.4466 18.976C79.7533 17.7916 80.3112 16.7893 81.1204 15.9691C81.9296 15.1489 82.8932 14.591 84.0111 14.2954C85.1291 13.9998 86.2858 14.0068 87.4811 14.3163C88.6764 14.6258 89.6911 15.1811 90.5251 15.9822C91.3591 16.7832 91.9308 17.7387 92.2402 18.8485C92.5606 19.9612 92.5674 21.1097 92.2607 22.2941C91.9541 23.4784 91.3906 24.4793 90.5705 25.2967C89.7613 26.1169 88.7963 26.6803 87.6755 26.9868C86.5575 27.2824 85.4009 27.2754 84.2056 26.9659ZM81.6838 19.5552C81.4736 20.3667 81.4643 21.1483 81.6558 21.9C81.8473 22.6517 82.2073 23.2949 82.7359 23.8296C83.2782 24.3562 83.9442 24.7217 84.7337 24.9262C85.5233 25.1306 86.2775 25.1329 86.9963 24.9328C87.7289 24.7247 88.3613 24.3385 88.8936 23.7742C89.4258 23.2099 89.797 22.522 90.0072 21.7105C90.2173 20.899 90.2252 20.1229 90.0308 19.3822C89.8393 18.6305 89.4724 17.9914 88.9301 17.4648C88.4016 16.9301 87.7425 16.5605 86.9529 16.356C86.1634 16.1516 85.4023 16.1534 84.6697 16.3616C83.9509 16.5616 83.3254 16.9438 82.7931 17.508C82.2637 18.0613 81.8939 18.7437 81.6838 19.5552Z" fill="#272727"/>
<path d="M99.8729 34.1553C99.0873 33.5985 98.5028 32.9344 98.1194 32.1628C97.736 31.3912 97.575 30.5898 97.6364 29.7587C97.7045 28.9183 97.9972 28.133 98.5146 27.4029L103.221 20.7623L105.106 22.0985L100.469 28.642C100.004 29.2982 99.8272 29.9784 99.9391 30.6825C100.06 31.3932 100.444 31.9777 101.091 32.4362C101.738 32.8948 102.412 33.0602 103.114 32.9325C103.824 32.8113 104.412 32.4227 104.877 31.7665L109.515 25.223L111.4 26.5592L106.694 33.1997C106.177 33.9299 105.533 34.4662 104.762 34.8088C103.998 35.1422 103.189 35.2558 102.334 35.1496C101.479 35.0435 100.659 34.7121 99.8729 34.1553Z" fill="#272727"/>
<path d="M118.929 34.0307L121.683 37.8481C122.186 38.5463 122.505 39.2593 122.639 39.9869C122.782 40.7079 122.716 41.391 122.441 42.0362C122.172 42.6906 121.698 43.263 121.018 43.7533C120.32 44.2569 119.599 44.5256 118.855 44.5593C118.121 44.5864 117.425 44.3967 116.769 43.9902L114.348 49.3188L112.817 47.1965L115.076 42.3407L113.804 40.5767L110.014 43.3101L108.662 41.4359L118.929 34.0307ZM116.879 41.3546C117.244 41.8599 117.677 42.1615 118.181 42.2592C118.694 42.3504 119.189 42.2236 119.667 41.8791C120.144 41.5345 120.416 41.1079 120.482 40.5993C120.558 40.084 120.413 39.5738 120.049 39.0684L118.627 37.0977L115.458 39.3839L116.879 41.3546Z" fill="#272727"/>
<path d="M119.573 81.8806C119.773 80.7081 120.233 79.695 120.954 78.8411C121.674 77.9873 122.572 77.3706 123.648 76.9912C124.723 76.623 125.868 76.5427 127.085 76.7505C128.302 76.9582 129.357 77.414 130.248 78.1177C131.137 78.8326 131.775 79.7057 132.162 80.7371C132.559 81.7816 132.656 82.8956 132.454 84.0793C132.307 84.9391 132.022 85.7006 131.598 86.3638C131.186 87.0289 130.687 87.5642 130.1 87.9697C129.523 88.3884 128.914 88.6579 128.273 88.7783L127.667 86.5719C128.357 86.4367 128.945 86.1178 129.433 85.615C129.933 85.1142 130.247 84.4841 130.377 83.7247C130.508 82.9543 130.441 82.2361 130.176 81.5702C129.921 80.9062 129.493 80.3505 128.892 79.903C128.288 79.4667 127.556 79.1752 126.697 79.0284C125.837 78.8817 125.044 78.913 124.319 79.1225C123.603 79.345 123.009 79.7263 122.538 80.2664C122.077 80.8084 121.782 81.4646 121.65 82.2351C121.52 82.9944 121.602 83.6922 121.896 84.3284C122.201 84.9665 122.656 85.4637 123.262 85.8199L121.958 87.7004C121.393 87.3741 120.903 86.9169 120.486 86.3286C120.078 85.7534 119.785 85.0828 119.605 84.3166C119.437 83.5524 119.426 82.7404 119.573 81.8806Z" fill="#272727"/>
<path d="M126.182 101.836L124.708 104.438L111.541 101.999L112.78 99.8105L115.59 100.367L118.001 96.1087L116.088 93.9704L117.319 91.797L126.182 101.836ZM117.69 100.795L123.212 101.872L119.449 97.6902L117.69 100.795Z" fill="#272727"/>
<path d="M116.277 115.79L112.758 118.915C112.114 119.486 111.437 119.875 110.726 120.082C110.023 120.297 109.337 120.3 108.667 120.092C107.989 119.891 107.372 119.477 106.815 118.85C106.244 118.207 105.904 117.516 105.795 116.78C105.694 116.052 105.812 115.34 106.15 114.646L100.604 112.776L102.561 111.039L107.62 112.796L109.247 111.352L106.145 107.858L107.873 106.323L116.277 115.79ZM108.784 114.49C108.318 114.904 108.062 115.366 108.015 115.877C107.976 116.396 108.152 116.876 108.544 117.316C108.935 117.757 109.386 117.984 109.899 117.999C110.419 118.021 110.912 117.826 111.378 117.412L113.195 115.799L110.601 112.877L108.784 114.49Z" fill="#272727"/>
<path d="M100.609 127.554L96.8001 129.149C95.5776 129.661 94.4038 129.864 93.2787 129.758C92.1535 129.652 91.1542 129.26 90.2806 128.582C89.4115 127.914 88.7384 127.011 88.2614 125.872C87.7887 124.744 87.6171 123.631 87.7467 122.532C87.8762 121.434 88.3009 120.44 89.0207 119.549C89.7345 118.672 90.6974 117.98 91.9094 117.473L95.7179 115.878L100.609 127.554ZM92.6501 119.373C91.8665 119.701 91.25 120.15 90.8005 120.719C90.3406 121.292 90.0787 121.942 90.0147 122.669C89.9446 123.411 90.0759 124.179 90.4085 124.973C90.7411 125.767 91.1941 126.394 91.7675 126.854C92.3304 127.318 92.9775 127.588 93.7087 127.662C94.4295 127.741 95.1817 127.616 95.9653 127.288L97.6893 126.566L94.3741 118.651L92.6501 119.373Z" fill="#272727"/>
<circle cx="47" cy="25" r="4" fill="#272727"/>
<circle cx="125" cy="61" r="4" fill="#272727"/>
<circle cx="72" cy="128" r="4" fill="#272727"/>
<path d="M72 48L77.0912 66.9088L96 72L77.0912 77.0912L72 96L66.9088 77.0912L48 72L66.9088 66.9088L72 48Z" fill="#272727"/>
<defs>
<radialGradient id="paint0_angular_3454_1444" cx="0" cy="0" r="1" gradientUnits="userSpaceOnUse" gradientTransform="translate(72 72) rotate(90) scale(72)">
<stop offset="0.0353832" stop-color="#BCADAD"/>
<stop offset="0.19867" stop-color="white"/>
<stop offset="0.376874" stop-color="#BCADAD"/>
<stop offset="0.538785" stop-color="white"/>
<stop offset="0.694236" stop-color="#BCADAD"/>
<stop offset="0.854875" stop-color="white"/>
</radialGradient>
</defs>
</svg>
